<?xml version="1.0" encoding="UTF-8" standalone="no"?>
<!-- Generator: Adobe Illustrator 19.0.0, SVG Export Plug-In . SVG Version: 6.00 Build 0)  -->

<svg
   xmlns:dc="http://purl.org/dc/elements/1.1/"
   xmlns:cc="http://creativecommons.org/ns#"
   xmlns:rdf="http://www.w3.org/1999/02/22-rdf-syntax-ns#"
   xmlns:svg="http://www.w3.org/2000/svg"
   xmlns="http://www.w3.org/2000/svg"
   xmlns:sodipodi="http://sodipodi.sourceforge.net/DTD/sodipodi-0.dtd"
   xmlns:inkscape="http://www.inkscape.org/namespaces/inkscape"
   version="1.1"
   id="Capa_1"
   x="0px"
   y="0px"
   viewBox="0 0 67.484558 61.134552"
   xml:space="preserve"
   inkscape:version="0.91 r"
   sodipodi:docname="camera.svg"
   width="67.484558"
   height="61.134552"><metadata
     id="metadata49"><rdf:RDF><cc:Work
         rdf:about=""><dc:format>image/svg+xml</dc:format><dc:type
           rdf:resource="http://purl.org/dc/dcmitype/StillImage" /><dc:title /></cc:Work></rdf:RDF></metadata><defs
     id="defs47" /><sodipodi:namedview
     pagecolor="#ffffff"
     bordercolor="#666666"
     borderopacity="1"
     objecttolerance="10"
     gridtolerance="10"
     guidetolerance="10"
     inkscape:pageopacity="0"
     inkscape:pageshadow="2"
     inkscape:window-width="1678"
     inkscape:window-height="1031"
     id="namedview45"
     showgrid="false"
     fit-margin-top="0"
     fit-margin-left="0"
     fit-margin-right="0"
     fit-margin-bottom="0"
     inkscape:zoom="4.4528303"
     inkscape:cx="118.461"
     inkscape:cy="1.1782114"
     inkscape:window-x="0"
     inkscape:window-y="18"
     inkscape:window-maximized="0"
     inkscape:current-layer="g4215" /><g
     id="g4177"
     transform="matrix(1.353802,0,0,1.353802,0,-7.2499528)"><g
       id="g4215"><line
         style="fill:#6b3c41;fill-opacity:1;stroke:#6b3c41;stroke-width:1.80144727;stroke-linecap:round;stroke-miterlimit:10;stroke-opacity:1"
         x1="19.188278"
         y1="34.741638"
         x2="12.504009"
         y2="49.153214"
         id="line3" /><line
         style="fill:#6b3c41;fill-opacity:1;stroke:#6b3c41;stroke-width:1.80144727;stroke-linecap:round;stroke-miterlimit:10;stroke-opacity:1"
         x1="19.188278"
         y1="34.741638"
         x2="25.872549"
         y2="49.153214"
         id="line5" /><path
         inkscape:connector-curvature="0"
         style="fill:#e9afaf;stroke:#6b3c41;stroke-width:1.76849174;stroke-miterlimit:4;stroke-dasharray:none;stroke-opacity:1"
         d="M 46.109106,32.87534 34.841955,22.10809 c -0.626904,-0.633209 -0.611592,-1.663638 0.03423,-2.27703 L 46.143334,9.4313052 c 1.003406,-0.9529655 2.649928,-0.2350888 2.649928,1.1556288 l 0,10.364626 0,10.802379 c 0,1.413235 -1.69336,2.120303 -2.684156,1.121401 z"
         id="path7" /><path
         inkscape:connector-curvature="0"
         style="fill:#363e4b;stroke:#6b3c41;stroke-width:1.76849174;stroke-miterlimit:4;stroke-dasharray:none;stroke-opacity:1"
         d="m 32.424412,34.741639 -27.9548578,0 c -1.8861152,0 -3.4146431,-1.528528 -3.4146431,-3.414644 l 0,-20.955335 c 0,-1.9536688 1.5987843,-3.5524532 3.5524538,-3.5524532 l 28.0233131,0 c 1.961777,0 3.552454,1.5906778 3.552454,3.5524532 l 0,20.611259 c 0,2.067161 -1.691559,3.75872 -3.75872,3.75872 z"
         id="path9" /><circle
         style="fill:#ffccaa;fill-opacity:1"
         cx="11.413233"
         cy="17.177528"
         id="circle11"
         r="4.9539795" /><line
         style="fill:#ebf6f9;fill-opacity:1;stroke:#ebf6f9;stroke-width:1.80144727;stroke-linecap:round;stroke-miterlimit:10;stroke-opacity:1"
         x1="12.764318"
         y1="17.62789"
         x2="17.267937"
         y2="22.131508"
         id="line13" /></g></g><g
     id="g15"
     transform="translate(0,10.621622)" /><g
     id="g17"
     transform="translate(0,10.621622)" /><g
     id="g19"
     transform="translate(0,10.621622)" /><g
     id="g21"
     transform="translate(0,10.621622)" /><g
     id="g23"
     transform="translate(0,10.621622)" /><g
     id="g25"
     transform="translate(0,10.621622)" /><g
     id="g27"
     transform="translate(0,10.621622)" /><g
     id="g29"
     transform="translate(0,10.621622)" /><g
     id="g31"
     transform="translate(0,10.621622)" /><g
     id="g33"
     transform="translate(0,10.621622)" /><g
     id="g35"
     transform="translate(0,10.621622)" /><g
     id="g37"
     transform="translate(0,10.621622)" /><g
     id="g39"
     transform="translate(0,10.621622)" /><g
     id="g41"
     transform="translate(0,10.621622)" /><g
     id="g43"
     transform="translate(0,10.621622)" /></svg>