<?xml version="1.0" encoding="UTF-8" standalone="no"?>
<!-- Generator: Adobe Illustrator 19.0.0, SVG Export Plug-In . SVG Version: 6.00 Build 0)  -->

<svg
   xmlns:dc="http://purl.org/dc/elements/1.1/"
   xmlns:cc="http://creativecommons.org/ns#"
   xmlns:rdf="http://www.w3.org/1999/02/22-rdf-syntax-ns#"
   xmlns:svg="http://www.w3.org/2000/svg"
   xmlns="http://www.w3.org/2000/svg"
   xmlns:sodipodi="http://sodipodi.sourceforge.net/DTD/sodipodi-0.dtd"
   xmlns:inkscape="http://www.inkscape.org/namespaces/inkscape"
   version="1.1"
   id="Capa_1"
   x="0px"
   y="0px"
   viewBox="0 0 63.869305 65"
   xml:space="preserve"
   inkscape:version="0.91 r"
   sodipodi:docname="cupcake.svg"
   width="63.869305"
   height="64.999992"><metadata
     id="metadata75"><rdf:RDF><cc:Work
         rdf:about=""><dc:format>image/svg+xml</dc:format><dc:type
           rdf:resource="http://purl.org/dc/dcmitype/StillImage" /><dc:title></dc:title></cc:Work></rdf:RDF></metadata><defs
     id="defs73" /><sodipodi:namedview
     pagecolor="#ffffff"
     bordercolor="#666666"
     borderopacity="1"
     objecttolerance="10"
     gridtolerance="10"
     guidetolerance="10"
     inkscape:pageopacity="0"
     inkscape:pageshadow="2"
     inkscape:window-width="1678"
     inkscape:window-height="1031"
     id="namedview71"
     showgrid="false"
     fit-margin-top="0"
     fit-margin-left="0"
     fit-margin-right="0"
     fit-margin-bottom="0"
     inkscape:zoom="5.754386"
     inkscape:cx="-8.0076706"
     inkscape:cy="43.356087"
     inkscape:window-x="0"
     inkscape:window-y="18"
     inkscape:window-maximized="0"
     inkscape:current-layer="g4203" /><g
     id="g3"
     transform="translate(-4.0359776,-398.99999)"><g
       id="g4203"
       transform="matrix(0.05054116,0,0,0.05054116,3.831991,440.54889)"><path
         style="fill:#d2504b;fill-opacity:1;stroke:#6b3c41;stroke-width:30.02473259;stroke-linejoin:round;stroke-miterlimit:4;stroke-dasharray:none;stroke-opacity:1"
         d="m 259.19678,-796.83862 c -12.94482,-0.51696 -23.67755,10.0845 -23.67755,22.89708 0,12.41561 10.08433,22.30048 22.6306,22.81745 137.43984,5.68652 214.93855,62.23684 244.99007,89.99553 -18.19842,19.57015 -30.70405,44.40942 -34.95255,71.91676 -1.05131,6.80901 -1.61071,13.76873 -1.61071,20.86622 0,7.09747 0.5594,14.06004 1.61071,20.86622 2.18055,14.11211 6.54108,27.51095 12.72467,39.86083 23.0448,-0.42271 45.98644,-1.13272 68.21387,-2.34944 90.34518,-4.94962 168.90113,-18.5832 194.69545,-58.37761 0,-72.64556 -57.11861,-132.04422 -129.38086,-136.74539 -0.16753,-0.0118 -0.35596,-0.0286 -0.5235,-0.0398 -2.8795,-0.1914 -5.76635,-0.31855 -8.69786,-0.31855 -7.17713,0 -14.25523,0.55319 -21.14067,1.59283 -15.71168,2.37342 -30.5422,7.36595 -44.05311,14.49486 -32.34472,-31.43742 -121.44143,-101.1021 -280.82856,-107.47699 z"
         id="path5"
         inkscape:connector-curvature="0" /><path
         inkscape:connector-curvature="0"
         id="path7"
         d="m 625.72796,-677.20115 c 2.66562,0 5.31023,0.0961 7.92858,0.27012 -2.62361,-0.161 -5.26296,-0.27012 -7.92858,-0.27012 z"
         style="fill:#d2504b" /><path
         inkscape:connector-curvature="0"
         id="path13"
         d="m 244.47005,-459.73686 c 0,31.50784 56.65569,57.43452 140.67672,79.21628 -3.36684,-7.60686 -1.91978,-16.79535 4.3753,-23.02055 l 0,0 c 8.20434,-8.1133 21.50622,-8.1133 29.71317,0 l 40.45184,40.00289 c 90.95692,18.43408 198.99744,33.55433 299.86838,46.55013 l 0.93493,-0.92454 c 8.20434,-8.11331 21.50884,-8.11331 29.71318,0 1.62302,1.60498 2.91248,3.41255 3.8921,5.33441 92.14394,11.6661 175.62658,21.60774 230.81943,30.78583 l 0,-0.65188 c 84.0394,-135.04839 -183.83617,-256.24653 -273.12803,-270.09678 -23.45488,36.18518 -94.9015,48.60184 -177.05266,53.10257 -20.2141,1.10898 -41.07164,1.73746 -62.02634,2.12182 -116.27377,2.1348 -235.39175,-3.21259 -262.50496,24.27237 1.00321,-0.41294 2.00908,-0.79731 3.01754,-1.15571 l -8.7506,14.46316 z m 576.49982,-3.61254 c 8.20435,-8.11329 21.50884,-8.11329 29.71319,0 l 44.56977,44.07512 c 8.20434,8.1133 8.20434,21.26752 0,29.38342 -8.20435,8.11328 -21.50883,8.11328 -29.71319,0 L 820.96987,-433.966 c -8.20435,-8.11329 -8.20435,-21.27011 0,-29.3834 z m -177.83789,18.2575 c 8.20436,8.1133 8.20436,21.26753 0,29.38342 l -44.56976,44.07511 c -8.20435,8.11331 -21.50884,8.11331 -29.71319,0 -8.20435,-8.11328 -8.20435,-21.27011 0,-29.38341 l 44.56977,-44.07512 c 8.20697,-8.11588 21.50883,-8.11588 29.71318,0 z"
         style="fill:#ffc8aa" /><path
         inkscape:connector-curvature="0"
         id="path15"
         d="m 583.70824,-95.454182 c 0,0 -147.10573,-44.636108 -263.91262,-94.001478 l -6.14013,6.07198 c -8.20434,8.11329 -21.50882,8.11329 -29.71317,0 l 0,0 c -6.49467,-6.42259 -7.82618,-15.99284 -4.04178,-23.73216 -35.96099,-16.7564 -66.16003,-33.51538 -83.8582,-48.76285 -22.19429,16.98753 -96.847536,45.30094 -96.847536,158.554602 l 5.016106,1.869906 185.3594,0 294.13793,0 z"
         style="fill:#ff82a0" /><path
         inkscape:connector-curvature="0"
         id="path17"
         d="m 283.94493,-212.76969 44.56977,-44.07254 c 8.20435,-8.1133 21.50883,-8.1133 29.71319,0 8.20434,8.11331 8.20434,21.26755 0,29.38343 l -38.42964,38.00314 c 116.80426,49.36537 263.90999,94.001478 263.90999,94.001478 l 609.28566,0 c 0,-53.796018 32.0689,-149.101218 -149.5245,-183.078888 -5.7566,-1.07779 -11.9572,-2.16337 -18.5543,-3.26194 -55.19547,-9.17809 -138.67549,-19.11974 -230.81943,-30.78584 3.97874,7.79125 2.68925,17.5407 -3.8921,24.049 l -44.56977,44.07513 c -8.20435,8.11329 -21.50883,8.11329 -29.71319,0 -8.20433,-8.1133 -8.20433,-21.26752 0,-29.38343 l 43.63485,-43.15054 C 658.6819,-329.98651 550.644,-345.10673 459.68708,-363.54084 l 4.11795,4.07222 c 8.20433,8.11331 8.20433,21.27013 0,29.38342 -8.20434,8.1133 -21.50885,8.1133 -29.71317,0 l -44.56979,-44.07511 c -1.90927,-1.88809 -3.35371,-4.05666 -4.3753,-6.36287 -84.02103,-21.78175 -140.67672,-47.70844 -140.67672,-79.21627 l 8.75322,-14.46316 c -1.00846,0.35578 -2.01168,0.74276 -3.01753,1.15569 -63.51279,26.09291 -119.0602,161.24261 -54.16077,217.16302 17.69818,15.25009 47.89721,32.00648 83.8582,48.76286 0.99795,-2.03611 2.32946,-3.95536 4.04176,-5.64865 z m 677.94065,34.2088 -63.02956,0 c -11.60268,0 -21.00984,-9.30276 -21.00984,-20.77668 0,-11.47392 9.40716,-20.77668 21.00984,-20.77668 l 63.02956,0 c 11.60267,0 21.00986,9.30276 21.00986,20.77668 0,11.47392 -9.40719,20.77668 -21.00986,20.77668 z m -357.16747,0 c 0,11.47391 -9.40717,20.77668 -21.00987,20.77668 -11.60269,0 -21.00985,-9.30277 -21.00985,-20.77668 l 0,-62.33004 c 0,-11.47391 9.40716,-20.77668 21.00985,-20.77668 11.6027,0 21.00987,9.30277 21.00987,20.77668 l 0,62.33004 z"
         style="fill:#ffaaaa" /><path
         inkscape:connector-curvature="0"
         id="path19"
         d="M 206.96484,388.81637 49.517006,-60.988279 206.96484,388.81637 c 11.71824,33.47383 43.60069,55.92304 79.41724,55.92304 l 0,0 c -35.81917,0 -67.699,-22.4518 -79.41724,-55.92304 z"
         style="fill:#7d5050" /><path
         style="fill:#6b3c41;fill-opacity:1;stroke:#000000;stroke-width:2.81508493;stroke-miterlimit:4;stroke-dasharray:none;stroke-opacity:0"
         d="m 74.341616,-95.468228 c -18.052716,0 -30.729253,17.600689 -24.825486,34.471341 L 206.9639,388.83229 c 11.71561,33.47122 43.6004,55.90727 79.41958,55.90727 l 252.09949,0 468.60853,0 c 35.819,0 67.7012,-22.43607 79.4195,-55.90727 l 157.4477,-449.829177 c 5.9038,-16.873253 -6.7726,-34.471341 -24.8255,-34.471341 l -26.1436,0 -609.28616,0 -294.1344,0 -185.34896,0 z"
         id="path21"
         inkscape:connector-curvature="0"
         sodipodi:nodetypes="scsscsccsccccs" /><path
         inkscape:connector-curvature="0"
         id="path25"
         d="m 583.70824,-261.66761 c -11.60269,0 -21.00985,9.30277 -21.00985,20.77668 l 0,62.33004 c 0,11.47391 9.40716,20.77668 21.00985,20.77668 11.6027,0 21.00987,-9.30277 21.00987,-20.77668 l 0,-62.33004 c 0,-11.47391 -9.40717,-20.77668 -21.00987,-20.77668 z"
         style="fill:#6b3c41;fill-opacity:1" /><path
         inkscape:connector-curvature="0"
         id="path27"
         d="m 961.88558,-220.11425 -63.02956,0 c -11.60268,0 -21.00984,9.30276 -21.00984,20.77668 0,11.47392 9.40716,20.77668 21.00984,20.77668 l 63.02956,0 c 11.60267,0 21.00986,-9.30276 21.00986,-20.77668 0,-11.47392 -9.40719,-20.77668 -21.00986,-20.77668 z"
         style="fill:#6b3c41;fill-opacity:1" /><path
         inkscape:connector-curvature="0"
         id="path29"
         d="m 358.22527,-256.84223 c -8.20436,-8.1133 -21.50884,-8.1133 -29.71319,0 l -44.56976,44.07254 c -1.71231,1.69329 -3.04381,3.61254 -4.04178,5.65126 -3.7844,7.73928 -2.45289,17.30954 4.04178,23.73216 l 0,0 c 8.20435,8.11329 21.5062,8.11329 29.71317,0 l 6.14013,-6.07199 38.42965,-38.00314 c 8.20435,-8.11328 8.20435,-21.26752 0,-29.38083 z"
         style="fill:#6b3c41;fill-opacity:1" /><path
         inkscape:connector-curvature="0"
         id="path31"
         d="m 760.49039,-317.91265 -0.93493,0.92454 -43.63485,43.15057 c -8.20433,8.1133 -8.20433,21.26752 0,29.38341 8.20436,8.11331 21.50884,8.11331 29.71319,0 l 44.56977,-44.07512 c 6.58135,-6.50829 7.87084,-16.25776 3.8921,-24.04899 -0.97962,-1.92186 -2.26908,-3.72943 -3.8921,-5.33441 -8.20697,-8.11331 -21.50884,-8.11331 -29.71318,0 z"
         style="fill:#6b3c41;fill-opacity:1" /><path
         inkscape:connector-curvature="0"
         id="path33"
         d="m 613.42144,-445.0919 -44.56978,44.07512 c -8.20435,8.1133 -8.20435,21.27013 0,29.38341 8.20434,8.11331 21.50884,8.11331 29.71318,0 l 44.56977,-44.07511 c 8.20435,-8.11329 8.20435,-21.26752 0,-29.38342 -8.20698,-8.11588 -21.50884,-8.11588 -29.71317,0 z"
         style="fill:#6b3c41;fill-opacity:1" /><path
         inkscape:connector-curvature="0"
         id="path35"
         d="m 389.52207,-403.53855 0,0 c -6.29508,6.22521 -7.74214,15.4137 -4.3753,23.02056 1.02159,2.30621 2.46603,4.47479 4.3753,6.36287 l 44.56979,44.07511 c 8.20432,8.1133 21.50883,8.1133 29.71317,0 8.20433,-8.11328 8.20433,-21.27012 0,-29.3834 l -4.11795,-4.07224 -40.45184,-40.0029 c -8.20695,-8.11588 -21.50883,-8.11588 -29.71317,0 z"
         style="fill:#6b3c41;fill-opacity:1" /><path
         inkscape:connector-curvature="0"
         id="path37"
         d="m 865.53964,-389.89346 c 8.20436,8.1133 21.50884,8.1133 29.71319,0 8.20434,-8.1133 8.20434,-21.26752 0,-29.38342 L 850.68306,-463.352 c -8.20435,-8.1133 -21.50884,-8.1133 -29.71319,0 -8.20435,8.1133 -8.20435,21.27012 0,29.38343 l 44.56977,44.07511 z"
         style="fill:#6b3c41;fill-opacity:1" /><g
         id="g4228"
         transform="matrix(1.5189682,0,0,1.5021102,364.46441,-131.86393)"
         style="fill:#ebf6f9;fill-opacity:1"><g
           id="g4188"
           style="fill:#ebf6f9;fill-opacity:1"><path
             id="path4190"
             d="m 333.107,116.042 c -33.09,10.091 -48.705,61.329 -48.705,61.329 0,0 -14.895,-38.237 -86.652,-44.97 l -2.963,-13.292 c 8.122,-4.421 13.688,-12.932 13.688,-22.842 0,-14.407 -11.665,-26.09 -26.084,-26.09 -14.407,0 -26.078,11.683 -26.078,26.09 0,9.684 5.339,18.061 13.181,22.558 l -3.201,12.722 c -40.822,1.487 -64.995,13.013 -79.739,26.625 -22,-13.6 -49.53,-24.341 -65.564,-7.175 -21.169,22.627 -29.808,73.825 -9.329,99.061 8.766,10.806 21.523,14.07 33.729,14.07 8.186,0 16.121,-1.475 22.488,-3.125 7.052,20.263 20.414,37.946 43.854,40.967 l 0,8.575 146.866,0 0,-8.575 c 36.215,-11.153 44.801,-64.041 54.352,-92.299 9.667,-28.634 17.336,-74.26 67.771,-61.352 l 0,-27.432 c 0,0 -14.546,-14.925 -47.614,-4.845 z M 63.165,198.348 c -2.358,7.732 -3.282,25.334 -0.069,43.902 -12.043,3.137 -28.832,4.914 -36.396,-4.404 -13.564,-16.695 -6.651,-57.512 8.435,-73.633 1.191,-1.261 3.375,-2.922 8.935,-2.544 8.505,0.558 19.321,5.449 29.86,11.706 -5.96,9.521 -8.825,18.658 -10.765,24.973 z"
             inkscape:connector-curvature="0"
             style="fill:#ebf6f9;fill-opacity:1"
             sodipodi:nodetypes="ccccssscccccscccccccccccccccc" /></g><g
           id="g4192"
           style="fill:#ebf6f9;fill-opacity:1" /><g
           id="g4194"
           style="fill:#ebf6f9;fill-opacity:1" /><g
           id="g4196"
           style="fill:#ebf6f9;fill-opacity:1" /><g
           id="g4198"
           style="fill:#ebf6f9;fill-opacity:1" /><g
           id="g4200"
           style="fill:#ebf6f9;fill-opacity:1" /><g
           id="g4202"
           style="fill:#ebf6f9;fill-opacity:1" /><g
           id="g4204"
           style="fill:#ebf6f9;fill-opacity:1" /><g
           id="g4206"
           style="fill:#ebf6f9;fill-opacity:1" /><g
           id="g4208"
           style="fill:#ebf6f9;fill-opacity:1" /><g
           id="g4210"
           style="fill:#ebf6f9;fill-opacity:1" /><g
           id="g4212"
           style="fill:#ebf6f9;fill-opacity:1" /><g
           id="g4214"
           style="fill:#ebf6f9;fill-opacity:1" /><g
           id="g4216"
           style="fill:#ebf6f9;fill-opacity:1" /><g
           id="g4218"
           style="fill:#ebf6f9;fill-opacity:1" /><g
           id="g4220"
           style="fill:#ebf6f9;fill-opacity:1" /></g><path
         style="fill:#000000;fill-opacity:0;stroke:#6b3c41;stroke-width:46.60736465;stroke-miterlimit:4;stroke-dasharray:none;stroke-opacity:1"
         d="m 751.76976,-552.53926 c -23.45485,36.18518 -94.88604,48.58222 -177.03718,53.08294 -20.2141,1.10902 -41.0724,1.75196 -62.0271,2.13637 -116.27379,2.13481 -235.38516,-3.22467 -262.49837,24.26029 -63.5128,26.09292 -119.05415,161.26345 -54.15471,217.18387 -22.1943,16.98753 -96.848685,45.30722 -96.848685,158.560902 l 5.016365,1.846681 185.34896,0 294.1344,0 609.28616,0 c 0,-53.796003 32.0913,-149.096953 -149.5021,-183.074643 -5.7568,-1.07787 -11.9672,-2.16027 -18.5643,-3.25883 l 0,-0.65185 c 84.0395,-135.04834 -183.86158,-256.23548 -273.15344,-270.08573 z"
         id="path4191"
         inkscape:connector-curvature="0"
         sodipodi:nodetypes="cccccccccccccc" /></g></g><g
     id="g41"
     transform="translate(-4.0359776,-398.99999)" /><g
     id="g43"
     transform="translate(-4.0359776,-398.99999)" /><g
     id="g45"
     transform="translate(-4.0359776,-398.99999)" /><g
     id="g47"
     transform="translate(-4.0359776,-398.99999)" /><g
     id="g49"
     transform="translate(-4.0359776,-398.99999)" /><g
     id="g51"
     transform="translate(-4.0359776,-398.99999)" /><g
     id="g53"
     transform="translate(-4.0359776,-398.99999)" /><g
     id="g55"
     transform="translate(-4.0359776,-398.99999)" /><g
     id="g57"
     transform="translate(-4.0359776,-398.99999)" /><g
     id="g59"
     transform="translate(-4.0359776,-398.99999)" /><g
     id="g61"
     transform="translate(-4.0359776,-398.99999)" /><g
     id="g63"
     transform="translate(-4.0359776,-398.99999)" /><g
     id="g65"
     transform="translate(-4.0359776,-398.99999)" /><g
     id="g67"
     transform="translate(-4.0359776,-398.99999)" /><g
     id="g69"
     transform="translate(-4.0359776,-398.99999)" /></svg>