<?xml version="1.0" encoding="UTF-8" standalone="no"?>
<!-- Generator: Adobe Illustrator 15.1.0, SVG Export Plug-In . SVG Version: 6.00 Build 0)  -->

<svg
   xmlns:dc="http://purl.org/dc/elements/1.1/"
   xmlns:cc="http://creativecommons.org/ns#"
   xmlns:rdf="http://www.w3.org/1999/02/22-rdf-syntax-ns#"
   xmlns:svg="http://www.w3.org/2000/svg"
   xmlns="http://www.w3.org/2000/svg"
   xmlns:sodipodi="http://sodipodi.sourceforge.net/DTD/sodipodi-0.dtd"
   xmlns:inkscape="http://www.inkscape.org/namespaces/inkscape"
   version="1.1"
   id="Layer_1"
   x="0px"
   y="0px"
   width="100px"
   height="100px"
   viewBox="0 0 100 100"
   enable-background="new 0 0 100 100"
   xml:space="preserve"
   inkscape:version="0.48.4 r9939"
   sodipodi:docname="d.svg"><metadata
     id="metadata11"><rdf:RDF><cc:Work
         rdf:about=""><dc:format>image/svg+xml</dc:format><dc:type
           rdf:resource="http://purl.org/dc/dcmitype/StillImage" /></cc:Work></rdf:RDF></metadata><defs
     id="defs9" /><sodipodi:namedview
     pagecolor="#ffffff"
     bordercolor="#666666"
     borderopacity="1"
     objecttolerance="10"
     gridtolerance="10"
     guidetolerance="10"
     inkscape:pageopacity="0"
     inkscape:pageshadow="2"
     inkscape:window-width="1918"
     inkscape:window-height="1061"
     id="namedview7"
     showgrid="false"
     inkscape:zoom="2.36"
     inkscape:cx="50.847458"
     inkscape:cy="50"
     inkscape:window-x="0"
     inkscape:window-y="18"
     inkscape:window-maximized="0"
     inkscape:current-layer="Layer_1" /><path
     d="M30.729,57.915c5.941,7.138,11.883,14.276,17.824,21.414c0.438,0.524,0.951,0.715,1.447,0.681  c0.496,0.034,1.011-0.156,1.447-0.681c5.941-7.138,11.883-14.276,17.824-21.414c1.1-1.319,0.461-3.494-1.446-3.494  c-2.494,0-4.986,0-7.479,0c0-10.795,0-21.59,0-32.386c0-1.116-0.931-2.047-2.047-2.047c-5.531,0-11.064,0-16.598,0  c-1.116,0-2.047,0.931-2.047,2.047c0,10.796,0,21.591,0,32.386c-2.493,0-4.985,0-7.479,0C30.268,54.421,29.629,56.596,30.729,57.915  z"
     id="path3"
     style="fill:#ffffff" /><path
     d="M50,100c27.614,0,50-22.386,50-50S77.614,0,50,0S0,22.386,0,50S22.386,100,50,100z M50,8c23.196,0,42,18.804,42,42  c0,23.195-18.804,42-42,42C26.805,92,8,73.195,8,50C8,26.804,26.805,8,50,8z"
     id="path5"
     style="fill:#ffffff" /></svg>