<?xml version="1.0" encoding="UTF-8" standalone="no"?>
<!-- Generator: Adobe Illustrator 15.1.0, SVG Export Plug-In . SVG Version: 6.00 Build 0)  -->

<svg
   xmlns:dc="http://purl.org/dc/elements/1.1/"
   xmlns:cc="http://creativecommons.org/ns#"
   xmlns:rdf="http://www.w3.org/1999/02/22-rdf-syntax-ns#"
   xmlns:svg="http://www.w3.org/2000/svg"
   xmlns="http://www.w3.org/2000/svg"
   xmlns:sodipodi="http://sodipodi.sourceforge.net/DTD/sodipodi-0.dtd"
   xmlns:inkscape="http://www.inkscape.org/namespaces/inkscape"
   version="1.1"
   id="Layer_1"
   x="0px"
   y="0px"
   width="240.74385"
   height="100"
   viewBox="0 0 240.74385 100"
   enable-background="new 0 0 100 100"
   xml:space="preserve"
   inkscape:version="0.48.5 r10040"
   sodipodi:docname="d2.svg"><metadata
     id="metadata11"><rdf:RDF><cc:Work
         rdf:about=""><dc:format>image/svg+xml</dc:format><dc:type
           rdf:resource="http://purl.org/dc/dcmitype/StillImage" /><dc:title></dc:title></cc:Work></rdf:RDF></metadata><defs
     id="defs9" /><sodipodi:namedview
     pagecolor="#ffffff"
     bordercolor="#666666"
     borderopacity="1"
     objecttolerance="10"
     gridtolerance="10"
     guidetolerance="10"
     inkscape:pageopacity="0"
     inkscape:pageshadow="2"
     inkscape:window-width="1918"
     inkscape:window-height="1078"
     id="namedview7"
     showgrid="true"
     inkscape:zoom="4.72"
     inkscape:cx="126.02555"
     inkscape:cy="49.844184"
     inkscape:window-x="0"
     inkscape:window-y="0"
     inkscape:window-maximized="0"
     inkscape:current-layer="Layer_1"
     inkscape:snap-bbox="true"
     inkscape:snap-bbox-midpoints="true"
     inkscape:snap-object-midpoints="true"
     fit-margin-top="0"
     fit-margin-left="0"
     fit-margin-right="0"
     fit-margin-bottom="0" /><path
     d="m 30.728999,57.915 c 5.941,7.138 11.883,14.276 17.824,21.414 0.438,0.524 0.951,0.715 1.447,0.681 0.496,0.034 1.011,-0.156 1.447,-0.681 5.941,-7.138 11.883,-14.276 17.824,-21.414 1.1,-1.319 0.461,-3.494 -1.446,-3.494 -2.494,0 -4.986,0 -7.479,0 0,-10.795 0,-21.59 0,-32.386 0,-1.116 -0.931,-2.047 -2.047,-2.047 -5.531,0 -11.064,0 -16.598,0 -1.116,0 -2.047,0.931 -2.047,2.047 0,10.796 0,21.591 0,32.386 -2.493,0 -4.985,0 -7.479,0 -1.907,0 -2.546,2.175 -1.446,3.494 z"
     id="path3"
     style="fill:#ffffff"
     inkscape:connector-curvature="0" /><path
     d="m 49.999999,100 c 27.614,0 50,-22.386 50,-50 0,-27.614 -22.386,-50 -50,-50 C 22.385999,0 -6.7296776e-7,22.386 -6.7296776e-7,50 -6.7296776e-7,77.614 22.385999,100 49.999999,100 z m 0,-92 c 23.196,0 42,18.804 42,42 0,23.195 -18.804,42 -42,42 -23.195,0 -41.9999997,-18.805 -41.9999997,-42 0,-23.196 18.8049997,-42 41.9999997,-42 z"
     id="path5"
     style="fill:#ffffff"
     inkscape:connector-curvature="0" /><text
     xml:space="preserve"
     style="font-size:90.68244171px;font-style:italic;font-variant:normal;font-weight:bold;font-stretch:normal;line-height:125%;letter-spacing:0px;word-spacing:0px;fill:#ffffff;fill-opacity:1;stroke:#ffffff;stroke-width:2.26706123;font-family:URW Bookman L;-inkscape-font-specification:URW Bookman L Bold Italic"
     x="117.68709"
     y="79.348167"
     id="text2985"
     sodipodi:linespacing="125%"><tspan
       sodipodi:role="line"
       id="tspan2987"
       x="117.68709"
       y="79.348167"
       style="font-style:normal;font-variant:normal;font-weight:normal;font-stretch:normal;fill:#ffffff;stroke:#ffffff;stroke-width:2.26706123;font-family:URW Palladio L;-inkscape-font-specification:URW Palladio L Medium">2D</tspan></text>
</svg>