<?xml version="1.0" encoding="UTF-8" standalone="no"?>
<!-- Generated by IcoMoon.io -->

<svg
   xmlns:dc="http://purl.org/dc/elements/1.1/"
   xmlns:cc="http://creativecommons.org/ns#"
   xmlns:rdf="http://www.w3.org/1999/02/22-rdf-syntax-ns#"
   xmlns:svg="http://www.w3.org/2000/svg"
   xmlns="http://www.w3.org/2000/svg"
   xmlns:sodipodi="http://sodipodi.sourceforge.net/DTD/sodipodi-0.dtd"
   xmlns:inkscape="http://www.inkscape.org/namespaces/inkscape"
   version="1.1"
   width="74.412788"
   height="58.006321"
   viewBox="0 0 74.412788 58.00632"
   id="svg2"
   inkscape:version="0.91 r"
   sodipodi:docname="decomposition.svg">
  <metadata
     id="metadata14">
    <rdf:RDF>
      <cc:Work
         rdf:about="">
        <dc:format>image/svg+xml</dc:format>
        <dc:type
           rdf:resource="http://purl.org/dc/dcmitype/StillImage" />
        <dc:title></dc:title>
      </cc:Work>
    </rdf:RDF>
  </metadata>
  <defs
     id="defs12" />
  <sodipodi:namedview
     pagecolor="#ffffff"
     bordercolor="#666666"
     borderopacity="1"
     objecttolerance="10"
     gridtolerance="10"
     guidetolerance="10"
     inkscape:pageopacity="0"
     inkscape:pageshadow="2"
     inkscape:window-width="1678"
     inkscape:window-height="1031"
     id="namedview10"
     showgrid="false"
     showguides="false"
     fit-margin-top="0"
     fit-margin-left="0"
     fit-margin-right="0"
     fit-margin-bottom="0"
     inkscape:zoom="1.84375"
     inkscape:cx="-38.144028"
     inkscape:cy="-14.781554"
     inkscape:window-x="0"
     inkscape:window-y="18"
     inkscape:window-maximized="0"
     inkscape:current-layer="g4518" />
  <g
     id="g4518"
     transform="matrix(0,-1,1,0,-4.6916199e-8,63.759053)">
    <path
       inkscape:connector-curvature="0"
       style="fill:#ffc8aa;fill-opacity:1;stroke:#6b3c41;stroke-width:2.65946031;stroke-linecap:round;stroke-linejoin:round;stroke-miterlimit:4;stroke-dasharray:none;stroke-opacity:1"
       id="path4"
       d="m 7.0824634,50.660142 22.4229136,0 0,22.422914 -22.4229136,0 0,-22.422914 z" />
    <path
       inkscape:connector-curvature="0"
       style="fill:#ebf6f9;fill-opacity:1;stroke:#6b3c41;stroke-width:2.65946031;stroke-linecap:round;stroke-linejoin:round;stroke-miterlimit:4;stroke-dasharray:none;stroke-opacity:1"
       id="path6"
       d="m 40.006409,50.660142 22.422914,0 0,22.422914 -22.422914,0 0,-22.422914 z" />
    <path
       inkscape:connector-curvature="0"
       style="fill:#ffaaaa;fill-opacity:1;stroke:#6b3c41;stroke-width:2.65946031;stroke-linecap:round;stroke-linejoin:round;stroke-miterlimit:4;stroke-dasharray:none;stroke-opacity:1"
       id="path8"
       d="m 40.345601,43.48481 -3.139208,2.690748 8.969165,0 0,-8.072248 -2.690751,2.242291 c 0,0 -2.690748,-2.242291 -4.036123,-4.484584 -1.345376,-2.24229 -2.242291,-4.933038 -2.242291,-7.623789 l 13.453749,0 0,-26.9074978 -31.39208,0 0,26.9074978 13.453748,0 c 0,2.690751 -0.896916,5.381499 -2.242291,7.623789 -1.345376,2.242293 -4.036124,4.484584 -4.036124,4.484584 l -2.690751,-2.242291 0,8.072248 8.969166,0 -3.139208,-2.690748 c 0,0 2.690749,-2.242291 4.484583,-5.3815 0.448457,-0.448459 0.448457,-0.896917 0.896917,-1.345374 0.448459,0.448457 0.448459,0.896915 0.896915,1.345374 1.793834,3.139209 4.484584,5.3815 4.484584,5.3815 z" />
    <circle
       style="opacity:1;fill:#ebf6f9;fill-opacity:1;fill-rule:evenodd;stroke:#000000;stroke-width:1.69679308;stroke-linecap:round;stroke-linejoin:round;stroke-miterlimit:4;stroke-dasharray:none;stroke-dashoffset:0;stroke-opacity:0"
       id="path4547"
       cx="14.565254"
       cy="-34.938141"
       transform="matrix(0,1,-1,0,0,0)"
       r="3.6516035" />
  </g>
</svg>
