<?xml version="1.0" encoding="UTF-8" standalone="no"?>
<!-- Created with Inkscape (http://www.inkscape.org/) -->

<svg
   xmlns:ns0="http://www.iki.fi/pav/software/textext/"
   xmlns:dc="http://purl.org/dc/elements/1.1/"
   xmlns:cc="http://creativecommons.org/ns#"
   xmlns:rdf="http://www.w3.org/1999/02/22-rdf-syntax-ns#"
   xmlns:svg="http://www.w3.org/2000/svg"
   xmlns="http://www.w3.org/2000/svg"
   xmlns:sodipodi="http://sodipodi.sourceforge.net/DTD/sodipodi-0.dtd"
   xmlns:inkscape="http://www.inkscape.org/namespaces/inkscape"
   sodipodi:docname="from_homogeneous_coordinates_raw_matrix.svg"
   inkscape:version="0.91 r13725"
   version="1.1"
   id="svg10435"
   viewBox="0 0 495.05303 131.81987"
   height="37.202499mm"
   width="139.71497mm">
  <sodipodi:namedview
     inkscape:window-maximized="0"
     inkscape:window-y="18"
     inkscape:window-x="0"
     inkscape:window-height="1061"
     inkscape:window-width="1918"
     fit-margin-bottom="0"
     fit-margin-right="0"
     fit-margin-left="0"
     fit-margin-top="0"
     showgrid="false"
     inkscape:document-units="px"
     inkscape:cy="188.56026"
     inkscape:cx="204.43268"
     inkscape:zoom="1.4"
     inkscape:pageshadow="2"
     inkscape:pageopacity="0.0"
     borderopacity="1.0"
     bordercolor="#666666"
     pagecolor="#ffffff"
     id="base"
     inkscape:current-layer="layer1" />
  <defs
     id="defs10437">
    <marker
       inkscape:isstock="true"
       style="overflow:visible"
       id="Arrow2Mend"
       refX="0"
       refY="0"
       orient="auto"
       inkscape:stockid="Arrow2Mend">
      <path
         inkscape:connector-curvature="0"
         transform="scale(-0.6,-0.6)"
         d="M 8.7185878,4.0337352 -2.2072895,0.01601326 8.7185884,-4.0017078 c -1.7454984,2.3720609 -1.7354408,5.6174519 -6e-7,8.035443 z"
         style="fill:#000000;fill-opacity:1;fill-rule:evenodd;stroke:#000000;stroke-width:0.625;stroke-linejoin:round;stroke-opacity:1"
         id="path5841" />
    </marker>
    <marker
       inkscape:isstock="true"
       style="overflow:visible"
       id="Arrow2Mend-7"
       refX="0"
       refY="0"
       orient="auto"
       inkscape:stockid="Arrow2Mend">
      <path
         inkscape:connector-curvature="0"
         transform="scale(-0.6,-0.6)"
         d="M 8.7185878,4.0337352 -2.2072895,0.01601326 8.7185884,-4.0017078 c -1.7454984,2.3720609 -1.7354408,5.6174519 -6e-7,8.035443 z"
         style="fill:#000000;fill-opacity:1;fill-rule:evenodd;stroke:#000000;stroke-width:0.625;stroke-linejoin:round;stroke-opacity:1"
         id="path5841-6" />
    </marker>
    <marker
       inkscape:stockid="Arrow2Mend"
       orient="auto"
       refY="0"
       refX="0"
       id="Arrow2Mend-4"
       style="overflow:visible"
       inkscape:isstock="true">
      <path
         id="path5841-3"
         style="fill:#000000;fill-opacity:1;fill-rule:evenodd;stroke:#000000;stroke-width:0.625;stroke-linejoin:round;stroke-opacity:1"
         d="M 8.7185878,4.0337352 -2.2072895,0.01601326 8.7185884,-4.0017078 c -1.7454984,2.3720609 -1.7354408,5.6174519 -6e-7,8.035443 z"
         transform="scale(-0.6,-0.6)"
         inkscape:connector-curvature="0" />
    </marker>
  </defs>
  <metadata
     id="metadata10440">
    <rdf:RDF>
      <cc:Work
         rdf:about="">
        <dc:format>image/svg+xml</dc:format>
        <dc:type
           rdf:resource="http://purl.org/dc/dcmitype/StillImage" />
        <dc:title></dc:title>
      </cc:Work>
    </rdf:RDF>
  </metadata>
  <g
     inkscape:label="Layer 1"
     inkscape:groupmode="layer"
     id="layer1"
     transform="translate(93.119905,-29.853847)">
    <g
       id="g4361"
       transform="translate(6.3119351,-9.1367414)">
      <g
         transform="translate(33.335034,-8.6973034)"
         id="g11765">
        <path
           inkscape:connector-curvature="0"
           id="path5808"
           d="m 78.289277,121.52519 121.044363,0"
           style="fill:none;fill-rule:evenodd;stroke:#000000;stroke-width:1.61399996;stroke-linecap:round;stroke-linejoin:round;stroke-miterlimit:4;stroke-dasharray:none;stroke-opacity:1;marker-end:url(#Arrow2Mend)" />
        <text
           sodipodi:linespacing="125%"
           id="text6096"
           y="110.77456"
           x="69.972198"
           style="font-style:normal;font-weight:normal;font-size:40.34812164px;line-height:125%;font-family:Sans;letter-spacing:0px;word-spacing:0px;fill:#000000;fill-opacity:1;stroke:none;stroke-width:1px;stroke-linecap:butt;stroke-linejoin:miter;stroke-opacity:1"
           xml:space="preserve"><tspan
             style="font-size:12.10443687px"
             y="110.77456"
             x="69.972198"
             id="tspan6098"
             sodipodi:role="line">::from_homogeneous()</tspan></text>
      </g>
    </g>
    <g
       ns0:text="$\\lambda $"
       word-spacing="normal"
       letter-spacing="normal"
       font-size-adjust="none"
       font-stretch="normal"
       font-weight="normal"
       font-variant="normal"
       font-style="normal"
       stroke-miterlimit="10.433"
       xml:space="preserve"
       transform="matrix(2.2551678,0,0,-2.2551678,-588.69164,1688.5722)"
       id="g11294"
       style="font-style:normal;font-variant:normal;font-weight:normal;font-stretch:normal;letter-spacing:normal;word-spacing:normal;text-anchor:start;fill:#d2504b;fill-opacity:1;fill-rule:evenodd;stroke:#000000;stroke-linecap:butt;stroke-linejoin:miter;stroke-miterlimit:10.43299961;stroke-dasharray:none;stroke-dashoffset:0;stroke-opacity:1" />    <g
       style="font-style:normal;font-variant:normal;font-weight:normal;font-stretch:normal;letter-spacing:normal;word-spacing:normal;text-anchor:start;fill:#d2504b;fill-opacity:1;fill-rule:evenodd;stroke:#000000;stroke-linecap:butt;stroke-linejoin:miter;stroke-miterlimit:10.43299961;stroke-dasharray:none;stroke-dashoffset:0;stroke-opacity:1"
       id="g11298"
       transform="matrix(2.2551678,0,0,-2.2551678,-507.7072,1721.7152)"
       xml:space="preserve"
       stroke-miterlimit="10.433"
       font-style="normal"
       font-variant="normal"
       font-weight="normal"
       font-stretch="normal"
       font-size-adjust="none"
       letter-spacing="normal"
       word-spacing="normal"
       ns0:text="$\\lambda $" />    <g
       id="g11736"
       transform="translate(-346.48232,0)">
      <g
         id="g4265">
        <text
           xml:space="preserve"
           style="font-style:normal;font-weight:normal;font-size:40.34812164px;line-height:125%;font-family:Sans;letter-spacing:0px;word-spacing:0px;fill:#000000;fill-opacity:1;stroke:none;stroke-width:1px;stroke-linecap:butt;stroke-linejoin:miter;stroke-opacity:1"
           x="-93.290459"
           y="43.675129"
           id="text8713"
           sodipodi:linespacing="125%"
           transform="translate(346.48232,0)"><tspan
             sodipodi:role="line"
             id="tspan8715"
             x="-93.290459"
             y="43.675129"
             style="font-style:normal;font-variant:normal;font-weight:normal;font-stretch:normal;font-size:16.1392498px;font-family:sans-serif;-inkscape-font-specification:sans-serif;fill:#000000;fill-opacity:1">Matrix3</tspan></text>
        <g
           style="font-style:normal;font-variant:normal;font-weight:normal;font-stretch:normal;letter-spacing:normal;word-spacing:normal;text-anchor:start;fill:#808080;fill-opacity:0.60784314;fill-rule:evenodd;stroke:#000000;stroke-linecap:butt;stroke-linejoin:miter;stroke-miterlimit:10.43299961;stroke-dasharray:none;stroke-dashoffset:0;stroke-opacity:1"
           ns0:text="$(\\mathbb{R}^{3 \\times 3})$"
           word-spacing="normal"
           letter-spacing="normal"
           font-size-adjust="none"
           font-stretch="normal"
           font-weight="normal"
           font-variant="normal"
           font-style="normal"
           stroke-miterlimit="10.433"
           xml:space="preserve"
           transform="matrix(1.6139248,0,0,-1.6139248,-42.627433,1184.3911)"
           id="g10076"><path
             id="path10078"
             d="m 226.73,704.74 -0.01,0.01 0,0 0,0 0,0.01 0,0 0,0 0,0.01 0,0 0,0 0,0.01 -0.01,0 0,0.01 0,0 -0.01,0.01 0,0 -0.01,0.01 0,0.01 -0.01,0 0,0.01 0,0 -0.01,0.01 0,0 0,0 -0.01,0.01 0,0 -0.01,0.01 0,0 -0.01,0.01 0,0 -0.01,0.01 0,0 -0.01,0.01 0,0.01 -0.01,0 0,0.01 -0.01,0.01 -0.01,0 0,0.01 -0.01,0.01 -0.01,0 -0.01,0.01 0,0.01 c -1.25,1.25 -1.57,3.13 -1.57,4.65 0,1.73 0.38,3.46 1.61,4.7 0.13,0.12 0.13,0.14 0.13,0.17 0,0.07 -0.05,0.1 -0.1,0.1 -0.1,0 -1,-0.68 -1.59,-1.94 -0.5,-1.09 -0.62,-2.2 -0.62,-3.03 0,-0.78 0.11,-1.98 0.65,-3.1 0.6,-1.22 1.46,-1.87 1.56,-1.87 0.05,0 0.1,0.03 0.1,0.1 z"
             style="fill:#808080;fill-opacity:0.60784314;stroke-width:0"
             inkscape:connector-curvature="0" /><path
             id="path10080"
             d="m 229.97,710.24 0,0.35 0,2.46 c 0,0.2 0,0.53 0.62,0.53 0.84,0 1.26,-0.35 1.26,-1.52 0,-1.28 -0.31,-1.47 -1.88,-1.47 l 0,-0.35 0.36,0 1.49,-2.3 c 0.1,-0.16 0.34,-0.55 0.45,-0.7 l 0.26,0.23 -1.79,2.77 c 0.07,0.01 0.11,0.02 0.19,0.02 0.15,0 0.37,0.02 0.52,0.04 0.14,-0.23 1.22,-2 2.04,-2.83 l -0.96,0 -0.26,-0.23 c 0.07,-0.12 0.1,-0.12 0.33,-0.12 l 1.37,0 c 0.18,0 0.33,0 0.33,0.18 0,0.08 -0.06,0.15 -0.15,0.17 -0.37,0.08 -0.86,0.74 -1.09,1.06 -0.07,0.09 -0.57,0.75 -1.24,1.82 0.89,0.16 1.74,0.54 1.74,1.72 l -0.34,0 c 0,-0.64 -0.3,-1.15 -1.33,-1.34 l 0,0 c 0.28,0.37 0.31,0.89 0.31,1.33 0,0.48 -0.06,1.01 -0.38,1.41 0.41,-0.09 1.4,-0.39 1.4,-1.4 l 0.34,0 c 0,1.38 -1.46,1.86 -2.63,1.86 l -3.13,0 c -0.18,0 -0.34,0 -0.34,-0.18 0,-0.17 0.19,-0.17 0.27,-0.17 0.57,0 0.62,-0.07 0.62,-0.56 l 0.35,0.02 c 0,0.1 0,0.36 -0.08,0.54 l 1.13,0 c -0.13,-0.16 -0.13,-0.36 -0.13,-0.5 l 0,-5.06 c 0,-0.1 0,-0.37 0.08,-0.55 l -1.08,0 c 0.08,0.18 0.08,0.46 0.08,0.55 l 0,5.02 -0.35,-0.02 0,-4.98 c 0,-0.5 -0.05,-0.57 -0.62,-0.57 -0.08,0 -0.27,0 -0.27,-0.17 0,-0.18 0.16,-0.18 0.34,-0.18 l 2.73,0 c 0.18,0 0.33,0 0.33,0.18 0,0.17 -0.17,0.17 -0.28,0.17 -0.57,0 -0.61,0.08 -0.61,0.57 z"
             style="fill:#808080;fill-opacity:0.60784314;stroke-width:0"
             inkscape:connector-curvature="0" /><path
             id="path10082"
             d="m 236.4,713.06 0.05,0 0.05,0 0.05,-0.01 0.05,0 0.05,-0.01 0.04,-0.02 0.05,-0.01 0.04,-0.02 0.04,-0.02 0.04,-0.02 0.04,-0.02 0.04,-0.03 0.03,-0.02 0.04,-0.03 0.03,-0.03 0.03,-0.04 0.03,-0.03 0.03,-0.04 0.03,-0.04 0.02,-0.05 0.03,-0.04 0.02,-0.05 0.02,-0.05 0.02,-0.05 0.01,-0.05 0.02,-0.06 0.01,-0.06 0.01,-0.06 0.01,-0.06 0,-0.06 0.01,-0.07 0,-0.07 c 0,-0.86 -0.5,-1.12 -0.91,-1.12 -0.28,0 -0.89,0.08 -1.18,0.49 0.32,0.01 0.4,0.24 0.4,0.39 0,0.22 -0.17,0.38 -0.38,0.38 -0.2,0 -0.39,-0.12 -0.39,-0.4 0,-0.65 0.72,-1.08 1.57,-1.08 0.96,0 1.63,0.65 1.63,1.34 0,0.54 -0.44,1.09 -1.21,1.25 0.73,0.26 1,0.78 1,1.21 0,0.55 -0.64,0.96 -1.41,0.96 -0.77,0 -1.37,-0.38 -1.37,-0.94 0,-0.23 0.16,-0.36 0.37,-0.36 0.21,0 0.35,0.16 0.35,0.35 0,0.2 -0.14,0.35 -0.35,0.36 0.24,0.31 0.72,0.39 0.98,0.39 0.31,0 0.75,-0.16 0.75,-0.76 0,-0.29 -0.1,-0.61 -0.28,-0.83 -0.23,-0.26 -0.42,-0.28 -0.77,-0.3 -0.18,-0.01 -0.19,-0.01 -0.22,-0.02 -0.02,0 -0.07,-0.01 -0.07,-0.09 0,-0.1 0.06,-0.1 0.18,-0.1 z"
             style="fill:#808080;fill-opacity:0.60784314;stroke-width:0"
             inkscape:connector-curvature="0" /><path
             id="path10084"
             d="m 243.35,714 0.01,0.01 0,0.01 0.01,0 0,0.01 0.01,0 0.01,0.01 0,0.01 0.01,0 0,0.01 0,0 0.01,0.01 0,0 0.01,0.01 0,0.01 0,0 0.01,0.01 0,0 0,0 0,0.01 0.01,0 0,0.01 0,0 0,0.01 0,0 0,0.01 0,0 0,0.01 0,0 0.01,0 0,0.01 0,0.01 c 0,0.11 -0.1,0.17 -0.17,0.17 -0.07,0 -0.09,-0.02 -0.18,-0.1 l -1.52,-1.52 -1.53,1.52 c -0.07,0.07 -0.1,0.1 -0.16,0.1 -0.1,0 -0.18,-0.07 -0.18,-0.17 0,-0.06 0.02,-0.08 0.11,-0.17 l 1.52,-1.52 -1.52,-1.51 c -0.1,-0.1 -0.11,-0.13 -0.11,-0.17 0,-0.1 0.08,-0.18 0.18,-0.18 0.06,0 0.08,0.02 0.16,0.1 l 1.53,1.52 1.59,-1.58 c 0.03,-0.02 0.07,-0.04 0.11,-0.04 0.07,0 0.17,0.06 0.17,0.18 0,0.05 -0.02,0.06 -0.04,0.09 -0.01,0.02 -1.36,1.37 -1.59,1.59 z"
             style="fill:#808080;fill-opacity:0.60784314;stroke-width:0"
             inkscape:connector-curvature="0" /><path
             id="path10086"
             d="m 246.6,713.06 0.05,0 0.05,0 0.05,-0.01 0.05,0 0.04,-0.01 0.05,-0.02 0.04,-0.01 0.05,-0.02 0.04,-0.02 0.04,-0.02 0.04,-0.02 0.04,-0.03 0.03,-0.02 0.04,-0.03 0.03,-0.03 0.03,-0.04 0.03,-0.03 0.03,-0.04 0.03,-0.04 0.02,-0.05 0.03,-0.04 0.02,-0.05 0.02,-0.05 0.02,-0.05 0.01,-0.05 0.02,-0.06 0.01,-0.06 0.01,-0.06 0,-0.06 0.01,-0.06 0,-0.07 0.01,-0.07 c 0,-0.86 -0.51,-1.12 -0.91,-1.12 -0.28,0 -0.89,0.08 -1.18,0.49 0.32,0.01 0.4,0.24 0.4,0.39 0,0.22 -0.17,0.38 -0.38,0.38 -0.2,0 -0.39,-0.12 -0.39,-0.4 0,-0.65 0.72,-1.08 1.56,-1.08 0.97,0 1.64,0.65 1.64,1.34 0,0.54 -0.45,1.09 -1.21,1.25 0.73,0.26 0.99,0.78 0.99,1.21 0,0.55 -0.63,0.96 -1.4,0.96 -0.78,0 -1.37,-0.38 -1.37,-0.94 0,-0.23 0.16,-0.36 0.36,-0.36 0.22,0 0.36,0.16 0.36,0.35 0,0.2 -0.14,0.35 -0.36,0.36 0.25,0.31 0.73,0.39 0.99,0.39 0.31,0 0.75,-0.16 0.75,-0.76 0,-0.29 -0.1,-0.61 -0.28,-0.83 -0.23,-0.26 -0.43,-0.28 -0.77,-0.3 -0.18,-0.01 -0.19,-0.01 -0.23,-0.02 -0.01,0 -0.07,-0.01 -0.07,-0.09 0,-0.1 0.07,-0.1 0.19,-0.1 z"
             style="fill:#808080;fill-opacity:0.60784314;stroke-width:0"
             inkscape:connector-curvature="0" /><path
             id="path10088"
             d="m 252.04,709.61 0,0.07 0,0.08 0,0.08 0,0.08 -0.01,0.17 -0.01,0.17 -0.02,0.18 -0.02,0.19 -0.03,0.2 -0.03,0.2 -0.04,0.2 -0.04,0.21 -0.06,0.21 -0.06,0.21 -0.07,0.21 -0.08,0.21 -0.04,0.11 -0.04,0.11 -0.05,0.1 -0.05,0.11 c -0.6,1.22 -1.46,1.87 -1.55,1.87 -0.06,0 -0.1,-0.04 -0.1,-0.1 0,-0.03 0,-0.05 0.19,-0.23 0.97,-0.99 1.54,-2.57 1.54,-4.64 0,-1.7 -0.37,-3.45 -1.6,-4.7 -0.13,-0.12 -0.13,-0.14 -0.13,-0.17 0,-0.06 0.04,-0.1 0.1,-0.1 0.09,0 0.99,0.68 1.58,1.94 0.51,1.09 0.62,2.19 0.62,3.03 z"
             style="fill:#808080;fill-opacity:0.60784314;stroke-width:0"
             inkscape:connector-curvature="0" /></g>        <rect
           style="opacity:1;fill:#ffe5d7;fill-opacity:1;fill-rule:evenodd;stroke:#000000;stroke-width:3.89119792;stroke-linecap:butt;stroke-linejoin:round;stroke-miterlimit:4;stroke-dasharray:none;stroke-dashoffset:0;stroke-opacity:0"
           id="rect7851"
           width="145.92915"
           height="80.060776"
           x="255.30801"
           y="48.750401" />
        <path
           sodipodi:nodetypes="cccc"
           inkscape:connector-curvature="0"
           id="path7853"
           d="m 274.09196,49.359348 -19.67382,0 0,111.312202 19.67382,0"
           style="fill:none;fill-rule:evenodd;stroke:#4d4d4d;stroke-width:2.0043416;stroke-linecap:butt;stroke-linejoin:round;stroke-miterlimit:4;stroke-dasharray:none;stroke-opacity:1" />
        <g
           style="font-style:normal;font-variant:normal;font-weight:normal;font-stretch:normal;letter-spacing:normal;word-spacing:normal;text-anchor:start;fill:#6b3c41;fill-opacity:1;fill-rule:evenodd;stroke:#000000;stroke-linecap:butt;stroke-linejoin:miter;stroke-miterlimit:10.43299961;stroke-dasharray:none;stroke-dashoffset:0;stroke-opacity:1"
           ns0:text="$\\begin{array}{cc}\nm_{11} &amp; m_{12}\\\\\nm_{21} &amp; m_{22}\n\\end{array}$"
           word-spacing="normal"
           letter-spacing="normal"
           font-size-adjust="none"
           font-stretch="normal"
           font-weight="normal"
           font-variant="normal"
           font-style="normal"
           stroke-miterlimit="10.433"
           xml:space="preserve"
           transform="matrix(2.780055,0,0,-2.780055,-368.61365,2047.1088)"
           id="g11520"><path
             id="path11522"
             d="m 229.29,709.3 0,-0.01 -0.01,-0.01 0,-0.02 0,-0.01 -0.01,-0.04 -0.01,-0.03 -0.01,-0.03 0,-0.03 -0.01,-0.03 -0.01,-0.04 0,-0.01 0,-0.02 -0.01,-0.01 0,-0.01 0,-0.02 -0.01,-0.01 0,-0.01 0,-0.02 0,-0.01 -0.01,-0.01 0,-0.01 0,-0.01 0,0 0,-0.01 0,-0.01 0,0 c 0,-0.18 0.14,-0.27 0.29,-0.27 0.12,0 0.3,0.08 0.37,0.28 0.01,0.02 0.13,0.49 0.18,0.73 l 0.22,0.9 c 0.06,0.22 0.12,0.43 0.17,0.66 0.04,0.17 0.12,0.46 0.13,0.5 0.15,0.31 0.68,1.21 1.62,1.21 0.45,0 0.54,-0.37 0.54,-0.69 0,-0.25 -0.07,-0.53 -0.15,-0.83 l -0.28,-1.15 -0.2,-0.76 c -0.04,-0.19 -0.13,-0.53 -0.13,-0.58 0,-0.18 0.14,-0.27 0.29,-0.27 0.31,0 0.37,0.25 0.45,0.57 0.14,0.55 0.51,2 0.6,2.39 0.03,0.13 0.55,1.32 1.64,1.32 0.43,0 0.54,-0.34 0.54,-0.69 0,-0.57 -0.42,-1.7 -0.62,-2.23 -0.09,-0.24 -0.13,-0.35 -0.13,-0.55 0,-0.46 0.35,-0.81 0.82,-0.81 0.93,0 1.3,1.45 1.3,1.53 0,0.1 -0.09,0.1 -0.12,0.1 -0.1,0 -0.1,-0.03 -0.15,-0.18 -0.15,-0.53 -0.47,-1.23 -1.01,-1.23 -0.17,0 -0.24,0.1 -0.24,0.33 0,0.24 0.09,0.48 0.18,0.7 0.19,0.52 0.6,1.62 0.6,2.19 0,0.64 -0.39,1.06 -1.14,1.06 -0.75,0 -1.25,-0.44 -1.62,-0.96 -0.01,0.13 -0.04,0.46 -0.32,0.7 -0.25,0.21 -0.57,0.26 -0.82,0.26 -0.89,0 -1.38,-0.64 -1.55,-0.87 -0.05,0.57 -0.47,0.87 -0.91,0.87 -0.46,0 -0.65,-0.39 -0.74,-0.57 -0.18,-0.34 -0.31,-0.93 -0.31,-0.96 0,-0.1 0.1,-0.1 0.12,-0.1 0.1,0 0.11,0.01 0.17,0.23 0.17,0.7 0.37,1.18 0.73,1.18 0.16,0 0.3,-0.08 0.3,-0.46 0,-0.2 -0.03,-0.31 -0.15,-0.83 z"
             inkscape:connector-curvature="0"
             style="fill:#6b3c41;fill-opacity:1;stroke-width:0" /><path
             id="path11524"
             d="m 239.49,711.65 0,0.01 0,0.01 0,0 0,0.01 0,0.01 0,0.01 0,0 0,0.01 0,0.01 0,0 0,0.01 0,0.01 0,0 0,0.01 0,0 0,0.01 0,0 0,0.01 -0.01,0.01 0,0 0,0.01 0,0.01 -0.01,0 0,0.01 -0.01,0.01 0,0 -0.01,0 -0.01,0.01 0,0 -0.01,0 -0.01,0 -0.01,0.01 0,0 -0.01,0 -0.01,0 0,0 -0.01,0 0,0 -0.01,0 -0.01,0 0,0 -0.01,0 -0.01,0 0,0 -0.01,0 -0.01,0 -0.01,0 -0.01,0 -0.01,0 0,0 c -0.45,-0.44 -1.08,-0.44 -1.37,-0.44 l 0,-0.25 c 0.17,0 0.63,0 1.01,0.19 l 0,-3.55 c 0,-0.22 0,-0.32 -0.7,-0.32 l -0.26,0 0,-0.25 c 0.12,0.01 0.98,0.03 1.24,0.03 0.21,0 1.09,-0.02 1.25,-0.03 l 0,0.25 -0.27,0 c -0.7,0 -0.7,0.1 -0.7,0.32 z"
             inkscape:connector-curvature="0"
             style="fill:#6b3c41;fill-opacity:1;stroke-width:0" /><path
             id="path11526"
             d="m 243.47,711.65 0,0.01 0,0.01 0,0 0,0.01 0,0.01 0,0.01 0,0 0,0.01 -0.01,0.01 0,0 0,0.01 0,0.01 0,0 0,0.01 0,0 0,0.01 0,0 0,0.01 0,0.01 -0.01,0 0,0.01 0,0.01 -0.01,0 0,0.01 -0.01,0.01 0,0 -0.01,0 0,0.01 -0.01,0 -0.01,0 -0.01,0 -0.01,0.01 0,0 -0.01,0 0,0 -0.01,0 -0.01,0 0,0 -0.01,0 0,0 -0.01,0 -0.01,0 -0.01,0 0,0 -0.01,0 -0.01,0 -0.01,0 -0.01,0 0,0 -0.01,0 c -0.45,-0.44 -1.08,-0.44 -1.37,-0.44 l 0,-0.25 c 0.17,0 0.63,0 1.01,0.19 l 0,-3.55 c 0,-0.22 0,-0.32 -0.69,-0.32 l -0.27,0 0,-0.25 c 0.13,0.01 0.98,0.03 1.24,0.03 0.22,0 1.09,-0.02 1.25,-0.03 l 0,0.25 -0.27,0 c -0.69,0 -0.69,0.1 -0.69,0.32 z"
             inkscape:connector-curvature="0"
             style="fill:#6b3c41;fill-opacity:1;stroke-width:0" /><path
             id="path11528"
             d="m 256.44,709.3 0,-0.01 -0.01,-0.01 0,-0.02 0,-0.01 -0.01,-0.04 -0.01,-0.03 0,-0.03 -0.01,-0.03 -0.01,-0.03 -0.01,-0.04 0,-0.01 0,-0.02 -0.01,-0.01 0,-0.01 0,-0.02 -0.01,-0.01 0,-0.01 0,-0.02 0,-0.01 0,-0.01 -0.01,-0.01 0,-0.01 0,0 0,-0.01 0,-0.01 0,0 c 0,-0.18 0.14,-0.27 0.29,-0.27 0.12,0 0.3,0.08 0.37,0.28 0.01,0.02 0.13,0.49 0.19,0.73 l 0.22,0.9 c 0.05,0.22 0.11,0.43 0.16,0.66 0.04,0.17 0.12,0.46 0.13,0.5 0.15,0.31 0.68,1.21 1.62,1.21 0.45,0 0.54,-0.37 0.54,-0.69 0,-0.25 -0.07,-0.53 -0.15,-0.83 l -0.28,-1.15 -0.2,-0.76 c -0.04,-0.19 -0.12,-0.53 -0.12,-0.58 0,-0.18 0.14,-0.27 0.28,-0.27 0.31,0 0.37,0.25 0.45,0.57 0.14,0.55 0.51,2 0.6,2.39 0.03,0.13 0.56,1.32 1.64,1.32 0.43,0 0.54,-0.34 0.54,-0.69 0,-0.57 -0.42,-1.7 -0.62,-2.23 -0.09,-0.24 -0.13,-0.35 -0.13,-0.55 0,-0.46 0.35,-0.81 0.82,-0.81 0.93,0 1.3,1.45 1.3,1.53 0,0.1 -0.09,0.1 -0.12,0.1 -0.1,0 -0.1,-0.03 -0.15,-0.18 -0.15,-0.53 -0.46,-1.23 -1.01,-1.23 -0.17,0 -0.24,0.1 -0.24,0.33 0,0.24 0.09,0.48 0.18,0.7 0.19,0.52 0.61,1.62 0.61,2.19 0,0.64 -0.4,1.06 -1.15,1.06 -0.75,0 -1.25,-0.44 -1.62,-0.96 -0.01,0.13 -0.04,0.46 -0.32,0.7 -0.25,0.21 -0.57,0.26 -0.82,0.26 -0.89,0 -1.38,-0.64 -1.55,-0.87 -0.05,0.57 -0.46,0.87 -0.91,0.87 -0.46,0 -0.65,-0.39 -0.74,-0.57 -0.18,-0.34 -0.31,-0.93 -0.31,-0.96 0,-0.1 0.1,-0.1 0.12,-0.1 0.1,0 0.11,0.01 0.17,0.23 0.17,0.7 0.37,1.18 0.73,1.18 0.16,0 0.31,-0.08 0.31,-0.46 0,-0.2 -0.03,-0.31 -0.16,-0.83 z"
             inkscape:connector-curvature="0"
             style="fill:#6b3c41;fill-opacity:1;stroke-width:0" /><path
             id="path11530"
             d="m 266.64,711.65 0,0.01 0,0.01 0,0 0,0.01 0,0.01 0,0.01 0,0 0,0.01 0,0.01 0,0 0,0.01 0,0.01 0,0 0,0.01 0,0 0,0.01 0,0 0,0.01 -0.01,0.01 0,0 0,0.01 0,0.01 -0.01,0 0,0.01 -0.01,0.01 0,0 -0.01,0 -0.01,0.01 0,0 -0.01,0 -0.01,0 -0.01,0.01 0,0 -0.01,0 -0.01,0 0,0 -0.01,0 0,0 -0.01,0 -0.01,0 0,0 -0.01,0 -0.01,0 0,0 -0.01,0 -0.01,0 -0.01,0 -0.01,0 -0.01,0 -0.01,0 c -0.44,-0.44 -1.07,-0.44 -1.36,-0.44 l 0,-0.25 c 0.17,0 0.63,0 1.01,0.19 l 0,-3.55 c 0,-0.22 0,-0.32 -0.7,-0.32 l -0.26,0 0,-0.25 c 0.12,0.01 0.98,0.03 1.24,0.03 0.21,0 1.09,-0.02 1.25,-0.03 l 0,0.25 -0.27,0 c -0.7,0 -0.7,0.1 -0.7,0.32 z"
             inkscape:connector-curvature="0"
             style="fill:#6b3c41;fill-opacity:1;stroke-width:0" /><path
             id="path11532"
             d="m 271.8,708.49 -0.24,0 c -0.02,-0.15 -0.09,-0.56 -0.18,-0.63 -0.05,-0.04 -0.59,-0.04 -0.69,-0.04 l -1.28,0 c 0.73,0.64 0.98,0.84 1.39,1.16 0.52,0.42 1,0.85 1,1.51 0,0.84 -0.74,1.35 -1.63,1.35 -0.86,0 -1.45,-0.6 -1.45,-1.24 0,-0.36 0.3,-0.39 0.37,-0.39 0.17,0 0.37,0.12 0.37,0.37 0,0.12 -0.05,0.37 -0.41,0.37 0.22,0.49 0.69,0.64 1.02,0.64 0.69,0 1.05,-0.54 1.05,-1.1 0,-0.61 -0.43,-1.09 -0.65,-1.34 l -1.68,-1.65 c -0.07,-0.07 -0.07,-0.08 -0.07,-0.28 l 2.87,0 z"
             inkscape:connector-curvature="0"
             style="fill:#6b3c41;fill-opacity:1;stroke-width:0" /><path
             id="path11534"
             d="m 229.29,697.35 0,-0.01 -0.01,-0.02 0,-0.01 0,-0.02 -0.01,-0.03 -0.01,-0.03 -0.01,-0.03 0,-0.04 -0.01,-0.03 -0.01,-0.03 0,-0.02 0,-0.01 -0.01,-0.02 0,-0.01 0,-0.01 -0.01,-0.02 0,-0.01 0,-0.01 0,-0.01 -0.01,-0.01 0,-0.01 0,-0.01 0,-0.01 0,-0.01 0,0 0,-0.01 c 0,-0.18 0.14,-0.26 0.29,-0.26 0.12,0 0.3,0.07 0.37,0.27 0.01,0.02 0.13,0.49 0.18,0.74 l 0.22,0.89 c 0.06,0.22 0.12,0.44 0.17,0.67 0.04,0.17 0.12,0.45 0.13,0.49 0.15,0.31 0.68,1.22 1.62,1.22 0.45,0 0.54,-0.37 0.54,-0.7 0,-0.25 -0.07,-0.53 -0.15,-0.82 l -0.28,-1.16 -0.2,-0.75 c -0.04,-0.2 -0.13,-0.54 -0.13,-0.59 0,-0.18 0.14,-0.26 0.29,-0.26 0.31,0 0.37,0.24 0.45,0.56 0.14,0.56 0.51,2.01 0.6,2.39 0.03,0.13 0.55,1.33 1.64,1.33 0.43,0 0.54,-0.34 0.54,-0.7 0,-0.57 -0.42,-1.7 -0.62,-2.22 -0.09,-0.24 -0.13,-0.35 -0.13,-0.55 0,-0.47 0.35,-0.81 0.82,-0.81 0.93,0 1.3,1.44 1.3,1.52 0,0.1 -0.09,0.1 -0.12,0.1 -0.1,0 -0.1,-0.03 -0.15,-0.18 -0.15,-0.52 -0.47,-1.23 -1.01,-1.23 -0.17,0 -0.24,0.1 -0.24,0.33 0,0.25 0.09,0.49 0.18,0.71 0.19,0.51 0.6,1.62 0.6,2.18 0,0.65 -0.39,1.07 -1.14,1.07 -0.75,0 -1.25,-0.44 -1.62,-0.97 -0.01,0.13 -0.04,0.47 -0.32,0.71 -0.25,0.2 -0.57,0.26 -0.82,0.26 -0.89,0 -1.38,-0.64 -1.55,-0.87 -0.05,0.57 -0.47,0.87 -0.91,0.87 -0.46,0 -0.65,-0.39 -0.74,-0.57 -0.18,-0.35 -0.31,-0.93 -0.31,-0.97 0,-0.09 0.1,-0.09 0.12,-0.09 0.1,0 0.11,0.01 0.17,0.22 0.17,0.71 0.37,1.19 0.73,1.19 0.16,0 0.3,-0.08 0.3,-0.46 0,-0.21 -0.03,-0.32 -0.15,-0.83 z"
             inkscape:connector-curvature="0"
             style="fill:#6b3c41;fill-opacity:1;stroke-width:0" /><path
             id="path11536"
             d="m 240.68,696.54 -0.24,0 c -0.02,-0.16 -0.09,-0.57 -0.18,-0.64 -0.06,-0.04 -0.59,-0.04 -0.69,-0.04 l -1.28,0 c 0.73,0.65 0.97,0.84 1.39,1.17 0.52,0.41 1,0.84 1,1.5 0,0.84 -0.74,1.36 -1.63,1.36 -0.87,0 -1.45,-0.61 -1.45,-1.25 0,-0.35 0.3,-0.39 0.37,-0.39 0.17,0 0.37,0.12 0.37,0.37 0,0.13 -0.05,0.37 -0.41,0.37 0.21,0.49 0.69,0.65 1.01,0.65 0.7,0 1.06,-0.55 1.06,-1.11 0,-0.6 -0.43,-1.08 -0.65,-1.33 l -1.68,-1.66 c -0.07,-0.06 -0.07,-0.07 -0.07,-0.27 l 2.87,0 z"
             inkscape:connector-curvature="0"
             style="fill:#6b3c41;fill-opacity:1;stroke-width:0" /><path
             id="path11538"
             d="m 243.47,699.69 0,0.01 0,0.01 0,0.01 0,0.01 0,0 0,0.01 0,0.01 0,0.01 -0.01,0 0,0.01 0,0 0,0.01 0,0.01 0,0 0,0.01 0,0 0,0.01 0,0 0,0.01 -0.01,0.01 0,0.01 0,0 -0.01,0.01 0,0.01 -0.01,0 0,0 -0.01,0.01 0,0 -0.01,0 -0.01,0.01 -0.01,0 -0.01,0 0,0 -0.01,0 0,0 -0.01,0 -0.01,0 0,0.01 -0.01,0 0,0 -0.01,0 -0.01,0 -0.01,0 0,0 -0.01,0 -0.01,0 -0.01,0 -0.01,0 0,0 -0.01,0 c -0.45,-0.44 -1.08,-0.45 -1.37,-0.45 l 0,-0.25 c 0.17,0 0.63,0 1.01,0.2 l 0,-3.55 c 0,-0.23 0,-0.32 -0.69,-0.32 l -0.27,0 0,-0.25 c 0.13,0.01 0.98,0.03 1.24,0.03 0.22,0 1.09,-0.02 1.25,-0.03 l 0,0.25 -0.27,0 c -0.69,0 -0.69,0.09 -0.69,0.32 z"
             inkscape:connector-curvature="0"
             style="fill:#6b3c41;fill-opacity:1;stroke-width:0" /><path
             id="path11540"
             d="m 256.44,697.35 0,-0.01 -0.01,-0.02 0,-0.01 0,-0.02 -0.01,-0.03 -0.01,-0.03 0,-0.03 -0.01,-0.04 -0.01,-0.03 -0.01,-0.03 0,-0.02 0,-0.01 -0.01,-0.02 0,-0.01 0,-0.01 -0.01,-0.02 0,-0.01 0,-0.01 0,-0.01 0,-0.01 -0.01,-0.01 0,-0.01 0,-0.01 0,-0.01 0,0 0,-0.01 c 0,-0.18 0.14,-0.26 0.29,-0.26 0.12,0 0.3,0.07 0.37,0.27 0.01,0.02 0.13,0.49 0.19,0.74 l 0.22,0.89 c 0.05,0.22 0.11,0.44 0.16,0.67 0.04,0.17 0.12,0.45 0.13,0.49 0.15,0.31 0.68,1.22 1.62,1.22 0.45,0 0.54,-0.37 0.54,-0.7 0,-0.25 -0.07,-0.53 -0.15,-0.82 l -0.28,-1.16 -0.2,-0.75 c -0.04,-0.2 -0.12,-0.54 -0.12,-0.59 0,-0.18 0.14,-0.26 0.28,-0.26 0.31,0 0.37,0.24 0.45,0.56 0.14,0.56 0.51,2.01 0.6,2.39 0.03,0.13 0.56,1.33 1.64,1.33 0.43,0 0.54,-0.34 0.54,-0.7 0,-0.57 -0.42,-1.7 -0.62,-2.22 -0.09,-0.24 -0.13,-0.35 -0.13,-0.55 0,-0.47 0.35,-0.81 0.82,-0.81 0.93,0 1.3,1.44 1.3,1.52 0,0.1 -0.09,0.1 -0.12,0.1 -0.1,0 -0.1,-0.03 -0.15,-0.18 -0.15,-0.52 -0.46,-1.23 -1.01,-1.23 -0.17,0 -0.24,0.1 -0.24,0.33 0,0.25 0.09,0.49 0.18,0.71 0.19,0.51 0.61,1.62 0.61,2.18 0,0.65 -0.4,1.07 -1.15,1.07 -0.75,0 -1.25,-0.44 -1.62,-0.97 -0.01,0.13 -0.04,0.47 -0.32,0.71 -0.25,0.2 -0.57,0.26 -0.82,0.26 -0.89,0 -1.38,-0.64 -1.55,-0.87 -0.05,0.57 -0.46,0.87 -0.91,0.87 -0.46,0 -0.65,-0.39 -0.74,-0.57 -0.18,-0.35 -0.31,-0.93 -0.31,-0.97 0,-0.09 0.1,-0.09 0.12,-0.09 0.1,0 0.11,0.01 0.17,0.22 0.17,0.71 0.37,1.19 0.73,1.19 0.16,0 0.31,-0.08 0.31,-0.46 0,-0.21 -0.03,-0.32 -0.16,-0.83 z"
             inkscape:connector-curvature="0"
             style="fill:#6b3c41;fill-opacity:1;stroke-width:0" /><path
             id="path11542"
             d="m 267.83,696.54 -0.24,0 c -0.02,-0.16 -0.09,-0.57 -0.18,-0.64 -0.06,-0.04 -0.59,-0.04 -0.69,-0.04 l -1.28,0 c 0.73,0.65 0.97,0.84 1.39,1.17 0.52,0.41 1,0.84 1,1.5 0,0.84 -0.74,1.36 -1.63,1.36 -0.87,0 -1.45,-0.61 -1.45,-1.25 0,-0.35 0.3,-0.39 0.37,-0.39 0.17,0 0.37,0.12 0.37,0.37 0,0.13 -0.05,0.37 -0.41,0.37 0.21,0.49 0.69,0.65 1.01,0.65 0.7,0 1.06,-0.55 1.06,-1.11 0,-0.6 -0.43,-1.08 -0.65,-1.33 l -1.68,-1.66 c -0.07,-0.06 -0.07,-0.07 -0.07,-0.27 l 2.87,0 z"
             inkscape:connector-curvature="0"
             style="fill:#6b3c41;fill-opacity:1;stroke-width:0" /><path
             id="path11544"
             d="m 271.8,696.54 -0.24,0 c -0.02,-0.16 -0.09,-0.57 -0.18,-0.64 -0.05,-0.04 -0.59,-0.04 -0.69,-0.04 l -1.28,0 c 0.73,0.65 0.98,0.84 1.39,1.17 0.52,0.41 1,0.84 1,1.5 0,0.84 -0.74,1.36 -1.63,1.36 -0.86,0 -1.45,-0.61 -1.45,-1.25 0,-0.35 0.3,-0.39 0.37,-0.39 0.17,0 0.37,0.12 0.37,0.37 0,0.13 -0.05,0.37 -0.41,0.37 0.22,0.49 0.69,0.65 1.02,0.65 0.69,0 1.05,-0.55 1.05,-1.11 0,-0.6 -0.43,-1.08 -0.65,-1.33 l -1.68,-1.66 c -0.07,-0.06 -0.07,-0.07 -0.07,-0.27 l 2.87,0 z"
             inkscape:connector-curvature="0"
             style="fill:#6b3c41;fill-opacity:1;stroke-width:0" /></g>        <g
           id="g12013"
           transform="matrix(2.1266914,0,0,-2.1266914,-70.480379,1584.0416)"
           xml:space="preserve"
           stroke-miterlimit="10.433"
           font-style="normal"
           font-variant="normal"
           font-weight="normal"
           font-stretch="normal"
           font-size-adjust="none"
           letter-spacing="normal"
           word-spacing="normal"
           ns0:text="$m_{13}$"
           style="font-style:normal;font-variant:normal;font-weight:normal;font-stretch:normal;letter-spacing:normal;word-spacing:normal;text-anchor:start;fill:#4d4d4d;fill-opacity:1;fill-rule:evenodd;stroke:#000000;stroke-linecap:butt;stroke-linejoin:miter;stroke-miterlimit:10.43299961;stroke-dasharray:none;stroke-dashoffset:0;stroke-opacity:1"><path
             style="fill:#4d4d4d;fill-opacity:1;stroke-width:0"
             inkscape:connector-curvature="0"
             d="m 224.31,707.71 0,-0.01 -0.01,-0.02 0,-0.01 0,-0.02 -0.01,-0.03 -0.01,-0.03 -0.01,-0.03 0,-0.04 -0.01,-0.03 -0.01,-0.03 0,-0.01 -0.01,-0.02 0,-0.01 0,-0.02 0,-0.01 -0.01,-0.01 0,-0.02 0,-0.01 0,-0.01 -0.01,-0.01 0,-0.01 0,-0.01 0,-0.01 0,0 0,-0.01 0,-0.01 c 0,-0.18 0.14,-0.26 0.29,-0.26 0.12,0 0.29,0.07 0.37,0.27 0,0.02 0.12,0.49 0.18,0.74 l 0.22,0.89 c 0.06,0.22 0.12,0.44 0.17,0.67 0.04,0.17 0.12,0.46 0.13,0.5 0.15,0.3 0.68,1.21 1.62,1.21 0.45,0 0.54,-0.37 0.54,-0.7 0,-0.25 -0.07,-0.52 -0.15,-0.82 l -0.28,-1.16 -0.2,-0.75 c -0.04,-0.2 -0.13,-0.54 -0.13,-0.59 0,-0.18 0.14,-0.26 0.29,-0.26 0.31,0 0.37,0.24 0.45,0.56 0.14,0.56 0.51,2.01 0.6,2.4 0.03,0.12 0.55,1.32 1.64,1.32 0.43,0 0.54,-0.34 0.54,-0.7 0,-0.56 -0.42,-1.7 -0.62,-2.22 -0.09,-0.24 -0.13,-0.35 -0.13,-0.55 0,-0.47 0.35,-0.81 0.82,-0.81 0.93,0 1.3,1.45 1.3,1.53 0,0.1 -0.09,0.1 -0.12,0.1 -0.1,0 -0.1,-0.04 -0.15,-0.18 -0.15,-0.53 -0.47,-1.24 -1.01,-1.24 -0.17,0 -0.24,0.1 -0.24,0.33 0,0.25 0.09,0.49 0.18,0.71 0.18,0.51 0.6,1.62 0.6,2.18 0,0.65 -0.39,1.07 -1.14,1.07 -0.75,0 -1.25,-0.44 -1.62,-0.97 -0.01,0.13 -0.04,0.47 -0.32,0.71 -0.25,0.21 -0.57,0.26 -0.82,0.26 -0.89,0 -1.38,-0.64 -1.55,-0.87 -0.05,0.57 -0.47,0.87 -0.92,0.87 -0.45,0 -0.64,-0.39 -0.73,-0.57 -0.18,-0.35 -0.31,-0.93 -0.31,-0.96 0,-0.1 0.1,-0.1 0.12,-0.1 0.1,0 0.11,0.01 0.17,0.22 0.17,0.71 0.37,1.19 0.73,1.19 0.16,0 0.3,-0.08 0.3,-0.46 0,-0.21 -0.03,-0.32 -0.16,-0.83 z"
             id="path12015" /><path
             style="fill:#4d4d4d;fill-opacity:1;stroke-width:0"
             inkscape:connector-curvature="0"
             d="m 234.51,710.05 0,0.01 0,0.01 0,0.01 0,0.01 0,0 0,0.01 0,0.01 0,0.01 0,0 0,0.01 0,0.01 0,0 0,0.01 0,0 0,0.01 0,0 0,0.01 -0.01,0 0,0.01 0,0.01 0,0.01 -0.01,0 0,0.01 0,0.01 -0.01,0 0,0.01 -0.01,0 -0.01,0 -0.01,0.01 0,0 -0.01,0 -0.01,0 -0.01,0 0,0 -0.01,0 0,0.01 -0.01,0 -0.01,0 0,0 -0.01,0 -0.01,0 0,0 -0.01,0 -0.01,0 0,0 -0.01,0 -0.01,0 -0.01,0 -0.01,0 -0.01,0 c -0.44,-0.44 -1.08,-0.45 -1.36,-0.45 l 0,-0.25 c 0.16,0 0.63,0 1.01,0.2 l 0,-3.55 c 0,-0.23 0,-0.32 -0.7,-0.32 l -0.26,0 0,-0.25 c 0.12,0.01 0.98,0.03 1.24,0.03 0.21,0 1.09,-0.02 1.24,-0.03 l 0,0.25 -0.26,0 c -0.7,0 -0.7,0.09 -0.7,0.32 z"
             id="path12017" /><path
             style="fill:#4d4d4d;fill-opacity:1;stroke-width:0"
             inkscape:connector-curvature="0"
             d="m 238.05,707.95 0.05,0 0.05,0 0.05,-0.01 0.05,0 0.04,-0.01 0.05,-0.02 0.04,-0.01 0.05,-0.02 0.04,-0.02 0.04,-0.02 0.04,-0.02 0.04,-0.02 0.03,-0.03 0.04,-0.03 0.03,-0.03 0.03,-0.04 0.03,-0.03 0.03,-0.04 0.03,-0.04 0.02,-0.04 0.03,-0.05 0.02,-0.05 0.02,-0.05 0.02,-0.05 0.01,-0.05 0.02,-0.06 0.01,-0.05 0.01,-0.06 0,-0.07 0.01,-0.06 0,-0.07 0.01,-0.07 c 0,-0.86 -0.51,-1.12 -0.91,-1.12 -0.28,0 -0.89,0.08 -1.18,0.49 0.32,0.02 0.4,0.25 0.4,0.39 0,0.22 -0.17,0.38 -0.38,0.38 -0.2,0 -0.39,-0.12 -0.39,-0.4 0,-0.65 0.72,-1.08 1.56,-1.08 0.97,0 1.64,0.65 1.64,1.34 0,0.55 -0.44,1.09 -1.21,1.25 0.73,0.26 0.99,0.78 0.99,1.21 0,0.55 -0.63,0.96 -1.4,0.96 -0.77,0 -1.37,-0.38 -1.37,-0.93 0,-0.24 0.16,-0.37 0.36,-0.37 0.22,0 0.36,0.16 0.36,0.35 0,0.2 -0.14,0.35 -0.36,0.36 0.25,0.31 0.73,0.39 0.99,0.39 0.31,0 0.75,-0.16 0.75,-0.76 0,-0.29 -0.1,-0.61 -0.28,-0.83 -0.23,-0.26 -0.43,-0.28 -0.77,-0.3 -0.18,-0.01 -0.19,-0.01 -0.23,-0.02 -0.01,0 -0.07,-0.01 -0.07,-0.09 0,-0.1 0.07,-0.1 0.19,-0.1 z"
             id="path12019" /></g>        <g
           id="g12335"
           transform="matrix(2.1266914,0,0,-2.1266914,-70.480379,1617.7337)"
           xml:space="preserve"
           stroke-miterlimit="10.433"
           font-style="normal"
           font-variant="normal"
           font-weight="normal"
           font-stretch="normal"
           font-size-adjust="none"
           letter-spacing="normal"
           word-spacing="normal"
           ns0:text="$m_{23}$"
           style="font-style:normal;font-variant:normal;font-weight:normal;font-stretch:normal;letter-spacing:normal;word-spacing:normal;text-anchor:start;fill:#4d4d4d;fill-opacity:1;fill-rule:evenodd;stroke:#000000;stroke-linecap:butt;stroke-linejoin:miter;stroke-miterlimit:10.43299961;stroke-dasharray:none;stroke-dashoffset:0;stroke-opacity:1"><path
             style="fill:#4d4d4d;fill-opacity:1;stroke-width:0"
             inkscape:connector-curvature="0"
             d="m 224.31,707.71 0,-0.01 -0.01,-0.02 0,-0.01 0,-0.02 -0.01,-0.03 -0.01,-0.03 -0.01,-0.03 0,-0.04 -0.01,-0.03 -0.01,-0.03 0,-0.01 -0.01,-0.02 0,-0.01 0,-0.02 0,-0.01 -0.01,-0.01 0,-0.02 0,-0.01 0,-0.01 -0.01,-0.01 0,-0.01 0,-0.01 0,-0.01 0,0 0,-0.01 0,-0.01 c 0,-0.18 0.14,-0.26 0.29,-0.26 0.12,0 0.29,0.07 0.37,0.27 0,0.02 0.12,0.49 0.18,0.74 l 0.22,0.89 c 0.06,0.22 0.12,0.44 0.17,0.67 0.04,0.17 0.12,0.46 0.13,0.5 0.15,0.3 0.68,1.21 1.62,1.21 0.45,0 0.54,-0.37 0.54,-0.7 0,-0.25 -0.07,-0.52 -0.15,-0.82 l -0.28,-1.16 -0.2,-0.75 c -0.04,-0.2 -0.13,-0.54 -0.13,-0.59 0,-0.18 0.14,-0.26 0.29,-0.26 0.31,0 0.37,0.24 0.45,0.56 0.14,0.56 0.51,2.01 0.6,2.4 0.03,0.12 0.55,1.32 1.64,1.32 0.43,0 0.54,-0.34 0.54,-0.7 0,-0.56 -0.42,-1.7 -0.62,-2.22 -0.09,-0.24 -0.13,-0.35 -0.13,-0.55 0,-0.47 0.35,-0.81 0.82,-0.81 0.93,0 1.3,1.45 1.3,1.53 0,0.1 -0.09,0.1 -0.12,0.1 -0.1,0 -0.1,-0.04 -0.15,-0.18 -0.15,-0.53 -0.47,-1.24 -1.01,-1.24 -0.17,0 -0.24,0.1 -0.24,0.33 0,0.25 0.09,0.49 0.18,0.71 0.18,0.51 0.6,1.62 0.6,2.18 0,0.65 -0.39,1.07 -1.14,1.07 -0.75,0 -1.25,-0.44 -1.62,-0.97 -0.01,0.13 -0.04,0.47 -0.32,0.71 -0.25,0.21 -0.57,0.26 -0.82,0.26 -0.89,0 -1.38,-0.64 -1.55,-0.87 -0.05,0.57 -0.47,0.87 -0.92,0.87 -0.45,0 -0.64,-0.39 -0.73,-0.57 -0.18,-0.35 -0.31,-0.93 -0.31,-0.96 0,-0.1 0.1,-0.1 0.12,-0.1 0.1,0 0.11,0.01 0.17,0.22 0.17,0.71 0.37,1.19 0.73,1.19 0.16,0 0.3,-0.08 0.3,-0.46 0,-0.21 -0.03,-0.32 -0.16,-0.83 z"
             id="path12337" /><path
             style="fill:#4d4d4d;fill-opacity:1;stroke-width:0"
             inkscape:connector-curvature="0"
             d="m 235.7,706.9 -0.24,0 c -0.02,-0.16 -0.09,-0.57 -0.18,-0.64 -0.06,-0.04 -0.59,-0.04 -0.69,-0.04 l -1.28,0 c 0.73,0.65 0.97,0.84 1.39,1.17 0.51,0.41 1,0.84 1,1.5 0,0.84 -0.74,1.36 -1.63,1.36 -0.87,0 -1.45,-0.61 -1.45,-1.25 0,-0.35 0.3,-0.39 0.37,-0.39 0.16,0 0.37,0.12 0.37,0.37 0,0.13 -0.05,0.37 -0.41,0.37 0.21,0.49 0.68,0.65 1.01,0.65 0.7,0 1.06,-0.54 1.06,-1.11 0,-0.6 -0.43,-1.08 -0.65,-1.33 l -1.68,-1.66 c -0.07,-0.06 -0.07,-0.07 -0.07,-0.27 l 2.87,0 z"
             id="path12339" /><path
             style="fill:#4d4d4d;fill-opacity:1;stroke-width:0"
             inkscape:connector-curvature="0"
             d="m 238.05,707.95 0.05,0 0.05,0 0.05,-0.01 0.05,0 0.04,-0.01 0.05,-0.02 0.04,-0.01 0.05,-0.02 0.04,-0.02 0.04,-0.02 0.04,-0.02 0.04,-0.02 0.03,-0.03 0.04,-0.03 0.03,-0.03 0.03,-0.04 0.03,-0.03 0.03,-0.04 0.03,-0.04 0.02,-0.04 0.03,-0.05 0.02,-0.05 0.02,-0.05 0.02,-0.05 0.01,-0.05 0.02,-0.06 0.01,-0.05 0.01,-0.06 0,-0.07 0.01,-0.06 0,-0.07 0.01,-0.07 c 0,-0.86 -0.51,-1.12 -0.91,-1.12 -0.28,0 -0.89,0.08 -1.18,0.49 0.32,0.02 0.4,0.25 0.4,0.39 0,0.22 -0.17,0.38 -0.38,0.38 -0.2,0 -0.39,-0.12 -0.39,-0.4 0,-0.65 0.72,-1.08 1.56,-1.08 0.97,0 1.64,0.65 1.64,1.34 0,0.55 -0.44,1.09 -1.21,1.25 0.73,0.26 0.99,0.78 0.99,1.21 0,0.55 -0.63,0.96 -1.4,0.96 -0.77,0 -1.37,-0.38 -1.37,-0.93 0,-0.24 0.16,-0.37 0.36,-0.37 0.22,0 0.36,0.16 0.36,0.35 0,0.2 -0.14,0.35 -0.36,0.36 0.25,0.31 0.73,0.39 0.99,0.39 0.31,0 0.75,-0.16 0.75,-0.76 0,-0.29 -0.1,-0.61 -0.28,-0.83 -0.23,-0.26 -0.43,-0.28 -0.77,-0.3 -0.18,-0.01 -0.19,-0.01 -0.23,-0.02 -0.01,0 -0.07,-0.01 -0.07,-0.09 0,-0.1 0.07,-0.1 0.19,-0.1 z"
             id="path12341" /></g>        <g
           style="font-style:normal;font-variant:normal;font-weight:normal;font-stretch:normal;letter-spacing:normal;word-spacing:normal;text-anchor:start;fill:#4d4d4d;fill-opacity:1;fill-rule:evenodd;stroke:#000000;stroke-linecap:butt;stroke-linejoin:miter;stroke-miterlimit:10.43299961;stroke-dasharray:none;stroke-dashoffset:0;stroke-opacity:1"
           ns0:text="$m_{31}$"
           word-spacing="normal"
           letter-spacing="normal"
           font-size-adjust="none"
           font-stretch="normal"
           font-weight="normal"
           font-variant="normal"
           font-style="normal"
           stroke-miterlimit="10.433"
           xml:space="preserve"
           transform="matrix(2.1266914,0,0,-2.1266914,-203.33752,1650.948)"
           id="g12527"><path
             inkscape:connector-curvature="0"
             id="path12529"
             d="m 224.31,707.71 0,-0.01 -0.01,-0.02 0,-0.01 0,-0.02 -0.01,-0.03 -0.01,-0.03 -0.01,-0.03 0,-0.04 -0.01,-0.03 -0.01,-0.03 0,-0.01 -0.01,-0.02 0,-0.01 0,-0.02 0,-0.01 -0.01,-0.01 0,-0.02 0,-0.01 0,-0.01 -0.01,-0.01 0,-0.01 0,-0.01 0,-0.01 0,0 0,-0.01 0,-0.01 c 0,-0.18 0.14,-0.26 0.29,-0.26 0.12,0 0.29,0.07 0.37,0.27 0,0.02 0.12,0.49 0.18,0.74 l 0.22,0.89 c 0.06,0.22 0.12,0.44 0.17,0.67 0.04,0.17 0.12,0.46 0.13,0.5 0.15,0.3 0.68,1.21 1.62,1.21 0.45,0 0.54,-0.37 0.54,-0.7 0,-0.25 -0.07,-0.52 -0.15,-0.82 l -0.28,-1.16 -0.2,-0.75 c -0.04,-0.2 -0.13,-0.54 -0.13,-0.59 0,-0.18 0.14,-0.26 0.29,-0.26 0.31,0 0.37,0.24 0.45,0.56 0.14,0.56 0.51,2.01 0.6,2.4 0.03,0.12 0.55,1.32 1.64,1.32 0.43,0 0.54,-0.34 0.54,-0.7 0,-0.56 -0.42,-1.7 -0.62,-2.22 -0.09,-0.24 -0.13,-0.35 -0.13,-0.55 0,-0.47 0.35,-0.81 0.82,-0.81 0.93,0 1.3,1.45 1.3,1.53 0,0.1 -0.09,0.1 -0.12,0.1 -0.1,0 -0.1,-0.04 -0.15,-0.18 -0.15,-0.53 -0.47,-1.24 -1.01,-1.24 -0.17,0 -0.24,0.1 -0.24,0.33 0,0.25 0.09,0.49 0.18,0.71 0.18,0.51 0.6,1.62 0.6,2.18 0,0.65 -0.39,1.07 -1.14,1.07 -0.75,0 -1.25,-0.44 -1.62,-0.97 -0.01,0.13 -0.04,0.47 -0.32,0.71 -0.25,0.21 -0.57,0.26 -0.82,0.26 -0.89,0 -1.38,-0.64 -1.55,-0.87 -0.05,0.57 -0.47,0.87 -0.92,0.87 -0.45,0 -0.64,-0.39 -0.73,-0.57 -0.18,-0.35 -0.31,-0.93 -0.31,-0.96 0,-0.1 0.1,-0.1 0.12,-0.1 0.1,0 0.11,0.01 0.17,0.22 0.17,0.71 0.37,1.19 0.73,1.19 0.16,0 0.3,-0.08 0.3,-0.46 0,-0.21 -0.03,-0.32 -0.16,-0.83 z"
             style="fill:#4d4d4d;fill-opacity:1;stroke-width:0" /><path
             inkscape:connector-curvature="0"
             id="path12531"
             d="m 234.08,707.95 0.05,0 0.05,0 0.05,-0.01 0.05,0 0.04,-0.01 0.05,-0.02 0.04,-0.01 0.05,-0.02 0.04,-0.02 0.04,-0.02 0.04,-0.02 0.03,-0.02 0.04,-0.03 0.04,-0.03 0.03,-0.03 0.03,-0.04 0.03,-0.03 0.03,-0.04 0.03,-0.04 0.02,-0.04 0.03,-0.05 0.02,-0.05 0.02,-0.05 0.01,-0.05 0.02,-0.05 0.01,-0.06 0.02,-0.05 0.01,-0.06 0,-0.07 0.01,-0.06 0,-0.07 0,-0.07 c 0,-0.86 -0.5,-1.12 -0.9,-1.12 -0.28,0 -0.89,0.08 -1.19,0.49 0.33,0.02 0.41,0.25 0.41,0.39 0,0.22 -0.17,0.38 -0.38,0.38 -0.2,0 -0.4,-0.12 -0.4,-0.4 0,-0.65 0.73,-1.08 1.57,-1.08 0.97,0 1.64,0.65 1.64,1.34 0,0.55 -0.45,1.09 -1.21,1.25 0.73,0.26 0.99,0.78 0.99,1.21 0,0.55 -0.63,0.96 -1.4,0.96 -0.78,0 -1.37,-0.38 -1.37,-0.93 0,-0.24 0.15,-0.37 0.36,-0.37 0.22,0 0.36,0.16 0.36,0.35 0,0.2 -0.14,0.35 -0.36,0.36 0.25,0.31 0.73,0.39 0.99,0.39 0.31,0 0.75,-0.16 0.75,-0.76 0,-0.29 -0.1,-0.61 -0.28,-0.83 -0.23,-0.26 -0.43,-0.28 -0.77,-0.3 -0.18,-0.01 -0.19,-0.01 -0.23,-0.02 -0.01,0 -0.07,-0.01 -0.07,-0.09 0,-0.1 0.07,-0.1 0.18,-0.1 z"
             style="fill:#4d4d4d;fill-opacity:1;stroke-width:0" /><path
             inkscape:connector-curvature="0"
             id="path12533"
             d="m 238.48,710.05 0,0.01 0,0.01 0,0.01 0,0.01 0,0 0,0.01 0,0.01 0,0.01 0,0 0,0.01 0,0.01 0,0 0,0.01 0,0 0,0.01 0,0 0,0.01 0,0 -0.01,0.01 0,0.01 0,0.01 0,0 -0.01,0.01 0,0.01 -0.01,0 0,0.01 -0.01,0 -0.01,0 0,0.01 -0.01,0 -0.01,0 -0.01,0 0,0 -0.01,0 -0.01,0 0,0.01 -0.01,0 0,0 -0.01,0 -0.01,0 0,0 -0.01,0 -0.01,0 0,0 -0.01,0 -0.01,0 -0.01,0 -0.01,0 -0.01,0 -0.01,0 c -0.44,-0.44 -1.07,-0.45 -1.36,-0.45 l 0,-0.25 c 0.17,0 0.63,0 1.01,0.2 l 0,-3.55 c 0,-0.23 0,-0.32 -0.7,-0.32 l -0.26,0 0,-0.25 c 0.12,0.01 0.98,0.03 1.24,0.03 0.21,0 1.09,-0.02 1.25,-0.03 l 0,0.25 -0.27,0 c -0.7,0 -0.7,0.09 -0.7,0.32 z"
             style="fill:#4d4d4d;fill-opacity:1;stroke-width:0" /></g>        <g
           id="g12701"
           transform="matrix(2.1266914,0,0,-2.1266914,-127.98038,1650.948)"
           xml:space="preserve"
           stroke-miterlimit="10.433"
           font-style="normal"
           font-variant="normal"
           font-weight="normal"
           font-stretch="normal"
           font-size-adjust="none"
           letter-spacing="normal"
           word-spacing="normal"
           ns0:text="$m_{32}$"
           style="font-style:normal;font-variant:normal;font-weight:normal;font-stretch:normal;letter-spacing:normal;word-spacing:normal;text-anchor:start;fill:#4d4d4d;fill-opacity:1;fill-rule:evenodd;stroke:#000000;stroke-linecap:butt;stroke-linejoin:miter;stroke-miterlimit:10.43299961;stroke-dasharray:none;stroke-dashoffset:0;stroke-opacity:1"><path
             inkscape:connector-curvature="0"
             d="m 224.31,707.71 0,-0.01 -0.01,-0.02 0,-0.01 0,-0.02 -0.01,-0.03 -0.01,-0.03 -0.01,-0.03 0,-0.04 -0.01,-0.03 -0.01,-0.03 0,-0.01 -0.01,-0.02 0,-0.01 0,-0.02 0,-0.01 -0.01,-0.01 0,-0.02 0,-0.01 0,-0.01 -0.01,-0.01 0,-0.01 0,-0.01 0,-0.01 0,0 0,-0.01 0,-0.01 c 0,-0.18 0.14,-0.26 0.29,-0.26 0.12,0 0.29,0.07 0.37,0.27 0,0.02 0.12,0.49 0.18,0.74 l 0.22,0.89 c 0.06,0.22 0.12,0.44 0.17,0.67 0.04,0.17 0.12,0.46 0.13,0.5 0.15,0.3 0.68,1.21 1.62,1.21 0.45,0 0.54,-0.37 0.54,-0.7 0,-0.25 -0.07,-0.52 -0.15,-0.82 l -0.28,-1.16 -0.2,-0.75 c -0.04,-0.2 -0.13,-0.54 -0.13,-0.59 0,-0.18 0.14,-0.26 0.29,-0.26 0.31,0 0.37,0.24 0.45,0.56 0.14,0.56 0.51,2.01 0.6,2.4 0.03,0.12 0.55,1.32 1.64,1.32 0.43,0 0.54,-0.34 0.54,-0.7 0,-0.56 -0.42,-1.7 -0.62,-2.22 -0.09,-0.24 -0.13,-0.35 -0.13,-0.55 0,-0.47 0.35,-0.81 0.82,-0.81 0.93,0 1.3,1.45 1.3,1.53 0,0.1 -0.09,0.1 -0.12,0.1 -0.1,0 -0.1,-0.04 -0.15,-0.18 -0.15,-0.53 -0.47,-1.24 -1.01,-1.24 -0.17,0 -0.24,0.1 -0.24,0.33 0,0.25 0.09,0.49 0.18,0.71 0.18,0.51 0.6,1.62 0.6,2.18 0,0.65 -0.39,1.07 -1.14,1.07 -0.75,0 -1.25,-0.44 -1.62,-0.97 -0.01,0.13 -0.04,0.47 -0.32,0.71 -0.25,0.21 -0.57,0.26 -0.82,0.26 -0.89,0 -1.38,-0.64 -1.55,-0.87 -0.05,0.57 -0.47,0.87 -0.92,0.87 -0.45,0 -0.64,-0.39 -0.73,-0.57 -0.18,-0.35 -0.31,-0.93 -0.31,-0.96 0,-0.1 0.1,-0.1 0.12,-0.1 0.1,0 0.11,0.01 0.17,0.22 0.17,0.71 0.37,1.19 0.73,1.19 0.16,0 0.3,-0.08 0.3,-0.46 0,-0.21 -0.03,-0.32 -0.16,-0.83 z"
             id="path12703"
             style="fill:#4d4d4d;fill-opacity:1;stroke-width:0" /><path
             inkscape:connector-curvature="0"
             d="m 234.08,707.95 0.05,0 0.05,0 0.05,-0.01 0.05,0 0.04,-0.01 0.05,-0.02 0.04,-0.01 0.05,-0.02 0.04,-0.02 0.04,-0.02 0.04,-0.02 0.03,-0.02 0.04,-0.03 0.04,-0.03 0.03,-0.03 0.03,-0.04 0.03,-0.03 0.03,-0.04 0.03,-0.04 0.02,-0.04 0.03,-0.05 0.02,-0.05 0.02,-0.05 0.01,-0.05 0.02,-0.05 0.01,-0.06 0.02,-0.05 0.01,-0.06 0,-0.07 0.01,-0.06 0,-0.07 0,-0.07 c 0,-0.86 -0.5,-1.12 -0.9,-1.12 -0.28,0 -0.89,0.08 -1.19,0.49 0.33,0.02 0.41,0.25 0.41,0.39 0,0.22 -0.17,0.38 -0.38,0.38 -0.2,0 -0.4,-0.12 -0.4,-0.4 0,-0.65 0.73,-1.08 1.57,-1.08 0.97,0 1.64,0.65 1.64,1.34 0,0.55 -0.45,1.09 -1.21,1.25 0.73,0.26 0.99,0.78 0.99,1.21 0,0.55 -0.63,0.96 -1.4,0.96 -0.78,0 -1.37,-0.38 -1.37,-0.93 0,-0.24 0.15,-0.37 0.36,-0.37 0.22,0 0.36,0.16 0.36,0.35 0,0.2 -0.14,0.35 -0.36,0.36 0.25,0.31 0.73,0.39 0.99,0.39 0.31,0 0.75,-0.16 0.75,-0.76 0,-0.29 -0.1,-0.61 -0.28,-0.83 -0.23,-0.26 -0.43,-0.28 -0.77,-0.3 -0.18,-0.01 -0.19,-0.01 -0.23,-0.02 -0.01,0 -0.07,-0.01 -0.07,-0.09 0,-0.1 0.07,-0.1 0.18,-0.1 z"
             id="path12705"
             style="fill:#4d4d4d;fill-opacity:1;stroke-width:0" /><path
             inkscape:connector-curvature="0"
             d="m 239.67,706.9 -0.24,0 c -0.02,-0.16 -0.09,-0.57 -0.18,-0.64 -0.06,-0.04 -0.59,-0.04 -0.69,-0.04 l -1.28,0 c 0.73,0.65 0.97,0.84 1.39,1.17 0.52,0.41 1,0.84 1,1.5 0,0.84 -0.74,1.36 -1.63,1.36 -0.87,0 -1.45,-0.61 -1.45,-1.25 0,-0.35 0.3,-0.39 0.37,-0.39 0.17,0 0.37,0.12 0.37,0.37 0,0.13 -0.05,0.37 -0.41,0.37 0.21,0.49 0.69,0.65 1.01,0.65 0.7,0 1.06,-0.54 1.06,-1.11 0,-0.6 -0.43,-1.08 -0.65,-1.33 l -1.68,-1.66 c -0.07,-0.06 -0.07,-0.07 -0.07,-0.27 l 2.87,0 z"
             id="path12707"
             style="fill:#4d4d4d;fill-opacity:1;stroke-width:0" /></g>        <g
           style="font-style:normal;font-variant:normal;font-weight:normal;font-stretch:normal;letter-spacing:normal;word-spacing:normal;text-anchor:start;fill:#d2504b;fill-opacity:1;fill-rule:evenodd;stroke:#000000;stroke-linecap:butt;stroke-linejoin:miter;stroke-miterlimit:10.43299961;stroke-dasharray:none;stroke-dashoffset:0;stroke-opacity:1"
           ns0:text="$m_{33}$"
           word-spacing="normal"
           letter-spacing="normal"
           font-size-adjust="none"
           font-stretch="normal"
           font-weight="normal"
           font-variant="normal"
           font-style="normal"
           stroke-miterlimit="10.433"
           xml:space="preserve"
           transform="matrix(2.1266914,0,0,-2.1266914,-70.480379,1650.948)"
           id="g12875"><path
             inkscape:connector-curvature="0"
             id="path12877"
             d="m 224.31,707.71 0,-0.01 -0.01,-0.02 0,-0.01 0,-0.02 -0.01,-0.03 -0.01,-0.03 -0.01,-0.03 0,-0.04 -0.01,-0.03 -0.01,-0.03 0,-0.01 -0.01,-0.02 0,-0.01 0,-0.02 0,-0.01 -0.01,-0.01 0,-0.02 0,-0.01 0,-0.01 -0.01,-0.01 0,-0.01 0,-0.01 0,-0.01 0,0 0,-0.01 0,-0.01 c 0,-0.18 0.14,-0.26 0.29,-0.26 0.12,0 0.29,0.07 0.37,0.27 0,0.02 0.12,0.49 0.18,0.74 l 0.22,0.89 c 0.06,0.22 0.12,0.44 0.17,0.67 0.04,0.17 0.12,0.46 0.13,0.5 0.15,0.3 0.68,1.21 1.62,1.21 0.45,0 0.54,-0.37 0.54,-0.7 0,-0.25 -0.07,-0.52 -0.15,-0.82 l -0.28,-1.16 -0.2,-0.75 c -0.04,-0.2 -0.13,-0.54 -0.13,-0.59 0,-0.18 0.14,-0.26 0.29,-0.26 0.31,0 0.37,0.24 0.45,0.56 0.14,0.56 0.51,2.01 0.6,2.4 0.03,0.12 0.55,1.32 1.64,1.32 0.43,0 0.54,-0.34 0.54,-0.7 0,-0.56 -0.42,-1.7 -0.62,-2.22 -0.09,-0.24 -0.13,-0.35 -0.13,-0.55 0,-0.47 0.35,-0.81 0.82,-0.81 0.93,0 1.3,1.45 1.3,1.53 0,0.1 -0.09,0.1 -0.12,0.1 -0.1,0 -0.1,-0.04 -0.15,-0.18 -0.15,-0.53 -0.47,-1.24 -1.01,-1.24 -0.17,0 -0.24,0.1 -0.24,0.33 0,0.25 0.09,0.49 0.18,0.71 0.18,0.51 0.6,1.62 0.6,2.18 0,0.65 -0.39,1.07 -1.14,1.07 -0.75,0 -1.25,-0.44 -1.62,-0.97 -0.01,0.13 -0.04,0.47 -0.32,0.71 -0.25,0.21 -0.57,0.26 -0.82,0.26 -0.89,0 -1.38,-0.64 -1.55,-0.87 -0.05,0.57 -0.47,0.87 -0.92,0.87 -0.45,0 -0.64,-0.39 -0.73,-0.57 -0.18,-0.35 -0.31,-0.93 -0.31,-0.96 0,-0.1 0.1,-0.1 0.12,-0.1 0.1,0 0.11,0.01 0.17,0.22 0.17,0.71 0.37,1.19 0.73,1.19 0.16,0 0.3,-0.08 0.3,-0.46 0,-0.21 -0.03,-0.32 -0.16,-0.83 z"
             style="fill:#d2504b;fill-opacity:1;stroke-width:0" /><path
             inkscape:connector-curvature="0"
             id="path12879"
             d="m 234.08,707.95 0.05,0 0.05,0 0.05,-0.01 0.05,0 0.04,-0.01 0.05,-0.02 0.04,-0.01 0.05,-0.02 0.04,-0.02 0.04,-0.02 0.04,-0.02 0.03,-0.02 0.04,-0.03 0.04,-0.03 0.03,-0.03 0.03,-0.04 0.03,-0.03 0.03,-0.04 0.03,-0.04 0.02,-0.04 0.03,-0.05 0.02,-0.05 0.02,-0.05 0.01,-0.05 0.02,-0.05 0.01,-0.06 0.02,-0.05 0.01,-0.06 0,-0.07 0.01,-0.06 0,-0.07 0,-0.07 c 0,-0.86 -0.5,-1.12 -0.9,-1.12 -0.28,0 -0.89,0.08 -1.19,0.49 0.33,0.02 0.41,0.25 0.41,0.39 0,0.22 -0.17,0.38 -0.38,0.38 -0.2,0 -0.4,-0.12 -0.4,-0.4 0,-0.65 0.73,-1.08 1.57,-1.08 0.97,0 1.64,0.65 1.64,1.34 0,0.55 -0.45,1.09 -1.21,1.25 0.73,0.26 0.99,0.78 0.99,1.21 0,0.55 -0.63,0.96 -1.4,0.96 -0.78,0 -1.37,-0.38 -1.37,-0.93 0,-0.24 0.15,-0.37 0.36,-0.37 0.22,0 0.36,0.16 0.36,0.35 0,0.2 -0.14,0.35 -0.36,0.36 0.25,0.31 0.73,0.39 0.99,0.39 0.31,0 0.75,-0.16 0.75,-0.76 0,-0.29 -0.1,-0.61 -0.28,-0.83 -0.23,-0.26 -0.43,-0.28 -0.77,-0.3 -0.18,-0.01 -0.19,-0.01 -0.23,-0.02 -0.01,0 -0.07,-0.01 -0.07,-0.09 0,-0.1 0.07,-0.1 0.18,-0.1 z"
             style="fill:#d2504b;fill-opacity:1;stroke-width:0" /><path
             inkscape:connector-curvature="0"
             id="path12881"
             d="m 238.05,707.95 0.05,0 0.05,0 0.05,-0.01 0.05,0 0.04,-0.01 0.05,-0.02 0.04,-0.01 0.05,-0.02 0.04,-0.02 0.04,-0.02 0.04,-0.02 0.04,-0.02 0.03,-0.03 0.04,-0.03 0.03,-0.03 0.03,-0.04 0.03,-0.03 0.03,-0.04 0.03,-0.04 0.02,-0.04 0.03,-0.05 0.02,-0.05 0.02,-0.05 0.02,-0.05 0.01,-0.05 0.02,-0.06 0.01,-0.05 0.01,-0.06 0,-0.07 0.01,-0.06 0,-0.07 0.01,-0.07 c 0,-0.86 -0.51,-1.12 -0.91,-1.12 -0.28,0 -0.89,0.08 -1.18,0.49 0.32,0.02 0.4,0.25 0.4,0.39 0,0.22 -0.17,0.38 -0.38,0.38 -0.2,0 -0.39,-0.12 -0.39,-0.4 0,-0.65 0.72,-1.08 1.56,-1.08 0.97,0 1.64,0.65 1.64,1.34 0,0.55 -0.44,1.09 -1.21,1.25 0.73,0.26 0.99,0.78 0.99,1.21 0,0.55 -0.63,0.96 -1.4,0.96 -0.77,0 -1.37,-0.38 -1.37,-0.93 0,-0.24 0.16,-0.37 0.36,-0.37 0.22,0 0.36,0.16 0.36,0.35 0,0.2 -0.14,0.35 -0.36,0.36 0.25,0.31 0.73,0.39 0.99,0.39 0.31,0 0.75,-0.16 0.75,-0.76 0,-0.29 -0.1,-0.61 -0.28,-0.83 -0.23,-0.26 -0.43,-0.28 -0.77,-0.3 -0.18,-0.01 -0.19,-0.01 -0.23,-0.02 -0.01,0 -0.07,-0.01 -0.07,-0.09 0,-0.1 0.07,-0.1 0.19,-0.1 z"
             style="fill:#d2504b;fill-opacity:1;stroke-width:0" /></g>        <path
           style="fill:none;fill-rule:evenodd;stroke:#4d4d4d;stroke-width:2.0043416;stroke-linecap:butt;stroke-linejoin:round;stroke-miterlimit:4;stroke-dasharray:none;stroke-opacity:1"
           d="m 431.41597,49.359348 19.67382,0 0,111.312202 -19.67382,0"
           id="path12454"
           inkscape:connector-curvature="0"
           sodipodi:nodetypes="cccc" />
      </g>
    </g>
    <g
       id="g4312"
       transform="translate(9.4456329e-6,-0.43719501)">
      <g
         id="g12456">
        <text
           xml:space="preserve"
           style="font-style:normal;font-weight:normal;font-size:40.34812164px;line-height:125%;font-family:Sans;letter-spacing:0px;word-spacing:0px;fill:#000000;fill-opacity:1;stroke:none;stroke-width:1px;stroke-linecap:butt;stroke-linejoin:miter;stroke-opacity:1"
           x="251.6945"
           y="59.389416"
           id="text11334"
           sodipodi:linespacing="125%"><tspan
             sodipodi:role="line"
             id="tspan11336"
             x="251.6945"
             y="59.389416"
             style="font-style:normal;font-variant:normal;font-weight:normal;font-stretch:normal;font-size:16.1392498px;font-family:sans-serif;-inkscape-font-specification:sans-serif;fill:#000000;fill-opacity:1">Matrix2</tspan></text>
        <g
           id="g11770"
           transform="translate(348.50263,2.5910079)">
          <rect
             style="opacity:1;fill:#ffe5d7;fill-opacity:1;fill-rule:evenodd;stroke:#000000;stroke-width:3.89119792;stroke-linecap:butt;stroke-linejoin:round;stroke-miterlimit:4;stroke-dasharray:none;stroke-dashoffset:0;stroke-opacity:0"
             id="rect11270"
             width="145.92915"
             height="80.060776"
             x="-94.691986"
             y="62.321831" />
          <path
             style="fill:none;fill-rule:evenodd;stroke:#4d4d4d;stroke-width:2.00221872;stroke-linecap:butt;stroke-linejoin:round;stroke-miterlimit:4;stroke-dasharray:none;stroke-opacity:1"
             d="m 32.513442,63.046436 19.915938,0 0,78.829404 -19.915938,0"
             id="path11272"
             inkscape:connector-curvature="0"
             sodipodi:nodetypes="cccc" />
          <path
             sodipodi:nodetypes="cccc"
             inkscape:connector-curvature="0"
             id="path11332"
             d="m -75.780431,63.04815 -19.913881,0 0,79.07908 19.913881,0"
             style="fill:none;fill-rule:evenodd;stroke:#4d4d4d;stroke-width:2.00221872;stroke-linecap:butt;stroke-linejoin:round;stroke-miterlimit:4;stroke-dasharray:none;stroke-opacity:1" />
          <g
             id="content"
             transform="matrix(2.780055,0,0,-2.780055,-717.62135,2062.1954)"
             xml:space="preserve"
             stroke-miterlimit="10.433"
             font-style="normal"
             font-variant="normal"
             font-weight="normal"
             font-stretch="normal"
             font-size-adjust="none"
             letter-spacing="normal"
             word-spacing="normal"
             ns0:text="$\\begin{array}{cc}\n\\frac{m_{11}}{} &amp; \\frac{m_{12}}{}\\\\\n\\frac{m_{21}}{} &amp; \\frac{m_{22}}{}\n\\end{array}$"
             style="font-style:normal;font-variant:normal;font-weight:normal;font-stretch:normal;letter-spacing:normal;word-spacing:normal;text-anchor:start;fill:#6b3c41;fill-opacity:1;fill-rule:evenodd;stroke:#000000;stroke-linecap:butt;stroke-linejoin:miter;stroke-miterlimit:10.43299961;stroke-dasharray:none;stroke-dashoffset:0;stroke-opacity:0"><path
               d="m 232.63,713.37 0,-0.02 0,-0.01 -0.01,-0.01 0,-0.02 -0.01,-0.01 0,-0.02 -0.01,-0.03 -0.01,-0.03 0,-0.03 -0.01,-0.04 -0.01,-0.01 0,-0.02 0,-0.01 -0.01,-0.02 0,-0.01 0,-0.01 -0.01,-0.02 0,-0.01 0,-0.01 -0.01,-0.01 0,-0.01 0,-0.01 0,-0.01 0,-0.01 0,-0.01 -0.01,0 0,-0.01 0,0 c 0,-0.16 0.13,-0.23 0.24,-0.23 0.13,0 0.24,0.1 0.27,0.16 0.04,0.06 0.09,0.28 0.13,0.43 0.03,0.13 0.11,0.45 0.15,0.62 0.04,0.16 0.08,0.31 0.12,0.47 0.08,0.3 0.08,0.31 0.21,0.53 0.23,0.34 0.58,0.74 1.12,0.74 0.39,0 0.41,-0.32 0.41,-0.49 0,-0.42 -0.3,-1.19 -0.41,-1.48 -0.08,-0.2 -0.11,-0.26 -0.11,-0.38 0,-0.37 0.31,-0.6 0.67,-0.6 0.69,0 1,0.96 1,1.07 0,0.09 -0.09,0.09 -0.11,0.09 -0.1,0 -0.11,-0.04 -0.13,-0.12 -0.16,-0.56 -0.46,-0.84 -0.74,-0.84 -0.15,0 -0.18,0.1 -0.18,0.24 0,0.16 0.04,0.25 0.16,0.57 0.09,0.21 0.37,0.95 0.37,1.34 0,0.11 0,0.4 -0.25,0.6 -0.12,0.09 -0.33,0.19 -0.65,0.19 -0.63,0 -1.01,-0.41 -1.23,-0.7 -0.06,0.59 -0.56,0.7 -0.91,0.7 -0.58,0 -0.97,-0.35 -1.18,-0.63 -0.05,0.48 -0.46,0.63 -0.74,0.63 -0.3,0 -0.46,-0.21 -0.55,-0.38 -0.16,-0.25 -0.25,-0.65 -0.25,-0.68 0,-0.09 0.09,-0.09 0.11,-0.09 0.1,0 0.11,0.02 0.16,0.2 0.1,0.42 0.24,0.76 0.51,0.76 0.18,0 0.23,-0.16 0.23,-0.34 0,-0.14 -0.07,-0.39 -0.11,-0.58 -0.05,-0.19 -0.12,-0.48 -0.16,-0.63 l -0.22,-0.89 c -0.03,-0.09 -0.07,-0.26 -0.07,-0.28 0,-0.16 0.12,-0.23 0.24,-0.23 0.12,0 0.23,0.1 0.27,0.16 0.03,0.06 0.09,0.28 0.12,0.43 0.04,0.13 0.11,0.45 0.16,0.62 0.04,0.16 0.08,0.31 0.11,0.47 0.08,0.29 0.09,0.34 0.3,0.63 0.19,0.27 0.52,0.64 1.04,0.64 0.41,0 0.41,-0.36 0.41,-0.49 0,-0.17 -0.02,-0.27 -0.12,-0.66 z"
               id="path15768"
               style="fill:#6b3c41;fill-opacity:1;stroke-width:0"
               inkscape:connector-curvature="0" /><path
               d="m 238.66,714.97 0,0 0,0.01 0,0.01 0,0 0,0.01 0,0.01 0,0 0,0.01 0,0 0,0.01 0,0 0,0.01 0,0 0,0 -0.01,0.01 0,0 0,0.01 0,0 0,0 0,0.01 0,0 0,0.01 -0.01,0 0,0.01 0,0 -0.01,0.01 0,0 -0.01,0 0,0.01 -0.01,0 -0.01,0 -0.01,0 0,0 -0.01,0 0,0 -0.01,0 0,0 -0.01,0 0,0.01 -0.01,0 0,0 -0.01,0 -0.01,0 0,0 -0.01,0 0,0 -0.01,0 -0.01,0 -0.01,0 0,0 -0.01,0 c -0.35,-0.32 -0.91,-0.32 -1,-0.32 l -0.09,0 0,-0.22 0.09,0 c 0.11,0 0.43,0.01 0.72,0.14 l 0,-2.49 c 0,-0.15 0,-0.2 -0.53,-0.2 l -0.24,0 0,-0.22 c 0.27,0.02 0.71,0.02 1,0.02 0.29,0 0.73,0 1,-0.02 l 0,0.22 -0.24,0 c -0.53,0 -0.53,0.05 -0.53,0.2 z"
               id="path15770"
               style="fill:#6b3c41;fill-opacity:1;stroke-width:0"
               inkscape:connector-curvature="0" /><path
               d="m 242.05,714.97 0,0 0,0.01 0,0.01 0,0 0,0.01 0,0.01 0,0 0,0.01 0,0 0,0.01 0,0 0,0.01 0,0 0,0 -0.01,0.01 0,0 0,0.01 0,0 0,0 0,0.01 0,0 0,0.01 -0.01,0 0,0.01 0,0 -0.01,0.01 0,0 -0.01,0 0,0.01 -0.01,0 -0.01,0 -0.01,0 0,0 -0.01,0 0,0 -0.01,0 0,0 -0.01,0 0,0.01 -0.01,0 0,0 -0.01,0 -0.01,0 0,0 -0.01,0 0,0 -0.01,0 -0.01,0 -0.01,0 0,0 -0.01,0 c -0.35,-0.32 -0.91,-0.32 -1,-0.32 l -0.09,0 0,-0.22 0.09,0 c 0.11,0 0.43,0.01 0.72,0.14 l 0,-2.49 c 0,-0.15 0,-0.2 -0.53,-0.2 l -0.24,0 0,-0.22 c 0.27,0.02 0.71,0.02 1,0.02 0.29,0 0.73,0 1,-0.02 l 0,0.22 -0.24,0 c -0.53,0 -0.53,0.05 -0.53,0.2 z"
               id="path15772"
               style="fill:#6b3c41;fill-opacity:1;stroke-width:0"
               inkscape:connector-curvature="0" /><line
               x1="229.61"
               y1="711.21002"
               x2="243.96001"
               y2="711.21002"
               id="line15774"
               style="fill:#6b3c41;fill-opacity:1;stroke-width:0.398" /><path
               d="m 259.33,713.37 0,-0.02 0,-0.01 -0.01,-0.01 0,-0.02 0,-0.01 -0.01,-0.02 -0.01,-0.03 0,-0.03 -0.01,-0.03 -0.01,-0.04 0,-0.01 -0.01,-0.02 0,-0.01 -0.01,-0.02 0,-0.01 0,-0.01 -0.01,-0.02 0,-0.01 0,-0.01 0,-0.01 -0.01,-0.01 0,-0.01 0,-0.01 0,-0.01 0,-0.01 0,0 0,-0.01 0,0 c 0,-0.16 0.12,-0.23 0.23,-0.23 0.13,0 0.24,0.1 0.27,0.16 0.04,0.06 0.09,0.28 0.13,0.43 0.03,0.13 0.11,0.45 0.15,0.62 0.05,0.16 0.09,0.31 0.12,0.47 0.08,0.3 0.08,0.31 0.22,0.53 0.22,0.34 0.57,0.74 1.11,0.74 0.39,0 0.41,-0.32 0.41,-0.49 0,-0.42 -0.3,-1.19 -0.41,-1.48 -0.08,-0.2 -0.1,-0.26 -0.1,-0.38 0,-0.37 0.3,-0.6 0.66,-0.6 0.7,0 1,0.96 1,1.07 0,0.09 -0.09,0.09 -0.11,0.09 -0.1,0 -0.1,-0.04 -0.13,-0.12 -0.16,-0.56 -0.46,-0.84 -0.74,-0.84 -0.15,0 -0.17,0.1 -0.17,0.24 0,0.16 0.03,0.25 0.16,0.57 0.08,0.21 0.36,0.95 0.36,1.34 0,0.11 0,0.4 -0.25,0.6 -0.12,0.09 -0.32,0.19 -0.65,0.19 -0.63,0 -1.01,-0.41 -1.23,-0.7 -0.06,0.59 -0.55,0.7 -0.91,0.7 -0.58,0 -0.97,-0.35 -1.18,-0.63 -0.04,0.48 -0.45,0.63 -0.74,0.63 -0.3,0 -0.46,-0.21 -0.55,-0.38 -0.15,-0.25 -0.25,-0.65 -0.25,-0.68 0,-0.09 0.1,-0.09 0.12,-0.09 0.09,0 0.1,0.02 0.15,0.2 0.1,0.42 0.24,0.76 0.51,0.76 0.18,0 0.23,-0.16 0.23,-0.34 0,-0.14 -0.06,-0.39 -0.11,-0.58 -0.05,-0.19 -0.12,-0.48 -0.16,-0.63 l -0.22,-0.89 c -0.03,-0.09 -0.07,-0.26 -0.07,-0.28 0,-0.16 0.13,-0.23 0.24,-0.23 0.12,0 0.24,0.1 0.27,0.16 0.03,0.06 0.09,0.28 0.13,0.43 0.03,0.13 0.11,0.45 0.15,0.62 0.04,0.16 0.08,0.31 0.12,0.47 0.07,0.29 0.09,0.34 0.29,0.63 0.19,0.27 0.52,0.64 1.04,0.64 0.41,0 0.41,-0.36 0.41,-0.49 0,-0.17 -0.02,-0.27 -0.11,-0.66 z"
               id="path15776"
               style="fill:#6b3c41;fill-opacity:1;stroke-width:0"
               inkscape:connector-curvature="0" /><path
               d="m 265.36,714.97 0,0 0,0.01 0,0.01 0,0 0,0.01 0,0.01 0,0 0,0.01 0,0 0,0.01 0,0 0,0.01 0,0 0,0 0,0.01 0,0 -0.01,0.01 0,0 0,0 0,0.01 0,0 0,0.01 -0.01,0 0,0.01 0,0 -0.01,0.01 0,0 -0.01,0 0,0.01 -0.01,0 -0.01,0 0,0 -0.01,0 -0.01,0 0,0 -0.01,0 0,0 -0.01,0 0,0.01 -0.01,0 0,0 -0.01,0 0,0 -0.01,0 -0.01,0 0,0 -0.01,0 -0.01,0 0,0 -0.01,0 -0.01,0 c -0.35,-0.32 -0.91,-0.32 -1,-0.32 l -0.09,0 0,-0.22 0.09,0 c 0.11,0 0.43,0.01 0.72,0.14 l 0,-2.49 c 0,-0.15 0,-0.2 -0.52,-0.2 l -0.25,0 0,-0.22 c 0.27,0.02 0.71,0.02 1,0.02 0.29,0 0.73,0 1.01,-0.02 l 0,0.22 -0.25,0 c -0.53,0 -0.53,0.05 -0.53,0.2 z"
               id="path15778"
               style="fill:#6b3c41;fill-opacity:1;stroke-width:0"
               inkscape:connector-curvature="0" /><path
               d="m 269.7,712.77 -0.21,0 c -0.01,-0.1 -0.06,-0.41 -0.14,-0.45 -0.04,-0.04 -0.46,-0.04 -0.53,-0.04 l -0.98,0 c 0.33,0.25 0.7,0.53 0.99,0.73 0.45,0.3 0.87,0.59 0.87,1.12 0,0.63 -0.6,0.99 -1.31,0.99 -0.68,0 -1.17,-0.39 -1.17,-0.88 0,-0.26 0.22,-0.3 0.29,-0.3 0.14,0 0.29,0.09 0.29,0.29 0,0.18 -0.12,0.28 -0.28,0.3 0.14,0.22 0.43,0.37 0.76,0.37 0.49,0 0.89,-0.29 0.89,-0.78 0,-0.41 -0.29,-0.73 -0.67,-1.05 l -1.22,-1.03 c -0.05,-0.05 -0.05,-0.05 -0.06,-0.08 l 0,-0.15 2.32,0 z"
               id="path15780"
               style="fill:#6b3c41;fill-opacity:1;stroke-width:0"
               inkscape:connector-curvature="0" /><line
               x1="256.31"
               y1="711.21002"
               x2="270.66"
               y2="711.21002"
               id="line15782"
               style="fill:#6b3c41;fill-opacity:1;stroke-width:0.398" /><path
               d="m 232.63,701.41 0,-0.01 0,-0.02 -0.01,-0.01 0,-0.01 -0.01,-0.02 0,-0.01 -0.01,-0.04 -0.01,-0.03 0,-0.03 -0.01,-0.03 -0.01,-0.02 0,-0.01 0,-0.02 -0.01,-0.01 0,-0.02 0,-0.01 -0.01,-0.01 0,-0.02 0,-0.01 -0.01,-0.01 0,-0.01 0,-0.01 0,-0.01 0,-0.01 0,0 -0.01,-0.01 0,0 0,-0.01 c 0,-0.15 0.13,-0.22 0.24,-0.22 0.13,0 0.24,0.09 0.27,0.15 0.04,0.06 0.09,0.29 0.13,0.43 0.03,0.14 0.11,0.46 0.15,0.63 0.04,0.15 0.08,0.3 0.12,0.47 0.08,0.29 0.08,0.31 0.21,0.52 0.23,0.34 0.58,0.74 1.12,0.74 0.39,0 0.41,-0.32 0.41,-0.49 0,-0.41 -0.3,-1.19 -0.41,-1.48 -0.08,-0.19 -0.11,-0.25 -0.11,-0.37 0,-0.37 0.31,-0.6 0.67,-0.6 0.69,0 1,0.96 1,1.06 0,0.09 -0.09,0.09 -0.11,0.09 -0.1,0 -0.11,-0.04 -0.13,-0.11 -0.16,-0.56 -0.46,-0.85 -0.74,-0.85 -0.15,0 -0.18,0.1 -0.18,0.25 0,0.16 0.04,0.25 0.16,0.56 0.09,0.22 0.37,0.95 0.37,1.34 0,0.11 0,0.41 -0.25,0.61 -0.12,0.09 -0.33,0.19 -0.65,0.19 -0.63,0 -1.01,-0.41 -1.23,-0.71 -0.06,0.59 -0.56,0.71 -0.91,0.71 -0.58,0 -0.97,-0.36 -1.18,-0.64 -0.05,0.48 -0.46,0.64 -0.74,0.64 -0.3,0 -0.46,-0.22 -0.55,-0.38 -0.16,-0.26 -0.25,-0.65 -0.25,-0.69 0,-0.09 0.09,-0.09 0.11,-0.09 0.1,0 0.11,0.02 0.16,0.21 0.1,0.41 0.24,0.75 0.51,0.75 0.18,0 0.23,-0.15 0.23,-0.34 0,-0.13 -0.07,-0.39 -0.11,-0.58 -0.05,-0.19 -0.12,-0.47 -0.16,-0.62 l -0.22,-0.89 c -0.03,-0.09 -0.07,-0.27 -0.07,-0.29 0,-0.15 0.12,-0.22 0.24,-0.22 0.12,0 0.23,0.09 0.27,0.15 0.03,0.06 0.09,0.29 0.12,0.43 0.04,0.14 0.11,0.46 0.16,0.63 0.04,0.15 0.08,0.3 0.11,0.47 0.08,0.28 0.09,0.34 0.3,0.62 0.19,0.28 0.52,0.64 1.04,0.64 0.41,0 0.41,-0.35 0.41,-0.49 0,-0.17 -0.02,-0.26 -0.12,-0.65 z"
               id="path15784"
               style="fill:#6b3c41;fill-opacity:1;stroke-width:0"
               inkscape:connector-curvature="0" /><path
               d="m 239.61,700.81 -0.21,0 c -0.02,-0.09 -0.06,-0.4 -0.14,-0.45 -0.04,-0.03 -0.46,-0.03 -0.54,-0.03 l -0.97,0 c 0.33,0.24 0.7,0.52 0.99,0.72 0.45,0.31 0.87,0.6 0.87,1.12 0,0.64 -0.6,0.99 -1.31,0.99 -0.68,0 -1.17,-0.39 -1.17,-0.87 0,-0.26 0.22,-0.31 0.29,-0.31 0.13,0 0.29,0.09 0.29,0.3 0,0.18 -0.13,0.27 -0.28,0.29 0.14,0.22 0.43,0.37 0.76,0.37 0.48,0 0.89,-0.29 0.89,-0.77 0,-0.42 -0.29,-0.74 -0.68,-1.06 l -1.21,-1.03 c -0.05,-0.04 -0.05,-0.04 -0.06,-0.08 l 0,-0.15 2.32,0 z"
               id="path15786"
               style="fill:#6b3c41;fill-opacity:1;stroke-width:0"
               inkscape:connector-curvature="0" /><path
               d="m 242.05,703.01 0,0.01 0,0 0,0.01 0,0.01 0,0 0,0.01 0,0 0,0.01 0,0.01 0,0 0,0.01 0,0 0,0 0,0.01 -0.01,0 0,0.01 0,0 0,0 0,0.01 0,0 0,0.01 0,0 -0.01,0.01 0,0 0,0.01 -0.01,0 0,0 -0.01,0.01 0,0 -0.01,0 -0.01,0 -0.01,0.01 0,0 -0.01,0 0,0 -0.01,0 0,0 -0.01,0 0,0 -0.01,0 0,0 -0.01,0 -0.01,0 0,0 -0.01,0 0,0 -0.01,0 -0.01,0 -0.01,0 0,0 -0.01,0 c -0.35,-0.32 -0.91,-0.32 -1,-0.32 l -0.09,0 0,-0.22 0.09,0 c 0.11,0 0.43,0.02 0.72,0.14 l 0,-2.48 c 0,-0.16 0,-0.21 -0.53,-0.21 l -0.24,0 0,-0.22 c 0.27,0.02 0.71,0.02 1,0.02 0.29,0 0.73,0 1,-0.02 l 0,0.22 -0.24,0 c -0.53,0 -0.53,0.05 -0.53,0.21 z"
               id="path15788"
               style="fill:#6b3c41;fill-opacity:1;stroke-width:0"
               inkscape:connector-curvature="0" /><line
               x1="229.61"
               y1="699.26001"
               x2="243.96001"
               y2="699.26001"
               id="line15790"
               style="fill:#6b3c41;fill-opacity:1;stroke-width:0.398" /><path
               d="m 259.33,701.41 0,-0.01 0,-0.02 -0.01,-0.01 0,-0.01 0,-0.02 -0.01,-0.01 -0.01,-0.04 0,-0.03 -0.01,-0.03 -0.01,-0.03 0,-0.02 -0.01,-0.01 0,-0.02 -0.01,-0.01 0,-0.02 0,-0.01 -0.01,-0.01 0,-0.02 0,-0.01 0,-0.01 -0.01,-0.01 0,-0.01 0,-0.01 0,-0.01 0,0 0,-0.01 0,0 0,-0.01 c 0,-0.15 0.12,-0.22 0.23,-0.22 0.13,0 0.24,0.09 0.27,0.15 0.04,0.06 0.09,0.29 0.13,0.43 0.03,0.14 0.11,0.46 0.15,0.63 0.05,0.15 0.09,0.3 0.12,0.47 0.08,0.29 0.08,0.31 0.22,0.52 0.22,0.34 0.57,0.74 1.11,0.74 0.39,0 0.41,-0.32 0.41,-0.49 0,-0.41 -0.3,-1.19 -0.41,-1.48 -0.08,-0.19 -0.1,-0.25 -0.1,-0.37 0,-0.37 0.3,-0.6 0.66,-0.6 0.7,0 1,0.96 1,1.06 0,0.09 -0.09,0.09 -0.11,0.09 -0.1,0 -0.1,-0.04 -0.13,-0.11 -0.16,-0.56 -0.46,-0.85 -0.74,-0.85 -0.15,0 -0.17,0.1 -0.17,0.25 0,0.16 0.03,0.25 0.16,0.56 0.08,0.22 0.36,0.95 0.36,1.34 0,0.11 0,0.41 -0.25,0.61 -0.12,0.09 -0.32,0.19 -0.65,0.19 -0.63,0 -1.01,-0.41 -1.23,-0.71 -0.06,0.59 -0.55,0.71 -0.91,0.71 -0.58,0 -0.97,-0.36 -1.18,-0.64 -0.04,0.48 -0.45,0.64 -0.74,0.64 -0.3,0 -0.46,-0.22 -0.55,-0.38 -0.15,-0.26 -0.25,-0.65 -0.25,-0.69 0,-0.09 0.1,-0.09 0.12,-0.09 0.09,0 0.1,0.02 0.15,0.21 0.1,0.41 0.24,0.75 0.51,0.75 0.18,0 0.23,-0.15 0.23,-0.34 0,-0.13 -0.06,-0.39 -0.11,-0.58 -0.05,-0.19 -0.12,-0.47 -0.16,-0.62 l -0.22,-0.89 c -0.03,-0.09 -0.07,-0.27 -0.07,-0.29 0,-0.15 0.13,-0.22 0.24,-0.22 0.12,0 0.24,0.09 0.27,0.15 0.03,0.06 0.09,0.29 0.13,0.43 0.03,0.14 0.11,0.46 0.15,0.63 0.04,0.15 0.08,0.3 0.12,0.47 0.07,0.28 0.09,0.34 0.29,0.62 0.19,0.28 0.52,0.64 1.04,0.64 0.41,0 0.41,-0.35 0.41,-0.49 0,-0.17 -0.02,-0.26 -0.11,-0.65 z"
               id="path15792"
               style="fill:#6b3c41;fill-opacity:1;stroke-width:0"
               inkscape:connector-curvature="0" /><path
               d="m 266.31,700.81 -0.21,0 c -0.01,-0.09 -0.06,-0.4 -0.14,-0.45 -0.04,-0.03 -0.46,-0.03 -0.54,-0.03 l -0.97,0 c 0.33,0.24 0.7,0.52 0.99,0.72 0.45,0.31 0.87,0.6 0.87,1.12 0,0.64 -0.6,0.99 -1.31,0.99 -0.67,0 -1.17,-0.39 -1.17,-0.87 0,-0.26 0.22,-0.31 0.29,-0.31 0.14,0 0.3,0.09 0.3,0.3 0,0.18 -0.13,0.27 -0.29,0.29 0.14,0.22 0.43,0.37 0.76,0.37 0.49,0 0.89,-0.29 0.89,-0.77 0,-0.42 -0.29,-0.74 -0.67,-1.06 l -1.22,-1.03 c -0.05,-0.04 -0.05,-0.04 -0.06,-0.08 l 0,-0.15 2.32,0 z"
               id="path15794"
               style="fill:#6b3c41;fill-opacity:1;stroke-width:0"
               inkscape:connector-curvature="0" /><path
               d="m 269.7,700.81 -0.21,0 c -0.01,-0.09 -0.06,-0.4 -0.14,-0.45 -0.04,-0.03 -0.46,-0.03 -0.53,-0.03 l -0.98,0 c 0.33,0.24 0.7,0.52 0.99,0.72 0.45,0.31 0.87,0.6 0.87,1.12 0,0.64 -0.6,0.99 -1.31,0.99 -0.68,0 -1.17,-0.39 -1.17,-0.87 0,-0.26 0.22,-0.31 0.29,-0.31 0.14,0 0.29,0.09 0.29,0.3 0,0.18 -0.12,0.27 -0.28,0.29 0.14,0.22 0.43,0.37 0.76,0.37 0.49,0 0.89,-0.29 0.89,-0.77 0,-0.42 -0.29,-0.74 -0.67,-1.06 l -1.22,-1.03 c -0.05,-0.04 -0.05,-0.04 -0.06,-0.08 l 0,-0.15 2.32,0 z"
               id="path15796"
               style="fill:#6b3c41;fill-opacity:1;stroke-width:0"
               inkscape:connector-curvature="0" /><line
               x1="256.31"
               y1="699.26001"
               x2="270.66"
               y2="699.26001"
               id="line15798"
               style="fill:#6b3c41;fill-opacity:1;stroke-width:0.398" /></g>          <g
             style="font-style:normal;font-variant:normal;font-weight:normal;font-stretch:normal;letter-spacing:normal;word-spacing:normal;text-anchor:start;fill:#d2504b;fill-opacity:1;fill-rule:evenodd;stroke:#d2504b;stroke-linecap:butt;stroke-linejoin:miter;stroke-miterlimit:10.43299961;stroke-dasharray:none;stroke-dashoffset:0;stroke-opacity:1"
             ns0:text="$\\begin{array}{cc}\n\\frac{~}{m_{33}} &amp; \\frac{~}{m_{33}}\\\\\n\\frac{~}{m_{33}} &amp; \\frac{~}{m_{33}}\n\\end{array}$"
             word-spacing="normal"
             letter-spacing="normal"
             font-size-adjust="none"
             font-stretch="normal"
             font-weight="normal"
             font-variant="normal"
             font-style="normal"
             stroke-miterlimit="10.433"
             xml:space="preserve"
             transform="matrix(2.780055,0,0,-2.780055,-718.12643,2058.4073)"
             id="g15999"><line
               id="line16001"
               y2="709.57489"
               x2="243.96001"
               y1="709.57489"
               x1="229.61"
               style="fill:#d2504b;fill-opacity:1;stroke-width:0.398" /><path
               id="path16003"
               d="m 232.63,705.85 0,-0.02 0,-0.01 -0.01,-0.01 0,-0.02 -0.01,-0.01 0,-0.02 -0.01,-0.03 -0.01,-0.03 0,-0.03 -0.01,-0.04 -0.01,-0.01 0,-0.02 0,-0.01 -0.01,-0.02 0,-0.01 0,-0.01 -0.01,-0.02 0,-0.01 0,-0.01 -0.01,-0.01 0,-0.01 0,-0.01 0,-0.01 0,-0.01 0,-0.01 -0.01,0 0,-0.01 0,0 c 0,-0.16 0.13,-0.22 0.24,-0.22 0.13,0 0.24,0.08 0.27,0.15 0.04,0.06 0.09,0.28 0.13,0.43 0.03,0.13 0.11,0.45 0.15,0.62 0.04,0.16 0.08,0.31 0.12,0.47 0.08,0.3 0.08,0.31 0.21,0.53 0.23,0.34 0.58,0.74 1.12,0.74 0.39,0 0.41,-0.32 0.41,-0.49 0,-0.42 -0.3,-1.19 -0.41,-1.48 -0.08,-0.2 -0.11,-0.26 -0.11,-0.38 0,-0.37 0.31,-0.59 0.67,-0.59 0.69,0 1,0.95 1,1.06 0,0.09 -0.09,0.09 -0.11,0.09 -0.1,0 -0.11,-0.04 -0.13,-0.12 -0.16,-0.56 -0.46,-0.84 -0.74,-0.84 -0.15,0 -0.18,0.1 -0.18,0.24 0,0.16 0.04,0.25 0.16,0.57 0.09,0.21 0.37,0.95 0.37,1.34 0,0.11 0,0.4 -0.25,0.6 -0.12,0.09 -0.33,0.19 -0.65,0.19 -0.63,0 -1.01,-0.41 -1.23,-0.7 -0.06,0.59 -0.56,0.7 -0.91,0.7 -0.58,0 -0.97,-0.35 -1.18,-0.63 -0.05,0.48 -0.46,0.63 -0.74,0.63 -0.3,0 -0.46,-0.21 -0.55,-0.38 -0.16,-0.25 -0.25,-0.65 -0.25,-0.68 0,-0.09 0.09,-0.09 0.11,-0.09 0.1,0 0.11,0.02 0.16,0.21 0.1,0.41 0.24,0.75 0.51,0.75 0.18,0 0.23,-0.16 0.23,-0.34 0,-0.14 -0.07,-0.39 -0.11,-0.58 -0.05,-0.19 -0.12,-0.47 -0.16,-0.63 l -0.22,-0.89 c -0.03,-0.09 -0.07,-0.26 -0.07,-0.28 0,-0.16 0.12,-0.22 0.24,-0.22 0.12,0 0.23,0.08 0.27,0.15 0.03,0.06 0.09,0.28 0.12,0.43 0.04,0.13 0.11,0.45 0.16,0.62 0.04,0.16 0.08,0.31 0.11,0.47 0.08,0.28 0.09,0.34 0.3,0.63 0.19,0.27 0.52,0.64 1.04,0.64 0.41,0 0.41,-0.36 0.41,-0.49 0,-0.18 -0.02,-0.26 -0.12,-0.65 z"
               inkscape:connector-curvature="0"
               style="fill:#d2504b;fill-opacity:1;stroke-width:0" /><path
               id="path16005"
               d="m 238.32,705.93 0.04,0 0.04,0 0.05,-0.01 0.03,0 0.04,-0.01 0.04,-0.01 0.04,-0.01 0.03,-0.01 0.04,-0.01 0.03,-0.02 0.03,-0.02 0.03,-0.01 0.03,-0.02 0.03,-0.03 0.03,-0.02 0.02,-0.02 0.03,-0.03 0.02,-0.02 0.02,-0.03 0.02,-0.03 0.02,-0.03 0.02,-0.04 0.01,-0.03 0.02,-0.04 0.01,-0.03 0.01,-0.04 0.01,-0.04 0.01,-0.04 0,-0.04 0.01,-0.04 0,-0.05 0,-0.04 c 0,-0.51 -0.31,-0.78 -0.75,-0.78 -0.06,0 -0.65,0 -0.9,0.26 0.2,0.03 0.26,0.18 0.26,0.3 0,0.19 -0.14,0.31 -0.31,0.31 -0.15,0 -0.3,-0.11 -0.3,-0.32 0,-0.51 0.58,-0.75 1.26,-0.75 0.82,0 1.32,0.49 1.32,0.97 0,0.41 -0.36,0.76 -0.93,0.88 0.6,0.2 0.76,0.58 0.76,0.86 0,0.4 -0.51,0.7 -1.14,0.7 -0.61,0 -1.1,-0.25 -1.1,-0.7 0,-0.23 0.19,-0.29 0.29,-0.29 0.14,0 0.28,0.1 0.28,0.28 0,0.11 -0.06,0.25 -0.24,0.28 0.21,0.23 0.66,0.25 0.76,0.25 0.36,0 0.62,-0.19 0.62,-0.52 0,-0.29 -0.19,-0.74 -0.71,-0.78 -0.14,0 -0.16,-0.01 -0.29,-0.01 -0.05,-0.01 -0.11,-0.01 -0.11,-0.08 0,-0.09 0.05,-0.09 0.14,-0.09 z"
               inkscape:connector-curvature="0"
               style="fill:#d2504b;fill-opacity:1;stroke-width:0" /><path
               id="path16007"
               d="m 241.71,705.93 0.04,0 0.05,0 0.04,-0.01 0.04,0 0.03,-0.01 0.04,-0.01 0.04,-0.01 0.03,-0.01 0.04,-0.01 0.03,-0.02 0.03,-0.02 0.03,-0.01 0.03,-0.02 0.03,-0.03 0.03,-0.02 0.02,-0.02 0.03,-0.03 0.02,-0.02 0.02,-0.03 0.02,-0.03 0.02,-0.03 0.02,-0.04 0.01,-0.03 0.02,-0.04 0.01,-0.03 0.01,-0.04 0.01,-0.04 0.01,-0.04 0,-0.04 0.01,-0.04 0,-0.05 0,-0.04 c 0,-0.51 -0.31,-0.78 -0.75,-0.78 -0.06,0 -0.65,0 -0.9,0.26 0.2,0.03 0.26,0.18 0.26,0.3 0,0.19 -0.14,0.31 -0.3,0.31 -0.16,0 -0.31,-0.11 -0.31,-0.32 0,-0.51 0.58,-0.75 1.26,-0.75 0.82,0 1.32,0.49 1.32,0.97 0,0.41 -0.36,0.76 -0.93,0.88 0.6,0.2 0.76,0.58 0.76,0.86 0,0.4 -0.51,0.7 -1.13,0.7 -0.62,0 -1.11,-0.25 -1.11,-0.7 0,-0.23 0.19,-0.29 0.29,-0.29 0.14,0 0.28,0.1 0.28,0.28 0,0.11 -0.06,0.25 -0.24,0.28 0.21,0.23 0.66,0.25 0.76,0.25 0.36,0 0.62,-0.19 0.62,-0.52 0,-0.29 -0.19,-0.74 -0.71,-0.78 -0.14,0 -0.16,-0.01 -0.29,-0.01 -0.05,-0.01 -0.11,-0.01 -0.11,-0.08 0,-0.09 0.05,-0.09 0.14,-0.09 z"
               inkscape:connector-curvature="0"
               style="fill:#d2504b;fill-opacity:1;stroke-width:0" /><line
               id="line16009"
               y2="709.57489"
               x2="270.66"
               y1="709.57489"
               x1="256.31"
               style="fill:#d2504b;fill-opacity:1;stroke-width:0.398" /><path
               id="path16011"
               d="m 259.33,705.85 0,-0.02 0,-0.01 -0.01,-0.01 0,-0.02 0,-0.01 -0.01,-0.02 -0.01,-0.03 0,-0.03 -0.01,-0.03 -0.01,-0.04 0,-0.01 -0.01,-0.02 0,-0.01 -0.01,-0.02 0,-0.01 0,-0.01 -0.01,-0.02 0,-0.01 0,-0.01 0,-0.01 -0.01,-0.01 0,-0.01 0,-0.01 0,-0.01 0,-0.01 0,0 0,-0.01 0,0 c 0,-0.16 0.12,-0.22 0.23,-0.22 0.13,0 0.24,0.08 0.27,0.15 0.04,0.06 0.09,0.28 0.13,0.43 0.03,0.13 0.11,0.45 0.15,0.62 0.05,0.16 0.09,0.31 0.12,0.47 0.08,0.3 0.08,0.31 0.22,0.53 0.22,0.34 0.57,0.74 1.11,0.74 0.39,0 0.41,-0.32 0.41,-0.49 0,-0.42 -0.3,-1.19 -0.41,-1.48 -0.08,-0.2 -0.1,-0.26 -0.1,-0.38 0,-0.37 0.3,-0.59 0.66,-0.59 0.7,0 1,0.95 1,1.06 0,0.09 -0.09,0.09 -0.11,0.09 -0.1,0 -0.1,-0.04 -0.13,-0.12 -0.16,-0.56 -0.46,-0.84 -0.74,-0.84 -0.15,0 -0.17,0.1 -0.17,0.24 0,0.16 0.03,0.25 0.16,0.57 0.08,0.21 0.36,0.95 0.36,1.34 0,0.11 0,0.4 -0.25,0.6 -0.12,0.09 -0.32,0.19 -0.65,0.19 -0.63,0 -1.01,-0.41 -1.23,-0.7 -0.06,0.59 -0.55,0.7 -0.91,0.7 -0.58,0 -0.97,-0.35 -1.18,-0.63 -0.04,0.48 -0.45,0.63 -0.74,0.63 -0.3,0 -0.46,-0.21 -0.55,-0.38 -0.15,-0.25 -0.25,-0.65 -0.25,-0.68 0,-0.09 0.1,-0.09 0.12,-0.09 0.09,0 0.1,0.02 0.15,0.21 0.1,0.41 0.24,0.75 0.51,0.75 0.18,0 0.23,-0.16 0.23,-0.34 0,-0.14 -0.06,-0.39 -0.11,-0.58 -0.05,-0.19 -0.12,-0.47 -0.16,-0.63 l -0.22,-0.89 c -0.03,-0.09 -0.07,-0.26 -0.07,-0.28 0,-0.16 0.13,-0.22 0.24,-0.22 0.12,0 0.24,0.08 0.27,0.15 0.03,0.06 0.09,0.28 0.13,0.43 0.03,0.13 0.11,0.45 0.15,0.62 0.04,0.16 0.08,0.31 0.12,0.47 0.07,0.28 0.09,0.34 0.29,0.63 0.19,0.27 0.52,0.64 1.04,0.64 0.41,0 0.41,-0.36 0.41,-0.49 0,-0.18 -0.02,-0.26 -0.11,-0.65 z"
               inkscape:connector-curvature="0"
               style="fill:#d2504b;fill-opacity:1;stroke-width:0" /><path
               id="path16013"
               d="m 265.02,705.93 0.04,0 0.05,0 0.04,-0.01 0.04,0 0.03,-0.01 0.04,-0.01 0.04,-0.01 0.03,-0.01 0.04,-0.01 0.03,-0.02 0.03,-0.02 0.03,-0.01 0.03,-0.02 0.03,-0.03 0.03,-0.02 0.02,-0.02 0.03,-0.03 0.02,-0.02 0.02,-0.03 0.02,-0.03 0.02,-0.03 0.02,-0.04 0.01,-0.03 0.02,-0.04 0.01,-0.03 0.01,-0.04 0.01,-0.04 0.01,-0.04 0.01,-0.04 0,-0.04 0,-0.05 0,-0.04 c 0,-0.51 -0.31,-0.78 -0.75,-0.78 -0.06,0 -0.65,0 -0.9,0.26 0.2,0.03 0.26,0.18 0.26,0.3 0,0.19 -0.14,0.31 -0.3,0.31 -0.16,0 -0.31,-0.11 -0.31,-0.32 0,-0.51 0.58,-0.75 1.26,-0.75 0.82,0 1.32,0.49 1.32,0.97 0,0.41 -0.36,0.76 -0.93,0.88 0.6,0.2 0.76,0.58 0.76,0.86 0,0.4 -0.51,0.7 -1.13,0.7 -0.61,0 -1.11,-0.25 -1.11,-0.7 0,-0.23 0.19,-0.29 0.29,-0.29 0.14,0 0.28,0.1 0.28,0.28 0,0.11 -0.06,0.25 -0.24,0.28 0.21,0.23 0.66,0.25 0.76,0.25 0.36,0 0.62,-0.19 0.62,-0.52 0,-0.29 -0.19,-0.74 -0.71,-0.78 -0.14,0 -0.16,-0.01 -0.29,-0.01 -0.05,-0.01 -0.11,-0.01 -0.11,-0.08 0,-0.09 0.05,-0.09 0.14,-0.09 z"
               inkscape:connector-curvature="0"
               style="fill:#d2504b;fill-opacity:1;stroke-width:0" /><path
               id="path16015"
               d="m 268.41,705.93 0.04,0 0.05,0 0.04,-0.01 0.04,0 0.03,-0.01 0.04,-0.01 0.04,-0.01 0.03,-0.01 0.04,-0.01 0.03,-0.02 0.03,-0.02 0.03,-0.01 0.03,-0.02 0.03,-0.03 0.03,-0.02 0.02,-0.02 0.03,-0.03 0.02,-0.02 0.02,-0.03 0.02,-0.03 0.02,-0.03 0.02,-0.04 0.01,-0.03 0.02,-0.04 0.01,-0.03 0.01,-0.04 0.01,-0.04 0.01,-0.04 0.01,-0.04 0,-0.04 0,-0.05 0,-0.04 c 0,-0.51 -0.31,-0.78 -0.75,-0.78 -0.06,0 -0.65,0 -0.9,0.26 0.2,0.03 0.26,0.18 0.26,0.3 0,0.19 -0.14,0.31 -0.3,0.31 -0.16,0 -0.31,-0.11 -0.31,-0.32 0,-0.51 0.59,-0.75 1.26,-0.75 0.82,0 1.33,0.49 1.33,0.97 0,0.41 -0.37,0.76 -0.93,0.88 0.59,0.2 0.75,0.58 0.75,0.86 0,0.4 -0.51,0.7 -1.13,0.7 -0.62,0 -1.11,-0.25 -1.11,-0.7 0,-0.23 0.19,-0.29 0.29,-0.29 0.14,0 0.28,0.1 0.28,0.28 0,0.11 -0.06,0.25 -0.24,0.28 0.22,0.23 0.66,0.25 0.76,0.25 0.37,0 0.62,-0.19 0.62,-0.52 0,-0.29 -0.19,-0.74 -0.71,-0.78 -0.14,0 -0.16,-0.01 -0.29,-0.01 -0.05,-0.01 -0.11,-0.01 -0.11,-0.08 0,-0.09 0.05,-0.09 0.14,-0.09 z"
               inkscape:connector-curvature="0"
               style="fill:#d2504b;fill-opacity:1;stroke-width:0" /><line
               id="line16017"
               y2="696.77484"
               x2="243.96001"
               y1="696.77484"
               x1="229.61"
               style="fill:#d2504b;fill-opacity:1;stroke-width:0.398" /><path
               id="path16019"
               d="m 232.63,693.05 0,-0.02 0,-0.01 -0.01,-0.02 0,-0.01 -0.01,-0.02 0,-0.01 -0.01,-0.03 -0.01,-0.03 0,-0.04 -0.01,-0.03 -0.01,-0.01 0,-0.02 0,-0.01 -0.01,-0.02 0,-0.01 0,-0.02 -0.01,-0.01 0,-0.01 0,-0.01 -0.01,-0.01 0,-0.02 0,-0.01 0,0 0,-0.01 0,-0.01 -0.01,-0.01 0,0 0,0 c 0,-0.16 0.13,-0.23 0.24,-0.23 0.13,0 0.24,0.09 0.27,0.16 0.04,0.06 0.09,0.28 0.13,0.43 0.03,0.13 0.11,0.45 0.15,0.62 0.04,0.16 0.08,0.31 0.12,0.47 0.08,0.3 0.08,0.31 0.21,0.53 0.23,0.34 0.58,0.73 1.12,0.73 0.39,0 0.41,-0.32 0.41,-0.48 0,-0.42 -0.3,-1.19 -0.41,-1.48 -0.08,-0.2 -0.11,-0.26 -0.11,-0.38 0,-0.37 0.31,-0.6 0.67,-0.6 0.69,0 1,0.96 1,1.07 0,0.09 -0.09,0.09 -0.11,0.09 -0.1,0 -0.11,-0.04 -0.13,-0.12 -0.16,-0.56 -0.46,-0.84 -0.74,-0.84 -0.15,0 -0.18,0.1 -0.18,0.24 0,0.16 0.04,0.25 0.16,0.56 0.09,0.22 0.37,0.96 0.37,1.35 0,0.11 0,0.4 -0.25,0.6 -0.12,0.09 -0.33,0.19 -0.65,0.19 -0.63,0 -1.01,-0.41 -1.23,-0.7 -0.06,0.59 -0.56,0.7 -0.91,0.7 -0.58,0 -0.97,-0.35 -1.18,-0.63 -0.05,0.48 -0.46,0.63 -0.74,0.63 -0.3,0 -0.46,-0.22 -0.55,-0.38 -0.16,-0.25 -0.25,-0.65 -0.25,-0.68 0,-0.09 0.09,-0.09 0.11,-0.09 0.1,0 0.11,0.02 0.16,0.2 0.1,0.41 0.24,0.75 0.51,0.75 0.18,0 0.23,-0.15 0.23,-0.34 0,-0.13 -0.07,-0.39 -0.11,-0.57 -0.05,-0.19 -0.12,-0.48 -0.16,-0.63 l -0.22,-0.89 c -0.03,-0.09 -0.07,-0.26 -0.07,-0.28 0,-0.16 0.12,-0.23 0.24,-0.23 0.12,0 0.23,0.09 0.27,0.16 0.03,0.06 0.09,0.28 0.12,0.43 0.04,0.13 0.11,0.45 0.16,0.62 0.04,0.16 0.08,0.31 0.11,0.47 0.08,0.28 0.09,0.34 0.3,0.63 0.19,0.27 0.52,0.63 1.04,0.63 0.41,0 0.41,-0.35 0.41,-0.48 0,-0.18 -0.02,-0.27 -0.12,-0.66 z"
               inkscape:connector-curvature="0"
               style="fill:#d2504b;fill-opacity:1;stroke-width:0" /><path
               id="path16021"
               d="m 238.32,693.13 0.04,0 0.04,0 0.05,-0.01 0.03,0 0.04,-0.01 0.04,-0.01 0.04,-0.01 0.03,-0.01 0.04,-0.01 0.03,-0.02 0.03,-0.02 0.03,-0.01 0.03,-0.02 0.03,-0.03 0.03,-0.02 0.02,-0.02 0.03,-0.03 0.02,-0.02 0.02,-0.03 0.02,-0.03 0.02,-0.03 0.02,-0.04 0.01,-0.03 0.02,-0.04 0.01,-0.03 0.01,-0.04 0.01,-0.04 0.01,-0.04 0,-0.04 0.01,-0.04 0,-0.05 0,-0.04 c 0,-0.51 -0.31,-0.78 -0.75,-0.78 -0.06,0 -0.65,0 -0.9,0.26 0.2,0.03 0.26,0.18 0.26,0.3 0,0.19 -0.14,0.31 -0.31,0.31 -0.15,0 -0.3,-0.11 -0.3,-0.32 0,-0.51 0.58,-0.75 1.26,-0.75 0.82,0 1.32,0.49 1.32,0.97 0,0.41 -0.36,0.76 -0.93,0.88 0.6,0.2 0.76,0.58 0.76,0.86 0,0.4 -0.51,0.7 -1.14,0.7 -0.61,0 -1.1,-0.25 -1.1,-0.7 0,-0.23 0.19,-0.29 0.29,-0.29 0.14,0 0.28,0.1 0.28,0.28 0,0.11 -0.06,0.25 -0.24,0.28 0.21,0.23 0.66,0.25 0.76,0.25 0.36,0 0.62,-0.19 0.62,-0.52 0,-0.29 -0.19,-0.75 -0.71,-0.77 -0.14,-0.01 -0.16,-0.02 -0.29,-0.02 -0.05,-0.01 -0.11,-0.01 -0.11,-0.08 0,-0.09 0.05,-0.09 0.14,-0.09 z"
               inkscape:connector-curvature="0"
               style="fill:#d2504b;fill-opacity:1;stroke-width:0" /><path
               id="path16023"
               d="m 241.71,693.13 0.04,0 0.05,0 0.04,-0.01 0.04,0 0.03,-0.01 0.04,-0.01 0.04,-0.01 0.03,-0.01 0.04,-0.01 0.03,-0.02 0.03,-0.02 0.03,-0.01 0.03,-0.02 0.03,-0.03 0.03,-0.02 0.02,-0.02 0.03,-0.03 0.02,-0.02 0.02,-0.03 0.02,-0.03 0.02,-0.03 0.02,-0.04 0.01,-0.03 0.02,-0.04 0.01,-0.03 0.01,-0.04 0.01,-0.04 0.01,-0.04 0,-0.04 0.01,-0.04 0,-0.05 0,-0.04 c 0,-0.51 -0.31,-0.78 -0.75,-0.78 -0.06,0 -0.65,0 -0.9,0.26 0.2,0.03 0.26,0.18 0.26,0.3 0,0.19 -0.14,0.31 -0.3,0.31 -0.16,0 -0.31,-0.11 -0.31,-0.32 0,-0.51 0.58,-0.75 1.26,-0.75 0.82,0 1.32,0.49 1.32,0.97 0,0.41 -0.36,0.76 -0.93,0.88 0.6,0.2 0.76,0.58 0.76,0.86 0,0.4 -0.51,0.7 -1.13,0.7 -0.62,0 -1.11,-0.25 -1.11,-0.7 0,-0.23 0.19,-0.29 0.29,-0.29 0.14,0 0.28,0.1 0.28,0.28 0,0.11 -0.06,0.25 -0.24,0.28 0.21,0.23 0.66,0.25 0.76,0.25 0.36,0 0.62,-0.19 0.62,-0.52 0,-0.29 -0.19,-0.75 -0.71,-0.77 -0.14,-0.01 -0.16,-0.02 -0.29,-0.02 -0.05,-0.01 -0.11,-0.01 -0.11,-0.08 0,-0.09 0.05,-0.09 0.14,-0.09 z"
               inkscape:connector-curvature="0"
               style="fill:#d2504b;fill-opacity:1;stroke-width:0" /><line
               id="line16025"
               y2="696.77484"
               x2="270.66"
               y1="696.77484"
               x1="256.31"
               style="fill:#d2504b;fill-opacity:1;stroke-width:0.398" /><path
               id="path16027"
               d="m 259.33,693.05 0,-0.02 0,-0.01 -0.01,-0.02 0,-0.01 0,-0.02 -0.01,-0.01 -0.01,-0.03 0,-0.03 -0.01,-0.04 -0.01,-0.03 0,-0.01 -0.01,-0.02 0,-0.01 -0.01,-0.02 0,-0.01 0,-0.02 -0.01,-0.01 0,-0.01 0,-0.01 0,-0.01 -0.01,-0.02 0,-0.01 0,0 0,-0.01 0,-0.01 0,-0.01 0,0 0,0 c 0,-0.16 0.12,-0.23 0.23,-0.23 0.13,0 0.24,0.09 0.27,0.16 0.04,0.06 0.09,0.28 0.13,0.43 0.03,0.13 0.11,0.45 0.15,0.62 0.05,0.16 0.09,0.31 0.12,0.47 0.08,0.3 0.08,0.31 0.22,0.53 0.22,0.34 0.57,0.73 1.11,0.73 0.39,0 0.41,-0.32 0.41,-0.48 0,-0.42 -0.3,-1.19 -0.41,-1.48 -0.08,-0.2 -0.1,-0.26 -0.1,-0.38 0,-0.37 0.3,-0.6 0.66,-0.6 0.7,0 1,0.96 1,1.07 0,0.09 -0.09,0.09 -0.11,0.09 -0.1,0 -0.1,-0.04 -0.13,-0.12 -0.16,-0.56 -0.46,-0.84 -0.74,-0.84 -0.15,0 -0.17,0.1 -0.17,0.24 0,0.16 0.03,0.25 0.16,0.56 0.08,0.22 0.36,0.96 0.36,1.35 0,0.11 0,0.4 -0.25,0.6 -0.12,0.09 -0.32,0.19 -0.65,0.19 -0.63,0 -1.01,-0.41 -1.23,-0.7 -0.06,0.59 -0.55,0.7 -0.91,0.7 -0.58,0 -0.97,-0.35 -1.18,-0.63 -0.04,0.48 -0.45,0.63 -0.74,0.63 -0.3,0 -0.46,-0.22 -0.55,-0.38 -0.15,-0.25 -0.25,-0.65 -0.25,-0.68 0,-0.09 0.1,-0.09 0.12,-0.09 0.09,0 0.1,0.02 0.15,0.2 0.1,0.41 0.24,0.75 0.51,0.75 0.18,0 0.23,-0.15 0.23,-0.34 0,-0.13 -0.06,-0.39 -0.11,-0.57 -0.05,-0.19 -0.12,-0.48 -0.16,-0.63 l -0.22,-0.89 c -0.03,-0.09 -0.07,-0.26 -0.07,-0.28 0,-0.16 0.13,-0.23 0.24,-0.23 0.12,0 0.24,0.09 0.27,0.16 0.03,0.06 0.09,0.28 0.13,0.43 0.03,0.13 0.11,0.45 0.15,0.62 0.04,0.16 0.08,0.31 0.12,0.47 0.07,0.28 0.09,0.34 0.29,0.63 0.19,0.27 0.52,0.63 1.04,0.63 0.41,0 0.41,-0.35 0.41,-0.48 0,-0.18 -0.02,-0.27 -0.11,-0.66 z"
               inkscape:connector-curvature="0"
               style="fill:#d2504b;fill-opacity:1;stroke-width:0" /><path
               id="path16029"
               d="m 265.02,693.13 0.04,0 0.05,0 0.04,-0.01 0.04,0 0.03,-0.01 0.04,-0.01 0.04,-0.01 0.03,-0.01 0.04,-0.01 0.03,-0.02 0.03,-0.02 0.03,-0.01 0.03,-0.02 0.03,-0.03 0.03,-0.02 0.02,-0.02 0.03,-0.03 0.02,-0.02 0.02,-0.03 0.02,-0.03 0.02,-0.03 0.02,-0.04 0.01,-0.03 0.02,-0.04 0.01,-0.03 0.01,-0.04 0.01,-0.04 0.01,-0.04 0.01,-0.04 0,-0.04 0,-0.05 0,-0.04 c 0,-0.51 -0.31,-0.78 -0.75,-0.78 -0.06,0 -0.65,0 -0.9,0.26 0.2,0.03 0.26,0.18 0.26,0.3 0,0.19 -0.14,0.31 -0.3,0.31 -0.16,0 -0.31,-0.11 -0.31,-0.32 0,-0.51 0.58,-0.75 1.26,-0.75 0.82,0 1.32,0.49 1.32,0.97 0,0.41 -0.36,0.76 -0.93,0.88 0.6,0.2 0.76,0.58 0.76,0.86 0,0.4 -0.51,0.7 -1.13,0.7 -0.61,0 -1.11,-0.25 -1.11,-0.7 0,-0.23 0.19,-0.29 0.29,-0.29 0.14,0 0.28,0.1 0.28,0.28 0,0.11 -0.06,0.25 -0.24,0.28 0.21,0.23 0.66,0.25 0.76,0.25 0.36,0 0.62,-0.19 0.62,-0.52 0,-0.29 -0.19,-0.75 -0.71,-0.77 -0.14,-0.01 -0.16,-0.02 -0.29,-0.02 -0.05,-0.01 -0.11,-0.01 -0.11,-0.08 0,-0.09 0.05,-0.09 0.14,-0.09 z"
               inkscape:connector-curvature="0"
               style="fill:#d2504b;fill-opacity:1;stroke-width:0" /><path
               id="path16031"
               d="m 268.41,693.13 0.04,0 0.05,0 0.04,-0.01 0.04,0 0.03,-0.01 0.04,-0.01 0.04,-0.01 0.03,-0.01 0.04,-0.01 0.03,-0.02 0.03,-0.02 0.03,-0.01 0.03,-0.02 0.03,-0.03 0.03,-0.02 0.02,-0.02 0.03,-0.03 0.02,-0.02 0.02,-0.03 0.02,-0.03 0.02,-0.03 0.02,-0.04 0.01,-0.03 0.02,-0.04 0.01,-0.03 0.01,-0.04 0.01,-0.04 0.01,-0.04 0.01,-0.04 0,-0.04 0,-0.05 0,-0.04 c 0,-0.51 -0.31,-0.78 -0.75,-0.78 -0.06,0 -0.65,0 -0.9,0.26 0.2,0.03 0.26,0.18 0.26,0.3 0,0.19 -0.14,0.31 -0.3,0.31 -0.16,0 -0.31,-0.11 -0.31,-0.32 0,-0.51 0.59,-0.75 1.26,-0.75 0.82,0 1.33,0.49 1.33,0.97 0,0.41 -0.37,0.76 -0.93,0.88 0.59,0.2 0.75,0.58 0.75,0.86 0,0.4 -0.51,0.7 -1.13,0.7 -0.62,0 -1.11,-0.25 -1.11,-0.7 0,-0.23 0.19,-0.29 0.29,-0.29 0.14,0 0.28,0.1 0.28,0.28 0,0.11 -0.06,0.25 -0.24,0.28 0.22,0.23 0.66,0.25 0.76,0.25 0.37,0 0.62,-0.19 0.62,-0.52 0,-0.29 -0.19,-0.75 -0.71,-0.77 -0.14,-0.01 -0.16,-0.02 -0.29,-0.02 -0.05,-0.01 -0.11,-0.01 -0.11,-0.08 0,-0.09 0.05,-0.09 0.14,-0.09 z"
               inkscape:connector-curvature="0"
               style="fill:#d2504b;fill-opacity:1;stroke-width:0" /></g>        </g>
        <g
           style="font-style:normal;font-variant:normal;font-weight:normal;font-stretch:normal;letter-spacing:normal;word-spacing:normal;text-anchor:start;fill:#808080;fill-opacity:0.60784314;fill-rule:evenodd;stroke:#000000;stroke-linecap:butt;stroke-linejoin:miter;stroke-miterlimit:10.43299961;stroke-dasharray:none;stroke-dashoffset:0;stroke-opacity:1"
           ns0:text="$(\\mathbb{R}^{2 \\times 2})$"
           word-spacing="normal"
           letter-spacing="normal"
           font-size-adjust="none"
           font-stretch="normal"
           font-weight="normal"
           font-variant="normal"
           font-style="normal"
           stroke-miterlimit="10.433"
           xml:space="preserve"
           transform="matrix(1.6139248,0,0,-1.6139248,-44.124797,1200.1054)"
           id="g11632"><path
             id="path11634"
             d="m 226.73,704.74 -0.01,0.01 0,0 0,0 0,0.01 0,0 0,0 0,0.01 0,0 0,0 0,0.01 -0.01,0 0,0.01 0,0 -0.01,0.01 0,0 -0.01,0.01 0,0.01 -0.01,0 0,0.01 0,0 -0.01,0.01 0,0 0,0 -0.01,0.01 0,0 -0.01,0.01 0,0 -0.01,0.01 0,0 -0.01,0.01 0,0 -0.01,0.01 0,0.01 -0.01,0 0,0.01 -0.01,0.01 -0.01,0 0,0.01 -0.01,0.01 -0.01,0 -0.01,0.01 0,0.01 c -1.25,1.25 -1.57,3.13 -1.57,4.65 0,1.73 0.38,3.46 1.61,4.7 0.13,0.12 0.13,0.14 0.13,0.17 0,0.07 -0.05,0.1 -0.1,0.1 -0.1,0 -1,-0.68 -1.59,-1.94 -0.5,-1.09 -0.62,-2.2 -0.62,-3.03 0,-0.78 0.11,-1.98 0.65,-3.1 0.6,-1.22 1.46,-1.87 1.56,-1.87 0.05,0 0.1,0.03 0.1,0.1 z"
             style="fill:#808080;fill-opacity:0.60784314;stroke-width:0"
             inkscape:connector-curvature="0" /><path
             id="path11636"
             d="m 229.97,710.24 0,0.35 0,2.46 c 0,0.2 0,0.53 0.62,0.53 0.84,0 1.26,-0.35 1.26,-1.52 0,-1.28 -0.31,-1.47 -1.88,-1.47 l 0,-0.35 0.36,0 1.49,-2.3 c 0.1,-0.16 0.34,-0.55 0.45,-0.7 l 0.26,0.23 -1.79,2.77 c 0.07,0.01 0.11,0.02 0.19,0.02 0.15,0 0.37,0.02 0.52,0.04 0.14,-0.23 1.22,-2 2.04,-2.83 l -0.96,0 -0.26,-0.23 c 0.07,-0.12 0.1,-0.12 0.33,-0.12 l 1.37,0 c 0.18,0 0.33,0 0.33,0.18 0,0.08 -0.06,0.15 -0.15,0.17 -0.37,0.08 -0.86,0.74 -1.09,1.06 -0.07,0.09 -0.57,0.75 -1.24,1.82 0.89,0.16 1.74,0.54 1.74,1.72 l -0.34,0 c 0,-0.64 -0.3,-1.15 -1.33,-1.34 l 0,0 c 0.28,0.37 0.31,0.89 0.31,1.33 0,0.48 -0.06,1.01 -0.38,1.41 0.41,-0.09 1.4,-0.39 1.4,-1.4 l 0.34,0 c 0,1.38 -1.46,1.86 -2.63,1.86 l -3.13,0 c -0.18,0 -0.34,0 -0.34,-0.18 0,-0.17 0.19,-0.17 0.27,-0.17 0.57,0 0.62,-0.07 0.62,-0.56 l 0.35,0.02 c 0,0.1 0,0.36 -0.08,0.54 l 1.13,0 c -0.13,-0.16 -0.13,-0.36 -0.13,-0.5 l 0,-5.06 c 0,-0.1 0,-0.37 0.08,-0.55 l -1.08,0 c 0.08,0.18 0.08,0.46 0.08,0.55 l 0,5.02 -0.35,-0.02 0,-4.98 c 0,-0.5 -0.05,-0.57 -0.62,-0.57 -0.08,0 -0.27,0 -0.27,-0.17 0,-0.18 0.16,-0.18 0.34,-0.18 l 2.73,0 c 0.18,0 0.33,0 0.33,0.18 0,0.17 -0.17,0.17 -0.28,0.17 -0.57,0 -0.61,0.08 -0.61,0.57 z"
             style="fill:#808080;fill-opacity:0.60784314;stroke-width:0"
             inkscape:connector-curvature="0" /><path
             id="path11638"
             d="m 238.02,712.01 -0.24,0 c -0.02,-0.16 -0.09,-0.57 -0.18,-0.64 -0.06,-0.04 -0.59,-0.04 -0.69,-0.04 l -1.28,0 c 0.73,0.65 0.97,0.84 1.39,1.17 0.52,0.41 1,0.84 1,1.5 0,0.84 -0.74,1.36 -1.63,1.36 -0.86,0 -1.45,-0.61 -1.45,-1.25 0,-0.35 0.3,-0.39 0.37,-0.39 0.17,0 0.37,0.12 0.37,0.37 0,0.13 -0.05,0.37 -0.41,0.37 0.21,0.49 0.69,0.65 1.02,0.65 0.69,0 1.05,-0.54 1.05,-1.11 0,-0.6 -0.43,-1.08 -0.65,-1.33 l -1.68,-1.66 c -0.07,-0.06 -0.07,-0.08 -0.07,-0.27 l 2.87,0 z"
             style="fill:#808080;fill-opacity:0.60784314;stroke-width:0"
             inkscape:connector-curvature="0" /><path
             id="path11640"
             d="m 243.35,714 0.01,0.01 0,0.01 0.01,0 0,0.01 0.01,0 0.01,0.01 0,0.01 0.01,0 0,0.01 0,0 0.01,0.01 0,0 0.01,0.01 0,0.01 0,0 0.01,0.01 0,0 0,0 0,0.01 0.01,0 0,0.01 0,0 0,0.01 0,0 0,0.01 0,0 0,0.01 0,0 0.01,0 0,0.01 0,0.01 c 0,0.11 -0.1,0.17 -0.17,0.17 -0.07,0 -0.09,-0.02 -0.18,-0.1 l -1.52,-1.52 -1.53,1.52 c -0.07,0.07 -0.1,0.1 -0.16,0.1 -0.1,0 -0.18,-0.07 -0.18,-0.17 0,-0.06 0.02,-0.08 0.11,-0.17 l 1.52,-1.52 -1.52,-1.51 c -0.1,-0.1 -0.11,-0.13 -0.11,-0.17 0,-0.1 0.08,-0.18 0.18,-0.18 0.06,0 0.08,0.02 0.16,0.1 l 1.53,1.52 1.59,-1.58 c 0.03,-0.02 0.07,-0.04 0.11,-0.04 0.07,0 0.17,0.06 0.17,0.18 0,0.05 -0.02,0.06 -0.04,0.09 -0.01,0.02 -1.36,1.37 -1.59,1.59 z"
             style="fill:#808080;fill-opacity:0.60784314;stroke-width:0"
             inkscape:connector-curvature="0" /><path
             id="path11642"
             d="m 248.22,712.01 -0.24,0 c -0.02,-0.16 -0.09,-0.57 -0.18,-0.64 -0.06,-0.04 -0.59,-0.04 -0.69,-0.04 l -1.28,0 c 0.73,0.65 0.97,0.84 1.39,1.17 0.52,0.41 1,0.84 1,1.5 0,0.84 -0.74,1.36 -1.63,1.36 -0.87,0 -1.45,-0.61 -1.45,-1.25 0,-0.35 0.3,-0.39 0.37,-0.39 0.17,0 0.37,0.12 0.37,0.37 0,0.13 -0.05,0.37 -0.41,0.37 0.21,0.49 0.69,0.65 1.01,0.65 0.7,0 1.06,-0.54 1.06,-1.11 0,-0.6 -0.43,-1.08 -0.65,-1.33 l -1.68,-1.66 c -0.07,-0.06 -0.07,-0.08 -0.07,-0.27 l 2.87,0 z"
             style="fill:#808080;fill-opacity:0.60784314;stroke-width:0"
             inkscape:connector-curvature="0" /><path
             id="path11644"
             d="m 252.04,709.61 0,0.07 0,0.08 0,0.08 0,0.08 -0.01,0.17 -0.01,0.17 -0.02,0.18 -0.02,0.19 -0.03,0.2 -0.03,0.2 -0.04,0.2 -0.04,0.21 -0.06,0.21 -0.06,0.21 -0.07,0.21 -0.08,0.21 -0.04,0.11 -0.04,0.11 -0.05,0.1 -0.05,0.11 c -0.6,1.22 -1.46,1.87 -1.55,1.87 -0.06,0 -0.1,-0.04 -0.1,-0.1 0,-0.03 0,-0.05 0.19,-0.23 0.97,-0.99 1.54,-2.57 1.54,-4.64 0,-1.7 -0.37,-3.45 -1.6,-4.7 -0.13,-0.12 -0.13,-0.14 -0.13,-0.17 0,-0.06 0.04,-0.1 0.1,-0.1 0.09,0 0.99,0.68 1.58,1.94 0.51,1.09 0.62,2.19 0.62,3.03 z"
             style="fill:#808080;fill-opacity:0.60784314;stroke-width:0"
             inkscape:connector-curvature="0" /></g>      </g>
    </g>
  </g>
</svg>
