<?xml version="1.0" encoding="UTF-8" standalone="no"?>
<!-- Created with Inkscape (http://www.inkscape.org/) -->

<svg
   xmlns:ns0="http://www.iki.fi/pav/software/textext/"
   xmlns:dc="http://purl.org/dc/elements/1.1/"
   xmlns:cc="http://creativecommons.org/ns#"
   xmlns:rdf="http://www.w3.org/1999/02/22-rdf-syntax-ns#"
   xmlns:svg="http://www.w3.org/2000/svg"
   xmlns="http://www.w3.org/2000/svg"
   xmlns:xlink="http://www.w3.org/1999/xlink"
   xmlns:sodipodi="http://sodipodi.sourceforge.net/DTD/sodipodi-0.dtd"
   xmlns:inkscape="http://www.inkscape.org/namespaces/inkscape"
   inkscape:version="0.91 r13725"
   version="1.1"
   id="svg2"
   viewBox="0 0 344.4534 89.427656"
   height="25.238472mm"
   width="97.212402mm"
   sodipodi:docname="from_homogeneous_coordinates_vector_point.svg">
  <sodipodi:namedview
     inkscape:snap-global="false"
     inkscape:snap-bbox-midpoints="true"
     inkscape:snap-bbox="true"
     inkscape:window-maximized="0"
     inkscape:window-y="18"
     inkscape:window-x="0"
     inkscape:window-height="1061"
     inkscape:window-width="1918"
     showgrid="true"
     inkscape:current-layer="g4319"
     inkscape:document-units="px"
     inkscape:cy="91.811903"
     inkscape:cx="161.67815"
     inkscape:zoom="2.5600001"
     inkscape:pageshadow="2"
     inkscape:pageopacity="0.0"
     borderopacity="1.0"
     bordercolor="#666666"
     pagecolor="#ffffff"
     id="base"
     inkscape:snap-bbox-edge-midpoints="true"
     fit-margin-top="0"
     fit-margin-left="0"
     fit-margin-right="0"
     fit-margin-bottom="0"
     showguides="false">
    <inkscape:grid
       originy="-880.2674"
       originx="75.897216"
       type="xygrid"
       id="grid4136" />
  </sodipodi:namedview>
  <defs
     id="defs4">
    <marker
       inkscape:stockid="Arrow2Mend"
       orient="auto"
       refY="0"
       refX="0"
       id="Arrow2Mend"
       style="overflow:visible"
       inkscape:isstock="true">
      <path
         id="path5841"
         style="fill:#000000;fill-opacity:1;fill-rule:evenodd;stroke:#000000;stroke-width:0.625;stroke-linejoin:round;stroke-opacity:1"
         d="M 8.7185878,4.0337352 -2.2072895,0.01601326 8.7185884,-4.0017078 c -1.7454984,2.3720609 -1.7354408,5.6174519 -6e-7,8.035443 z"
         transform="scale(-0.6,-0.6)"
         inkscape:connector-curvature="0" />
    </marker>
    <marker
       inkscape:stockid="Arrow2Mend"
       orient="auto"
       refY="0"
       refX="0"
       id="Arrow2Mend-8"
       style="overflow:visible"
       inkscape:isstock="true">
      <path
         id="path5841-9"
         style="fill:#000000;fill-opacity:1;fill-rule:evenodd;stroke:#000000;stroke-width:0.625;stroke-linejoin:round;stroke-opacity:1"
         d="M 8.7185878,4.0337352 -2.2072895,0.01601326 8.7185884,-4.0017078 c -1.7454984,2.3720609 -1.7354408,5.6174519 -6e-7,8.035443 z"
         transform="scale(-0.6,-0.6)"
         inkscape:connector-curvature="0" />
    </marker>
    <marker
       inkscape:stockid="Arrow2Mend"
       orient="auto"
       refY="0"
       refX="0"
       id="Arrow2Mend-7"
       style="overflow:visible"
       inkscape:isstock="true">
      <path
         id="path5841-6"
         style="fill:#000000;fill-opacity:1;fill-rule:evenodd;stroke:#000000;stroke-width:0.625;stroke-linejoin:round;stroke-opacity:1"
         d="M 8.7185878,4.0337352 -2.2072895,0.01601326 8.7185884,-4.0017078 c -1.7454984,2.3720609 -1.7354408,5.6174519 -6e-7,8.035443 z"
         transform="scale(-0.6,-0.6)"
         inkscape:connector-curvature="0" />
    </marker>
    <marker
       inkscape:isstock="true"
       style="overflow:visible"
       id="Arrow2Mend-4"
       refX="0"
       refY="0"
       orient="auto"
       inkscape:stockid="Arrow2Mend">
      <path
         inkscape:connector-curvature="0"
         transform="scale(-0.6,-0.6)"
         d="M 8.7185878,4.0337352 -2.2072895,0.01601326 8.7185884,-4.0017078 c -1.7454984,2.3720609 -1.7354408,5.6174519 -6e-7,8.035443 z"
         style="fill:#000000;fill-opacity:1;fill-rule:evenodd;stroke:#000000;stroke-width:0.625;stroke-linejoin:round;stroke-opacity:1"
         id="path5841-3" />
    </marker>
    <defs
       id="defs8481">
      <g
         id="g8483">
        <symbol
           id="textext-21ac0db5-0"
           overflow="visible"
           style="overflow:visible">
          <path
             id="path8486"
             d=""
             style="stroke:none"
             inkscape:connector-curvature="0" />
        </symbol>
        <symbol
           id="textext-21ac0db5-1"
           overflow="visible"
           style="overflow:visible">
          <path
             id="path8489"
             d="m 0.515625,0.84375 c -0.046875,0.203125 -0.0625,0.25 -0.328125,0.25 -0.09375,0 -0.1875,0 -0.1875,0.15625 0,0.078125 0.0625,0.109375 0.09375,0.109375 0.171875,0 0.40625,-0.03125 0.59375,-0.03125 0.234375,0 0.5,0.03125 0.734375,0.03125 0.0625,0 0.140625,-0.03125 0.140625,-0.15625 0,-0.109375 -0.09375,-0.109375 -0.1875,-0.109375 -0.15625,0 -0.34375,0 -0.34375,-0.078125 0,-0.03125 0.0625,-0.21875 0.078125,-0.3125 0.09375,-0.375 0.1875,-0.75 0.265625,-1.046875 0.078125,0.140625 0.296875,0.40625 0.71875,0.40625 0.84375,0 1.78125,-0.9375 1.78125,-1.96875 0,-0.8125 -0.5625,-1.171875 -1.03125,-1.171875 -0.4375,0 -0.8125,0.296875 -1,0.5 -0.109375,-0.40625 -0.5,-0.5 -0.71875,-0.5 -0.265625,0 -0.4375,0.1875 -0.546875,0.375 -0.140625,0.234375 -0.25,0.65625 -0.25,0.703125 0,0.078125 0.09375,0.078125 0.125,0.078125 0.09375,0 0.09375,-0.015625 0.140625,-0.203125 0.109375,-0.40625 0.25,-0.75 0.515625,-0.75 0.1875,0 0.234375,0.15625 0.234375,0.34375 0,0.078125 -0.015625,0.15625 -0.03125,0.203125 z M 1.84375,-2.234375 C 2.25,-2.78125 2.59375,-2.875 2.8125,-2.875 c 0.28125,0 0.515625,0.203125 0.515625,0.671875 0,0.28125 -0.15625,1 -0.359375,1.40625 -0.1875,0.34375 -0.515625,0.671875 -0.875,0.671875 -0.5,0 -0.625,-0.53125 -0.625,-0.609375 0,-0.03125 0.015625,-0.078125 0.015625,-0.109375 z m 0,0"
             style="stroke:none"
             inkscape:connector-curvature="0" />
        </symbol>
        <symbol
           id="textext-21ac0db5-2"
           overflow="visible"
           style="overflow:visible">
          <path
             id="path8492"
             d=""
             style="stroke:none"
             inkscape:connector-curvature="0" />
        </symbol>
        <symbol
           id="textext-21ac0db5-3"
           overflow="visible"
           style="overflow:visible">
          <path
             id="path8495"
             d="m 3.09375,-1.953125 c -0.234375,0.0625 -0.234375,0.28125 -0.234375,0.296875 0,0.078125 0.0625,0.203125 0.234375,0.203125 0.140625,0 0.3125,-0.125 0.3125,-0.34375 0,-0.296875 -0.328125,-0.40625 -0.59375,-0.40625 -0.328125,0 -0.546875,0.203125 -0.640625,0.34375 -0.15625,-0.28125 -0.484375,-0.34375 -0.65625,-0.34375 -0.625,0 -0.984375,0.59375 -0.984375,0.765625 0,0.078125 0.078125,0.078125 0.109375,0.078125 0.046875,0 0.078125,0 0.109375,-0.0625 0.140625,-0.484375 0.546875,-0.609375 0.734375,-0.609375 0.171875,0 0.359375,0.0625 0.359375,0.328125 0,0.125 -0.09375,0.46875 -0.265625,1.140625 -0.0625,0.28125 -0.296875,0.453125 -0.515625,0.453125 -0.03125,0 -0.171875,0 -0.296875,-0.078125 0.21875,-0.09375 0.21875,-0.28125 0.21875,-0.296875 0,-0.140625 -0.109375,-0.203125 -0.21875,-0.203125 -0.125,0 -0.296875,0.09375 -0.296875,0.328125 0,0.3125 0.328125,0.421875 0.59375,0.421875 0.265625,0 0.5,-0.171875 0.609375,-0.34375 C 1.875,0.015625 2.1875,0.0625 2.34375,0.0625 c 0.625,0 0.984375,-0.59375 0.984375,-0.78125 0,-0.0625 -0.078125,-0.0625 -0.109375,-0.0625 -0.078125,0 -0.09375,0.03125 -0.109375,0.0625 C 2.96875,-0.265625 2.59375,-0.109375 2.375,-0.109375 c -0.15625,0 -0.359375,-0.0625 -0.359375,-0.34375 0,-0.0625 0,-0.09375 0.03125,-0.265625 0.09375,-0.34375 0.21875,-0.890625 0.265625,-0.984375 0.0625,-0.125 0.234375,-0.328125 0.484375,-0.328125 0.015625,0 0.1875,0 0.296875,0.078125 z m 0,0"
             style="stroke:none"
             inkscape:connector-curvature="0" />
        </symbol>
        <symbol
           id="textext-21ac0db5-4"
           overflow="visible"
           style="overflow:visible">
          <path
             id="path8498"
             d="M 1.140625,-0.453125 C 1.34375,-0.640625 1.59375,-0.828125 1.875,-1.03125 2.21875,-1.265625 2.421875,-1.4375 2.640625,-1.625 c 0.25,-0.234375 0.421875,-0.453125 0.421875,-0.515625 0,-0.0625 -0.078125,-0.0625 -0.109375,-0.0625 -0.078125,0 -0.078125,0 -0.109375,0.0625 -0.203125,0.265625 -0.3125,0.28125 -0.390625,0.28125 -0.078125,0 -0.15625,-0.015625 -0.3125,-0.125 -0.171875,-0.140625 -0.28125,-0.21875 -0.46875,-0.21875 -0.453125,0 -0.75,0.4375 -0.75,0.59375 0,0.078125 0.0625,0.078125 0.109375,0.078125 0.046875,0 0.078125,-0.015625 0.09375,-0.0625 0.03125,-0.0625 0.078125,-0.1875 0.46875,-0.1875 0.140625,0 0.25,0.015625 0.515625,0.0625 0.171875,0.03125 0.234375,0.03125 0.328125,0.03125 -0.15625,0.125 -0.296875,0.25 -0.671875,0.53125 -0.359375,0.25 -0.578125,0.40625 -0.8125,0.625 -0.203125,0.171875 -0.4375,0.453125 -0.4375,0.515625 0,0.078125 0.078125,0.078125 0.109375,0.078125 0.0625,0 0.078125,-0.015625 0.109375,-0.046875 0.140625,-0.203125 0.328125,-0.3125 0.5,-0.3125 0.140625,0 0.203125,0.0625 0.390625,0.203125 C 1.765625,0 1.875,0.0625 2.015625,0.0625 c 0.59375,0 0.96875,-0.59375 0.96875,-0.796875 C 2.984375,-0.8125 2.90625,-0.8125 2.875,-0.8125 c -0.078125,0 -0.078125,0.03125 -0.109375,0.078125 -0.109375,0.3125 -0.5,0.359375 -0.6875,0.359375 C 1.96875,-0.375 1.84375,-0.390625 1.6875,-0.40625 1.421875,-0.453125 1.328125,-0.453125 1.265625,-0.453125 c -0.078125,0 -0.09375,0 -0.125,0 z m 0,0"
             style="stroke:none"
             inkscape:connector-curvature="0" />
        </symbol>
      </g>
    </defs>
    <defs
       id="defs9147">
      <g
         id="g9149">
        <symbol
           overflow="visible"
           id="textext-3afde2b5-0"
           style="overflow:visible">
          <path
             style="stroke:none"
             d=""
             id="path9152"
             inkscape:connector-curvature="0" />
        </symbol>
        <symbol
           overflow="visible"
           id="textext-3afde2b5-1"
           style="overflow:visible">
          <path
             style="stroke:none"
             d="m 0.515625,0.84375 c -0.046875,0.203125 -0.0625,0.25 -0.328125,0.25 -0.09375,0 -0.1875,0 -0.1875,0.15625 0,0.078125 0.0625,0.109375 0.09375,0.109375 0.171875,0 0.40625,-0.03125 0.59375,-0.03125 0.234375,0 0.5,0.03125 0.734375,0.03125 0.0625,0 0.140625,-0.03125 0.140625,-0.15625 0,-0.109375 -0.09375,-0.109375 -0.1875,-0.109375 -0.15625,0 -0.34375,0 -0.34375,-0.078125 0,-0.03125 0.0625,-0.21875 0.078125,-0.3125 0.09375,-0.375 0.1875,-0.75 0.265625,-1.046875 0.078125,0.140625 0.296875,0.40625 0.71875,0.40625 0.84375,0 1.78125,-0.9375 1.78125,-1.96875 0,-0.8125 -0.5625,-1.171875 -1.03125,-1.171875 -0.4375,0 -0.8125,0.296875 -1,0.5 -0.109375,-0.40625 -0.5,-0.5 -0.71875,-0.5 -0.265625,0 -0.4375,0.1875 -0.546875,0.375 -0.140625,0.234375 -0.25,0.65625 -0.25,0.703125 0,0.078125 0.09375,0.078125 0.125,0.078125 0.09375,0 0.09375,-0.015625 0.140625,-0.203125 0.109375,-0.40625 0.25,-0.75 0.515625,-0.75 0.1875,0 0.234375,0.15625 0.234375,0.34375 0,0.078125 -0.015625,0.15625 -0.03125,0.203125 z M 1.84375,-2.234375 C 2.25,-2.78125 2.59375,-2.875 2.8125,-2.875 c 0.28125,0 0.515625,0.203125 0.515625,0.671875 0,0.28125 -0.15625,1 -0.359375,1.40625 -0.1875,0.34375 -0.515625,0.671875 -0.875,0.671875 -0.5,0 -0.625,-0.53125 -0.625,-0.609375 0,-0.03125 0.015625,-0.078125 0.015625,-0.109375 z m 0,0"
             id="path9155"
             inkscape:connector-curvature="0" />
        </symbol>
        <symbol
           overflow="visible"
           id="textext-3afde2b5-2"
           style="overflow:visible">
          <path
             style="stroke:none"
             d=""
             id="path9158"
             inkscape:connector-curvature="0" />
        </symbol>
        <symbol
           overflow="visible"
           id="textext-3afde2b5-3"
           style="overflow:visible">
          <path
             style="stroke:none"
             d="M 3.296875,-1.859375 C 3.3125,-1.9375 3.3125,-1.96875 3.3125,-1.96875 c 0,-0.109375 -0.078125,-0.171875 -0.171875,-0.171875 -0.203125,0 -0.25,0.171875 -0.28125,0.296875 L 2.75,-1.421875 l -0.140625,0.625 c -0.03125,0.0625 -0.046875,0.15625 -0.0625,0.1875 0,0.03125 -0.265625,0.5 -0.6875,0.5 -0.234375,0 -0.40625,-0.109375 -0.40625,-0.4375 0,-0.265625 0.140625,-0.640625 0.28125,-1 0.03125,-0.046875 0.0625,-0.140625 0.0625,-0.21875 0,-0.25 -0.234375,-0.4375 -0.546875,-0.4375 -0.515625,0 -0.796875,0.640625 -0.796875,0.765625 0,0.078125 0.078125,0.078125 0.109375,0.078125 0.078125,0 0.078125,-0.03125 0.109375,-0.09375 0.109375,-0.34375 0.34375,-0.578125 0.5625,-0.578125 0.09375,0 0.15625,0.046875 0.15625,0.1875 0,0.09375 -0.03125,0.171875 -0.0625,0.265625 -0.25,0.59375 -0.296875,0.765625 -0.296875,0.96875 0,0.546875 0.46875,0.671875 0.796875,0.671875 0.28125,0 0.5,-0.140625 0.625,-0.25 -0.078125,0.28125 -0.125,0.5 -0.359375,0.734375 -0.125,0.109375 -0.359375,0.3125 -0.65625,0.3125 -0.09375,0 -0.28125,-0.015625 -0.390625,-0.125 0.21875,-0.0625 0.25,-0.25 0.25,-0.296875 0,-0.140625 -0.125,-0.203125 -0.21875,-0.203125 -0.15625,0 -0.328125,0.109375 -0.328125,0.34375 0,0.25 0.265625,0.4375 0.6875,0.4375 C 2,1.015625 2.671875,0.640625 2.828125,0 Z m 0,0"
             id="path9161"
             inkscape:connector-curvature="0" />
        </symbol>
        <symbol
           overflow="visible"
           id="textext-3afde2b5-4"
           style="overflow:visible">
          <path
             style="stroke:none"
             d="M 1.140625,-0.453125 C 1.34375,-0.640625 1.59375,-0.828125 1.875,-1.03125 2.21875,-1.265625 2.421875,-1.4375 2.640625,-1.625 c 0.25,-0.234375 0.421875,-0.453125 0.421875,-0.515625 0,-0.0625 -0.078125,-0.0625 -0.109375,-0.0625 -0.078125,0 -0.078125,0 -0.109375,0.0625 -0.203125,0.265625 -0.3125,0.28125 -0.390625,0.28125 -0.078125,0 -0.15625,-0.015625 -0.3125,-0.125 -0.171875,-0.140625 -0.28125,-0.21875 -0.46875,-0.21875 -0.453125,0 -0.75,0.4375 -0.75,0.59375 0,0.078125 0.0625,0.078125 0.109375,0.078125 0.046875,0 0.078125,-0.015625 0.09375,-0.0625 0.03125,-0.0625 0.078125,-0.1875 0.46875,-0.1875 0.140625,0 0.25,0.015625 0.515625,0.0625 0.171875,0.03125 0.234375,0.03125 0.328125,0.03125 -0.15625,0.125 -0.296875,0.25 -0.671875,0.53125 -0.359375,0.25 -0.578125,0.40625 -0.8125,0.625 -0.203125,0.171875 -0.4375,0.453125 -0.4375,0.515625 0,0.078125 0.078125,0.078125 0.109375,0.078125 0.0625,0 0.078125,-0.015625 0.109375,-0.046875 0.140625,-0.203125 0.328125,-0.3125 0.5,-0.3125 0.140625,0 0.203125,0.0625 0.390625,0.203125 C 1.765625,0 1.875,0.0625 2.015625,0.0625 c 0.59375,0 0.96875,-0.59375 0.96875,-0.796875 C 2.984375,-0.8125 2.90625,-0.8125 2.875,-0.8125 c -0.078125,0 -0.078125,0.03125 -0.109375,0.078125 -0.109375,0.3125 -0.5,0.359375 -0.6875,0.359375 C 1.96875,-0.375 1.84375,-0.390625 1.6875,-0.40625 1.421875,-0.453125 1.328125,-0.453125 1.265625,-0.453125 c -0.078125,0 -0.09375,0 -0.125,0 z m 0,0"
             id="path9164"
             inkscape:connector-curvature="0" />
        </symbol>
      </g>
    </defs>
  </defs>
  <metadata
     id="metadata7">
    <rdf:RDF>
      <cc:Work
         rdf:about="">
        <dc:format>image/svg+xml</dc:format>
        <dc:type
           rdf:resource="http://purl.org/dc/dcmitype/StillImage" />
        <dc:title></dc:title>
      </cc:Work>
    </rdf:RDF>
  </metadata>
  <g
     transform="translate(75.897231,-82.66712)"
     inkscape:label="Layer 1"
     inkscape:groupmode="layer"
     id="layer1">
    <g
       transform="translate(-7.7471334,-7.4192241)"
       id="g7289">
      <g
         id="g4319"
         transform="translate(-75.933683,-2.4975946)">
        <path
           style="fill:none;fill-rule:evenodd;stroke:#000000;stroke-width:1.61392486px;stroke-linecap:round;stroke-linejoin:round;stroke-opacity:1;marker-end:url(#Arrow2Mend)"
           d="m 131.60015,144.67745 121.04436,0"
           id="path5808"
           inkscape:connector-curvature="0" />
        <text
           xml:space="preserve"
           style="font-style:normal;font-weight:normal;font-size:40.34812164px;line-height:125%;font-family:Sans;letter-spacing:0px;word-spacing:0px;fill:#000000;fill-opacity:1;stroke:none;stroke-width:1px;stroke-linecap:butt;stroke-linejoin:miter;stroke-opacity:1"
           x="124.82323"
           y="134.93697"
           id="text6096"
           sodipodi:linespacing="125%"><tspan
             sodipodi:role="line"
             id="tspan6098"
             x="124.82323"
             y="134.93697"
             style="font-size:12.10443687px">::from_homogeneous()</tspan></text>
      </g>
    </g>
    <g
       transform="translate(-315.1123,-0.29505119)"
       id="g7255">
      <g
         id="g7189">
        <rect
           transform="matrix(0,1,-1,0,0,0)"
           style="opacity:1;fill:#ffe5d6;fill-opacity:1;fill-rule:evenodd;stroke:#000000;stroke-width:1.96973133;stroke-linecap:butt;stroke-linejoin:round;stroke-miterlimit:4;stroke-dasharray:none;stroke-dashoffset:0;stroke-opacity:0"
           id="rect7089"
           width="39.020424"
           height="76.721489"
           x="83.947037"
           y="-317.1557" />
        <path
           sodipodi:nodetypes="cccc"
           inkscape:connector-curvature="0"
           id="path4473"
           d="m 329.5527,84.495038 20.31372,0 0,37.924422 -20.31372,0"
           style="fill:none;fill-rule:evenodd;stroke:#4d4d4d;stroke-width:2;stroke-linecap:butt;stroke-linejoin:round;stroke-opacity:1;stroke-miterlimit:4;stroke-dasharray:none" />
        <path
           style="fill:none;fill-rule:evenodd;stroke:#4d4d4d;stroke-width:2;stroke-linecap:butt;stroke-linejoin:round;stroke-opacity:1;stroke-miterlimit:4;stroke-dasharray:none"
           d="m 260.17355,84.495038 -20.31372,0 0,37.924422 20.31372,0"
           id="path4444"
           inkscape:connector-curvature="0"
           sodipodi:nodetypes="cccc" />
        <g
           ns0:text="$p_x$"
           ns0:preamble="/home/tortue/Dropbox/projects/textex_preamble.tex"
           transform="matrix(2.4267753,0,0,2.4267753,-291.8014,-221.63243)"
           style="font-style:normal;font-variant:normal;font-weight:normal;font-stretch:normal;letter-spacing:normal;word-spacing:normal;text-anchor:start;fill:#6b3c41;fill-opacity:1;fill-rule:evenodd;stroke:#000000;stroke-linecap:butt;stroke-linejoin:miter;stroke-miterlimit:10.43299961;stroke-dasharray:none;stroke-dashoffset:0;stroke-opacity:1"
           id="g4734">
          <defs
             id="defs4736">
            <g
               id="g4738">
              <symbol
                 style="overflow:visible"
                 overflow="visible"
                 id="textext-f3c55e8d-0">
                <path
                   inkscape:connector-curvature="0"
                   style="stroke:none"
                   d=""
                   id="path4741" />
              </symbol>
              <symbol
                 style="overflow:visible"
                 overflow="visible"
                 id="textext-f3c55e8d-1">
                <path
                   inkscape:connector-curvature="0"
                   style="stroke:none"
                   d="M 0.453125,1.21875 C 0.375,1.5625 0.34375,1.625 -0.09375,1.625 c -0.109375,0 -0.21875,0 -0.21875,0.1875 0,0.078125 0.046875,0.125 0.125,0.125 0.265625,0 0.5625,-0.03125 0.828125,-0.03125 0.34375,0 0.671875,0.03125 1,0.03125 0.046875,0 0.171875,0 0.171875,-0.203125 C 1.8125,1.625 1.71875,1.625 1.578125,1.625 c -0.5,0 -0.5,-0.0625 -0.5,-0.15625 0,-0.125 0.421875,-1.75 0.484375,-2 0.125,0.296875 0.40625,0.640625 0.921875,0.640625 1.15625,0 2.40625,-1.453125 2.40625,-2.921875 0,-0.9375 -0.578125,-1.59375 -1.328125,-1.59375 -0.5,0 -0.984375,0.359375 -1.3125,0.75 -0.09375,-0.546875 -0.53125,-0.75 -0.890625,-0.75 -0.46875,0 -0.65625,0.390625 -0.734375,0.5625 C 0.4375,-3.5 0.3125,-2.90625 0.3125,-2.875 c 0,0.109375 0.09375,0.109375 0.109375,0.109375 0.109375,0 0.109375,-0.015625 0.171875,-0.234375 0.171875,-0.703125 0.375,-1.1875 0.734375,-1.1875 0.171875,0 0.3125,0.078125 0.3125,0.453125 0,0.234375 -0.03125,0.34375 -0.078125,0.515625 z m 1.75,-4.328125 C 2.265625,-3.375 2.546875,-3.65625 2.71875,-3.8125 c 0.359375,-0.296875 0.640625,-0.375 0.8125,-0.375 0.390625,0 0.640625,0.34375 0.640625,0.9375 0,0.59375 -0.328125,1.734375 -0.515625,2.109375 -0.34375,0.703125 -0.8125,1.03125 -1.1875,1.03125 C 1.8125,-0.109375 1.6875,-0.9375 1.6875,-1 c 0,-0.015625 0,-0.03125 0.03125,-0.15625 z m 0,0"
                   id="path4744" />
              </symbol>
              <symbol
                 style="overflow:visible"
                 overflow="visible"
                 id="textext-f3c55e8d-2">
                <path
                   inkscape:connector-curvature="0"
                   style="stroke:none"
                   d=""
                   id="path4747" />
              </symbol>
              <symbol
                 style="overflow:visible"
                 overflow="visible"
                 id="textext-f3c55e8d-3">
                <path
                   inkscape:connector-curvature="0"
                   style="stroke:none"
                   d="M 1.734375,-0.734375 C 1.671875,-0.5 1.4375,-0.125 1.078125,-0.125 c -0.015625,0 -0.234375,0 -0.375,-0.09375 0.28125,-0.09375 0.3125,-0.34375 0.3125,-0.390625 0,-0.15625 -0.125,-0.25 -0.28125,-0.25 -0.203125,0 -0.40625,0.15625 -0.40625,0.421875 0,0.34375 0.390625,0.5 0.734375,0.5 0.328125,0 0.609375,-0.1875 0.78125,-0.484375 C 2.015625,-0.0625 2.390625,0.0625 2.671875,0.0625 c 0.8125,0 1.234375,-0.859375 1.234375,-1.0625 0,-0.09375 -0.09375,-0.09375 -0.109375,-0.09375 -0.109375,0 -0.109375,0.046875 -0.140625,0.125 -0.140625,0.484375 -0.5625,0.84375 -0.953125,0.84375 -0.28125,0 -0.421875,-0.1875 -0.421875,-0.453125 0,-0.1875 0.171875,-0.8125 0.359375,-1.59375 C 2.78125,-2.703125 3.09375,-2.875 3.328125,-2.875 c 0.015625,0 0.21875,0 0.375,0.09375 -0.21875,0.0625 -0.3125,0.265625 -0.3125,0.390625 0,0.140625 0.125,0.25 0.28125,0.25 0.15625,0 0.390625,-0.125 0.390625,-0.421875 0,-0.390625 -0.453125,-0.515625 -0.71875,-0.515625 -0.359375,0 -0.640625,0.234375 -0.78125,0.5 -0.125,-0.28125 -0.453125,-0.5 -0.84375,-0.5 C 0.9375,-3.078125 0.5,-2.21875 0.5,-2 c 0,0.078125 0.09375,0.078125 0.109375,0.078125 0.09375,0 0.09375,-0.015625 0.140625,-0.109375 C 0.921875,-2.578125 1.359375,-2.875 1.703125,-2.875 1.9375,-2.875 2.125,-2.75 2.125,-2.421875 2.125,-2.28125 2.03125,-1.9375 1.96875,-1.6875 Z m 0,0"
                   id="path4750" />
              </symbol>
            </g>
          </defs>
          <g
             style="fill:#6b3c41;fill-opacity:1"
             id="textext-f3c55e8d-4">
            <g
               style="fill:#6b3c41;fill-opacity:1"
               id="g4753">
              <use
                 style="fill:#6b3c41;fill-opacity:1"
                 height="100%"
                 width="100%"
                 xlink:href="#textext-f3c55e8d-1"
                 x="223.43201"
                 y="134.765"
                 id="use4755" />
            </g>
            <g
               style="fill:#6b3c41;fill-opacity:1"
               id="g4757">
              <use
                 style="fill:#6b3c41;fill-opacity:1"
                 height="100%"
                 width="100%"
                 xlink:href="#textext-f3c55e8d-3"
                 x="228.44501"
                 y="136.259"
                 id="use4759" />
            </g>
          </g>
        </g>
        <g
           id="g4898"
           style="font-style:normal;font-variant:normal;font-weight:normal;font-stretch:normal;letter-spacing:normal;word-spacing:normal;text-anchor:start;fill:#6b3c41;fill-opacity:1;fill-rule:evenodd;stroke:#000000;stroke-linecap:butt;stroke-linejoin:miter;stroke-miterlimit:10.43299961;stroke-dasharray:none;stroke-dashoffset:0;stroke-opacity:1"
           transform="matrix(2.4207099,0,0,2.4207099,-251.99293,-220.83483)"
           ns0:preamble="/home/tortue/Dropbox/projects/textex_preamble.tex"
           ns0:text="$p_y$">
          <defs
             id="defs4900">
            <g
               id="g4902">
              <symbol
                 style="overflow:visible"
                 id="textext-47ad6312-0"
                 overflow="visible">
                <path
                   inkscape:connector-curvature="0"
                   id="path4905"
                   d=""
                   style="stroke:none" />
              </symbol>
              <symbol
                 style="overflow:visible"
                 id="textext-47ad6312-1"
                 overflow="visible">
                <path
                   inkscape:connector-curvature="0"
                   id="path4908"
                   d="M 0.453125,1.21875 C 0.375,1.5625 0.34375,1.625 -0.09375,1.625 c -0.109375,0 -0.21875,0 -0.21875,0.1875 0,0.078125 0.046875,0.125 0.125,0.125 0.265625,0 0.5625,-0.03125 0.828125,-0.03125 0.34375,0 0.671875,0.03125 1,0.03125 0.046875,0 0.171875,0 0.171875,-0.203125 C 1.8125,1.625 1.71875,1.625 1.578125,1.625 c -0.5,0 -0.5,-0.0625 -0.5,-0.15625 0,-0.125 0.421875,-1.75 0.484375,-2 0.125,0.296875 0.40625,0.640625 0.921875,0.640625 1.15625,0 2.40625,-1.453125 2.40625,-2.921875 0,-0.9375 -0.578125,-1.59375 -1.328125,-1.59375 -0.5,0 -0.984375,0.359375 -1.3125,0.75 -0.09375,-0.546875 -0.53125,-0.75 -0.890625,-0.75 -0.46875,0 -0.65625,0.390625 -0.734375,0.5625 C 0.4375,-3.5 0.3125,-2.90625 0.3125,-2.875 c 0,0.109375 0.09375,0.109375 0.109375,0.109375 0.109375,0 0.109375,-0.015625 0.171875,-0.234375 0.171875,-0.703125 0.375,-1.1875 0.734375,-1.1875 0.171875,0 0.3125,0.078125 0.3125,0.453125 0,0.234375 -0.03125,0.34375 -0.078125,0.515625 z m 1.75,-4.328125 C 2.265625,-3.375 2.546875,-3.65625 2.71875,-3.8125 c 0.359375,-0.296875 0.640625,-0.375 0.8125,-0.375 0.390625,0 0.640625,0.34375 0.640625,0.9375 0,0.59375 -0.328125,1.734375 -0.515625,2.109375 -0.34375,0.703125 -0.8125,1.03125 -1.1875,1.03125 C 1.8125,-0.109375 1.6875,-0.9375 1.6875,-1 c 0,-0.015625 0,-0.03125 0.03125,-0.15625 z m 0,0"
                   style="stroke:none" />
              </symbol>
              <symbol
                 style="overflow:visible"
                 id="textext-47ad6312-2"
                 overflow="visible">
                <path
                   inkscape:connector-curvature="0"
                   id="path4911"
                   d=""
                   style="stroke:none" />
              </symbol>
              <symbol
                 style="overflow:visible"
                 id="textext-47ad6312-3"
                 overflow="visible">
                <path
                   inkscape:connector-curvature="0"
                   id="path4914"
                   d="M 3.875,-2.625 C 3.90625,-2.71875 3.90625,-2.734375 3.90625,-2.78125 3.90625,-2.921875 3.796875,-3 3.671875,-3 3.59375,-3 3.46875,-2.96875 3.390625,-2.84375 3.359375,-2.796875 3.3125,-2.578125 3.28125,-2.4375 L 3.125,-1.859375 c -0.03125,0.171875 -0.25,1.046875 -0.28125,1.125 0,0 -0.3125,0.609375 -0.84375,0.609375 -0.484375,0 -0.484375,-0.453125 -0.484375,-0.578125 0,-0.375 0.15625,-0.8125 0.375,-1.359375 C 1.96875,-2.28125 2,-2.359375 2,-2.484375 2,-2.8125 1.71875,-3.078125 1.34375,-3.078125 0.640625,-3.078125 0.328125,-2.125 0.328125,-2 c 0,0.078125 0.09375,0.078125 0.125,0.078125 0.09375,0 0.09375,-0.03125 0.125,-0.109375 C 0.75,-2.609375 1.046875,-2.875 1.328125,-2.875 1.4375,-2.875 1.5,-2.796875 1.5,-2.640625 c 0,0.171875 -0.0625,0.3125 -0.09375,0.40625 C 1.0625,-1.375 1,-1.125 1,-0.8125 1,-0.703125 1,-0.375 1.265625,-0.140625 1.484375,0.03125 1.78125,0.0625 1.96875,0.0625 2.25,0.0625 2.5,-0.03125 2.71875,-0.25 2.640625,0.140625 2.5625,0.4375 2.265625,0.78125 2.078125,1 1.796875,1.21875 1.421875,1.21875 c -0.046875,0 -0.375,0 -0.515625,-0.21875 0.375,-0.046875 0.375,-0.375 0.375,-0.390625 0,-0.21875 -0.203125,-0.265625 -0.265625,-0.265625 -0.171875,0 -0.40625,0.140625 -0.40625,0.46875 0,0.34375 0.328125,0.609375 0.828125,0.609375 C 2.140625,1.421875 3,0.875 3.21875,0 Z m 0,0"
                   style="stroke:none" />
              </symbol>
            </g>
          </defs>
          <g
             id="textext-47ad6312-4"
             style="fill:#6b3c41;fill-opacity:1">
            <g
               id="g4917"
               style="fill:#6b3c41;fill-opacity:1">
              <use
                 height="100%"
                 width="100%"
                 id="use4919"
                 y="134.765"
                 x="223.43201"
                 xlink:href="#textext-47ad6312-1"
                 style="fill:#6b3c41;fill-opacity:1" />
            </g>
            <g
               id="g4921"
               style="fill:#6b3c41;fill-opacity:1">
              <use
                 height="100%"
                 width="100%"
                 id="use4923"
                 y="136.259"
                 x="228.44501"
                 xlink:href="#textext-47ad6312-3"
                 style="fill:#6b3c41;fill-opacity:1" />
            </g>
          </g>
        </g>
        <g
           ns0:text="$p_z$"
           ns0:preamble="/home/tortue/Dropbox/projects/textex_preamble.tex"
           transform="matrix(2.4207099,0,0,2.4207099,-218.57108,-220.83483)"
           style="font-style:normal;font-variant:normal;font-weight:normal;font-stretch:normal;letter-spacing:normal;word-spacing:normal;text-anchor:start;fill:#d2504b;fill-opacity:1;fill-rule:evenodd;stroke:#000000;stroke-linecap:butt;stroke-linejoin:miter;stroke-miterlimit:10.43299961;stroke-dasharray:none;stroke-dashoffset:0;stroke-opacity:1"
           id="g5801">
          <defs
             id="defs5803">
            <g
               id="g5805">
              <symbol
                 overflow="visible"
                 id="textext-8b210ecf-0"
                 style="overflow:visible">
                <path
                   style="stroke:none"
                   d=""
                   id="path5809"
                   inkscape:connector-curvature="0" />
              </symbol>
              <symbol
                 overflow="visible"
                 id="textext-8b210ecf-1"
                 style="overflow:visible">
                <path
                   style="stroke:none"
                   d="M 0.453125,1.21875 C 0.375,1.5625 0.34375,1.625 -0.09375,1.625 c -0.109375,0 -0.21875,0 -0.21875,0.1875 0,0.078125 0.046875,0.125 0.125,0.125 0.265625,0 0.5625,-0.03125 0.828125,-0.03125 0.34375,0 0.671875,0.03125 1,0.03125 0.046875,0 0.171875,0 0.171875,-0.203125 C 1.8125,1.625 1.71875,1.625 1.578125,1.625 c -0.5,0 -0.5,-0.0625 -0.5,-0.15625 0,-0.125 0.421875,-1.75 0.484375,-2 0.125,0.296875 0.40625,0.640625 0.921875,0.640625 1.15625,0 2.40625,-1.453125 2.40625,-2.921875 0,-0.9375 -0.578125,-1.59375 -1.328125,-1.59375 -0.5,0 -0.984375,0.359375 -1.3125,0.75 -0.09375,-0.546875 -0.53125,-0.75 -0.890625,-0.75 -0.46875,0 -0.65625,0.390625 -0.734375,0.5625 C 0.4375,-3.5 0.3125,-2.90625 0.3125,-2.875 c 0,0.109375 0.09375,0.109375 0.109375,0.109375 0.109375,0 0.109375,-0.015625 0.171875,-0.234375 0.171875,-0.703125 0.375,-1.1875 0.734375,-1.1875 0.171875,0 0.3125,0.078125 0.3125,0.453125 0,0.234375 -0.03125,0.34375 -0.078125,0.515625 z m 1.75,-4.328125 C 2.265625,-3.375 2.546875,-3.65625 2.71875,-3.8125 c 0.359375,-0.296875 0.640625,-0.375 0.8125,-0.375 0.390625,0 0.640625,0.34375 0.640625,0.9375 0,0.59375 -0.328125,1.734375 -0.515625,2.109375 -0.34375,0.703125 -0.8125,1.03125 -1.1875,1.03125 C 1.8125,-0.109375 1.6875,-0.9375 1.6875,-1 c 0,-0.015625 0,-0.03125 0.03125,-0.15625 z m 0,0"
                   id="path5812"
                   inkscape:connector-curvature="0" />
              </symbol>
              <symbol
                 overflow="visible"
                 id="textext-8b210ecf-2"
                 style="overflow:visible">
                <path
                   style="stroke:none"
                   d=""
                   id="path5815"
                   inkscape:connector-curvature="0" />
              </symbol>
              <symbol
                 overflow="visible"
                 id="textext-8b210ecf-3"
                 style="overflow:visible">
                <path
                   style="stroke:none"
                   d="m 1.171875,-0.609375 c 0.1875,-0.1875 0.3125,-0.3125 0.890625,-0.796875 0.15625,-0.109375 0.671875,-0.53125 0.875,-0.71875 0.421875,-0.421875 0.6875,-0.78125 0.6875,-0.859375 0,-0.09375 -0.078125,-0.09375 -0.109375,-0.09375 -0.0625,0 -0.09375,0.015625 -0.125,0.078125 -0.21875,0.3125 -0.359375,0.421875 -0.53125,0.421875 -0.078125,0 -0.1875,0 -0.390625,-0.203125 -0.234375,-0.25 -0.390625,-0.296875 -0.546875,-0.296875 -0.5625,0 -0.9375,0.609375 -0.9375,0.8125 0,0.078125 0.0625,0.09375 0.109375,0.09375 0.09375,0 0.109375,-0.015625 0.125,-0.09375 0.109375,-0.25 0.5,-0.265625 0.609375,-0.265625 0.171875,0 0.34375,0.046875 0.4375,0.0625 0.390625,0.078125 0.4375,0.078125 0.609375,0.078125 -0.171875,0.203125 -0.296875,0.328125 -0.96875,0.84375 -0.546875,0.4375 -0.734375,0.609375 -0.859375,0.75 -0.421875,0.40625 -0.625,0.71875 -0.625,0.78125 0,0.078125 0.09375,0.078125 0.125,0.078125 0.0625,0 0.078125,0 0.109375,-0.0625 0.1875,-0.265625 0.40625,-0.421875 0.640625,-0.421875 0.09375,0 0.1875,0 0.375,0.171875 0.21875,0.21875 0.359375,0.3125 0.59375,0.3125 C 3,0.0625 3.46875,-0.78125 3.46875,-1.015625 3.46875,-1.09375 3.390625,-1.09375 3.359375,-1.09375 3.265625,-1.09375 3.25,-1.0625 3.21875,-0.984375 3.09375,-0.640625 2.6875,-0.46875 2.34375,-0.46875 2.1875,-0.46875 2,-0.515625 1.828125,-0.546875 1.515625,-0.625 1.453125,-0.625 1.328125,-0.625 c -0.015625,0 -0.109375,0 -0.15625,0.015625 z m 0,0"
                   id="path5818"
                   inkscape:connector-curvature="0" />
              </symbol>
            </g>
          </defs>
          <g
             style="fill:#d2504b;fill-opacity:1"
             id="textext-8b210ecf-4">
            <g
               style="fill:#d2504b;fill-opacity:1"
               id="g5821">
              <use
                 style="fill:#d2504b;fill-opacity:1"
                 xlink:href="#textext-8b210ecf-1"
                 x="223.43201"
                 y="134.765"
                 id="use5823"
                 width="100%"
                 height="100%" />
            </g>
            <g
               style="fill:#d2504b;fill-opacity:1"
               id="g5825">
              <use
                 style="fill:#d2504b;fill-opacity:1"
                 xlink:href="#textext-8b210ecf-3"
                 x="228.44501"
                 y="136.259"
                 id="use5827"
                 width="100%"
                 height="100%" />
            </g>
          </g>
        </g>
      </g>
      <g
         id="g7955">
        <rect
           y="-317.1557"
           x="132.38454"
           height="76.721489"
           width="39.020424"
           id="rect4629"
           style="opacity:1;fill:#ebf6f9;fill-opacity:1;fill-rule:evenodd;stroke:#000000;stroke-width:1.96973133;stroke-linecap:butt;stroke-linejoin:round;stroke-miterlimit:4;stroke-dasharray:none;stroke-dashoffset:0;stroke-opacity:0"
           transform="matrix(0,1,-1,0,0,0)" />
        <path
           style="fill:none;fill-rule:evenodd;stroke:#4d4d4d;stroke-width:2;stroke-linecap:butt;stroke-linejoin:round;stroke-opacity:1;stroke-miterlimit:4;stroke-dasharray:none"
           d="m 328.44785,131.82768 20.31372,0 0,37.92443 -20.31372,0"
           id="path4631"
           inkscape:connector-curvature="0"
           sodipodi:nodetypes="cccc" />
        <path
           sodipodi:nodetypes="cccc"
           inkscape:connector-curvature="0"
           id="path4649"
           d="m 260.17355,132.93253 -20.31372,0 0,37.92443 20.31372,0"
           style="fill:none;fill-rule:evenodd;stroke:#4d4d4d;stroke-width:2;stroke-linecap:butt;stroke-linejoin:round;stroke-opacity:1;stroke-miterlimit:4;stroke-dasharray:none" />
        <g
           ns0:text="$v_x$"
           ns0:preamble="/home/tortue/Dropbox/projects/textex_preamble.tex"
           transform="matrix(2.4267753,0,0,2.4267753,-290.60136,-171.88256)"
           style="font-style:normal;font-variant:normal;font-weight:normal;font-stretch:normal;letter-spacing:normal;word-spacing:normal;text-anchor:start;fill:#42aac8;fill-opacity:1;fill-rule:evenodd;stroke:#000000;stroke-linecap:butt;stroke-linejoin:miter;stroke-miterlimit:10.43299961;stroke-dasharray:none;stroke-dashoffset:0;stroke-opacity:1"
           id="g5176">
          <defs
             id="defs5178">
            <g
               id="g5180">
              <symbol
                 overflow="visible"
                 id="textext-f4357066-0"
                 style="overflow:visible">
                <path
                   style="stroke:none"
                   d=""
                   id="path5183"
                   inkscape:connector-curvature="0" />
              </symbol>
              <symbol
                 overflow="visible"
                 id="textext-f4357066-1"
                 style="overflow:visible">
                <path
                   style="stroke:none"
                   d="m 4.671875,-3.703125 c 0,-0.546875 -0.265625,-0.703125 -0.4375,-0.703125 -0.25,0 -0.5,0.265625 -0.5,0.484375 0,0.125 0.046875,0.1875 0.15625,0.296875 0.21875,0.203125 0.34375,0.453125 0.34375,0.8125 0,0.421875 -0.609375,2.703125 -1.765625,2.703125 -0.515625,0 -0.75,-0.34375 -0.75,-0.875 0,-0.546875 0.28125,-1.28125 0.578125,-2.109375 0.078125,-0.171875 0.125,-0.3125 0.125,-0.5 0,-0.4375 -0.3125,-0.8125 -0.8125,-0.8125 -0.9375,0 -1.3125,1.453125 -1.3125,1.53125 0,0.109375 0.09375,0.109375 0.109375,0.109375 0.109375,0 0.109375,-0.03125 0.15625,-0.1875 0.296875,-1 0.71875,-1.234375 1.015625,-1.234375 0.078125,0 0.25,0 0.25,0.3125 0,0.25 -0.109375,0.53125 -0.171875,0.703125 -0.4375,1.15625 -0.5625,1.609375 -0.5625,2.046875 0,1.078125 0.875,1.234375 1.328125,1.234375 1.671875,0 2.25,-3.296875 2.25,-3.8125 z m 0,0"
                   id="path5186"
                   inkscape:connector-curvature="0" />
              </symbol>
              <symbol
                 overflow="visible"
                 id="textext-f4357066-2"
                 style="overflow:visible">
                <path
                   style="stroke:none"
                   d=""
                   id="path5189"
                   inkscape:connector-curvature="0" />
              </symbol>
              <symbol
                 overflow="visible"
                 id="textext-f4357066-3"
                 style="overflow:visible">
                <path
                   style="stroke:none"
                   d="M 1.734375,-0.734375 C 1.671875,-0.5 1.4375,-0.125 1.078125,-0.125 c -0.015625,0 -0.234375,0 -0.375,-0.09375 0.28125,-0.09375 0.3125,-0.34375 0.3125,-0.390625 0,-0.15625 -0.125,-0.25 -0.28125,-0.25 -0.203125,0 -0.40625,0.15625 -0.40625,0.421875 0,0.34375 0.390625,0.5 0.734375,0.5 0.328125,0 0.609375,-0.1875 0.78125,-0.484375 C 2.015625,-0.0625 2.390625,0.0625 2.671875,0.0625 c 0.8125,0 1.234375,-0.859375 1.234375,-1.0625 0,-0.09375 -0.09375,-0.09375 -0.109375,-0.09375 -0.109375,0 -0.109375,0.046875 -0.140625,0.125 -0.140625,0.484375 -0.5625,0.84375 -0.953125,0.84375 -0.28125,0 -0.421875,-0.1875 -0.421875,-0.453125 0,-0.1875 0.171875,-0.8125 0.359375,-1.59375 C 2.78125,-2.703125 3.09375,-2.875 3.328125,-2.875 c 0.015625,0 0.21875,0 0.375,0.09375 -0.21875,0.0625 -0.3125,0.265625 -0.3125,0.390625 0,0.140625 0.125,0.25 0.28125,0.25 0.15625,0 0.390625,-0.125 0.390625,-0.421875 0,-0.390625 -0.453125,-0.515625 -0.71875,-0.515625 -0.359375,0 -0.640625,0.234375 -0.78125,0.5 -0.125,-0.28125 -0.453125,-0.5 -0.84375,-0.5 C 0.9375,-3.078125 0.5,-2.21875 0.5,-2 c 0,0.078125 0.09375,0.078125 0.109375,0.078125 0.09375,0 0.09375,-0.015625 0.140625,-0.109375 C 0.921875,-2.578125 1.359375,-2.875 1.703125,-2.875 1.9375,-2.875 2.125,-2.75 2.125,-2.421875 2.125,-2.28125 2.03125,-1.9375 1.96875,-1.6875 Z m 0,0"
                   id="path5192"
                   inkscape:connector-curvature="0" />
              </symbol>
            </g>
          </defs>
          <g
             style="fill:#42aac8;fill-opacity:1"
             id="textext-f4357066-4">
            <g
               style="fill:#42aac8;fill-opacity:1"
               id="g5195">
              <use
                 style="fill:#42aac8;fill-opacity:1"
                 xlink:href="#textext-f4357066-1"
                 x="223.43201"
                 y="134.765"
                 id="use5197"
                 width="100%"
                 height="100%" />
            </g>
            <g
               style="fill:#42aac8;fill-opacity:1"
               id="g5199">
              <use
                 style="fill:#42aac8;fill-opacity:1"
                 xlink:href="#textext-f4357066-3"
                 x="228.261"
                 y="136.259"
                 id="use5201"
                 width="100%"
                 height="100%" />
            </g>
          </g>
        </g>
        <g
           id="g5504"
           style="font-style:normal;font-variant:normal;font-weight:normal;font-stretch:normal;letter-spacing:normal;word-spacing:normal;text-anchor:start;fill:#42aac8;fill-opacity:1;fill-rule:evenodd;stroke:#000000;stroke-linecap:butt;stroke-linejoin:miter;stroke-miterlimit:10.43299961;stroke-dasharray:none;stroke-dashoffset:0;stroke-opacity:1"
           transform="matrix(2.4207099,0,0,2.4207099,-251.72251,-170.96132)"
           ns0:preamble="/home/tortue/Dropbox/projects/textex_preamble.tex"
           ns0:text="$v_y$">
          <defs
             id="defs5506">
            <g
               id="g5508">
              <symbol
                 style="overflow:visible"
                 id="textext-c5fad424-0"
                 overflow="visible">
                <path
                   inkscape:connector-curvature="0"
                   id="path5511"
                   d=""
                   style="stroke:none" />
              </symbol>
              <symbol
                 style="overflow:visible"
                 id="textext-c5fad424-1"
                 overflow="visible">
                <path
                   inkscape:connector-curvature="0"
                   id="path5514"
                   d="m 4.671875,-3.703125 c 0,-0.546875 -0.265625,-0.703125 -0.4375,-0.703125 -0.25,0 -0.5,0.265625 -0.5,0.484375 0,0.125 0.046875,0.1875 0.15625,0.296875 0.21875,0.203125 0.34375,0.453125 0.34375,0.8125 0,0.421875 -0.609375,2.703125 -1.765625,2.703125 -0.515625,0 -0.75,-0.34375 -0.75,-0.875 0,-0.546875 0.28125,-1.28125 0.578125,-2.109375 0.078125,-0.171875 0.125,-0.3125 0.125,-0.5 0,-0.4375 -0.3125,-0.8125 -0.8125,-0.8125 -0.9375,0 -1.3125,1.453125 -1.3125,1.53125 0,0.109375 0.09375,0.109375 0.109375,0.109375 0.109375,0 0.109375,-0.03125 0.15625,-0.1875 0.296875,-1 0.71875,-1.234375 1.015625,-1.234375 0.078125,0 0.25,0 0.25,0.3125 0,0.25 -0.109375,0.53125 -0.171875,0.703125 -0.4375,1.15625 -0.5625,1.609375 -0.5625,2.046875 0,1.078125 0.875,1.234375 1.328125,1.234375 1.671875,0 2.25,-3.296875 2.25,-3.8125 z m 0,0"
                   style="stroke:none" />
              </symbol>
              <symbol
                 style="overflow:visible"
                 id="textext-c5fad424-2"
                 overflow="visible">
                <path
                   inkscape:connector-curvature="0"
                   id="path5517"
                   d=""
                   style="stroke:none" />
              </symbol>
              <symbol
                 style="overflow:visible"
                 id="textext-c5fad424-3"
                 overflow="visible">
                <path
                   inkscape:connector-curvature="0"
                   id="path5520"
                   d="M 3.875,-2.625 C 3.90625,-2.71875 3.90625,-2.734375 3.90625,-2.78125 3.90625,-2.921875 3.796875,-3 3.671875,-3 3.59375,-3 3.46875,-2.96875 3.390625,-2.84375 3.359375,-2.796875 3.3125,-2.578125 3.28125,-2.4375 L 3.125,-1.859375 c -0.03125,0.171875 -0.25,1.046875 -0.28125,1.125 0,0 -0.3125,0.609375 -0.84375,0.609375 -0.484375,0 -0.484375,-0.453125 -0.484375,-0.578125 0,-0.375 0.15625,-0.8125 0.375,-1.359375 C 1.96875,-2.28125 2,-2.359375 2,-2.484375 2,-2.8125 1.71875,-3.078125 1.34375,-3.078125 0.640625,-3.078125 0.328125,-2.125 0.328125,-2 c 0,0.078125 0.09375,0.078125 0.125,0.078125 0.09375,0 0.09375,-0.03125 0.125,-0.109375 C 0.75,-2.609375 1.046875,-2.875 1.328125,-2.875 1.4375,-2.875 1.5,-2.796875 1.5,-2.640625 c 0,0.171875 -0.0625,0.3125 -0.09375,0.40625 C 1.0625,-1.375 1,-1.125 1,-0.8125 1,-0.703125 1,-0.375 1.265625,-0.140625 1.484375,0.03125 1.78125,0.0625 1.96875,0.0625 2.25,0.0625 2.5,-0.03125 2.71875,-0.25 2.640625,0.140625 2.5625,0.4375 2.265625,0.78125 2.078125,1 1.796875,1.21875 1.421875,1.21875 c -0.046875,0 -0.375,0 -0.515625,-0.21875 0.375,-0.046875 0.375,-0.375 0.375,-0.390625 0,-0.21875 -0.203125,-0.265625 -0.265625,-0.265625 -0.171875,0 -0.40625,0.140625 -0.40625,0.46875 0,0.34375 0.328125,0.609375 0.828125,0.609375 C 2.140625,1.421875 3,0.875 3.21875,0 Z m 0,0"
                   style="stroke:none" />
              </symbol>
            </g>
          </defs>
          <g
             id="textext-c5fad424-4"
             style="fill:#42aac8;fill-opacity:1">
            <g
               id="g5523"
               style="fill:#42aac8;fill-opacity:1">
              <use
                 height="100%"
                 width="100%"
                 id="use5525"
                 y="134.765"
                 x="223.43201"
                 xlink:href="#textext-c5fad424-1"
                 style="fill:#42aac8;fill-opacity:1" />
            </g>
            <g
               id="g5527"
               style="fill:#42aac8;fill-opacity:1">
              <use
                 height="100%"
                 width="100%"
                 id="use5529"
                 y="136.259"
                 x="228.261"
                 xlink:href="#textext-c5fad424-3"
                 style="fill:#42aac8;fill-opacity:1" />
            </g>
          </g>
        </g>
        <g
           id="g6370"
           style="font-style:normal;font-variant:normal;font-weight:normal;font-stretch:normal;letter-spacing:normal;word-spacing:normal;text-anchor:start;fill:#4d4d4d;fill-opacity:1;fill-rule:evenodd;stroke:#000000;stroke-linecap:butt;stroke-linejoin:miter;stroke-miterlimit:10.43299961;stroke-dasharray:none;stroke-dashoffset:0;stroke-opacity:1"
           transform="matrix(2.4207099,0,0,2.4207099,-219.16651,-171.41379)"
           ns0:preamble="/home/tortue/Dropbox/projects/textex_preamble.tex"
           ns0:text="$v_z$">
          <defs
             id="defs6372">
            <g
               id="g6374">
              <symbol
                 id="textext-5c13e781-0"
                 overflow="visible"
                 style="overflow:visible">
                <path
                   id="path6377"
                   d=""
                   style="stroke:none"
                   inkscape:connector-curvature="0" />
              </symbol>
              <symbol
                 id="textext-5c13e781-1"
                 overflow="visible"
                 style="overflow:visible">
                <path
                   id="path6380"
                   d="m 4.671875,-3.703125 c 0,-0.546875 -0.265625,-0.703125 -0.4375,-0.703125 -0.25,0 -0.5,0.265625 -0.5,0.484375 0,0.125 0.046875,0.1875 0.15625,0.296875 0.21875,0.203125 0.34375,0.453125 0.34375,0.8125 0,0.421875 -0.609375,2.703125 -1.765625,2.703125 -0.515625,0 -0.75,-0.34375 -0.75,-0.875 0,-0.546875 0.28125,-1.28125 0.578125,-2.109375 0.078125,-0.171875 0.125,-0.3125 0.125,-0.5 0,-0.4375 -0.3125,-0.8125 -0.8125,-0.8125 -0.9375,0 -1.3125,1.453125 -1.3125,1.53125 0,0.109375 0.09375,0.109375 0.109375,0.109375 0.109375,0 0.109375,-0.03125 0.15625,-0.1875 0.296875,-1 0.71875,-1.234375 1.015625,-1.234375 0.078125,0 0.25,0 0.25,0.3125 0,0.25 -0.109375,0.53125 -0.171875,0.703125 -0.4375,1.15625 -0.5625,1.609375 -0.5625,2.046875 0,1.078125 0.875,1.234375 1.328125,1.234375 1.671875,0 2.25,-3.296875 2.25,-3.8125 z m 0,0"
                   style="stroke:none"
                   inkscape:connector-curvature="0" />
              </symbol>
              <symbol
                 id="textext-5c13e781-2"
                 overflow="visible"
                 style="overflow:visible">
                <path
                   id="path6383"
                   d=""
                   style="stroke:none"
                   inkscape:connector-curvature="0" />
              </symbol>
              <symbol
                 id="textext-5c13e781-3"
                 overflow="visible"
                 style="overflow:visible">
                <path
                   id="path6386"
                   d="m 1.171875,-0.609375 c 0.1875,-0.1875 0.3125,-0.3125 0.890625,-0.796875 0.15625,-0.109375 0.671875,-0.53125 0.875,-0.71875 0.421875,-0.421875 0.6875,-0.78125 0.6875,-0.859375 0,-0.09375 -0.078125,-0.09375 -0.109375,-0.09375 -0.0625,0 -0.09375,0.015625 -0.125,0.078125 -0.21875,0.3125 -0.359375,0.421875 -0.53125,0.421875 -0.078125,0 -0.1875,0 -0.390625,-0.203125 -0.234375,-0.25 -0.390625,-0.296875 -0.546875,-0.296875 -0.5625,0 -0.9375,0.609375 -0.9375,0.8125 0,0.078125 0.0625,0.09375 0.109375,0.09375 0.09375,0 0.109375,-0.015625 0.125,-0.09375 0.109375,-0.25 0.5,-0.265625 0.609375,-0.265625 0.171875,0 0.34375,0.046875 0.4375,0.0625 0.390625,0.078125 0.4375,0.078125 0.609375,0.078125 -0.171875,0.203125 -0.296875,0.328125 -0.96875,0.84375 -0.546875,0.4375 -0.734375,0.609375 -0.859375,0.75 -0.421875,0.40625 -0.625,0.71875 -0.625,0.78125 0,0.078125 0.09375,0.078125 0.125,0.078125 0.0625,0 0.078125,0 0.109375,-0.0625 0.1875,-0.265625 0.40625,-0.421875 0.640625,-0.421875 0.09375,0 0.1875,0 0.375,0.171875 0.21875,0.21875 0.359375,0.3125 0.59375,0.3125 C 3,0.0625 3.46875,-0.78125 3.46875,-1.015625 3.46875,-1.09375 3.390625,-1.09375 3.359375,-1.09375 3.265625,-1.09375 3.25,-1.0625 3.21875,-0.984375 3.09375,-0.640625 2.6875,-0.46875 2.34375,-0.46875 2.1875,-0.46875 2,-0.515625 1.828125,-0.546875 1.515625,-0.625 1.453125,-0.625 1.328125,-0.625 c -0.015625,0 -0.109375,0 -0.15625,0.015625 z m 0,0"
                   style="stroke:none"
                   inkscape:connector-curvature="0" />
              </symbol>
            </g>
          </defs>
          <g
             id="textext-5c13e781-4"
             style="fill:#4d4d4d;fill-opacity:1">
            <g
               id="g6389"
               style="fill:#4d4d4d;fill-opacity:1">
              <use
                 id="use6391"
                 y="134.765"
                 x="223.43201"
                 xlink:href="#textext-5c13e781-1"
                 style="fill:#4d4d4d;fill-opacity:1"
                 width="100%"
                 height="100%" />
            </g>
            <g
               id="g6393"
               style="fill:#4d4d4d;fill-opacity:1">
              <use
                 id="use6395"
                 y="136.259"
                 x="228.261"
                 xlink:href="#textext-5c13e781-3"
                 style="fill:#4d4d4d;fill-opacity:1"
                 width="100%"
                 height="100%" />
            </g>
          </g>
        </g>
      </g>
      <g
         id="g8008"
         transform="translate(262.4029,0)">
        <rect
           y="-320.26157"
           x="83.966164"
           height="79.808243"
           width="38.982174"
           id="rect8010"
           style="opacity:1;fill:#ffe5d6;fill-opacity:1;fill-rule:evenodd;stroke:#000000;stroke-width:2.00798011;stroke-linecap:butt;stroke-linejoin:round;stroke-miterlimit:4;stroke-dasharray:none;stroke-dashoffset:0;stroke-opacity:0"
           transform="matrix(0,1,-1,0,0,0)" />
        <path
           style="fill:none;fill-rule:evenodd;stroke:#4d4d4d;stroke-width:2;stroke-linecap:butt;stroke-linejoin:round;stroke-miterlimit:4;stroke-dasharray:none;stroke-opacity:1"
           d="m 300.06515,84.490506 19.90315,0 0,37.933484 -19.90315,0"
           id="path8012"
           inkscape:connector-curvature="0"
           sodipodi:nodetypes="cccc" />
        <path
           sodipodi:nodetypes="cccc"
           inkscape:connector-curvature="0"
           id="path8014"
           d="m 260.17355,84.495038 -20.31372,0 0,37.924422 20.31372,0"
           style="fill:none;fill-rule:evenodd;stroke:#4d4d4d;stroke-width:2;stroke-linecap:butt;stroke-linejoin:round;stroke-miterlimit:4;stroke-dasharray:none;stroke-opacity:1" />
        <g
           style="font-style:normal;font-variant:normal;font-weight:normal;font-stretch:normal;letter-spacing:normal;word-spacing:normal;text-anchor:start;fill:#000000;fill-opacity:1;fill-rule:evenodd;stroke:#000000;stroke-linecap:butt;stroke-linejoin:miter;stroke-miterlimit:10.43299961;stroke-dasharray:none;stroke-dashoffset:0;stroke-opacity:1"
           id="g8501"
           transform="matrix(2.4267753,0,0,2.4267753,-290.69655,-216.84727)">
          <use
             xlink:href="#textext-21ac0db5-1"
             x="224.62801"
             y="130.32001"
             id="use8503"
             width="100%"
             height="100%" />
        </g>
        <g
           style="font-style:normal;font-variant:normal;font-weight:normal;font-stretch:normal;letter-spacing:normal;word-spacing:normal;text-anchor:start;fill:#000000;fill-opacity:1;fill-rule:evenodd;stroke:#000000;stroke-linecap:butt;stroke-linejoin:miter;stroke-miterlimit:10.43299961;stroke-dasharray:none;stroke-dashoffset:0;stroke-opacity:1"
           id="g8505"
           transform="matrix(2.4267753,0,0,2.4267753,-290.69655,-216.84727)">
          <use
             xlink:href="#textext-21ac0db5-3"
             x="228.735"
             y="131.317"
             id="use8507"
             width="100%"
             height="100%" />
        </g>
        <path
           style="font-style:normal;font-variant:normal;font-weight:normal;font-stretch:normal;letter-spacing:normal;word-spacing:normal;text-anchor:start;fill:#d2504b;fill-opacity:1;fill-rule:evenodd;stroke:#d2504b;stroke-width:0.96585655;stroke-linecap:butt;stroke-linejoin:miter;stroke-miterlimit:10;stroke-dasharray:none;stroke-dashoffset:0;stroke-opacity:1"
           d="m 254.42733,104.15064 20.74134,0"
           id="path8509"
           inkscape:connector-curvature="0" />
        <g
           style="font-style:normal;font-variant:normal;font-weight:normal;font-stretch:normal;letter-spacing:normal;word-spacing:normal;text-anchor:start;fill:#d2504b;fill-opacity:1;fill-rule:evenodd;stroke:#d2504b;stroke-linecap:butt;stroke-linejoin:miter;stroke-miterlimit:10.43299961;stroke-dasharray:none;stroke-dashoffset:0;stroke-opacity:1"
           id="g8511"
           transform="matrix(2.4267753,0,0,2.4267753,-290.69655,-221.63243)">
          <use
             xlink:href="#textext-21ac0db5-1"
             x="224.79201"
             y="138.2"
             id="use8513"
             width="100%"
             height="100%"
             style="fill:#d2504b;fill-opacity:1;stroke:#d2504b;stroke-opacity:1" />
        </g>
        <g
           style="font-style:normal;font-variant:normal;font-weight:normal;font-stretch:normal;letter-spacing:normal;word-spacing:normal;text-anchor:start;fill:#d2504b;fill-opacity:1;fill-rule:evenodd;stroke:#d2504b;stroke-linecap:butt;stroke-linejoin:miter;stroke-miterlimit:10.43299961;stroke-dasharray:none;stroke-dashoffset:0;stroke-opacity:1"
           id="g8515"
           transform="matrix(2.4267753,0,0,2.4267753,-290.69655,-221.63243)">
          <use
             xlink:href="#textext-21ac0db5-4"
             x="228.899"
             y="139.19701"
             id="use8517"
             width="100%"
             height="100%"
             style="fill:#d2504b;fill-opacity:1;stroke:#d2504b;stroke-opacity:1" />
        </g>
        <g
           id="g9167"
           style="font-style:normal;font-variant:normal;font-weight:normal;font-stretch:normal;letter-spacing:normal;word-spacing:normal;text-anchor:start;fill:#000000;fill-opacity:1;fill-rule:evenodd;stroke:#000000;stroke-linecap:butt;stroke-linejoin:miter;stroke-miterlimit:10.43299961;stroke-dasharray:none;stroke-dashoffset:0;stroke-opacity:1"
           transform="matrix(2.4207099,0,0,2.4207099,-254.61696,-216.04967)">
          <use
             id="use9169"
             y="129.71201"
             x="224.62801"
             xlink:href="#textext-3afde2b5-1"
             width="100%"
             height="100%" />
        </g>
        <g
           id="g9171"
           style="font-style:normal;font-variant:normal;font-weight:normal;font-stretch:normal;letter-spacing:normal;word-spacing:normal;text-anchor:start;fill:#000000;fill-opacity:1;fill-rule:evenodd;stroke:#000000;stroke-linecap:butt;stroke-linejoin:miter;stroke-miterlimit:10.43299961;stroke-dasharray:none;stroke-dashoffset:0;stroke-opacity:1"
           transform="matrix(2.4207099,0,0,2.4207099,-254.61696,-216.04967)">
          <use
             id="use9173"
             y="130.70799"
             x="228.735"
             xlink:href="#textext-3afde2b5-3"
             width="100%"
             height="100%" />
        </g>
        <path
           id="path9175"
           d="m 289.14445,104.14595 20.38692,0"
           style="font-style:normal;font-variant:normal;font-weight:normal;font-stretch:normal;letter-spacing:normal;word-spacing:normal;text-anchor:start;fill:#d2504b;fill-opacity:1;fill-rule:evenodd;stroke:#d2504b;stroke-width:0.96344256;stroke-linecap:butt;stroke-linejoin:miter;stroke-miterlimit:10;stroke-dasharray:none;stroke-dashoffset:0;stroke-opacity:1"
           inkscape:connector-curvature="0" />
        <g
           id="g9177"
           style="font-style:normal;font-variant:normal;font-weight:normal;font-stretch:normal;letter-spacing:normal;word-spacing:normal;text-anchor:start;fill:#d2504b;fill-opacity:1;fill-rule:evenodd;stroke:#d2504b;stroke-linecap:butt;stroke-linejoin:miter;stroke-miterlimit:10.43299961;stroke-dasharray:none;stroke-dashoffset:0;stroke-opacity:1"
           transform="matrix(2.4207099,0,0,2.4207099,-254.61696,-220.83483)">
          <use
             id="use9179"
             y="138.2"
             x="224.729"
             xlink:href="#textext-3afde2b5-1"
             width="100%"
             height="100%"
             style="fill:#d2504b;fill-opacity:1;stroke:#d2504b;stroke-opacity:1" />
        </g>
        <g
           id="g9181"
           style="font-style:normal;font-variant:normal;font-weight:normal;font-stretch:normal;letter-spacing:normal;word-spacing:normal;text-anchor:start;fill:#d2504b;fill-opacity:1;fill-rule:evenodd;stroke:#d2504b;stroke-linecap:butt;stroke-linejoin:miter;stroke-miterlimit:10.43299961;stroke-dasharray:none;stroke-dashoffset:0;stroke-opacity:1"
           transform="matrix(2.4207099,0,0,2.4207099,-254.61696,-220.83483)">
          <use
             id="use9183"
             y="139.19701"
             x="228.836"
             xlink:href="#textext-3afde2b5-4"
             width="100%"
             height="100%"
             style="fill:#d2504b;fill-opacity:1;stroke:#d2504b;stroke-opacity:1" />
        </g>
      </g>
      <g
         id="g8112"
         transform="translate(262.4029,0)">
        <rect
           transform="matrix(0,1,-1,0,0,0)"
           style="opacity:1;fill:#ebf6f9;fill-opacity:1;fill-rule:evenodd;stroke:#000000;stroke-width:1.99611104;stroke-linecap:butt;stroke-linejoin:round;stroke-miterlimit:4;stroke-dasharray:none;stroke-dashoffset:0;stroke-opacity:0"
           id="rect8114"
           width="38.994045"
           height="78.843544"
           x="132.39772"
           y="-319.29095" />
        <path
           sodipodi:nodetypes="cccc"
           inkscape:connector-curvature="0"
           id="path8116"
           d="m 299.5901,132.99608 20.31988,0 0,37.59018 -20.31988,0"
           style="fill:none;fill-rule:evenodd;stroke:#4d4d4d;stroke-width:1.99146855;stroke-linecap:butt;stroke-linejoin:round;stroke-miterlimit:4;stroke-dasharray:none;stroke-opacity:1" />
        <path
           style="fill:none;fill-rule:evenodd;stroke:#4d4d4d;stroke-width:2;stroke-linecap:butt;stroke-linejoin:round;stroke-miterlimit:4;stroke-dasharray:none;stroke-opacity:1"
           d="m 260.17355,132.93253 -20.31372,0 0,37.92443 20.31372,0"
           id="path8118"
           inkscape:connector-curvature="0"
           sodipodi:nodetypes="cccc" />
        <g
           id="g8120"
           style="font-style:normal;font-variant:normal;font-weight:normal;font-stretch:normal;letter-spacing:normal;word-spacing:normal;text-anchor:start;fill:#42aac8;fill-opacity:1;fill-rule:evenodd;stroke:#000000;stroke-linecap:butt;stroke-linejoin:miter;stroke-miterlimit:10.43299961;stroke-dasharray:none;stroke-dashoffset:0;stroke-opacity:1"
           transform="matrix(2.4267753,0,0,2.4267753,-288.94408,-171.88256)"
           ns0:preamble="/home/tortue/Dropbox/projects/textex_preamble.tex"
           ns0:text="$v_x$">
          <defs
             id="defs8122">
            <g
               id="g8124">
              <symbol
                 style="overflow:visible"
                 id="symbol8126"
                 overflow="visible">
                <path
                   inkscape:connector-curvature="0"
                   id="path8128"
                   d=""
                   style="stroke:none" />
              </symbol>
              <symbol
                 style="overflow:visible"
                 id="symbol8130"
                 overflow="visible">
                <path
                   inkscape:connector-curvature="0"
                   id="path8132"
                   d="m 4.671875,-3.703125 c 0,-0.546875 -0.265625,-0.703125 -0.4375,-0.703125 -0.25,0 -0.5,0.265625 -0.5,0.484375 0,0.125 0.046875,0.1875 0.15625,0.296875 0.21875,0.203125 0.34375,0.453125 0.34375,0.8125 0,0.421875 -0.609375,2.703125 -1.765625,2.703125 -0.515625,0 -0.75,-0.34375 -0.75,-0.875 0,-0.546875 0.28125,-1.28125 0.578125,-2.109375 0.078125,-0.171875 0.125,-0.3125 0.125,-0.5 0,-0.4375 -0.3125,-0.8125 -0.8125,-0.8125 -0.9375,0 -1.3125,1.453125 -1.3125,1.53125 0,0.109375 0.09375,0.109375 0.109375,0.109375 0.109375,0 0.109375,-0.03125 0.15625,-0.1875 0.296875,-1 0.71875,-1.234375 1.015625,-1.234375 0.078125,0 0.25,0 0.25,0.3125 0,0.25 -0.109375,0.53125 -0.171875,0.703125 -0.4375,1.15625 -0.5625,1.609375 -0.5625,2.046875 0,1.078125 0.875,1.234375 1.328125,1.234375 1.671875,0 2.25,-3.296875 2.25,-3.8125 z m 0,0"
                   style="stroke:none" />
              </symbol>
              <symbol
                 style="overflow:visible"
                 id="symbol8134"
                 overflow="visible">
                <path
                   inkscape:connector-curvature="0"
                   id="path8136"
                   d=""
                   style="stroke:none" />
              </symbol>
              <symbol
                 style="overflow:visible"
                 id="symbol8138"
                 overflow="visible">
                <path
                   inkscape:connector-curvature="0"
                   id="path8140"
                   d="M 1.734375,-0.734375 C 1.671875,-0.5 1.4375,-0.125 1.078125,-0.125 c -0.015625,0 -0.234375,0 -0.375,-0.09375 0.28125,-0.09375 0.3125,-0.34375 0.3125,-0.390625 0,-0.15625 -0.125,-0.25 -0.28125,-0.25 -0.203125,0 -0.40625,0.15625 -0.40625,0.421875 0,0.34375 0.390625,0.5 0.734375,0.5 0.328125,0 0.609375,-0.1875 0.78125,-0.484375 C 2.015625,-0.0625 2.390625,0.0625 2.671875,0.0625 c 0.8125,0 1.234375,-0.859375 1.234375,-1.0625 0,-0.09375 -0.09375,-0.09375 -0.109375,-0.09375 -0.109375,0 -0.109375,0.046875 -0.140625,0.125 -0.140625,0.484375 -0.5625,0.84375 -0.953125,0.84375 -0.28125,0 -0.421875,-0.1875 -0.421875,-0.453125 0,-0.1875 0.171875,-0.8125 0.359375,-1.59375 C 2.78125,-2.703125 3.09375,-2.875 3.328125,-2.875 c 0.015625,0 0.21875,0 0.375,0.09375 -0.21875,0.0625 -0.3125,0.265625 -0.3125,0.390625 0,0.140625 0.125,0.25 0.28125,0.25 0.15625,0 0.390625,-0.125 0.390625,-0.421875 0,-0.390625 -0.453125,-0.515625 -0.71875,-0.515625 -0.359375,0 -0.640625,0.234375 -0.78125,0.5 -0.125,-0.28125 -0.453125,-0.5 -0.84375,-0.5 C 0.9375,-3.078125 0.5,-2.21875 0.5,-2 c 0,0.078125 0.09375,0.078125 0.109375,0.078125 0.09375,0 0.09375,-0.015625 0.140625,-0.109375 C 0.921875,-2.578125 1.359375,-2.875 1.703125,-2.875 1.9375,-2.875 2.125,-2.75 2.125,-2.421875 2.125,-2.28125 2.03125,-1.9375 1.96875,-1.6875 Z m 0,0"
                   style="stroke:none" />
              </symbol>
            </g>
          </defs>
          <g
             id="g8142"
             style="fill:#42aac8;fill-opacity:1">
            <g
               id="g8144"
               style="fill:#42aac8;fill-opacity:1">
              <use
                 height="100%"
                 width="100%"
                 id="use8146"
                 y="134.765"
                 x="223.43201"
                 xlink:href="#textext-f4357066-1"
                 style="fill:#42aac8;fill-opacity:1" />
            </g>
            <g
               id="g8148"
               style="fill:#42aac8;fill-opacity:1">
              <use
                 height="100%"
                 width="100%"
                 id="use8150"
                 y="136.259"
                 x="228.261"
                 xlink:href="#textext-f4357066-3"
                 style="fill:#42aac8;fill-opacity:1" />
            </g>
          </g>
        </g>
        <g
           ns0:text="$v_y$"
           ns0:preamble="/home/tortue/Dropbox/projects/textex_preamble.tex"
           transform="matrix(2.4207099,0,0,2.4207099,-252.50376,-170.96132)"
           style="font-style:normal;font-variant:normal;font-weight:normal;font-stretch:normal;letter-spacing:normal;word-spacing:normal;text-anchor:start;fill:#42aac8;fill-opacity:1;fill-rule:evenodd;stroke:#000000;stroke-linecap:butt;stroke-linejoin:miter;stroke-miterlimit:10.43299961;stroke-dasharray:none;stroke-dashoffset:0;stroke-opacity:1"
           id="g8152">
          <defs
             id="defs8154">
            <g
               id="g8156">
              <symbol
                 overflow="visible"
                 id="symbol8158"
                 style="overflow:visible">
                <path
                   style="stroke:none"
                   d=""
                   id="path8160"
                   inkscape:connector-curvature="0" />
              </symbol>
              <symbol
                 overflow="visible"
                 id="symbol8162"
                 style="overflow:visible">
                <path
                   style="stroke:none"
                   d="m 4.671875,-3.703125 c 0,-0.546875 -0.265625,-0.703125 -0.4375,-0.703125 -0.25,0 -0.5,0.265625 -0.5,0.484375 0,0.125 0.046875,0.1875 0.15625,0.296875 0.21875,0.203125 0.34375,0.453125 0.34375,0.8125 0,0.421875 -0.609375,2.703125 -1.765625,2.703125 -0.515625,0 -0.75,-0.34375 -0.75,-0.875 0,-0.546875 0.28125,-1.28125 0.578125,-2.109375 0.078125,-0.171875 0.125,-0.3125 0.125,-0.5 0,-0.4375 -0.3125,-0.8125 -0.8125,-0.8125 -0.9375,0 -1.3125,1.453125 -1.3125,1.53125 0,0.109375 0.09375,0.109375 0.109375,0.109375 0.109375,0 0.109375,-0.03125 0.15625,-0.1875 0.296875,-1 0.71875,-1.234375 1.015625,-1.234375 0.078125,0 0.25,0 0.25,0.3125 0,0.25 -0.109375,0.53125 -0.171875,0.703125 -0.4375,1.15625 -0.5625,1.609375 -0.5625,2.046875 0,1.078125 0.875,1.234375 1.328125,1.234375 1.671875,0 2.25,-3.296875 2.25,-3.8125 z m 0,0"
                   id="path8164"
                   inkscape:connector-curvature="0" />
              </symbol>
              <symbol
                 overflow="visible"
                 id="symbol8166"
                 style="overflow:visible">
                <path
                   style="stroke:none"
                   d=""
                   id="path8168"
                   inkscape:connector-curvature="0" />
              </symbol>
              <symbol
                 overflow="visible"
                 id="symbol8170"
                 style="overflow:visible">
                <path
                   style="stroke:none"
                   d="M 3.875,-2.625 C 3.90625,-2.71875 3.90625,-2.734375 3.90625,-2.78125 3.90625,-2.921875 3.796875,-3 3.671875,-3 3.59375,-3 3.46875,-2.96875 3.390625,-2.84375 3.359375,-2.796875 3.3125,-2.578125 3.28125,-2.4375 L 3.125,-1.859375 c -0.03125,0.171875 -0.25,1.046875 -0.28125,1.125 0,0 -0.3125,0.609375 -0.84375,0.609375 -0.484375,0 -0.484375,-0.453125 -0.484375,-0.578125 0,-0.375 0.15625,-0.8125 0.375,-1.359375 C 1.96875,-2.28125 2,-2.359375 2,-2.484375 2,-2.8125 1.71875,-3.078125 1.34375,-3.078125 0.640625,-3.078125 0.328125,-2.125 0.328125,-2 c 0,0.078125 0.09375,0.078125 0.125,0.078125 0.09375,0 0.09375,-0.03125 0.125,-0.109375 C 0.75,-2.609375 1.046875,-2.875 1.328125,-2.875 1.4375,-2.875 1.5,-2.796875 1.5,-2.640625 c 0,0.171875 -0.0625,0.3125 -0.09375,0.40625 C 1.0625,-1.375 1,-1.125 1,-0.8125 1,-0.703125 1,-0.375 1.265625,-0.140625 1.484375,0.03125 1.78125,0.0625 1.96875,0.0625 2.25,0.0625 2.5,-0.03125 2.71875,-0.25 2.640625,0.140625 2.5625,0.4375 2.265625,0.78125 2.078125,1 1.796875,1.21875 1.421875,1.21875 c -0.046875,0 -0.375,0 -0.515625,-0.21875 0.375,-0.046875 0.375,-0.375 0.375,-0.390625 0,-0.21875 -0.203125,-0.265625 -0.265625,-0.265625 -0.171875,0 -0.40625,0.140625 -0.40625,0.46875 0,0.34375 0.328125,0.609375 0.828125,0.609375 C 2.140625,1.421875 3,0.875 3.21875,0 Z m 0,0"
                   id="path8172"
                   inkscape:connector-curvature="0" />
              </symbol>
            </g>
          </defs>
          <g
             style="fill:#42aac8;fill-opacity:1"
             id="g8174"
             transform="translate(-0.68462623,0)">
            <g
               style="fill:#42aac8;fill-opacity:1"
               id="g8176">
              <use
                 style="fill:#42aac8;fill-opacity:1"
                 xlink:href="#textext-c5fad424-1"
                 x="223.43201"
                 y="134.765"
                 id="use8178"
                 width="100%"
                 height="100%" />
            </g>
            <g
               style="fill:#42aac8;fill-opacity:1"
               id="g8180">
              <use
                 style="fill:#42aac8;fill-opacity:1"
                 xlink:href="#textext-c5fad424-3"
                 x="228.261"
                 y="136.259"
                 id="use8182"
                 width="100%"
                 height="100%" />
            </g>
          </g>
        </g>
      </g>
    </g>
  </g>
</svg>
