<?xml version="1.0" encoding="UTF-8" standalone="no"?>
<!-- Generator: Adobe Illustrator 17.1.0, SVG Export Plug-In . SVG Version: 6.00 Build 0)  -->

<svg
   xmlns:dc="http://purl.org/dc/elements/1.1/"
   xmlns:cc="http://creativecommons.org/ns#"
   xmlns:rdf="http://www.w3.org/1999/02/22-rdf-syntax-ns#"
   xmlns:svg="http://www.w3.org/2000/svg"
   xmlns="http://www.w3.org/2000/svg"
   xmlns:sodipodi="http://sodipodi.sourceforge.net/DTD/sodipodi-0.dtd"
   xmlns:inkscape="http://www.inkscape.org/namespaces/inkscape"
   version="1.1"
   id="Capa_1"
   x="0px"
   y="0px"
   viewBox="0 0 66.321649 55.926125"
   xml:space="preserve"
   inkscape:version="0.91 r"
   sodipodi:docname="genericity.svg"
   width="66.321648"
   height="55.926125"><metadata
     id="metadata39"><rdf:RDF><cc:Work
         rdf:about=""><dc:format>image/svg+xml</dc:format><dc:type
           rdf:resource="http://purl.org/dc/dcmitype/StillImage" /><dc:title></dc:title></cc:Work></rdf:RDF></metadata><defs
     id="defs37" /><sodipodi:namedview
     pagecolor="#ffffff"
     bordercolor="#666666"
     borderopacity="1"
     objecttolerance="10"
     gridtolerance="10"
     guidetolerance="10"
     inkscape:pageopacity="0"
     inkscape:pageshadow="2"
     inkscape:window-width="1678"
     inkscape:window-height="1031"
     id="namedview35"
     showgrid="false"
     fit-margin-top="0"
     fit-margin-left="0"
     fit-margin-right="0"
     fit-margin-bottom="0"
     inkscape:zoom="18.63164"
     inkscape:cx="34.623138"
     inkscape:cy="14.764661"
     inkscape:window-x="0"
     inkscape:window-y="18"
     inkscape:window-maximized="0"
     inkscape:current-layer="Capa_1" /><path
     style="opacity:1;fill:#ff82a0;fill-opacity:1;fill-rule:evenodd;stroke:#ff82a0;stroke-width:0.93000007;stroke-linecap:butt;stroke-linejoin:miter;stroke-miterlimit:4;stroke-dasharray:none;stroke-dashoffset:0;stroke-opacity:1"
     d="m 18.789591,46.305577 -3.991883,-3.310942 -0.640253,-9.478859 c -0.35214,-5.213373 -0.625437,-9.60315 -0.607327,-9.75506 0.02605,-0.218482 0.564288,0.09522 2.575706,1.501196 l 2.542779,1.777395 0,1.318737 c 0,1.564888 -0.125207,1.406422 2.466875,3.122168 l 1.783741,1.180691 0,8.477808 c 0,4.662795 -0.03099,8.477808 -0.06888,8.477808 -0.03788,0 -1.865225,-1.489923 -4.060762,-3.310942 z"
     id="path4659"
     inkscape:connector-curvature="0" /><path
     style="opacity:1;fill:#ebf6f9;fill-opacity:1;fill-rule:evenodd;stroke:#ebf6f9;stroke-width:0.53000003;stroke-linecap:butt;stroke-linejoin:bevel;stroke-miterlimit:4;stroke-dasharray:none;stroke-dashoffset:0;stroke-opacity:1"
     d="m 21.963184,30.294029 -1.776494,-1.215021 0,-0.737305 c 0,-0.405518 0.05124,-0.734037 0.113856,-0.730042 0.06262,0.004 1.951149,0.40065 4.19673,0.881457 l 4.082874,0.874193 -0.743104,0.316124 c -0.408707,0.173868 -1.497813,0.655759 -2.420236,1.070869 l -1.677131,0.754745 -1.776495,-1.21502 z"
     id="path4661"
     inkscape:connector-curvature="0" /><path
     style="opacity:1;fill:#ffc8aa;fill-opacity:1;fill-rule:evenodd;stroke:#ffc8aa;stroke-width:0.53000003;stroke-linecap:butt;stroke-linejoin:bevel;stroke-miterlimit:4;stroke-dasharray:none;stroke-dashoffset:0;stroke-opacity:1"
     d="m 28.991539,53.912677 c 0,-0.05845 0.525371,-1.494122 1.167491,-3.190388 l 1.167492,-3.08412 4.008736,0.04038 4.008737,0.04038 1.03119,2.732539 c 0.567154,1.502896 1.105327,2.920401 1.19594,3.15001 l 0.164749,0.417472 -6.372168,0 c -3.504692,0 -6.372167,-0.04782 -6.372167,-0.106267 z"
     id="path4665"
     inkscape:connector-curvature="0" /><path
     style="opacity:1;fill:#ff82a0;fill-opacity:1;fill-rule:evenodd;stroke:#ff82a0;stroke-width:1.23000002;stroke-linecap:butt;stroke-linejoin:miter;stroke-miterlimit:4;stroke-dasharray:none;stroke-dashoffset:0;stroke-opacity:1"
     d="m 47.669613,41.233128 0.0057,-8.543171 2.119585,-1.431224 2.119585,-1.431224 3.82e-4,-1.377219 3.81e-4,-1.37722 2.542398,-1.771917 c 2.274461,-1.58518 2.547118,-1.736718 2.587182,-1.437916 0.04048,0.301891 -1.137082,18.611645 -1.223029,19.016727 -0.01992,0.09388 -1.095076,1.04583 -2.389237,2.115435 -1.294161,1.069604 -3.121546,2.582874 -4.060857,3.362818 l -1.707837,1.418083 0.0057,-8.543172 z"
     id="path4667"
     inkscape:connector-curvature="0" /><path
     style="opacity:1;fill:#ebf6f9;fill-opacity:1;fill-rule:evenodd;stroke:#ebf6f9;stroke-width:0.53000003;stroke-linecap:butt;stroke-linejoin:bevel;stroke-miterlimit:4;stroke-dasharray:none;stroke-dashoffset:0;stroke-opacity:1"
     d="m 44.551832,30.463571 c -1.252414,-0.568302 -2.329532,-1.051694 -2.393595,-1.074205 -0.09139,-0.03211 3.292685,-0.767858 8.048433,-1.749836 0.317464,-0.06555 0.341298,-0.01839 0.337756,0.668257 l -0.0038,0.738784 -1.855834,1.225138 -1.855834,1.225137 -2.277116,-1.033275 z"
     id="path4669"
     inkscape:connector-curvature="0" /><path
     style="opacity:1;fill:#ff82a0;fill-opacity:1;fill-rule:evenodd;stroke:#ff82a0;stroke-width:0.53000003;stroke-linecap:butt;stroke-linejoin:bevel;stroke-miterlimit:4;stroke-dasharray:none;stroke-dashoffset:0;stroke-opacity:1"
     d="m 40.524426,28.024761 c -0.0025,-0.105959 0.317495,-2.631835 0.711046,-5.61306 l 0.715548,-5.420407 3.72933,-2.408118 c 2.051131,-1.324465 4.257991,-2.744881 4.904132,-3.156482 0.737267,-0.469647 1.223215,-0.889802 1.30479,-1.128131 0.07149,-0.208872 0.325355,-1.3869219 0.564139,-2.6178882 l 0.434152,-2.2381205 0.462271,-0.075972 c 0.254248,-0.041785 1.828539,-0.2177962 3.498424,-0.3911371 1.669886,-0.1733409 3.495418,-0.3661509 4.056739,-0.4284667 0.980461,-0.108847 1.01773,-0.100971 0.947988,0.2003339 -0.03993,0.1724995 -0.791412,3.7970705 -1.669961,8.0546026 -0.878551,4.257532 -1.680869,7.821883 -1.782931,7.920781 -0.314184,0.304446 -7.581521,5.363624 -7.704662,5.363624 -0.10476,0 -9.012281,1.859133 -9.824937,2.050613 -0.216015,0.0509 -0.343222,0.0097 -0.346068,-0.112172 z m 7.235512,-5.630487 c 8.241573,-5.381827 8.253378,-5.390067 8.253378,-5.760696 0,-0.447284 -0.266653,-0.718376 -0.706611,-0.718376 -0.192113,0 -2.709602,1.562647 -5.738333,3.561878 -5.094374,3.362739 -5.39606,3.587232 -5.39606,4.015362 0,0.397771 0.288961,0.751304 0.627376,0.767569 0.05283,0.0025 1.384939,-0.837042 2.96025,-1.865737 z m 1.824571,-5.363845 c 1.9912,-1.306993 4.455816,-2.922491 5.476924,-3.589995 1.021107,-0.667504 1.895889,-1.337559 1.943959,-1.489012 0.141664,-0.446343 -0.19162,-0.895385 -0.655849,-0.883647 -0.541612,0.01369 -11.168595,7.082197 -11.241739,7.477405 -0.0569,0.307422 0.372172,0.8616 0.667088,0.8616 0.104089,0 1.818417,-1.069358 3.809617,-2.376351 z"
     id="path4671"
     inkscape:connector-curvature="0" /><path
     style="opacity:1;fill:#ff82a0;fill-opacity:1;fill-rule:evenodd;stroke:#ff82a0;stroke-width:0.53000003;stroke-linecap:butt;stroke-linejoin:bevel;stroke-miterlimit:4;stroke-dasharray:none;stroke-dashoffset:0;stroke-opacity:1"
     d="M 24.740922,27.084508 19.655363,25.992319 16.163786,23.53212 C 14.243418,22.179011 12.527201,20.953439 12.349971,20.80863 12.075926,20.584714 11.7837,19.358056 10.395982,12.606523 9.4985181,8.2401744 8.8078101,4.6241261 8.8610771,4.5708596 c 0.104746,-0.1047458 8.5229189,0.7324271 8.7449889,0.8696742 0.07398,0.045721 0.354831,1.1745038 0.624117,2.5084068 0.269287,1.3339029 0.551311,2.5064974 0.626721,2.6057654 0.07541,0.09927 2.318239,1.590305 4.984064,3.313416 2.665826,1.723111 4.846955,3.17213 4.846955,3.220044 0,0.139381 1.356894,10.245197 1.437478,10.705991 0.04771,0.272803 0.0086,0.411419 -0.112955,0.400006 -0.102281,-0.0096 -2.474466,-0.508951 -5.271524,-1.109655 z m 1.524145,-3.097883 c 0.724519,-0.586679 0.491857,-0.788365 -5.239472,-4.541893 -3.366592,-2.204829 -5.530457,-3.52953 -5.765397,-3.52953 -0.422072,0 -0.755524,0.470792 -0.622313,0.878628 0.07591,0.232411 10.900977,7.470797 11.172638,7.470797 0.06117,0 0.265718,-0.125102 0.454544,-0.278002 z m -1.003661,-4.8184 c 0.254088,-0.254088 0.305311,-0.638789 0.122375,-0.919084 -0.210595,-0.322673 -10.787976,-7.191787 -11.074248,-7.191787 -0.631588,0 -0.882865,0.813721 -0.384911,1.246478 0.554555,0.481949 10.718544,7.102948 10.903834,7.102948 0.106917,0 0.301745,-0.10735 0.43295,-0.238555 z"
     id="path4673"
     inkscape:connector-curvature="0" /><path
     style="opacity:1;fill:#ff82a0;fill-opacity:1;fill-rule:evenodd;stroke:#ff82a0;stroke-width:0.53000003;stroke-linecap:butt;stroke-linejoin:bevel;stroke-miterlimit:4;stroke-dasharray:none;stroke-dashoffset:0;stroke-opacity:1"
     d="M 27.780577,14.692269 C 23.657124,12.028201 20.228079,9.7931955 20.160476,9.7255924 19.979795,9.5449116 19.128493,5.231141 19.249066,5.1072416 19.423771,4.9277171 22.057748,3.950749 23.472478,3.5407362 25.263679,3.0216159 28.23844,2.4873271 31.110187,2.1689479 c 4.877656,-0.5407666 11.247792,0.00924 16.074996,1.3879385 1.78234,0.5090543 4.128723,1.4206035 4.211417,1.6360977 0.109081,0.2842618 -0.806477,4.3702005 -1.026699,4.5819355 C 50.17471,9.962588 36.082689,19.105248 35.545429,19.39278 35.33099,19.507545 33.786884,18.572809 27.780577,14.692269 Z m 10.954075,-3.508853 c 1.696553,-1.183081 3.13483,-2.2248615 3.196172,-2.315069 0.210287,-0.3092405 0.116121,-0.8364975 -0.177455,-0.9936148 -0.188626,-0.1009496 -2.505217,-0.157149 -6.477828,-0.157149 -5.54142,0 -6.213046,0.026113 -6.461808,0.25124 -0.45668,0.4132887 -0.32593,0.7653859 0.519373,1.3986305 2.214405,1.6588843 5.693773,3.9637593 5.985872,3.9652863 0.182069,9.56e-4 1.719122,-0.966244 3.415674,-2.149324 z"
     id="path4675"
     inkscape:connector-curvature="0" /><path
     style="opacity:1;fill:#ffc8aa;fill-opacity:1;fill-rule:evenodd;stroke:#ffc8aa;stroke-width:1.33000004;stroke-linecap:butt;stroke-linejoin:miter;stroke-miterlimit:4;stroke-dasharray:none;stroke-dashoffset:0;stroke-opacity:1"
     d="m 33.51536,10.54732 -1.776199,-1.2357555 1.822857,-0.042694 c 1.002572,-0.023482 2.614513,-0.023482 3.582092,0 l 1.759234,0.042694 -1.644885,1.1385585 c -0.904688,0.626207 -1.717339,1.182297 -1.805893,1.235755 -0.08855,0.05346 -0.960296,-0.458893 -1.937206,-1.138558 z"
     id="path4677"
     inkscape:connector-curvature="0" /><path
     style="opacity:1;fill:#ffc8aa;fill-opacity:1;fill-rule:evenodd;stroke:#ffc8aa;stroke-width:1.53000009;stroke-linecap:butt;stroke-linejoin:miter;stroke-miterlimit:4;stroke-dasharray:none;stroke-dashoffset:0;stroke-opacity:1"
     d="m 26.003212,52.31172 -1.545746,-1.253027 -0.01008,-9.127313 -0.01008,-9.127313 2.877042,-1.309469 c 1.582374,-0.720208 2.914486,-1.309469 2.960251,-1.309469 0.04576,0 0.08321,2.718877 0.08321,6.041948 0,4.496882 0.04659,6.088533 0.18217,6.224117 0.133652,0.133652 1.404342,0.182169 4.7711,0.182169 3.969345,0 4.62114,-0.03221 4.827486,-0.238555 0.208801,-0.208801 0.238555,-0.985107 0.238555,-6.224117 0,-3.292059 0.02287,-5.985562 0.05083,-5.985562 0.02795,0 1.308831,0.579631 2.846395,1.288068 l 2.795568,1.288068 0.03629,9.148714 0.03629,9.148714 -1.438562,1.17651 c -0.791209,0.64708 -1.490675,1.176249 -1.554371,1.17593 -0.06369,-3.04e-4 -0.685574,-1.520296 -1.381954,-3.377722 -0.732612,-1.954065 -1.395386,-3.489089 -1.572848,-3.642806 -0.277508,-0.240377 -0.743043,-0.265664 -4.891003,-0.265664 -3.427921,0 -4.649722,0.04787 -4.843646,0.18976 -0.189906,0.138953 -2.078215,4.830943 -2.871741,7.135577 -0.02168,0.06296 -0.734999,-0.449394 -1.585158,-1.138558 z"
     id="path4663"
     inkscape:connector-curvature="0" /><path
     style="opacity:1;fill:#ff82a0;fill-opacity:1;fill-rule:evenodd;stroke:#ff82a0;stroke-width:1.23000002;stroke-linecap:butt;stroke-linejoin:miter;stroke-miterlimit:4;stroke-dasharray:none;stroke-dashoffset:0;stroke-opacity:1"
     d="m 31.726749,35.156832 0.0027,-6.110261 -0.710177,-5.352152 c -0.390598,-2.943683 -0.670513,-5.391817 -0.622034,-5.440296 0.04848,-0.04848 1.107555,0.566761 2.353501,1.367199 1.245947,0.800439 2.411034,1.455343 2.589082,1.455343 0.178048,0 1.36573,-0.678918 2.639294,-1.508707 1.273563,-0.829789 2.330607,-1.49367 2.348987,-1.47529 0.01838,0.01838 -0.303963,2.524683 -0.716316,5.569564 l -0.749732,5.536147 -0.0015,6.034357 -0.0015,6.034358 -3.567482,0 -3.567482,0 0.0027,-6.110262 z"
     id="path4657"
     inkscape:connector-curvature="0" /><path
     d="m 42.772887,55.326124 -0.0042,0 -14.904564,0 c -0.02076,-0.0013 -0.04347,-6.54e-4 -0.06532,-0.0032 -0.08471,-0.0093 -0.166157,-0.03826 -0.237869,-0.0842 -0.021,-0.01356 -0.041,-0.02892 -0.0598,-0.04424 L 13.753229,43.801569 c -0.117138,-0.09721 -0.189135,-0.237913 -0.199381,-0.389658 L 12.141309,22.260944 11.067697,21.447599 c -0.10689,-0.0808 -0.180828,-0.198008 -0.207965,-0.329266 L 7.2667176,3.7332223 c -0.03572,-0.173098 0.01329,-0.353083 0.13209,-0.484331 0.118798,-0.130987 0.29298,-0.196572 0.468823,-0.178623 l 10.3412314,1.102425 c 0.744359,-0.381576 4.015036,-1.956146 8.672522,-2.720995 5.164248,-0.84787702 8.304222,-0.85346602 8.435759,-0.85124402 0.122669,0.0017 3.271511,0.0036 8.433819,0.85124402 4.657487,0.764857 7.92789,2.339409 8.672246,2.720995 l 10.341509,-1.102408 c 0.176114,-0.01781 0.350029,0.04764 0.468824,0.178622 0.118786,0.130987 0.167817,0.310978 0.132081,0.484331 L 59.772884,21.118442 c -0.02713,0.131251 -0.101078,0.248374 -0.207962,0.329267 l -1.073611,0.813343 -1.412563,21.151009 c -0.01012,0.151749 -0.08226,0.292435 -0.199101,0.389659 L 43.1315,55.194137 c -0.01801,0.01538 -0.03709,0.02977 -0.05732,0.04254 -0.07366,0.04764 -0.157294,0.07741 -0.244523,0.08643 -0.01923,0.002 -0.03794,0.0027 -0.05674,0.0027 z m -14.11175,-1.107674 13.310626,0 -2.556785,-6.773691 -8.197054,0 z m 6.655175,-7.881365 4.481643,0 c 0.230394,0 0.436697,0.142643 0.518116,0.358356 l 2.700783,7.155286 3.35514,-2.780257 0,-18.368811 -6.21349,-2.828718 0,12.0728 c 0,0.305706 -0.248118,0.553825 -0.553833,0.553825 l -8.576709,0 c -0.305714,0 -0.553834,-0.248119 -0.553834,-0.553825 l 0,-12.0728 -6.213211,2.828718 0,18.368811 3.35514,2.780257 2.700784,-7.155286 c 0.08141,-0.215712 0.287714,-0.358356 0.518117,-0.358356 l 4.481365,0 z m -20.673047,-3.236342 8.509971,7.051719 0,-17.512855 -4.044667,-2.732904 c -0.152308,-0.103009 -0.243688,-0.275 -0.243688,-0.458813 l 0,-2.464295 -5.558024,-3.894024 1.336408,20.011214 z m 32.836399,-10.461136 0,17.513133 8.509699,-7.051716 1.336682,-20.011215 -5.558026,3.893744 0,2.464294 c 0,0.184147 -0.09139,0.355804 -0.243689,0.458813 l -4.04467,2.732905 z m -12.163352,8.752266 3.734519,0 0,-12.233962 c 0,-0.02467 0.0017,-0.04934 0.0051,-0.07401 l 1.527481,-11.402662 -4.955728,3.203389 c -0.02517,0.017 -0.0518,0.03232 -0.07918,0.04424 -0.07426,0.03402 -0.153125,0.05104 -0.231228,0.05104 l -0.0011,0 c -0.07758,0 -0.155917,-0.01619 -0.229568,-0.05018 -0.02823,-0.01275 -0.05537,-0.02807 -0.08115,-0.04594 L 30.04973,17.680953 31.576934,29.08361 c 0.0034,0.02467 0.0051,0.04934 0.0051,0.07401 l 0,12.233971 3.73452,0 z m -15.344035,-12.238394 3.787687,2.559009 5.311289,-2.418056 -9.098699,-1.916823 0,1.77587 z m 21.589371,0.140943 5.311289,2.418058 3.787411,-2.559009 0,-1.775872 z m 0.244793,-12.403715 -1.546587,11.545827 10.729198,-2.260209 6.640494,-4.652221 1.100749,-0.833843 3.397234,-16.4381307 -9.350696,0.9969 -1.020168,5.0113867 c -0.0296,0.145962 -0.116862,0.273894 -0.242027,0.354702 z m -22.162866,9.285907 10.729194,2.260201 C 29.216449,15.470803 29.575422,17.375124 19.117707,10.615193 c -0.125165,-0.0808 -0.212394,-0.20882 -0.242029,-0.354698 L 17.855512,5.2491073 8.5050936,4.2522063 11.902326,20.690619 l 1.101026,0.834096 6.64022,4.65195 z m 10.00616,-10.072347 5.666577,3.66307 5.673499,-3.667501 c 8.29e-4,-4.17e-4 0.002,-0.0012 0.0028,-0.002 l 9.725351,-6.2864247 0.970044,-4.765758 c -1.007934,-0.488236 -4.039079,-1.830982 -8.116422,-2.500573 -5.074525,-0.833246 -8.238039,-0.850429 -8.254378,-0.836563 l -2.75e-4,0 c -0.05205,0 -3.207821,0.0077 -8.255763,0.836563 -4.086758,0.670953 -7.110981,2.012364 -8.116748,2.50002 l 0.970321,4.76631 9.718998,6.2824467 c 0.0052,0.0038 0.01073,0.0069 0.01599,0.01012 z m 5.666577,-2.872469 c -0.110488,0 -0.221257,-0.03316 -0.316516,-0.09918 L 28.95384,8.9243313 c -0.198555,-0.138474 -0.284398,-0.389318 -0.212121,-0.620257 0.07231,-0.230936 0.286336,-0.387957 0.528358,-0.387957 l 12.092184,0 c 0.24203,0 0.455811,0.157031 0.528358,0.387957 0.07255,0.230939 -0.01335,0.482119 -0.212123,0.620257 l -6.04622,4.2080477 c -0.0947,0.06635 -0.205471,0.09944 -0.315964,0.09944 z M 31.035434,9.0234693 35.316312,12.003107 39.59719,9.0234693 Z"
     id="path3"
     inkscape:connector-curvature="0"
     style="fill:#6b3c41;fill-opacity:1;stroke:#6b3c41;stroke-width:1.20000005;stroke-miterlimit:4;stroke-dasharray:none;stroke-opacity:1"
     sodipodi:nodetypes="ccccccccccccccccccccccccccccccccccccccssccccsssscccccsccccccscccccccccscccccsccccssccccsccccccccccccccccccccccccccccccccccccccccccsccccccccccssscccccccc" /><g
     id="g5"
     transform="translate(-6.9138587,-144.81889)" /><g
     id="g7"
     transform="translate(-6.9138587,-144.81889)" /><g
     id="g9"
     transform="translate(-6.9138587,-144.81889)" /><g
     id="g11"
     transform="translate(-6.9138587,-144.81889)" /><g
     id="g13"
     transform="translate(-6.9138587,-144.81889)" /><g
     id="g15"
     transform="translate(-6.9138587,-144.81889)" /><g
     id="g17"
     transform="translate(-6.9138587,-144.81889)" /><g
     id="g19"
     transform="translate(-6.9138587,-144.81889)" /><g
     id="g21"
     transform="translate(-6.9138587,-144.81889)" /><g
     id="g23"
     transform="translate(-6.9138587,-144.81889)" /><g
     id="g25"
     transform="translate(-6.9138587,-144.81889)" /><g
     id="g27"
     transform="translate(-6.9138587,-144.81889)" /><g
     id="g29"
     transform="translate(-6.9138587,-144.81889)" /><g
     id="g31"
     transform="translate(-6.9138587,-144.81889)" /><g
     id="g33"
     transform="translate(-6.9138587,-144.81889)" /><path
     style="opacity:1;fill:#ebf6f9;fill-opacity:1;fill-rule:evenodd;stroke:#ebf6f9;stroke-width:0.643;stroke-linecap:butt;stroke-linejoin:miter;stroke-miterlimit:4;stroke-dasharray:none;stroke-dashoffset:0;stroke-opacity:1"
     d="M 25.605622,23.833981 C 23.51232,22.53419 17.819161,18.738792 15.580117,17.150384 14.957723,16.70885 14.871246,16.62945 14.902146,16.527897 c 0.05357,-0.176072 0.186855,-0.304253 0.316361,-0.304253 0.131708,0 1.16867,0.595254 2.550982,1.464358 2.183749,1.372993 6.547562,4.2521 7.460428,4.922157 0.509052,0.373653 1.01977,0.848131 1.01977,0.947409 0,0.06016 -0.365014,0.395998 -0.428187,0.393959 -0.01542,-4.83e-4 -0.11256,-0.05339 -0.215878,-0.117546 z"
     id="path4679"
     inkscape:connector-curvature="0" /><path
     style="opacity:1;fill:#ebf6f9;fill-opacity:1;fill-rule:evenodd;stroke:#ebf6f9;stroke-width:0.643;stroke-linecap:butt;stroke-linejoin:miter;stroke-miterlimit:4;stroke-dasharray:none;stroke-dashoffset:0;stroke-opacity:1"
     d="m 23.405064,18.20522 c -3.671846,-2.346297 -9.040068,-5.885441 -9.298698,-6.130416 -0.183142,-0.173472 -0.201914,-0.466322 -0.04026,-0.627981 0.05904,-0.05904 0.132549,-0.107344 0.163355,-0.107344 0.20706,0 7.558874,4.723996 10.053004,6.459678 0.835198,0.58122 0.982112,0.731674 0.911237,0.933193 -0.0364,0.103497 -0.2878,0.391947 -0.336119,0.385656 -0.01662,-0.0022 -0.670253,-0.412918 -1.452524,-0.912786 z"
     id="path4681"
     inkscape:connector-curvature="0" /><path
     style="opacity:1;fill:#ebf6f9;fill-opacity:1;fill-rule:evenodd;stroke:#ebf6f9;stroke-width:0.643;stroke-linecap:butt;stroke-linejoin:miter;stroke-miterlimit:4;stroke-dasharray:none;stroke-dashoffset:0;stroke-opacity:1"
     d="m 45.668822,19.053785 c -0.107585,-0.0872 -0.258181,-0.315819 -0.258181,-0.391941 0,-0.265769 8.659844,-6.084769 10.558449,-7.09477 l 0.453865,-0.241443 0.142836,0.106157 c 0.0896,0.06659 0.14899,0.167663 0.15935,0.271198 0.01513,0.151218 -0.02533,0.197508 -0.48305,0.552643 -0.5701,0.44233 -2.016607,1.405328 -6.645023,4.423861 -1.495543,0.975354 -2.941774,1.895259 -3.65432,2.324405 -0.155945,0.09392 -0.207924,0.103389 -0.273926,0.04989 z"
     id="path4683"
     inkscape:connector-curvature="0" /><path
     style="opacity:1;fill:#ebf6f9;fill-opacity:1;fill-rule:evenodd;stroke:#ebf6f9;stroke-width:0.643;stroke-linecap:butt;stroke-linejoin:miter;stroke-miterlimit:4;stroke-dasharray:none;stroke-dashoffset:0;stroke-opacity:1"
     d="m 44.554692,23.783576 c -0.06036,-0.09901 -0.109838,-0.216906 -0.109949,-0.261997 -6.83e-4,-0.279129 0.649685,-0.75239 4.696112,-3.417277 4.081717,-2.688129 6.004645,-3.880658 6.257478,-3.880658 0.173714,0 0.317359,0.151854 0.317359,0.335494 0,0.181493 -0.218514,0.366682 -1.351783,1.145628 -1.939994,1.333444 -9.409508,6.182997 -9.600126,6.232845 -0.0702,0.01836 -0.131535,-0.02682 -0.209091,-0.154035 z"
     id="path4685"
     inkscape:connector-curvature="0" /></svg>