<?xml version="1.0" encoding="UTF-8" standalone="no"?>
<!-- Created with Inkscape (http://www.inkscape.org/) -->

<svg
   xmlns:dc="http://purl.org/dc/elements/1.1/"
   xmlns:cc="http://creativecommons.org/ns#"
   xmlns:rdf="http://www.w3.org/1999/02/22-rdf-syntax-ns#"
   xmlns:svg="http://www.w3.org/2000/svg"
   xmlns="http://www.w3.org/2000/svg"
   xmlns:sodipodi="http://sodipodi.sourceforge.net/DTD/sodipodi-0.dtd"
   xmlns:inkscape="http://www.inkscape.org/namespaces/inkscape"
   inkscape:version="0.91 r"
   version="1.1"
   id="svg2"
   height="140.84865"
   width="550.729"
   sodipodi:docname="logo_nphysics.svg"
   inkscape:export-xdpi="90"
   inkscape:export-ydpi="90">
  <defs
     id="defs4">
    <inkscape:path-effect
       effect="spiro"
       id="path-effect4656"
       is_visible="true" />
    <inkscape:path-effect
       effect="spiro"
       id="path-effect4652"
       is_visible="true" />
    <inkscape:path-effect
       effect="spiro"
       id="path-effect4648"
       is_visible="true" />
    <inkscape:path-effect
       effect="spiro"
       id="path-effect4609"
       is_visible="true" />
  </defs>
  <sodipodi:namedview
     id="base"
     pagecolor="#ffffff"
     bordercolor="#666666"
     borderopacity="1.0"
     inkscape:pageopacity="0.0"
     inkscape:pageshadow="2"
     inkscape:zoom="1.4"
     inkscape:cx="187.74026"
     inkscape:cy="143.65003"
     inkscape:document-units="px"
     inkscape:current-layer="layer1"
     showgrid="true"
     inkscape:window-width="1918"
     inkscape:window-height="1181"
     inkscape:window-x="0"
     inkscape:window-y="18"
     inkscape:window-maximized="0"
     inkscape:snap-bbox="false"
     inkscape:snap-bbox-midpoints="true"
     inkscape:snap-global="false"
     fit-margin-top="0"
     fit-margin-left="0"
     fit-margin-right="0"
     fit-margin-bottom="0">
    <inkscape:grid
       type="xygrid"
       id="grid4677"
       empspacing="5"
       visible="true"
       enabled="true"
       snapvisiblegridlinesonly="true"
       originx="-148.48736"
       originy="-955.87287" />
  </sodipodi:namedview>
  <metadata
     id="metadata7">
    <rdf:RDF>
      <cc:Work
         rdf:about="">
        <dc:format>image/svg+xml</dc:format>
        <dc:type
           rdf:resource="http://purl.org/dc/dcmitype/StillImage" />
        <dc:title />
      </cc:Work>
    </rdf:RDF>
  </metadata>
  <g
     inkscape:label="Calque 1"
     inkscape:groupmode="layer"
     id="layer1"
     transform="translate(-148.48736,44.359348)">
    <path
       d="m 545.03129,-44.359311 c -0.19377,0 -0.39395,0.110573 -0.49528,0.27515 l -0.99054,1.650904 c -0.15831,0.01233 -0.33812,-0.01744 -0.49525,0 l -1.2657,-1.375753 c -0.13209,-0.14123 -0.36061,-0.202458 -0.55031,-0.16509 -0.19045,0.03805 -0.31754,0.148202 -0.3852,0.330181 l -0.71541,1.815994 c -0.15461,0.04439 -0.2875,0.06198 -0.44024,0.110064 l -1.54085,-1.100602 c -0.15706,-0.113588 -0.37131,-0.129696 -0.55029,-0.05503 -0.17861,0.07396 -0.29913,0.249424 -0.33018,0.440242 l -0.33017,1.871026 c -0.14195,0.07361 -0.24506,0.142777 -0.38522,0.22012 l -1.76096,-0.770425 c -0.1764,-0.08065 -0.3898,-0.0529 -0.55031,0.05503 -0.1613,0.107237 -0.22751,0.246833 -0.22012,0.440241 l 0.0549,1.926054 c -0.12344,0.09879 -0.26428,0.228115 -0.38521,0.33018 l -1.81599,-0.44024 c -0.18896,-0.04402 -0.41349,-0.02659 -0.55029,0.110063 -0.13754,0.137179 -0.20954,0.361332 -0.165,0.550302 l 0.44023,1.871023 c -0.10163,0.120628 -0.17641,0.206668 -0.27515,0.330182 l -1.92604,-0.05504 c -0.19268,-0.0053 -0.38766,0.114003 -0.49528,0.275149 -0.10789,0.160424 -0.0803,0.318505 0,0.495272 l 0.77042,1.760964 c -0.0768,0.139468 -0.14651,0.297498 -0.22012,0.440241 l -1.87102,0.275153 c -0.19119,0.03098 -0.36592,0.151195 -0.44024,0.33018 -0.074,0.179354 -0.0576,0.393153 0.0549,0.550301 l 1.10063,1.540844 c -0.0484,0.152677 -0.0656,0.340694 -0.11003,0.495273 l -1.81601,0.66036 c -0.18118,0.06761 -0.29245,0.194762 -0.33017,0.385212 -0.0377,0.19006 0.0235,0.417911 0.165,0.550301 l 1.37575,1.265693 c -0.0176,0.157079 -0.0418,0.337365 -0.0549,0.495271 l -1.59588,0.990542 c -0.16465,0.101612 -0.27515,0.301125 -0.27515,0.495272 0,0.194147 0.11062,0.393946 0.27515,0.495272 l 1.59588,0.990542 c 0.0141,0.158312 0.0375,0.283074 0.0549,0.440242 l -1.37575,1.320722 c -0.14159,0.132074 -0.20287,0.360595 -0.165,0.550304 0.0376,0.190447 0.14897,0.317165 0.33017,0.385209 l 1.81601,0.660361 c 0.0443,0.154615 0.0617,0.342544 0.11003,0.495273 l -1.10063,1.540842 c -0.11321,0.157606 -0.12942,0.371688 -0.0549,0.550304 0.0743,0.179354 0.24905,0.299488 0.44024,0.33018 l 1.87102,0.27515 c 0.0736,0.142815 0.14247,0.300087 0.22012,0.44024 l -0.77042,1.705937 c -0.0807,0.176396 -0.10789,0.389066 0,0.550301 0.10788,0.161656 0.3026,0.282917 0.49528,0.275151 l 1.92604,-0.05504 c 0.0994,0.124325 0.17311,0.209257 0.27515,0.330182 l -0.44023,1.871025 c -0.0443,0.188598 0.0285,0.413105 0.165,0.550302 0.13646,0.137883 0.36133,0.154469 0.55029,0.110062 l 1.81599,-0.44024 c 0.12098,0.102832 0.2617,0.231812 0.38521,0.33018 l -0.0549,1.9260552 c -0.008,0.193406 0.0588,0.332258 0.22012,0.44024 0.16042,0.107596 0.37391,0.135684 0.55031,0.05503 l 1.76096,-0.770421 c 0.13981,0.07767 0.24283,0.146458 0.38523,0.220121 l 0.33016,1.8710241 c 0.0311,0.1915577 0.15127,0.3666506 0.33019,0.4402402 0.17861,0.074311 0.39314,0.057851 0.55029,-0.055018 l 1.54084,-1.1556341 c 0.15268,0.04843 0.28567,0.120714 0.44024,0.165091 l 0.71542,1.7609613 c 0.0676,0.1812071 0.19473,0.3482289 0.3852,0.385219 0.19007,0.038338 0.41827,-0.023155 0.55031,-0.1650992 l 1.26569,-1.4307807 c 0.15706,0.018129 0.33699,0.040941 0.49526,0.055027 l 0.99053,1.6508979 c 0.10123,0.1637701 0.30153,0.2751534 0.49529,0.2751534 0.19377,0 0.33854,-0.1109266 0.44024,-0.2751534 l 1.04557,-1.6508979 c 0.1583,-0.014086 0.28308,-0.03689 0.44024,-0.055027 l 1.32072,1.4307807 c 0.13209,0.1419359 0.30556,0.2035829 0.49527,0.1650992 0.19045,-0.037381 0.37257,-0.203957 0.44024,-0.385219 l 0.66035,-1.7609613 c 0.15462,-0.04439 0.28754,-0.116662 0.44025,-0.165091 l 1.54084,1.1556341 c 0.15723,0.1126979 0.37169,0.1293418 0.5503,0.055018 0.17899,-0.073615 0.29912,-0.2490541 0.33018,-0.4402402 l 0.33019,-1.8710241 c 0.14192,-0.07362 0.30009,-0.143643 0.44023,-0.220121 l 1.70595,0.770421 c 0.17639,0.08065 0.38943,0.05257 0.55028,-0.05503 0.16132,-0.107949 0.2822,-0.246462 0.27517,-0.44024 l -0.11002,-1.9260552 c 0.12343,-0.09879 0.26465,-0.227394 0.3852,-0.33018 l 1.87103,0.44024 c 0.18896,0.04438 0.35882,0.02799 0.49526,-0.110062 0.13755,-0.137182 0.20954,-0.361704 0.16501,-0.550302 l -0.44028,-1.871036 c 0.10217,-0.120981 0.23181,-0.205928 0.33018,-0.330183 l 1.87103,0.05503 c 0.19268,0.0071 0.38765,-0.113483 0.49527,-0.275153 0.1079,-0.161304 0.13596,-0.373904 0.0549,-0.550302 l -0.77041,-1.705934 c 0.0773,-0.140171 0.14685,-0.297495 0.22011,-0.44024 l 1.871,-0.275151 c 0.19158,-0.03065 0.36629,-0.150845 0.44026,-0.330179 0.074,-0.178616 0.004,-0.392767 -0.11002,-0.550304 l -1.10062,-1.540845 c 0.0481,-0.152673 0.12044,-0.34071 0.165,-0.495269 l 1.76097,-0.660362 c 0.18158,-0.06798 0.34822,-0.194762 0.38521,-0.385211 0.0383,-0.19008 -0.023,-0.418282 -0.165,-0.550302 l -1.4308,-1.320724 c 0.0175,-0.157255 0.0414,-0.282353 0.0549,-0.440241 l 1.65091,-0.990544 c 0.16448,-0.101249 0.22011,-0.301494 0.22011,-0.495268 0,-0.193778 -0.0555,-0.393577 -0.22011,-0.495273 l -1.65091,-0.990544 c -0.0141,-0.15831 -0.0379,-0.338122 -0.0549,-0.495269 l 1.4308,-1.265694 c 0.14194,-0.132425 0.20358,-0.360592 0.165,-0.550302 -0.0373,-0.190448 -0.2036,-0.317538 -0.38521,-0.385212 l -1.76097,-0.660361 c -0.0447,-0.154612 -0.1169,-0.342542 -0.165,-0.495271 l 1.10062,-1.540843 c 0.11359,-0.15708 0.18402,-0.370948 0.11002,-0.550302 -0.074,-0.178615 -0.24906,-0.298748 -0.44026,-0.330181 l -1.87094,-0.275152 c -0.0733,-0.142814 -0.14318,-0.300826 -0.22013,-0.440241 l 0.77043,-1.760965 c 0.081,-0.176766 0.0531,-0.334777 -0.0549,-0.49527 -0.10765,-0.161306 -0.30074,-0.282548 -0.49526,-0.275151 l -1.87105,0.05503 c -0.0988,-0.123443 -0.22776,-0.209994 -0.33017,-0.330181 l 0.44023,-1.871024 c 0.0443,-0.18897 -0.0285,-0.413105 -0.165,-0.550302 -0.13647,-0.136827 -0.30629,-0.154471 -0.49526,-0.110062 l -1.87102,0.440241 c -0.12063,-0.102133 -0.26133,-0.231443 -0.38522,-0.330181 l 0.11004,-1.926055 c 0.008,-0.193406 -0.11395,-0.332999 -0.27515,-0.440241 -0.16167,-0.10795 -0.37391,-0.13533 -0.55031,-0.05503 l -1.70594,0.770421 c -0.14016,-0.07696 -0.29822,-0.146476 -0.44024,-0.220121 l -0.33018,-1.871025 c -0.0311,-0.190819 -0.15127,-0.366281 -0.33019,-0.440242 -0.17861,-0.07431 -0.39312,-0.0582 -0.5503,0.05503 l -1.54083,1.100604 c -0.15233,-0.04843 -0.28567,-0.06569 -0.44025,-0.110062 l -0.66036,-1.815997 c -0.0676,-0.181943 -0.2498,-0.292461 -0.44024,-0.330181 -0.19008,-0.03733 -0.36327,0.02385 -0.49527,0.16509 l -1.32072,1.375755 c -0.15708,-0.01762 -0.28236,0.01303 -0.44024,0 l -1.04557,-1.650905 c -0.10162,-0.164474 -0.24647,-0.275151 -0.44025,-0.275151 z m -0.0549,3.411867 c 0.29402,0.0069 0.60597,0.155581 0.82542,0.385214 0.43823,0.460385 0.40458,1.211948 -0.0549,1.650904 -0.45855,0.439307 -1.15691,0.404951 -1.59587,-0.05504 -0.43784,-0.459664 -0.45923,-1.211597 0,-1.650904 0.22928,-0.219664 0.53145,-0.337021 0.82546,-0.330182 z m -13.75753,10.455729 c 0.44784,-0.0076 0.90757,0.225012 1.10061,0.660363 0.25738,0.580959 -0.0259,1.283829 -0.60535,1.540844 -0.58021,0.257751 -1.28347,-0.02486 -1.54084,-0.605332 -0.25738,-0.58133 0.0259,-1.28311 0.60533,-1.540844 0.14511,-0.06435 0.29096,-0.05254 0.44025,-0.05503 z m 27.46004,0.05504 c 0.14932,0.0027 0.29518,-0.0093 0.44024,0.05503 0.58022,0.257364 0.86271,0.959884 0.60532,1.540843 -0.25701,0.581313 -0.96026,0.863086 -1.54084,0.605332 -0.57948,-0.257384 -0.80731,-0.959145 -0.5503,-1.540846 0.19275,-0.435703 0.5978,-0.668126 1.04559,-0.66036 z m -22.4523,16.123832 c 0.62051,-0.132775 1.18758,0.258844 1.32072,0.880481 0.13279,0.621254 -0.26032,1.242625 -0.88049,1.375758 -0.62051,0.133832 -1.24225,-0.258847 -1.37574,-0.880484 -0.13277,-0.622732 0.31497,-1.241887 0.93551,-1.375755 z m 17.00431,0.05503 c 0.14652,-0.02799 0.34024,-0.03346 0.49528,0 0.62052,0.13278 1.01361,0.754504 0.88046,1.375754 -0.13311,0.621269 -0.7556,1.013241 -1.37573,0.880484 -0.62054,-0.133835 -1.01362,-0.753395 -0.8805,-1.375755 0.0995,-0.466229 0.44073,-0.796531 0.8805,-0.880483 z"
       id="path3684"
       inkscape:connector-curvature="0" />
    <g
       style="font-style:italic;font-variant:normal;font-weight:bold;font-stretch:normal;font-size:139.63676453px;line-height:125%;font-family:'URW Bookman L';-inkscape-font-specification:'URW Bookman L Bold Italic';letter-spacing:-11.03130531px;word-spacing:-5.72510958px;fill:#000000;fill-opacity:1;stroke:none"
       id="text2985">
      <path
         d="m 171.66706,66.746674 9.4953,-52.084514 c 3.90983,-3.072008 8.93676,-4.8872863 13.82404,-4.8872863 5.3062,0 8.51784,2.5134613 8.51784,6.8422013 0,1.396368 0,1.675641 -0.13963,2.513462 l -5.44584,28.90481 c -0.41891,2.513462 -0.69818,4.74765 -0.69818,6.283655 0,8.098932 7.12148,13.684402 17.4546,13.684402 7.26111,0 14.10331,-2.932372 22.0626,-9.4953 l -5.44583,-7.819658 c -2.93237,1.815278 -4.04947,2.234188 -5.86474,2.234188 -3.21165,0 -5.16656,-1.815278 -5.16656,-4.74765 0,-1.256731 0,-1.256731 1.11709,-6.981838 l 4.32874,-24.436434 c 0.83782,-4.049466 0.97746,-5.585471 0.97746,-7.5403854 0,-8.79711617 -8.37821,-15.0807706 -20.1077,-15.0807706 -7.95929,0 -17.17532,3.3512824 -23.1797,8.3782059 l 1.25673,-7.121475 -7.26111,0 c -10.61239,3.3512824 -16.3375,4.32873971 -26.81026,4.88728677 l -2.09455,11.45021433 1.67564,0 c 2.37383,0 6.14402,1.256731 7.40075,2.234189 0.55855,0.558547 0.83782,1.536004 0.83782,2.792735 0,0.977457 -0.27927,3.351282 -0.55855,5.16656 l -8.23857,44.823402 22.06261,0 z"
         style="font-style:italic;font-variant:normal;font-weight:bold;font-stretch:normal;font-family:'URW Bookman L';-inkscape-font-specification:'URW Bookman L Bold Italic';letter-spacing:-11.03130531px;word-spacing:-5.72510958px"
         id="path4272"
         inkscape:connector-curvature="0" />
      <path
         d="m 249.78425,62.976481 c 6.28366,3.490919 11.58986,5.026923 17.59424,5.026923 21.6437,0 41.05321,-20.805877 41.05321,-44.264854 0,-17.3149587 -11.03131,-29.602994 -26.67063,-29.602994 -8.09893,0 -13.96367,2.6530986 -21.22478,9.6349368 l 1.536,-8.3782059 -7.40075,0 c -10.47276,3.3512824 -16.3375,4.32873971 -26.81026,4.88728677 l -2.09455,11.45021433 1.81528,0 c 2.23419,0 6.14402,1.256731 7.40075,2.234189 0.41891,0.558547 0.83782,1.675641 0.83782,2.792735 0,1.256731 -0.13964,2.094551 -0.69819,5.16656 l -9.91421,54.458338 c -0.41891,2.513462 -1.536,5.166561 -2.79273,6.144018 -1.53601,1.396368 -5.16656,2.513462 -8.09893,2.513462 l -2.37383,0 -2.09455,11.450214 46.91795,0 2.09455,-11.450214 -3.77019,0 c -5.58547,0 -8.23857,-2.094552 -8.09893,-6.004381 0,-0.837821 0.13964,-1.815278 0.27927,-2.653099 l 2.51346,-13.405129 z m 2.23419,-11.589852 c 2.93237,-13.963676 5.16656,-22.481519 7.54039,-28.206626 4.04946,-9.774573 10.05385,-15.6393176 16.05823,-15.6393176 6.00438,0 9.21602,4.8872866 9.21602,14.1033136 0,7.121475 -2.37382,16.756411 -5.7251,23.040066 -3.7702,7.400748 -8.65748,11.031304 -14.52223,11.031304 -4.32874,0 -8.93675,-1.675641 -12.56731,-4.32874 z"
         style="font-style:italic;font-variant:normal;font-weight:bold;font-stretch:normal;font-family:'URW Bookman L';-inkscape-font-specification:'URW Bookman L Bold Italic';letter-spacing:-11.03130531px;word-spacing:-5.72510958px"
         id="path4274"
         inkscape:connector-curvature="0" />
      <path
         d="m 303.29581,66.746674 22.06261,0 9.63494,-52.922334 c 3.63055,-2.373825 9.35566,-4.0494663 13.82404,-4.0494663 5.30619,0 8.93675,2.5134613 8.93675,6.1440173 0,1.117094 -0.41891,3.770193 -0.97746,7.261112 l -3.90983,21.224788 c -1.25673,6.981838 -1.25673,6.981838 -1.25673,9.355663 0,8.517843 7.12148,14.24295 17.87351,14.24295 7.95929,0 16.89605,-3.770192 23.59861,-9.774573 l -5.86474,-7.959296 c -3.07201,1.815278 -5.86475,2.653099 -8.23857,2.653099 -2.6531,0 -4.60802,-1.675641 -4.60802,-3.90983 0,-1.117094 0.13964,-2.094551 0.97746,-6.981838 l 5.16656,-28.206626 c 0.27928,-1.396368 0.41891,-2.792735 0.41891,-3.490919 0,-9.63493704 -8.3782,-16.197865 -20.66624,-16.197865 -8.09893,0 -15.91859,2.5134618 -23.04007,7.2611118 l 6.70257,-36.8641058 -7.40075,0 c -7.54038,3.351282 -17.17532,5.306197 -26.39135,5.306197 l -2.09455,11.450215 1.67564,0 c 2.23419,0 5.86475,1.117094 7.12148,2.234188 0.41891,0.41891 0.83782,1.536004 0.83782,2.653098 0,0.977458 -0.27928,2.932373 -0.69819,5.3061975 l -13.6844,75.2642165 z"
         style="font-style:italic;font-variant:normal;font-weight:bold;font-stretch:normal;font-family:'URW Bookman L';-inkscape-font-specification:'URW Bookman L Bold Italic';letter-spacing:-11.03130531px;word-spacing:-5.72510958px"
         id="path4276"
         inkscape:connector-curvature="0" />
      <path
         d="m 462.52112,-4.6077131 -22.06261,0 -9.21603,50.6881451 c -3.35128,3.630556 -9.4953,6.283655 -14.38259,6.283655 -4.1891,0 -7.40074,-3.072009 -7.40074,-7.261112 0,-0.698184 0.13963,-1.954915 0.41891,-3.351282 0.27927,-0.698184 0.41891,-1.815278 0.69818,-3.211646 l 7.81966,-43.1477601 -7.26111,0 c -10.6124,3.3512824 -16.3375,4.32873971 -26.81026,4.88728677 l -2.09455,11.45021433 1.67564,0 c 2.23419,0 6.28365,1.256731 7.40075,2.234189 0.41891,0.558547 0.83782,1.675641 0.83782,2.792735 0,1.117094 -0.27928,3.072009 -0.69819,5.16656 l -4.32874,24.15716 c -0.41891,2.653099 -0.69818,4.887287 -0.69818,6.842202 0,8.517843 8.51784,15.08077 19.68878,15.08077 7.12148,0 13.12586,-1.954914 21.36443,-7.121475 l 1.25673,-0.83782 c -0.83782,5.026923 -1.81528,7.959295 -3.77019,11.450215 -3.7702,7.121475 -10.47276,11.450214 -17.4546,11.450214 -4.88729,0 -8.3782,-1.675641 -10.33312,-5.026923 -2.51346,-4.32874 -2.51346,-4.32874 -3.49092,-5.026924 -1.67564,-1.256731 -4.04946,-1.954914 -6.42329,-1.954914 -6.14402,0 -10.89167,4.328739 -10.89167,9.91421 0,8.238569 11.86913,14.382587 27.78772,14.382587 11.45021,0 21.78333,-2.792736 30.30118,-8.378206 10.33312,-6.562928 13.96367,-13.544766 17.59423,-33.652461 l 10.47276,-57.8096201 z"
         style="font-style:italic;font-variant:normal;font-weight:bold;font-stretch:normal;font-family:'URW Bookman L';-inkscape-font-specification:'URW Bookman L Bold Italic';letter-spacing:-11.03130531px;word-spacing:-5.72510958px"
         id="path4278"
         inkscape:connector-curvature="0" />
      <path
         d="m 495.5605,20.945815 c -5.58547,-1.815278 -6.28365,-2.094552 -7.54038,-3.351283 -1.25673,-0.977457 -1.95492,-2.792735 -1.95492,-4.608013 0,-4.4683762 3.90983,-7.4007483 9.77458,-7.4007483 4.88728,0 7.54038,1.1170941 10.19348,4.3287397 4.04947,5.0269236 6.56293,6.4232916 11.0313,6.4232916 4.74765,0 8.51785,-3.351283 8.51785,-7.6800225 0,-8.0989323 -13.2655,-14.5222235 -30.16154,-14.5222235 -21.08516,0 -36.30556,10.6123941 -36.30556,25.413891 0,8.797116 5.7251,14.382587 18.29241,18.013143 l 9.91421,2.792735 c 6.14402,1.815278 8.09894,3.490919 8.09894,7.121475 0,5.306197 -5.44584,9.07639 -12.56731,9.07639 -4.46838,0 -7.54039,-1.396368 -10.47276,-4.887287 -5.3062,-6.004381 -8.09893,-7.680022 -13.12586,-7.680022 -5.30619,0 -9.21602,3.630556 -9.21602,8.378206 0,3.490919 1.95491,6.702565 5.44583,8.936753 6.56293,4.189103 16.75641,6.702564 27.08953,6.702564 22.7608,0 40.35503,-11.729488 40.35503,-26.810258 0,-4.608014 -2.51346,-9.4953 -6.14402,-12.148399 -2.37382,-1.675641 -5.58547,-3.211645 -10.19348,-4.608013 L 495.5605,20.945815 Z"
         style="font-style:italic;font-variant:normal;font-weight:bold;font-stretch:normal;font-family:'URW Bookman L';-inkscape-font-specification:'URW Bookman L Bold Italic';letter-spacing:-11.03130531px;word-spacing:-5.72510958px"
         id="path4280"
         inkscape:connector-curvature="0" />
      <path
         d="m 562.59488,49.850625 c -3.90983,1.954915 -7.12148,3.072009 -8.93676,3.072009 -2.93237,0 -5.44583,-2.234188 -5.44583,-4.887287 0,-0.977457 0.27927,-2.792735 0.69818,-4.74765 0.13964,-0.558547 0.27928,-1.815278 0.69819,-3.770192 l 7.95929,-44.1252181 -7.26111,0 c -10.61239,3.3512824 -16.3375,4.32873971 -26.81026,4.88728677 l -2.09455,11.45021433 1.67564,0 c 2.37383,0 6.14402,1.256731 7.40075,2.234189 0.55855,0.558547 0.83782,1.536004 0.83782,2.792735 0,0.977457 -0.27927,3.351282 -0.55855,5.16656 l -4.60801,25.413891 c -0.69818,3.211646 -0.83782,4.887287 -0.83782,6.842202 0,8.238569 7.26111,13.824039 18.15278,13.824039 8.09893,0 17.31496,-3.770192 24.99498,-10.33312 z"
         style="font-style:italic;font-variant:normal;font-weight:bold;font-stretch:normal;font-family:'URW Bookman L';-inkscape-font-specification:'URW Bookman L Bold Italic';letter-spacing:-11.03130531px;word-spacing:-5.72510958px"
         id="path4282"
         inkscape:connector-curvature="0"
         sodipodi:nodetypes="cssccccccscsccsscc" />
      <path
         d="m 624.15505,42.868787 c -10.05384,8.098932 -18.15278,11.729488 -26.25171,11.729488 -9.21603,0 -14.38259,-5.445834 -14.38259,-15.08077 0,-17.314959 11.17094,-34.4902813 22.34189,-34.4902813 3.77019,0 6.56292,2.0945514 6.56292,5.0269233 0,0.837821 -0.13963,1.815278 -0.55854,2.932372 -0.41891,1.675641 -0.55855,2.513462 -0.55855,3.351283 0,4.74765 4.46838,8.378205 10.33312,8.378205 7.40075,0 13.6844,-5.725107 13.6844,-12.567308 0,-10.0538474 -12.1484,-18.013143 -27.22917,-18.013143 -25.41389,0 -48.03504,20.666241 -48.03504,43.845944 0,17.873506 13.26549,30.021904 32.675,30.021904 13.6844,0 29.60299,-6.981838 38.81902,-17.035685 l -7.40075,-8.098932 z"
         style="font-style:italic;font-variant:normal;font-weight:bold;font-stretch:normal;font-family:'URW Bookman L';-inkscape-font-specification:'URW Bookman L Bold Italic';letter-spacing:-11.03130531px;word-spacing:-5.72510958px"
         id="path4284"
         inkscape:connector-curvature="0" />
      <path
         d="m 669.19444,20.945815 c -5.58547,-1.815278 -6.28365,-2.094552 -7.54038,-3.351283 -1.25673,-0.977457 -1.95492,-2.792735 -1.95492,-4.608013 0,-4.4683762 3.90983,-7.4007483 9.77458,-7.4007483 4.88729,0 7.54038,1.1170941 10.19348,4.3287397 4.04947,5.0269236 6.56293,6.4232916 11.03131,6.4232916 4.74765,0 8.51784,-3.351283 8.51784,-7.6800225 0,-8.0989323 -13.26549,-14.5222235 -30.16154,-14.5222235 -21.08515,0 -36.30556,10.6123941 -36.30556,25.413891 0,8.797116 5.72511,14.382587 18.29242,18.013143 l 9.91421,2.792735 c 6.14401,1.815278 8.09893,3.490919 8.09893,7.121475 0,5.306197 -5.44584,9.07639 -12.56731,9.07639 -4.46838,0 -7.54039,-1.396368 -10.47276,-4.887287 -5.3062,-6.004381 -8.09893,-7.680022 -13.12585,-7.680022 -5.3062,0 -9.21603,3.630556 -9.21603,8.378206 0,3.490919 1.95491,6.702565 5.44583,8.936753 6.56293,4.189103 16.75642,6.702564 27.08954,6.702564 22.76079,0 40.35502,-11.729488 40.35502,-26.810258 0,-4.608014 -2.51346,-9.4953 -6.14402,-12.148399 -2.37382,-1.675641 -5.58547,-3.211645 -10.19348,-4.608013 l -11.03131,-3.490919 z"
         style="font-style:italic;font-variant:normal;font-weight:bold;font-stretch:normal;font-family:'URW Bookman L';-inkscape-font-specification:'URW Bookman L Bold Italic';letter-spacing:-11.03130531px;word-spacing:-5.72510958px"
         id="path4286"
         inkscape:connector-curvature="0" />
      <path
         inkscape:connector-curvature="0"
         d="m 541.01688,46.925715 c -222.02532,44.866462 -111.01266,22.433232 0,0 z m 5.97804,-82.304861 c -6.08479,0 -12.06284,5.871292 -12.06284,12.062837 0,5.017288 3.41603,8.540065 8.32657,8.540065 6.19154,0 12.27634,-5.978045 12.27634,-12.062839 0,-5.017289 -3.41603,-8.540063 -8.54007,-8.540063 z"
         style="font-style:italic;font-variant:normal;font-weight:bold;font-stretch:normal;font-size:139.63676453px;line-height:125%;font-family:'URW Bookman L';-inkscape-font-specification:'URW Bookman L Bold Italic';letter-spacing:-11.03130531px;word-spacing:-5.72510958px;fill:#ffffff;fill-opacity:1;stroke:none"
         id="path4282-6"
         sodipodi:nodetypes="ccsssss" />
    </g>
    <path
       style="fill:none;stroke:#000000;stroke-width:1px;stroke-linecap:butt;stroke-linejoin:miter;stroke-opacity:1"
       d=""
       id="path4654"
       inkscape:path-effect="#path-effect4656"
       inkscape:original-d="M 255.31606,73.398096 Z"
       inkscape:connector-curvature="0" />
    <text
       xml:space="preserve"
       style="font-style:normal;font-weight:normal;font-size:139.63676453px;line-height:125%;font-family:Sans;letter-spacing:0px;word-spacing:0px;fill:#000000;fill-opacity:1;stroke:none"
       x="385.41705"
       y="29.900635"
       id="text5083"
       sodipodi:linespacing="125%"><tspan
         sodipodi:role="line"
         id="tspan5085"
         x="385.41705"
         y="29.900635" /></text>
  </g>
</svg>
