<?xml version="1.0" encoding="UTF-8" standalone="no"?>
<!-- Generator: Adobe Illustrator 19.0.0, SVG Export Plug-In . SVG Version: 6.00 Build 0)  -->

<svg
   xmlns:dc="http://purl.org/dc/elements/1.1/"
   xmlns:cc="http://creativecommons.org/ns#"
   xmlns:rdf="http://www.w3.org/1999/02/22-rdf-syntax-ns#"
   xmlns:svg="http://www.w3.org/2000/svg"
   xmlns="http://www.w3.org/2000/svg"
   xmlns:sodipodi="http://sodipodi.sourceforge.net/DTD/sodipodi-0.dtd"
   xmlns:inkscape="http://www.inkscape.org/namespaces/inkscape"
   version="1.1"
   id="Layer_1"
   x="0px"
   y="0px"
   viewBox="0 0 69.63604 52.000002"
   xml:space="preserve"
   inkscape:version="0.91 r"
   sodipodi:docname="performance.svg"
   width="69.63604"
   height="52"><metadata
     id="metadata59"><rdf:RDF><cc:Work
         rdf:about=""><dc:format>image/svg+xml</dc:format><dc:type
           rdf:resource="http://purl.org/dc/dcmitype/StillImage" /><dc:title></dc:title></cc:Work></rdf:RDF></metadata><defs
     id="defs57" /><sodipodi:namedview
     pagecolor="#ffffff"
     bordercolor="#666666"
     borderopacity="1"
     objecttolerance="10"
     gridtolerance="10"
     guidetolerance="10"
     inkscape:pageopacity="0"
     inkscape:pageshadow="2"
     inkscape:window-width="1678"
     inkscape:window-height="1031"
     id="namedview55"
     showgrid="false"
     fit-margin-top="0"
     fit-margin-left="0"
     fit-margin-right="0"
     fit-margin-bottom="0"
     inkscape:zoom="9.8059585"
     inkscape:cx="30.473646"
     inkscape:cy="41.209249"
     inkscape:window-x="0"
     inkscape:window-y="18"
     inkscape:window-maximized="0"
     inkscape:current-layer="g3" /><g
     id="g3"
     transform="matrix(0.16951654,0,0,0.16951654,0.19800296,-13.416935)"><path
       inkscape:connector-curvature="0"
       id="path7"
       d="m 184.42401,280.65127 c -11.69117,6.75452 -19.55272,19.37793 -19.55272,33.84781 l -156.9260432,0 c 0,-72.54434 39.4158392,-135.89656 97.9966732,-169.7825 l 78.48209,135.93469 z"
       style="fill:#ffc8aa;fill-opacity:1" /><path
       inkscape:connector-curvature="0"
       id="path9"
       d="m 301.99247,144.71658 -78.48208,135.93469 c -12.04182,-6.98864 -27.0488,-6.98546 -39.08532,0 L 105.94298,144.71658 c 60.42519,-34.96862 135.49506,-35.04278 196.04949,0 z"
       style="fill:#ffc8aa;fill-opacity:1" /><path
       inkscape:connector-curvature="0"
       id="path11"
       d="m 399.98809,314.50014 -156.92604,0 c 0,-0.86444 -0.0286,-1.72994 -0.0773,-2.58485 l 48.24036,-46.12163 -64.60545,16.86087 c -1.00111,-0.71931 -2.04034,-1.38035 -3.1103,-2.0022 l 78.48205,-135.93469 c 58.58084,33.88594 97.99668,97.2371 97.99668,169.7825 z"
       style="fill:#ffaaaa;fill-opacity:1" /><path
       inkscape:connector-curvature="0"
       id="path13"
       d="m 291.22508,265.7926 -48.24036,46.12163 c -0.79665,-12.06936 -7.06492,-22.6429 -16.36509,-29.26076 l 64.60545,-16.86087 z"
       style="fill:#ffc8aa;fill-opacity:1" /><path
       style="fill:#ffc8aa;fill-opacity:1"
       d="m 203.9672,353.59499 c -21.44369,0 -39.09591,-17.37042 -39.09591,-39.09591 0,-14.46988 7.86155,-27.09435 19.55272,-33.84781 12.04287,-6.98864 27.0488,-6.98546 39.08532,0 1.0689,0.62185 2.10919,1.28289 3.1103,2.0022 31.02036,22.07402 15.15847,70.94152 -22.65243,70.94152 z"
       id="path17"
       inkscape:connector-curvature="0" /><path
       style="fill:#6b3c41;fill-opacity:1"
       d="m 305.97039,137.83917 c -0.001,-0.001 -0.003,-0.001 -0.004,-0.002 -62.91365,-36.40618 -141.07792,-36.4083 -203.99263,-0.003 -0.003,0.002 -0.007,0.003 -0.0106,0.005 C 40.814203,173.21035 0,239.28938 0,314.50014 c 0,4.38896 3.5573518,7.94525 7.9452468,7.94525 l 149.6651432,0 c 3.78829,22.16618 23.12702,39.09485 46.35575,39.09485 23.32724,0 42.15536,-16.16487 46.29218,-39.09485 l 149.72871,0 c 4.38789,0 7.94525,-3.55629 7.94525,-7.94525 0.001,-75.24043 -40.83857,-141.30462 -101.96189,-176.66097 z m -58.39226,158.69094 c -1.41214,-3.42069 -3.24166,-6.67824 -5.47481,-9.70591 l 21.49454,-5.60935 -16.01973,15.31526 z M 291.0577,147.76438 220.26767,270.37542 c -10.14238,-3.75122 -21.84308,-3.9811 -32.602,0 L 116.87564,147.76438 c 54.39846,-28.46094 119.78466,-28.46094 174.18206,0 z m -187.93687,7.95795 70.79109,122.61211 c -8.6921,7.23547 -14.44234,17.4414 -16.30365,28.22045 l -141.550397,0 C 18.72218,243.30014 52.562575,187.9027 103.12083,155.72233 Z M 203.9672,345.64975 c -17.17657,0 -31.15067,-13.97304 -31.15067,-31.14961 0,-17.1522 13.98152,-31.15278 31.15279,-31.15278 16.79307,0 30.92078,13.48043 31.14113,30.73751 -0.071,15.79409 -11.71448,31.56488 -31.14325,31.56488 z m 56.12098,-39.09486 36.62759,-35.01946 c 5.89855,-5.64113 0.40892,-15.49006 -7.49713,-13.43065 l -51.23625,13.37132 66.83118,-115.75483 c 50.55189,32.17613 84.39865,87.57039 87.06295,150.83257 l -131.78834,0 0,0.001 z"
       id="path19"
       inkscape:connector-curvature="0" /><g
       transform="matrix(1.0593662,0,0,1.0593662,1.027896,32.531053)"
       id="g21"
       style="fill:#ebf6f9;fill-opacity:1;stroke:none;stroke-width:6.31206846;stroke-linecap:round;stroke-linejoin:round;stroke-miterlimit:4;stroke-dasharray:none;stroke-opacity:1"><path
         style="fill:#ebf6f9;fill-opacity:1;stroke:none;stroke-width:6.31206846;stroke-linecap:round;stroke-linejoin:round;stroke-miterlimit:4;stroke-dasharray:none;stroke-opacity:1"
         d="m 322.983,180.09 c -7.584,-0.022 -13.74,6.12 -13.74,13.699 0,-7.579 -6.155,-13.721 -13.739,-13.699 -11.927,0.034 -18.191,14.449 -9.861,23.162 l -0.004,0.002 18.775,19.516 c 2.636,2.74 7.021,2.74 9.657,0 l 18.775,-19.516 -0.004,-0.002 c 8.343,-8.724 2.052,-23.128 -9.859,-23.162 z"
         id="path23"
         inkscape:connector-curvature="0" /></g></g><g
     id="g25"
     transform="translate(0,-259.007)" /><g
     id="g27"
     transform="translate(0,-259.007)" /><g
     id="g29"
     transform="translate(0,-259.007)" /><g
     id="g31"
     transform="translate(0,-259.007)" /><g
     id="g33"
     transform="translate(0,-259.007)" /><g
     id="g35"
     transform="translate(0,-259.007)" /><g
     id="g37"
     transform="translate(0,-259.007)" /><g
     id="g39"
     transform="translate(0,-259.007)" /><g
     id="g41"
     transform="translate(0,-259.007)" /><g
     id="g43"
     transform="translate(0,-259.007)" /><g
     id="g45"
     transform="translate(0,-259.007)" /><g
     id="g47"
     transform="translate(0,-259.007)" /><g
     id="g49"
     transform="translate(0,-259.007)" /><g
     id="g51"
     transform="translate(0,-259.007)" /><g
     id="g53"
     transform="translate(0,-259.007)" /></svg>