<?xml version="1.0" encoding="UTF-8" standalone="no"?>
<!-- Generator: Adobe Illustrator 19.0.0, SVG Export Plug-In . SVG Version: 6.00 Build 0)  -->

<svg
   xmlns:dc="http://purl.org/dc/elements/1.1/"
   xmlns:cc="http://creativecommons.org/ns#"
   xmlns:rdf="http://www.w3.org/1999/02/22-rdf-syntax-ns#"
   xmlns:svg="http://www.w3.org/2000/svg"
   xmlns="http://www.w3.org/2000/svg"
   xmlns:sodipodi="http://sodipodi.sourceforge.net/DTD/sodipodi-0.dtd"
   xmlns:inkscape="http://www.inkscape.org/namespaces/inkscape"
   version="1.1"
   id="Layer_1"
   x="0px"
   y="0px"
   viewBox="0 0 36.944172 31.259495"
   xml:space="preserve"
   width="63.688484"
   height="53.888603"
   inkscape:version="0.91 r"
   sodipodi:docname="reference.svg"><metadata
     id="metadata51"><rdf:RDF><cc:Work
         rdf:about=""><dc:format>image/svg+xml</dc:format><dc:type
           rdf:resource="http://purl.org/dc/dcmitype/StillImage" /><dc:title></dc:title></cc:Work></rdf:RDF></metadata><defs
     id="defs49"><marker
       inkscape:isstock="true"
       style="overflow:visible"
       id="Arrow2Mend"
       refX="0"
       refY="0"
       orient="auto"
       inkscape:stockid="Arrow2Mend"><path
         transform="scale(-0.6,-0.6)"
         d="M 8.7185878,4.0337352 -2.2072895,0.01601326 8.7185884,-4.0017078 c -1.7454984,2.3720609 -1.7354408,5.6174519 -6e-7,8.035443 z"
         style="fill:#ebf6f9;fill-opacity:1;fill-rule:evenodd;stroke:#ebf6f9;stroke-width:0.625;stroke-linejoin:round;stroke-opacity:1"
         id="path4401"
         inkscape:connector-curvature="0" /></marker></defs><sodipodi:namedview
     pagecolor="#ffffff"
     bordercolor="#666666"
     borderopacity="1"
     objecttolerance="10"
     gridtolerance="10"
     guidetolerance="10"
     inkscape:pageopacity="0"
     inkscape:pageshadow="2"
     inkscape:window-width="1918"
     inkscape:window-height="1181"
     id="namedview47"
     showgrid="false"
     fit-margin-top="0"
     fit-margin-left="0"
     fit-margin-right="0"
     fit-margin-bottom="0"
     inkscape:zoom="10.429825"
     inkscape:cx="19.73294"
     inkscape:cy="24.87613"
     inkscape:window-x="0"
     inkscape:window-y="18"
     inkscape:window-maximized="0"
     inkscape:current-layer="g5" /><g
     id="g3"
     transform="matrix(0.10730811,0,0,0.10730811,4.4180188,-0.51619734)"
     style="fill:#ffaaaa;fill-opacity:1;stroke:#6b3c41;stroke-width:10.81141348;stroke-linecap:round;stroke-linejoin:round;stroke-miterlimit:4;stroke-dasharray:none;stroke-opacity:1"><g
       id="g5"
       style="fill:#ffaaaa;fill-opacity:1;stroke:#6b3c41;stroke-width:10.81141348;stroke-linecap:round;stroke-linejoin:round;stroke-miterlimit:4;stroke-dasharray:none;stroke-opacity:1"><g
         style="fill:#ffaaaa;fill-opacity:1;stroke:#6b3c41;stroke-width:10.81141348;stroke-linecap:round;stroke-linejoin:round;stroke-miterlimit:4;stroke-dasharray:none;stroke-opacity:1"
         id="g4880"><path
           style="fill:#ffaaaa;fill-opacity:1;stroke:#6b3c41;stroke-width:10.81141376;stroke-linecap:round;stroke-linejoin:round;stroke-miterlimit:4;stroke-dasharray:none;stroke-opacity:1"
           inkscape:connector-curvature="0"
           id="path4882"
           d="m 43.358827,35.049 c -0.008,0 -0.017,0 -0.025,0 -2.809,0 -5.451,1.095 -7.446,3.085 -2.017,2.012 -3.128,4.691 -3.128,7.543 l 0,159.365 c 0,5.844 4.773,10.61 10.641,10.625 24.738,0.059 66.184003,5.215 94.776003,35.136 l 0,-166.78 c 0,-1.981 -0.506,-3.842 -1.461,-5.382 C 113.24883,40.849 68.152827,35.107 43.358827,35.049 Z" /><path
           style="fill:#ffaaaa;fill-opacity:1;stroke:#6b3c41;stroke-width:10.81141376;stroke-linecap:round;stroke-linejoin:round;stroke-miterlimit:4;stroke-dasharray:none;stroke-opacity:1"
           inkscape:connector-curvature="0"
           id="path4884"
           d="m 260.09383,205.042 0,-159.366 c 0,-2.852 -1.111,-5.531 -3.128,-7.543 -1.995,-1.99 -4.639,-3.085 -7.445,-3.085 -0.009,0 -0.018,0 -0.026,0 -24.793,0.059 -69.889,5.801 -93.357,43.593 -0.955,1.54 -1.46,3.401 -1.46,5.382 l 0,166.779 c 28.592,-29.921 70.038,-35.077 94.776,-35.136 5.867,-0.015 10.64,-4.781 10.64,-10.624 z" /><path
           style="fill:#ffccaa;fill-opacity:1;stroke:#6b3c41;stroke-width:10.81141376;stroke-linecap:round;stroke-linejoin:round;stroke-miterlimit:4;stroke-dasharray:none;stroke-opacity:1"
           inkscape:connector-curvature="0"
           id="path4886"
           d="m 286.373,72.837586 -7.706,0 0,133.241004 c 0,14.921 -12.157,27.088 -27.101,27.125 -20.983,0.05 -55.581,4.153 -80.084,27.344 42.378,-10.376 87.052,-3.631 112.512,2.171 3.179,0.724 6.464,-0.024 9.011,-2.054 2.538,-2.025 3.994,-5.052 3.994,-8.301 l 0,-168.900004 c 10e-4,-5.859 -4.767,-10.626 -10.626,-10.626 z" /><path
           style="fill:#ffccaa;fill-opacity:1;stroke:#6b3c41;stroke-width:10.81141376;stroke-linecap:round;stroke-linejoin:round;stroke-miterlimit:4;stroke-dasharray:none;stroke-opacity:1"
           inkscape:connector-curvature="0"
           id="path4888"
           d="m 15.740534,206.07858 0,-133.240994 -7.7059996,0 c -5.8580001,0 -10.6260001,4.767 -10.6260001,10.626 l 0,168.896994 c 0,3.25 1.456,6.276 3.994,8.301 2.545,2.029 5.827,2.78 9.0109997,2.054 25.46,-5.803 70.135,-12.547 112.511006,-2.171 -24.502003,-23.19 -59.100006,-27.292 -80.083006,-27.342 -14.943,-0.036 -27.101,-12.203 -27.101,-27.124 z" /></g></g></g><g
     id="g17"
     transform="translate(-239.33875,-231.70309)" /><g
     id="g19"
     transform="translate(-239.33875,-231.70309)" /><g
     id="g21"
     transform="translate(-239.33875,-231.70309)" /><g
     id="g23"
     transform="translate(-239.33875,-231.70309)" /><g
     id="g25"
     transform="translate(-239.33875,-231.70309)" /><g
     id="g27"
     transform="translate(-239.33875,-231.70309)" /><g
     id="g29"
     transform="translate(-239.33875,-231.70309)" /><g
     id="g31"
     transform="translate(-239.33875,-231.70309)" /><g
     id="g33"
     transform="translate(-239.33875,-231.70309)" /><g
     id="g35"
     transform="translate(-239.33875,-231.70309)" /><g
     id="g37"
     transform="translate(-239.33875,-231.70309)" /><g
     id="g39"
     transform="translate(-239.33875,-231.70309)" /><g
     id="g41"
     transform="translate(-239.33875,-231.70309)" /><g
     id="g43"
     transform="translate(-239.33875,-231.70309)" /><g
     id="g45"
     transform="translate(-239.33875,-231.70309)" /><path
     style="fill:none;fill-rule:evenodd;stroke:#ebf6f9;stroke-width:0.92812186;stroke-linecap:round;stroke-linejoin:round;stroke-miterlimit:4;stroke-dasharray:none;stroke-opacity:1"
     d="m 10.51447,8.1753532 c 0,0 4.30286,-0.097833 6.613378,2.1979068"
     id="path4876"
     inkscape:connector-curvature="0"
     sodipodi:nodetypes="cc" /><path
     inkscape:connector-curvature="0"
     id="path4878"
     d="m 10.428481,10.933696 c 0,0 4.446176,-0.298473 6.756693,2.255233"
     style="fill:none;fill-rule:evenodd;stroke:#ebf6f9;stroke-width:0.92812186;stroke-linecap:round;stroke-linejoin:round;stroke-miterlimit:4;stroke-dasharray:none;stroke-opacity:1"
     sodipodi:nodetypes="cc" /><rect
     style="opacity:1;fill:#000000;fill-opacity:0;fill-rule:evenodd;stroke:#000000;stroke-width:1.14213943;stroke-linecap:butt;stroke-linejoin:bevel;stroke-miterlimit:4;stroke-dasharray:none;stroke-dashoffset:0.47999996;stroke-opacity:0"
     id="rect4890"
     width="35.802032"
     height="30.117355"
     x="0.57106972"
     y="0.57106972" /><path
     sodipodi:nodetypes="cc"
     style="fill:none;fill-rule:evenodd;stroke:#ebf6f9;stroke-width:0.92812186;stroke-linecap:round;stroke-linejoin:round;stroke-miterlimit:4;stroke-dasharray:none;stroke-opacity:1"
     d="m 10.428481,13.633533 c 0,0 4.446176,-0.298472 6.756693,2.255233"
     id="path4896"
     inkscape:connector-curvature="0" /><path
     inkscape:connector-curvature="0"
     id="path4908"
     d="m 10.428481,16.495511 c 0,0 4.446176,-0.298472 6.756693,2.255233"
     style="fill:none;fill-rule:evenodd;stroke:#ebf6f9;stroke-width:0.92812186;stroke-linecap:round;stroke-linejoin:round;stroke-miterlimit:4;stroke-dasharray:none;stroke-opacity:1"
     sodipodi:nodetypes="cc" /><path
     sodipodi:nodetypes="cc"
     inkscape:connector-curvature="0"
     id="path4914"
     d="m 29.825642,8.1753532 c 0,0 -4.302861,-0.097833 -6.613379,2.1979068"
     style="fill:none;fill-rule:evenodd;stroke:#ebf6f9;stroke-width:0.92812186;stroke-linecap:round;stroke-linejoin:round;stroke-miterlimit:4;stroke-dasharray:none;stroke-opacity:1" /><path
     sodipodi:nodetypes="cc"
     style="fill:none;fill-rule:evenodd;stroke:#ebf6f9;stroke-width:0.92812186;stroke-linecap:round;stroke-linejoin:round;stroke-miterlimit:4;stroke-dasharray:none;stroke-opacity:1"
     d="m 29.911631,10.933696 c 0,0 -4.446177,-0.298473 -6.756694,2.255233"
     id="path4916"
     inkscape:connector-curvature="0" /><path
     inkscape:connector-curvature="0"
     id="path4918"
     d="m 29.911631,13.633533 c 0,0 -4.446177,-0.298472 -6.756694,2.255233"
     style="fill:none;fill-rule:evenodd;stroke:#ebf6f9;stroke-width:0.92812186;stroke-linecap:round;stroke-linejoin:round;stroke-miterlimit:4;stroke-dasharray:none;stroke-opacity:1"
     sodipodi:nodetypes="cc" /><path
     sodipodi:nodetypes="cc"
     style="fill:none;fill-rule:evenodd;stroke:#ebf6f9;stroke-width:0.92812186;stroke-linecap:round;stroke-linejoin:round;stroke-miterlimit:4;stroke-dasharray:none;stroke-opacity:1"
     d="m 29.911631,16.495511 c 0,0 -4.446177,-0.298472 -6.756694,2.255233"
     id="path4920"
     inkscape:connector-curvature="0" /></svg>