<?xml version="1.0" encoding="UTF-8" standalone="no"?>
<!-- Generator: Adobe Illustrator 18.0.0, SVG Export Plug-In . SVG Version: 6.00 Build 0)  -->

<svg
   xmlns:dc="http://purl.org/dc/elements/1.1/"
   xmlns:cc="http://creativecommons.org/ns#"
   xmlns:rdf="http://www.w3.org/1999/02/22-rdf-syntax-ns#"
   xmlns:svg="http://www.w3.org/2000/svg"
   xmlns="http://www.w3.org/2000/svg"
   xmlns:sodipodi="http://sodipodi.sourceforge.net/DTD/sodipodi-0.dtd"
   xmlns:inkscape="http://www.inkscape.org/namespaces/inkscape"
   version="1.1"
   id="Capa_1"
   x="0px"
   y="0px"
   viewBox="0 0 7.6171875 7.6171875"
   xml:space="preserve"
   width="65"
   height="65"
   inkscape:version="0.91 r"
   sodipodi:docname="rotation.svg"><metadata
     id="metadata97"><rdf:RDF><cc:Work
         rdf:about=""><dc:format>image/svg+xml</dc:format><dc:type
           rdf:resource="http://purl.org/dc/dcmitype/StillImage" /><dc:title></dc:title></cc:Work></rdf:RDF></metadata><defs
     id="defs95" /><sodipodi:namedview
     pagecolor="#ffffff"
     bordercolor="#666666"
     borderopacity="1"
     objecttolerance="10"
     gridtolerance="10"
     guidetolerance="10"
     inkscape:pageopacity="0"
     inkscape:pageshadow="2"
     inkscape:window-width="1678"
     inkscape:window-height="1031"
     id="namedview93"
     showgrid="true"
     fit-margin-top="0"
     fit-margin-left="0"
     fit-margin-right="0"
     fit-margin-bottom="0"
     inkscape:zoom="10.429825"
     inkscape:cx="27.164598"
     inkscape:cy="29.247318"
     inkscape:window-x="0"
     inkscape:window-y="18"
     inkscape:window-maximized="0"
     inkscape:current-layer="g3"
     showguides="false"><inkscape:grid
       type="xygrid"
       id="grid4578" /></sodipodi:namedview><g
     id="g3"
     transform="scale(0.12695312,0.12695312)"><g
       id="g4855"
       transform="translate(0,-0.03566169)"><rect
         style="opacity:1;fill:#ffccaa;fill-opacity:1;fill-rule:evenodd;stroke:#000000;stroke-width:0;stroke-linecap:round;stroke-linejoin:round;stroke-miterlimit:4;stroke-dasharray:none;stroke-dashoffset:0;stroke-opacity:0"
         id="rect4398"
         width="29.968836"
         height="19.078543"
         x="2.4399061"
         y="20.467167" /><rect
         y="20.467167"
         x="28.598967"
         height="19.078543"
         width="28.967533"
         id="rect4178"
         style="opacity:1;fill:#ffccaa;fill-opacity:1;fill-rule:evenodd;stroke:#000000;stroke-width:0;stroke-linecap:round;stroke-linejoin:round;stroke-miterlimit:4;stroke-dasharray:none;stroke-dashoffset:0;stroke-opacity:0" /><circle
         style="fill:#6b3c41;fill-opacity:1;stroke:#6b3c41;stroke-width:0;stroke-miterlimit:4;stroke-dasharray:none;stroke-opacity:1"
         id="circle5"
         r="1"
         cy="19"
         cx="8.1999998" /><circle
         style="fill:#6b3c41;fill-opacity:1;stroke:#6b3c41;stroke-width:0;stroke-miterlimit:4;stroke-dasharray:none;stroke-opacity:1"
         id="circle7"
         r="1"
         cy="19"
         cx="15.399" /><circle
         style="fill:#6b3c41;fill-opacity:1;stroke:#6b3c41;stroke-width:0;stroke-miterlimit:4;stroke-dasharray:none;stroke-opacity:1"
         id="circle9"
         r="1"
         cy="19"
         cx="11.8" /><circle
         style="fill:#6b3c41;fill-opacity:1;stroke:#6b3c41;stroke-width:0;stroke-miterlimit:4;stroke-dasharray:none;stroke-opacity:1"
         id="circle11"
         r="1"
         cy="19"
         cx="4.5999999" /><path
         style="fill:#6b3c41;fill-opacity:1;stroke:#6b3c41;stroke-width:0;stroke-miterlimit:4;stroke-dasharray:none;stroke-opacity:1"
         inkscape:connector-curvature="0"
         id="path13"
         d="M 1,20 C 1.27,20 1.52,19.89 1.71,19.71 1.89,19.52 2,19.26 2,19 2,18.74 1.89,18.48 1.71,18.29 1.34,17.92 0.66,17.92 0.29,18.29 0.109,18.48 0,18.73 0,19 0,19.27 0.109,19.52 0.29,19.71 0.479,19.89 0.729,20 1,20 Z" /><path
         style="fill:#6b3c41;fill-opacity:1;stroke:#6b3c41;stroke-width:0;stroke-miterlimit:4;stroke-dasharray:none;stroke-opacity:1"
         inkscape:connector-curvature="0"
         id="path15"
         d="m 1,38.33 c 0.55,0 1,-0.44 1,-1 0,-0.55 -0.45,-1 -1,-1 -0.55,0 -1,0.45 -1,1 0,0.56 0.45,1 1,1 z" /><path
         style="fill:#6b3c41;fill-opacity:1;stroke:#6b3c41;stroke-width:0;stroke-miterlimit:4;stroke-dasharray:none;stroke-opacity:1"
         inkscape:connector-curvature="0"
         id="path17"
         d="m 1,34.67 c 0.55,0 1,-0.45 1,-1 0,-0.56 -0.45,-1 -1,-1 -0.55,0 -1,0.44 -1,1 0,0.55 0.45,1 1,1 z" /><path
         style="fill:#6b3c41;fill-opacity:1;stroke:#6b3c41;stroke-width:0;stroke-miterlimit:4;stroke-dasharray:none;stroke-opacity:1"
         inkscape:connector-curvature="0"
         id="path19"
         d="m 1,23.67 c 0.55,0 1,-0.45 1,-1 0,-0.56 -0.45,-1 -1,-1 -0.55,0 -1,0.44 -1,1 0,0.55 0.45,1 1,1 z" /><path
         style="fill:#6b3c41;fill-opacity:1;stroke:#6b3c41;stroke-width:0;stroke-miterlimit:4;stroke-dasharray:none;stroke-opacity:1"
         inkscape:connector-curvature="0"
         id="path21"
         d="m 1,27.33 c 0.55,0 1,-0.44 1,-1 0,-0.55 -0.45,-1 -1,-1 -0.55,0 -1,0.45 -1,1 0,0.56 0.45,1 1,1 z" /><circle
         style="fill:#6b3c41;fill-opacity:1;stroke:#6b3c41;stroke-width:0;stroke-miterlimit:4;stroke-dasharray:none;stroke-opacity:1"
         id="circle23"
         r="1"
         cy="30"
         cx="1" /><path
         style="fill:#6b3c41;fill-opacity:1;stroke:#6b3c41;stroke-width:0;stroke-miterlimit:4;stroke-dasharray:none;stroke-opacity:1"
         inkscape:connector-curvature="0"
         id="path25"
         d="M 2,41 C 2,40.74 1.89,40.48 1.71,40.29 1.34,39.92 0.66,39.92 0.29,40.29 0.109,40.48 0,40.74 0,41 0,41.27 0.109,41.52 0.29,41.7 0.479,41.89 0.729,42 1,42 1.27,42 1.52,41.89 1.71,41.71 1.89,41.52 2,41.26 2,41 Z" /><circle
         style="fill:#6b3c41;fill-opacity:1;stroke:#6b3c41;stroke-width:0;stroke-miterlimit:4;stroke-dasharray:none;stroke-opacity:1"
         id="circle27"
         r="1"
         cy="41"
         cx="8.1999998" /><circle
         style="fill:#6b3c41;fill-opacity:1;stroke:#6b3c41;stroke-width:0;stroke-miterlimit:4;stroke-dasharray:none;stroke-opacity:1"
         id="circle29"
         r="1"
         cy="41"
         cx="4.5999999" /><circle
         style="fill:#6b3c41;fill-opacity:1;stroke:#6b3c41;stroke-width:0;stroke-miterlimit:4;stroke-dasharray:none;stroke-opacity:1"
         id="circle31"
         r="1"
         cy="41"
         cx="15.399" /><circle
         style="fill:#6b3c41;fill-opacity:1;stroke:#6b3c41;stroke-width:0;stroke-miterlimit:4;stroke-dasharray:none;stroke-opacity:1"
         id="circle33"
         r="1"
         cy="41"
         cx="11.8" /><circle
         style="fill:#6b3c41;fill-opacity:1;stroke:#6b3c41;stroke-width:0;stroke-miterlimit:4;stroke-dasharray:none;stroke-opacity:1"
         id="circle35"
         r="1"
         cy="41"
         cx="54.75" /><circle
         style="fill:#6b3c41;fill-opacity:1;stroke:#6b3c41;stroke-width:0;stroke-miterlimit:4;stroke-dasharray:none;stroke-opacity:1"
         id="circle37"
         r="1"
         cy="41"
         cx="50.5" /><circle
         style="fill:#6b3c41;fill-opacity:1;stroke:#6b3c41;stroke-width:0;stroke-miterlimit:4;stroke-dasharray:none;stroke-opacity:1"
         id="circle39"
         r="1"
         cy="41"
         cx="46.25" /><path
         style="fill:#6b3c41;fill-opacity:1;stroke:#6b3c41;stroke-width:0;stroke-miterlimit:4;stroke-dasharray:none;stroke-opacity:1"
         inkscape:connector-curvature="0"
         id="path41"
         d="M 58.29,40.29 C 58.109,40.48 58,40.74 58,41 c 0,0.26 0.109,0.52 0.29,0.71 0.189,0.18 0.45,0.29 0.71,0.29 0.27,0 0.52,-0.11 0.71,-0.29 C 59.89,41.52 60,41.26 60,41 c 0,-0.26 -0.11,-0.52 -0.29,-0.71 -0.37,-0.37 -1.05,-0.37 -1.42,0 z" /><path
         style="fill:#6b3c41;fill-opacity:1;stroke:#6b3c41;stroke-width:0;stroke-miterlimit:4;stroke-dasharray:none;stroke-opacity:1"
         inkscape:connector-curvature="0"
         id="path43"
         d="m 59,32.67 c -0.55,0 -1,0.44 -1,1 0,0.55 0.45,1 1,1 0.55,0 1,-0.45 1,-1 0,-0.56 -0.45,-1 -1,-1 z" /><circle
         style="fill:#6b3c41;fill-opacity:1;stroke:#6b3c41;stroke-width:0;stroke-miterlimit:4;stroke-dasharray:none;stroke-opacity:1"
         id="circle45"
         r="1"
         cy="30"
         cx="59" /><path
         style="fill:#6b3c41;fill-opacity:1;stroke:#6b3c41;stroke-width:0;stroke-miterlimit:4;stroke-dasharray:none;stroke-opacity:1"
         inkscape:connector-curvature="0"
         id="path47"
         d="m 59,21.67 c -0.55,0 -1,0.44 -1,1 0,0.55 0.45,1 1,1 0.55,0 1,-0.45 1,-1 0,-0.56 -0.45,-1 -1,-1 z" /><path
         style="fill:#6b3c41;fill-opacity:1;stroke:#6b3c41;stroke-width:0;stroke-miterlimit:4;stroke-dasharray:none;stroke-opacity:1"
         inkscape:connector-curvature="0"
         id="path49"
         d="m 59,36.33 c -0.55,0 -1,0.45 -1,1 0,0.56 0.45,1 1,1 0.55,0 1,-0.44 1,-1 0,-0.55 -0.45,-1 -1,-1 z" /><path
         style="fill:#6b3c41;fill-opacity:1;stroke:#6b3c41;stroke-width:0;stroke-miterlimit:4;stroke-dasharray:none;stroke-opacity:1"
         inkscape:connector-curvature="0"
         id="path51"
         d="m 59,25.33 c -0.55,0 -1,0.45 -1,1 0,0.56 0.45,1 1,1 0.55,0 1,-0.44 1,-1 0,-0.55 -0.45,-1 -1,-1 z" /><path
         style="fill:#6b3c41;fill-opacity:1;stroke:#6b3c41;stroke-width:0;stroke-miterlimit:4;stroke-dasharray:none;stroke-opacity:1"
         inkscape:connector-curvature="0"
         id="path53"
         d="M 58.29,18.29 C 58.109,18.48 58,18.74 58,19 c 0,0.26 0.109,0.52 0.29,0.71 0.189,0.18 0.45,0.29 0.71,0.29 0.26,0 0.52,-0.11 0.71,-0.29 C 59.89,19.52 60,19.26 60,19 c 0,-0.26 -0.11,-0.52 -0.29,-0.71 -0.38,-0.37 -1.04,-0.37 -1.42,0 z" /><circle
         style="fill:#6b3c41;fill-opacity:1;stroke:#6b3c41;stroke-width:0;stroke-miterlimit:4;stroke-dasharray:none;stroke-opacity:1"
         id="circle55"
         r="1"
         cy="19"
         cx="50.5" /><circle
         style="fill:#6b3c41;fill-opacity:1;stroke:#6b3c41;stroke-width:0;stroke-miterlimit:4;stroke-dasharray:none;stroke-opacity:1"
         id="circle57"
         r="1"
         cy="19"
         cx="54.75" /><circle
         style="fill:#6b3c41;fill-opacity:1;stroke:#6b3c41;stroke-width:0;stroke-miterlimit:4;stroke-dasharray:none;stroke-opacity:1"
         id="circle59"
         r="1"
         cy="19"
         cx="46.25" /></g><path
       style="opacity:1;fill:#ffaaaa;fill-opacity:1;fill-rule:evenodd;stroke:#ffaaaa;stroke-width:1.32;stroke-linecap:butt;stroke-linejoin:bevel;stroke-miterlimit:4;stroke-dasharray:none;stroke-dashoffset:0;stroke-opacity:1"
       d="m 21.786,32.461366 0,-30.3058642 11.288136,0.034677 11.288135,0.034677 0.0342,30.2711872 0.0342,30.271186 -11.322333,0 -11.322333,0 0,-30.305864 z"
       id="path4183"
       inkscape:connector-curvature="0"
       transform="scale(0.92307691,0.92307691)" /><path
       d="m 54,14 0,0 -2.4,-1.8 c -0.44,-0.333 -1.068,-0.242 -1.399,0.2 -0.332,0.442 -0.242,1.069 0.2,1.4 l 4,3 c 0.019,0.014 0.042,0.019 0.062,0.032 0.031,0.02 0.057,0.046 0.091,0.063 0.017,0.008 0.036,0.005 0.052,0.012 0.126,0.055 0.258,0.093 0.393,0.093 0,0 0,0 0,0 l 0,0 c 0.134,0 0.264,-0.037 0.389,-0.09 0.035,-0.015 0.066,-0.033 0.1,-0.052 0.036,-0.021 0.077,-0.032 0.111,-0.058 l 4,-3 c 0.442,-0.331 0.532,-0.958 0.2,-1.4 C 59.468,11.958 58.841,11.867 58.4,12.2 L 56,14 C 56,6.618 50.253,0.567 43,0.051 L 43,0 18,0 18,57.949 C 11.85,57.438 7,52.279 7,46 l 0,0 2.4,1.8 c 0.18,0.135 0.39,0.2 0.599,0.2 0.305,0 0.604,-0.138 0.801,-0.4 0.332,-0.442 0.242,-1.069 -0.2,-1.4 l -4,-3 C 6.585,43.189 6.567,43.187 6.552,43.177 6.517,43.153 6.486,43.125 6.448,43.105 6.399,43.081 6.346,43.07 6.295,43.054 6.268,43.046 6.243,43.034 6.216,43.028 6.106,43.004 5.994,42.998 5.883,43.011 5.856,43.014 5.832,43.024 5.805,43.029 5.717,43.047 5.634,43.076 5.553,43.117 5.522,43.132 5.494,43.147 5.465,43.166 5.443,43.179 5.42,43.186 5.4,43.2 l -4,3 c -0.442,0.331 -0.532,0.958 -0.2,1.4 0.331,0.441 0.957,0.532 1.399,0.2 L 5,46 c 0,7.382 5.747,13.433 13,13.949 L 18,60 43,60 43,2.051 C 49.15,2.562 54,7.721 54,14 Z M 41,58 20,58 20,2 41,2 41,58 Z"
       id="path61"
       inkscape:connector-curvature="0"
       style="fill:#6b3c41;fill-opacity:1;stroke:#000000;stroke-opacity:0;stroke-width:0.99969229;stroke-miterlimit:4;stroke-dasharray:none;stroke-linejoin:round;stroke-linecap:round" /><rect
       y="76.039528"
       x="-53.00729"
       height="19.078541"
       width="55.126591"
       id="rect4179"
       style="opacity:1;fill:#ebf6f9;fill-opacity:1;fill-rule:evenodd;stroke:#000000;stroke-width:0;stroke-linecap:round;stroke-linejoin:round;stroke-miterlimit:4;stroke-dasharray:none;stroke-dashoffset:0;stroke-opacity:0" /><g
       id="g4816"
       transform="matrix(0.69567132,0.71836023,-0.71836023,0.69567132,30.250033,-12.939074)"><path
         inkscape:transform-center-y="-0.3654661"
         inkscape:connector-curvature="0"
         id="path4580"
         d="m 31.036811,25.5161 0,8.213599"
         style="fill:none;fill-rule:evenodd;stroke:#ebf6f9;stroke-width:2.30769229;stroke-linecap:round;stroke-linejoin:round;stroke-miterlimit:4;stroke-dasharray:none;stroke-opacity:1" /><path
         inkscape:transform-center-y="-0.36546617"
         inkscape:connector-curvature="0"
         id="path4582"
         d="m 26.930011,29.622899 8.2136,0"
         style="fill:none;fill-rule:evenodd;stroke:#ebf6f9;stroke-width:2.30769229;stroke-linecap:round;stroke-linejoin:round;stroke-miterlimit:4;stroke-dasharray:none;stroke-opacity:1" /></g></g><g
     id="g63"
     transform="translate(0,-52.382813)" /><g
     id="g65"
     transform="translate(0,-52.382813)" /><g
     id="g67"
     transform="translate(0,-52.382813)" /><g
     id="g69"
     transform="translate(0,-52.382813)" /><g
     id="g71"
     transform="translate(0,-52.382813)" /><g
     id="g73"
     transform="translate(0,-52.382813)" /><g
     id="g75"
     transform="translate(0,-52.382813)" /><g
     id="g77"
     transform="translate(0,-52.382813)" /><g
     id="g79"
     transform="translate(0,-52.382813)" /><g
     id="g81"
     transform="translate(0,-52.382813)" /><g
     id="g83"
     transform="translate(0,-52.382813)" /><g
     id="g85"
     transform="translate(0,-52.382813)" /><g
     id="g87"
     transform="translate(0,-52.382813)" /><g
     id="g89"
     transform="translate(0,-52.382813)" /><g
     id="g91"
     transform="translate(0,-52.382813)" /></svg>