<?xml version="1.0" encoding="UTF-8" standalone="no"?>
<!-- Created with Inkscape (http://www.inkscape.org/) -->

<svg
   xmlns:ns0="http://www.iki.fi/pav/software/textext/"
   xmlns:dc="http://purl.org/dc/elements/1.1/"
   xmlns:cc="http://creativecommons.org/ns#"
   xmlns:rdf="http://www.w3.org/1999/02/22-rdf-syntax-ns#"
   xmlns:svg="http://www.w3.org/2000/svg"
   xmlns="http://www.w3.org/2000/svg"
   xmlns:sodipodi="http://sodipodi.sourceforge.net/DTD/sodipodi-0.dtd"
   xmlns:inkscape="http://www.inkscape.org/namespaces/inkscape"
   width="177.91278mm"
   height="52.301411mm"
   viewBox="0 0 630.39961 185.31996"
   id="svg7890"
   version="1.1"
   inkscape:version="0.91 r"
   sodipodi:docname="slice_clone_owned.svg">
  <sodipodi:namedview
     id="base"
     pagecolor="#ffffff"
     bordercolor="#666666"
     borderopacity="1.0"
     inkscape:pageopacity="0.0"
     inkscape:pageshadow="2"
     inkscape:zoom="3.959798"
     inkscape:cx="455.35884"
     inkscape:cy="114.49155"
     inkscape:document-units="px"
     inkscape:current-layer="layer1"
     showgrid="true"
     fit-margin-top="0"
     fit-margin-left="0"
     fit-margin-right="0"
     fit-margin-bottom="0"
     inkscape:window-width="1678"
     inkscape:window-height="1031"
     inkscape:window-x="0"
     inkscape:window-y="18"
     inkscape:window-maximized="0">
    <inkscape:grid
       type="xygrid"
       id="grid9274"
       originx="-240.70192"
       originy="-593.07497" />
  </sodipodi:namedview>
  <defs
     id="defs7892">
    <marker
       inkscape:stockid="Arrow2Mend"
       orient="auto"
       refY="0"
       refX="0"
       id="marker5339"
       style="overflow:visible"
       inkscape:isstock="true">
      <path
         id="path5341"
         style="fill:#bd447f;fill-opacity:1;fill-rule:evenodd;stroke:#bd447f;stroke-width:0.625;stroke-linejoin:round;stroke-opacity:1"
         d="M 8.7185878,4.0337352 -2.2072895,0.01601326 8.7185884,-4.0017078 c -1.7454984,2.3720609 -1.7354408,5.6174519 -6e-7,8.035443 z"
         transform="scale(-0.6,-0.6)"
         inkscape:connector-curvature="0" />
    </marker>
    <marker
       inkscape:isstock="true"
       style="overflow:visible"
       id="marker5015"
       refX="0"
       refY="0"
       orient="auto"
       inkscape:stockid="Arrow2Mend"
       inkscape:collect="always">
      <path
         inkscape:connector-curvature="0"
         transform="scale(-0.6,-0.6)"
         d="M 8.7185878,4.0337352 -2.2072895,0.01601326 8.7185884,-4.0017078 c -1.7454984,2.3720609 -1.7354408,5.6174519 -6e-7,8.035443 z"
         style="fill:#bd447f;fill-opacity:1;fill-rule:evenodd;stroke:#bd447f;stroke-width:0.625;stroke-linejoin:round;stroke-opacity:1"
         id="path5017" />
    </marker>
    <marker
       inkscape:stockid="Arrow2Mend"
       orient="auto"
       refY="0"
       refX="0"
       id="Arrow2Mend"
       style="overflow:visible"
       inkscape:isstock="true"
       inkscape:collect="always">
      <path
         id="path4640"
         style="fill:#4d4d4d;fill-opacity:1;fill-rule:evenodd;stroke:#4d4d4d;stroke-width:0.625;stroke-linejoin:round;stroke-opacity:1"
         d="M 8.7185878,4.0337352 -2.2072895,0.01601326 8.7185884,-4.0017078 c -1.7454984,2.3720609 -1.7354408,5.6174519 -6e-7,8.035443 z"
         transform="scale(-0.6,-0.6)"
         inkscape:connector-curvature="0" />
    </marker>
  </defs>
  <metadata
     id="metadata7895">
    <rdf:RDF>
      <cc:Work
         rdf:about="">
        <dc:format>image/svg+xml</dc:format>
        <dc:type
           rdf:resource="http://purl.org/dc/dcmitype/StillImage" />
        <dc:title></dc:title>
      </cc:Work>
    </rdf:RDF>
  </metadata>
  <g
     inkscape:label="Layer 1"
     inkscape:groupmode="layer"
     id="layer1"
     transform="translate(-240.70191,-273.96728)">
    <text
       sodipodi:linespacing="125%"
       id="text10876"
       y="431.23727"
       x="240.7157"
       style="font-style:normal;font-weight:normal;font-size:40.34812164px;line-height:125%;font-family:Sans;letter-spacing:0px;word-spacing:0px;fill:#bd447f;fill-opacity:1;stroke:none;stroke-width:1px;stroke-linecap:butt;stroke-linejoin:miter;stroke-opacity:1"
       xml:space="preserve"><tspan
         style="font-style:normal;font-variant:normal;font-weight:normal;font-stretch:normal;font-size:16.1392498px;font-family:sans-serif;-inkscape-font-specification:sans-serif;fill:#bd447f;fill-opacity:1"
         y="431.23727"
         x="240.7157"
         id="tspan10878"
         sodipodi:role="line">.fixed_slice_with_step::&lt;U2, U2&gt;((1, 0), (1, 2))</tspan></text>
    <g
       id="g4535"
       transform="translate(12.857143,1.4336285)">
      <rect
         y="310.26044"
         x="448.77454"
         height="32.891872"
         width="61.314552"
         id="rect10944"
         style="opacity:1;fill:#ffe5d7;fill-opacity:1;fill-rule:evenodd;stroke:#000000;stroke-width:1.61669612;stroke-linecap:butt;stroke-linejoin:round;stroke-miterlimit:4;stroke-dasharray:none;stroke-dashoffset:0;stroke-opacity:0" />
      <rect
         style="opacity:1;fill:#ffe5d7;fill-opacity:1;fill-rule:evenodd;stroke:#000000;stroke-width:1.54000723;stroke-linecap:butt;stroke-linejoin:round;stroke-miterlimit:4;stroke-dasharray:none;stroke-dashoffset:0;stroke-opacity:0"
         id="rect10942"
         width="61.391239"
         height="29.808117"
         x="449.80765"
         y="371.78061" />
      <rect
         y="372.06696"
         x="241.98428"
         height="32.518433"
         width="61.323639"
         id="rect10940"
         style="opacity:1;fill:#ffe5d7;fill-opacity:1;fill-rule:evenodd;stroke:#000000;stroke-width:1.6076113;stroke-linecap:butt;stroke-linejoin:round;stroke-miterlimit:4;stroke-dasharray:none;stroke-dashoffset:0;stroke-opacity:0" />
      <rect
         style="opacity:1;fill:#ffe5d7;fill-opacity:1;fill-rule:evenodd;stroke:#000000;stroke-width:1.61669612;stroke-linecap:butt;stroke-linejoin:round;stroke-miterlimit:4;stroke-dasharray:none;stroke-dashoffset:0;stroke-opacity:0"
         id="rect10798"
         width="61.314552"
         height="32.891872"
         x="241.98883"
         y="310.26044" />
      <path
         sodipodi:nodetypes="cccc"
         inkscape:connector-curvature="0"
         id="path10800"
         d="m 261.33963,273.622 -19.54937,0 0,132.11408 19.54937,0"
         style="fill:none;fill-rule:evenodd;stroke:#4d4d4d;stroke-width:2.17669225;stroke-linecap:butt;stroke-linejoin:round;stroke-miterlimit:4;stroke-dasharray:none;stroke-opacity:1" />
      <g
         style="fill:#4d4d4d;fill-opacity:1"
         id="g10802"
         transform="translate(-16.5477,219.73761)">
        <path
           id="path10804"
           d="m 268.82516,75.215789 0,0.0278 -0.0278,0.0278 0,0.0556 0,0.0278 -0.0278,0.111202 -0.0278,0.0834 -0.0278,0.0834 0,0.0834 -0.0278,0.0834 -0.0278,0.111202 0,0.0278 0,0.0556 -0.0278,0.0278 0,0.0278 0,0.0556 -0.0278,0.0278 0,0.0278 0,0.0556 0,0.0278 -0.0278,0.0278 0,0.0278 0,0.0278 0,0 0,0.0278 0,0.0278 0,0 c 0,0.500409 0.3892,0.750614 0.80621,0.750614 0.33361,0 0.83402,-0.222404 1.02862,-0.778415 0.0278,-0.0556 0.36141,-1.362227 0.50041,-2.02944 l 0.61161,-2.50205 c 0.16681,-0.611612 0.33361,-1.195423 0.47261,-1.834836 0.11121,-0.472609 0.33361,-1.278825 0.36141,-1.390027 0.41701,-0.861817 1.89044,-3.363867 4.50369,-3.363867 1.25102,0 1.50123,1.02862 1.50123,1.918238 0,0.695014 -0.1946,1.473429 -0.41701,2.307446 l -0.77841,3.197063 -0.55602,2.112842 c -0.1112,0.52821 -0.3614,1.473429 -0.3614,1.612432 0,0.500409 0.38921,0.750614 0.80621,0.750614 0.86182,0 1.02862,-0.695013 1.25103,-1.584631 0.38921,-1.52903 1.41783,-5.56011 1.66803,-6.644331 0.0834,-0.361408 1.52903,-3.669673 4.55929,-3.669673 1.19543,0 1.50123,0.945219 1.50123,1.918238 0,1.584631 -1.16762,4.726093 -1.72363,6.199523 -0.25021,0.667213 -0.36141,0.973019 -0.36141,1.52903 0,1.278825 0.97302,2.251844 2.27965,2.251844 2.58545,0 3.61407,-4.031079 3.61407,-4.253484 0,-0.278005 -0.25021,-0.278005 -0.33361,-0.278005 -0.27801,0 -0.27801,0.0834 -0.41701,0.50041 -0.41701,1.473429 -1.30662,3.419467 -2.80785,3.419467 -0.47261,0 -0.66722,-0.278005 -0.66722,-0.917418 0,-0.667213 0.25021,-1.334426 0.50041,-1.946038 0.52821,-1.445629 1.66804,-4.503689 1.66804,-6.088321 0,-1.779235 -1.08423,-2.946858 -3.16927,-2.946858 -2.08504,0 -3.47507,1.223224 -4.50369,2.668853 -0.0278,-0.361407 -0.1112,-1.278826 -0.88961,-1.946039 -0.69502,-0.583811 -1.58463,-0.722814 -2.27965,-0.722814 -2.47425,0 -3.83647,1.779235 -4.30908,2.418648 -0.13901,-1.584632 -1.30663,-2.418648 -2.52985,-2.418648 -1.27883,0 -1.80704,1.084221 -2.05724,1.584631 -0.50041,0.945219 -0.86182,2.585451 -0.86182,2.668853 0,0.278006 0.278,0.278006 0.33361,0.278006 0.278,0 0.3058,-0.0278 0.4726,-0.639413 0.47261,-1.946039 1.02862,-3.280465 2.02944,-3.280465 0.44481,0 0.83402,0.222404 0.83402,1.278825 0,0.556011 -0.0834,0.861817 -0.41701,2.307446 z"
           inkscape:connector-curvature="0"
           style="font-style:normal;font-variant:normal;font-weight:normal;font-stretch:normal;letter-spacing:normal;word-spacing:normal;text-anchor:start;fill:#4d4d4d;fill-opacity:1;fill-rule:evenodd;stroke:#000000;stroke-width:0;stroke-linecap:butt;stroke-linejoin:miter;stroke-miterlimit:10.43299961;stroke-dasharray:none;stroke-dashoffset:0;stroke-opacity:1" />
        <path
           id="path10806"
           d="m 297.18172,68.682659 0,-0.0278 0,-0.0278 0,0 0,-0.0278 0,-0.0278 0,-0.0278 0,0 0,-0.0278 0,-0.0278 0,0 0,-0.0278 0,-0.0278 0,0 0,-0.0278 0,0 0,-0.0278 0,0 0,-0.0278 -0.0278,-0.0278 0,0 0,-0.0278 0,-0.0278 -0.0278,0 0,-0.0278 -0.0278,-0.0278 0,0 -0.0278,0 -0.0278,-0.0278 0,0 -0.0278,0 -0.0278,0 -0.0278,-0.0278 0,0 -0.0278,0 -0.0278,0 0,0 -0.0278,0 0,0 -0.0278,0 -0.0278,0 0,0 -0.0278,0 -0.0278,0 0,0 -0.0278,0 -0.0278,0 -0.0278,0 -0.0278,0 -0.0278,0 0,0 c -1.25102,1.223224 -3.00246,1.223224 -3.80867,1.223224 l 0,0.695014 c 0.4726,0 1.75143,0 2.80785,-0.528211 l 0,9.869196 c 0,0.611612 0,0.889617 -1.94604,0.889617 l -0.72281,0 0,0.695014 c 0.3336,-0.0278 2.72445,-0.0834 3.44727,-0.0834 0.58381,0 3.03026,0.0556 3.47507,0.0834 l 0,-0.695014 -0.75062,0 c -1.94604,0 -1.94604,-0.278005 -1.94604,-0.889617 z"
           inkscape:connector-curvature="0"
           style="font-style:normal;font-variant:normal;font-weight:normal;font-stretch:normal;letter-spacing:normal;word-spacing:normal;text-anchor:start;fill:#4d4d4d;fill-opacity:1;fill-rule:evenodd;stroke:#000000;stroke-width:0;stroke-linecap:butt;stroke-linejoin:miter;stroke-miterlimit:10.43299961;stroke-dasharray:none;stroke-dashoffset:0;stroke-opacity:1" />
        <path
           id="path10808"
           d="m 308.24634,68.682659 0,-0.0278 0,-0.0278 0,0 0,-0.0278 0,-0.0278 0,-0.0278 0,0 0,-0.0278 -0.0278,-0.0278 0,0 0,-0.0278 0,-0.0278 0,0 0,-0.0278 0,0 0,-0.0278 0,0 0,-0.0278 0,-0.0278 -0.0278,0 0,-0.0278 0,-0.0278 -0.0278,0 0,-0.0278 -0.0278,-0.0278 0,0 -0.0278,0 0,-0.0278 -0.0278,0 -0.0278,0 -0.0278,0 -0.0278,-0.0278 0,0 -0.0278,0 0,0 -0.0278,0 -0.0278,0 0,0 -0.0278,0 0,0 -0.0278,0 -0.0278,0 -0.0278,0 0,0 -0.0278,0 -0.0278,0 -0.0278,0 -0.0278,0 0,0 -0.0278,0 c -1.25103,1.223224 -3.00246,1.223224 -3.80868,1.223224 l 0,0.695014 c 0.47261,0 1.75144,0 2.80786,-0.528211 l 0,9.869196 c 0,0.611612 0,0.889617 -1.91824,0.889617 l -0.75061,0 0,0.695014 c 0.3614,-0.0278 2.72445,-0.0834 3.44726,-0.0834 0.61162,0 3.03026,0.0556 3.47507,0.0834 l 0,-0.695014 -0.75061,0 c -1.91824,0 -1.91824,-0.278005 -1.91824,-0.889617 z"
           inkscape:connector-curvature="0"
           style="font-style:normal;font-variant:normal;font-weight:normal;font-stretch:normal;letter-spacing:normal;word-spacing:normal;text-anchor:start;fill:#4d4d4d;fill-opacity:1;fill-rule:evenodd;stroke:#000000;stroke-width:0;stroke-linecap:butt;stroke-linejoin:miter;stroke-miterlimit:10.43299961;stroke-dasharray:none;stroke-dashoffset:0;stroke-opacity:1" />
      </g>
      <g
         style="fill:#4d4d4d;fill-opacity:1"
         id="g10810"
         transform="translate(-25.21327,219.73761)">
        <path
           id="path10812"
           d="m 344.30365,75.215789 0,0.0278 -0.0278,0.0278 0,0.0556 0,0.0278 -0.0278,0.111202 -0.0278,0.0834 0,0.0834 -0.0278,0.0834 -0.0278,0.0834 -0.0278,0.111202 0,0.0278 0,0.0556 -0.0278,0.0278 0,0.0278 0,0.0556 -0.0278,0.0278 0,0.0278 0,0.0556 0,0.0278 0,0.0278 -0.0278,0.0278 0,0.0278 0,0 0,0.0278 0,0.0278 0,0 c 0,0.500409 0.38921,0.750614 0.80622,0.750614 0.3336,0 0.83401,-0.222404 1.02862,-0.778415 0.0278,-0.0556 0.3614,-1.362227 0.52821,-2.02944 l 0.61161,-2.50205 c 0.139,-0.611612 0.3058,-1.195423 0.44481,-1.834836 0.1112,-0.472609 0.3336,-1.278825 0.3614,-1.390027 0.41701,-0.861817 1.89044,-3.363867 4.50369,-3.363867 1.25103,0 1.50123,1.02862 1.50123,1.918238 0,0.695014 -0.1946,1.473429 -0.41701,2.307446 l -0.77841,3.197063 -0.55601,2.112842 c -0.1112,0.52821 -0.33361,1.473429 -0.33361,1.612432 0,0.500409 0.38921,0.750614 0.77842,0.750614 0.86181,0 1.02862,-0.695013 1.25102,-1.584631 0.38921,-1.52903 1.41783,-5.56011 1.66803,-6.644331 0.0834,-0.361408 1.55684,-3.669673 4.55929,-3.669673 1.19543,0 1.50123,0.945219 1.50123,1.918238 0,1.584631 -1.16762,4.726093 -1.72363,6.199523 -0.2502,0.667213 -0.36141,0.973019 -0.36141,1.52903 0,1.278825 0.97302,2.251844 2.27965,2.251844 2.58545,0 3.61407,-4.031079 3.61407,-4.253484 0,-0.278005 -0.2502,-0.278005 -0.33361,-0.278005 -0.278,0 -0.278,0.0834 -0.417,0.50041 -0.41701,1.473429 -1.27883,3.419467 -2.80786,3.419467 -0.47261,0 -0.66721,-0.278005 -0.66721,-0.917418 0,-0.667213 0.2502,-1.334426 0.50041,-1.946038 0.52821,-1.445629 1.69583,-4.503689 1.69583,-6.088321 0,-1.779235 -1.11202,-2.946858 -3.19706,-2.946858 -2.08504,0 -3.47507,1.223224 -4.50369,2.668853 -0.0278,-0.361407 -0.1112,-1.278826 -0.88962,-1.946039 -0.69501,-0.583811 -1.58463,-0.722814 -2.27965,-0.722814 -2.47424,0 -3.83647,1.779235 -4.30908,2.418648 -0.139,-1.584632 -1.27883,-2.418648 -2.52985,-2.418648 -1.27883,0 -1.80704,1.084221 -2.05724,1.584631 -0.50041,0.945219 -0.86182,2.585451 -0.86182,2.668853 0,0.278006 0.27801,0.278006 0.33361,0.278006 0.278,0 0.3058,-0.0278 0.47261,-0.639413 0.47261,-1.946039 1.02862,-3.280465 2.02944,-3.280465 0.44481,0 0.86181,0.222404 0.86181,1.278825 0,0.556011 -0.0834,0.861817 -0.4448,2.307446 z"
           inkscape:connector-curvature="0"
           style="font-style:normal;font-variant:normal;font-weight:normal;font-stretch:normal;letter-spacing:normal;word-spacing:normal;text-anchor:start;fill:#4d4d4d;fill-opacity:1;fill-rule:evenodd;stroke:#000000;stroke-width:0;stroke-linecap:butt;stroke-linejoin:miter;stroke-miterlimit:10.43299961;stroke-dasharray:none;stroke-dashoffset:0;stroke-opacity:1" />
        <path
           id="path10814"
           d="m 372.66022,68.682659 0,-0.0278 0,-0.0278 0,0 0,-0.0278 0,-0.0278 0,-0.0278 0,0 0,-0.0278 0,-0.0278 0,0 0,-0.0278 0,-0.0278 0,0 0,-0.0278 0,0 0,-0.0278 0,0 0,-0.0278 -0.0278,-0.0278 0,0 0,-0.0278 0,-0.0278 -0.0278,0 0,-0.0278 -0.0278,-0.0278 0,0 -0.0278,0 -0.0278,-0.0278 0,0 -0.0278,0 -0.0278,0 -0.0278,-0.0278 0,0 -0.0278,0 -0.0278,0 0,0 -0.0278,0 0,0 -0.0278,0 -0.0278,0 0,0 -0.0278,0 -0.0278,0 0,0 -0.0278,0 -0.0278,0 -0.0278,0 -0.0278,0 -0.0278,0 -0.0278,0 c -1.22322,1.223224 -2.97466,1.223224 -3.78087,1.223224 l 0,0.695014 c 0.47261,0 1.75143,0 2.80785,-0.528211 l 0,9.869196 c 0,0.611612 0,0.889617 -1.94603,0.889617 l -0.72282,0 0,0.695014 c 0.33361,-0.0278 2.72446,-0.0834 3.44727,-0.0834 0.58381,0 3.03026,0.0556 3.47507,0.0834 l 0,-0.695014 -0.75062,0 c -1.94603,0 -1.94603,-0.278005 -1.94603,-0.889617 z"
           inkscape:connector-curvature="0"
           style="font-style:normal;font-variant:normal;font-weight:normal;font-stretch:normal;letter-spacing:normal;word-spacing:normal;text-anchor:start;fill:#4d4d4d;fill-opacity:1;fill-rule:evenodd;stroke:#000000;stroke-width:0;stroke-linecap:butt;stroke-linejoin:miter;stroke-miterlimit:10.43299961;stroke-dasharray:none;stroke-dashoffset:0;stroke-opacity:1" />
        <path
           id="path10816"
           d="m 387.0053,77.467633 -0.66721,0 c -0.0556,0.417008 -0.25021,1.556831 -0.50041,1.751435 -0.13901,0.111202 -1.64024,0.111202 -1.91824,0.111202 l -3.55847,0 c 2.02944,-1.779235 2.72445,-2.335246 3.86427,-3.224864 1.44563,-1.167623 2.78006,-2.363047 2.78006,-4.197883 0,-2.335246 -2.05724,-3.753074 -4.53149,-3.753074 -2.39085,0 -4.03108,1.668033 -4.03108,3.447268 0,1.00082 0.83402,1.084221 1.02862,1.084221 0.47261,0 1.02862,-0.333606 1.02862,-1.02862 0,-0.333607 -0.139,-1.02862 -1.13982,-1.02862 0.61161,-1.362227 1.91824,-1.779235 2.83565,-1.779235 1.91824,0 2.91906,1.501229 2.91906,3.05806 0,1.695834 -1.19542,3.03026 -1.80703,3.725274 l -4.6705,4.58709 c -0.1946,0.194604 -0.1946,0.222405 -0.1946,0.778416 l 7.97876,0 z"
           inkscape:connector-curvature="0"
           style="font-style:normal;font-variant:normal;font-weight:normal;font-stretch:normal;letter-spacing:normal;word-spacing:normal;text-anchor:start;fill:#4d4d4d;fill-opacity:1;fill-rule:evenodd;stroke:#000000;stroke-width:0;stroke-linecap:butt;stroke-linejoin:miter;stroke-miterlimit:10.43299961;stroke-dasharray:none;stroke-dashoffset:0;stroke-opacity:1" />
      </g>
      <g
         id="g10818"
         transform="matrix(2.7314162,0,0,-2.7314162,-226.19758,2227.7706)"
         xml:space="preserve"
         stroke-miterlimit="10.433"
         font-style="normal"
         font-variant="normal"
         font-weight="normal"
         font-stretch="normal"
         font-size-adjust="none"
         letter-spacing="normal"
         word-spacing="normal"
         ns0:text="$m_{13}$"
         style="font-style:normal;font-variant:normal;font-weight:normal;font-stretch:normal;letter-spacing:normal;word-spacing:normal;text-anchor:start;fill:#4d4d4d;fill-opacity:1;fill-rule:evenodd;stroke:#000000;stroke-linecap:butt;stroke-linejoin:miter;stroke-miterlimit:10.43299961;stroke-dasharray:none;stroke-dashoffset:0;stroke-opacity:1"><path
           style="fill:#4d4d4d;fill-opacity:1;stroke-width:0"
           inkscape:connector-curvature="0"
           d="m 224.31,707.71 0,-0.01 -0.01,-0.02 0,-0.01 0,-0.02 -0.01,-0.03 -0.01,-0.03 -0.01,-0.03 0,-0.04 -0.01,-0.03 -0.01,-0.03 0,-0.01 -0.01,-0.02 0,-0.01 0,-0.02 0,-0.01 -0.01,-0.01 0,-0.02 0,-0.01 0,-0.01 -0.01,-0.01 0,-0.01 0,-0.01 0,-0.01 0,0 0,-0.01 0,-0.01 c 0,-0.18 0.14,-0.26 0.29,-0.26 0.12,0 0.29,0.07 0.37,0.27 0,0.02 0.12,0.49 0.18,0.74 l 0.22,0.89 c 0.06,0.22 0.12,0.44 0.17,0.67 0.04,0.17 0.12,0.46 0.13,0.5 0.15,0.3 0.68,1.21 1.62,1.21 0.45,0 0.54,-0.37 0.54,-0.7 0,-0.25 -0.07,-0.52 -0.15,-0.82 l -0.28,-1.16 -0.2,-0.75 c -0.04,-0.2 -0.13,-0.54 -0.13,-0.59 0,-0.18 0.14,-0.26 0.29,-0.26 0.31,0 0.37,0.24 0.45,0.56 0.14,0.56 0.51,2.01 0.6,2.4 0.03,0.12 0.55,1.32 1.64,1.32 0.43,0 0.54,-0.34 0.54,-0.7 0,-0.56 -0.42,-1.7 -0.62,-2.22 -0.09,-0.24 -0.13,-0.35 -0.13,-0.55 0,-0.47 0.35,-0.81 0.82,-0.81 0.93,0 1.3,1.45 1.3,1.53 0,0.1 -0.09,0.1 -0.12,0.1 -0.1,0 -0.1,-0.04 -0.15,-0.18 -0.15,-0.53 -0.47,-1.24 -1.01,-1.24 -0.17,0 -0.24,0.1 -0.24,0.33 0,0.25 0.09,0.49 0.18,0.71 0.18,0.51 0.6,1.62 0.6,2.18 0,0.65 -0.39,1.07 -1.14,1.07 -0.75,0 -1.25,-0.44 -1.62,-0.97 -0.01,0.13 -0.04,0.47 -0.32,0.71 -0.25,0.21 -0.57,0.26 -0.82,0.26 -0.89,0 -1.38,-0.64 -1.55,-0.87 -0.05,0.57 -0.47,0.87 -0.92,0.87 -0.45,0 -0.64,-0.39 -0.73,-0.57 -0.18,-0.35 -0.31,-0.93 -0.31,-0.96 0,-0.1 0.1,-0.1 0.12,-0.1 0.1,0 0.11,0.01 0.17,0.22 0.17,0.71 0.37,1.19 0.73,1.19 0.16,0 0.3,-0.08 0.3,-0.46 0,-0.21 -0.03,-0.32 -0.16,-0.83 z"
           id="path10820" /><path
           style="fill:#4d4d4d;fill-opacity:1;stroke-width:0"
           inkscape:connector-curvature="0"
           d="m 234.51,710.05 0,0.01 0,0.01 0,0.01 0,0.01 0,0 0,0.01 0,0.01 0,0.01 0,0 0,0.01 0,0.01 0,0 0,0.01 0,0 0,0.01 0,0 0,0.01 -0.01,0 0,0.01 0,0.01 0,0.01 -0.01,0 0,0.01 0,0.01 -0.01,0 0,0.01 -0.01,0 -0.01,0 -0.01,0.01 0,0 -0.01,0 -0.01,0 -0.01,0 0,0 -0.01,0 0,0.01 -0.01,0 -0.01,0 0,0 -0.01,0 -0.01,0 0,0 -0.01,0 -0.01,0 0,0 -0.01,0 -0.01,0 -0.01,0 -0.01,0 -0.01,0 c -0.44,-0.44 -1.08,-0.45 -1.36,-0.45 l 0,-0.25 c 0.16,0 0.63,0 1.01,0.2 l 0,-3.55 c 0,-0.23 0,-0.32 -0.7,-0.32 l -0.26,0 0,-0.25 c 0.12,0.01 0.98,0.03 1.24,0.03 0.21,0 1.09,-0.02 1.24,-0.03 l 0,0.25 -0.26,0 c -0.7,0 -0.7,0.09 -0.7,0.32 z"
           id="path10822" /><path
           style="fill:#4d4d4d;fill-opacity:1;stroke-width:0"
           inkscape:connector-curvature="0"
           d="m 238.05,707.95 0.05,0 0.05,0 0.05,-0.01 0.05,0 0.04,-0.01 0.05,-0.02 0.04,-0.01 0.05,-0.02 0.04,-0.02 0.04,-0.02 0.04,-0.02 0.04,-0.02 0.03,-0.03 0.04,-0.03 0.03,-0.03 0.03,-0.04 0.03,-0.03 0.03,-0.04 0.03,-0.04 0.02,-0.04 0.03,-0.05 0.02,-0.05 0.02,-0.05 0.02,-0.05 0.01,-0.05 0.02,-0.06 0.01,-0.05 0.01,-0.06 0,-0.07 0.01,-0.06 0,-0.07 0.01,-0.07 c 0,-0.86 -0.51,-1.12 -0.91,-1.12 -0.28,0 -0.89,0.08 -1.18,0.49 0.32,0.02 0.4,0.25 0.4,0.39 0,0.22 -0.17,0.38 -0.38,0.38 -0.2,0 -0.39,-0.12 -0.39,-0.4 0,-0.65 0.72,-1.08 1.56,-1.08 0.97,0 1.64,0.65 1.64,1.34 0,0.55 -0.44,1.09 -1.21,1.25 0.73,0.26 0.99,0.78 0.99,1.21 0,0.55 -0.63,0.96 -1.4,0.96 -0.77,0 -1.37,-0.38 -1.37,-0.93 0,-0.24 0.16,-0.37 0.36,-0.37 0.22,0 0.36,0.16 0.36,0.35 0,0.2 -0.14,0.35 -0.36,0.36 0.25,0.31 0.73,0.39 0.99,0.39 0.31,0 0.75,-0.16 0.75,-0.76 0,-0.29 -0.1,-0.61 -0.28,-0.83 -0.23,-0.26 -0.43,-0.28 -0.77,-0.3 -0.18,-0.01 -0.19,-0.01 -0.23,-0.02 -0.01,0 -0.07,-0.01 -0.07,-0.09 0,-0.1 0.07,-0.1 0.19,-0.1 z"
           id="path10824" /></g>      <g
         style="fill:#4d4d4d;fill-opacity:1"
         id="g10826"
         transform="translate(-16.5477,221.75845)">
        <path
           id="path10828"
           d="m 268.82516,108.43745 0,0.0278 -0.0278,0.0556 0,0.0278 0,0.0556 -0.0278,0.0834 -0.0278,0.0834 -0.0278,0.0834 0,0.11121 -0.0278,0.0834 -0.0278,0.0834 0,0.0556 0,0.0278 -0.0278,0.0556 0,0.0278 0,0.0278 -0.0278,0.0556 0,0.0278 0,0.0278 0,0.0278 -0.0278,0.0278 0,0.0278 0,0.0278 0,0.0278 0,0.0278 0,0 0,0.0278 c 0,0.50041 0.3892,0.72281 0.80621,0.72281 0.33361,0 0.83402,-0.1946 1.02862,-0.75061 0.0278,-0.0556 0.36141,-1.36223 0.50041,-2.05724 l 0.61161,-2.47425 c 0.16681,-0.61161 0.33361,-1.22323 0.47261,-1.86264 0.11121,-0.47261 0.33361,-1.25102 0.36141,-1.36222 0.41701,-0.86182 1.89044,-3.391672 4.50369,-3.391672 1.25102,0 1.50123,1.028621 1.50123,1.946042 0,0.69501 -0.1946,1.47343 -0.41701,2.27964 l -0.77841,3.22487 -0.55602,2.08504 c -0.1112,0.55601 -0.3614,1.50123 -0.3614,1.64023 0,0.50041 0.38921,0.72281 0.80621,0.72281 0.86182,0 1.02862,-0.66721 1.25103,-1.55683 0.38921,-1.55683 1.41783,-5.58791 1.66803,-6.64433 0.0834,-0.36141 1.52903,-3.697472 4.55929,-3.697472 1.19543,0 1.50123,0.945219 1.50123,1.946042 0,1.58463 -1.16762,4.72609 -1.72363,6.17172 -0.25021,0.66721 -0.36141,0.97302 -0.36141,1.52903 0,1.30662 0.97302,2.25184 2.27965,2.25184 2.58545,0 3.61407,-4.00328 3.61407,-4.22568 0,-0.27801 -0.25021,-0.27801 -0.33361,-0.27801 -0.27801,0 -0.27801,0.0834 -0.41701,0.50041 -0.41701,1.44563 -1.30662,3.41947 -2.80785,3.41947 -0.47261,0 -0.66722,-0.278 -0.66722,-0.91742 0,-0.69501 0.25021,-1.36222 0.50041,-1.97384 0.52821,-1.41782 1.66804,-4.50368 1.66804,-6.06051 0,-1.807041 -1.08423,-2.974664 -3.16927,-2.974664 -2.08504,0 -3.47507,1.223224 -4.50369,2.696654 -0.0278,-0.36141 -0.1112,-1.306626 -0.88961,-1.97384 -0.69502,-0.556011 -1.58463,-0.722814 -2.27965,-0.722814 -2.47425,0 -3.83647,1.779235 -4.30908,2.418644 -0.13901,-1.584627 -1.30663,-2.418644 -2.52985,-2.418644 -1.27883,0 -1.80704,1.084222 -2.05724,1.584632 -0.50041,0.973022 -0.86182,2.585452 -0.86182,2.696652 0,0.25021 0.278,0.25021 0.33361,0.25021 0.278,0 0.3058,-0.0278 0.4726,-0.61162 0.47261,-1.973835 1.02862,-3.308262 2.02944,-3.308262 0.44481,0 0.83402,0.222405 0.83402,1.278826 0,0.583816 -0.0834,0.889616 -0.41701,2.307446 z"
           inkscape:connector-curvature="0"
           style="font-style:normal;font-variant:normal;font-weight:normal;font-stretch:normal;letter-spacing:normal;word-spacing:normal;text-anchor:start;fill:#4d4d4d;fill-opacity:1;fill-rule:evenodd;stroke:#000000;stroke-width:0;stroke-linecap:butt;stroke-linejoin:miter;stroke-miterlimit:10.43299961;stroke-dasharray:none;stroke-dashoffset:0;stroke-opacity:1" />
        <path
           id="path10830"
           d="m 300.48999,110.68929 -0.66722,0 c -0.0556,0.44481 -0.2502,1.58463 -0.50041,1.77924 -0.1668,0.1112 -1.64023,0.1112 -1.91823,0.1112 l -3.55847,0 c 2.02944,-1.80704 2.69665,-2.33525 3.86427,-3.25267 1.44563,-1.13982 2.78006,-2.33524 2.78006,-4.17008 0,-2.33525 -2.05724,-3.78087 -4.53149,-3.78087 -2.41865,0 -4.03108,1.69583 -4.03108,3.47506 0,0.97302 0.83401,1.08423 1.02862,1.08423 0.47261,0 1.02862,-0.33361 1.02862,-1.02862 0,-0.36141 -0.139,-1.02862 -1.13982,-1.02862 0.58381,-1.36223 1.91823,-1.80704 2.80785,-1.80704 1.94604,0 2.94686,1.52903 2.94686,3.08586 0,1.66803 -1.19542,3.00246 -1.80704,3.69747 l -4.67049,4.6149 c -0.1946,0.1668 -0.1946,0.1946 -0.1946,0.75061 l 7.97876,0 z"
           inkscape:connector-curvature="0"
           style="font-style:normal;font-variant:normal;font-weight:normal;font-stretch:normal;letter-spacing:normal;word-spacing:normal;text-anchor:start;fill:#4d4d4d;fill-opacity:1;fill-rule:evenodd;stroke:#000000;stroke-width:0;stroke-linecap:butt;stroke-linejoin:miter;stroke-miterlimit:10.43299961;stroke-dasharray:none;stroke-dashoffset:0;stroke-opacity:1" />
        <path
           id="path10832"
           d="m 308.24634,101.93212 0,-0.0278 0,-0.0278 0,-0.0278 0,-0.0278 0,0 0,-0.0278 0,-0.0278 0,-0.0278 -0.0278,0 0,-0.0278 0,0 0,-0.0278 0,-0.0278 0,0 0,-0.0278 0,0 0,-0.0278 0,0 0,-0.0278 -0.0278,-0.0278 0,-0.0278 0,0 -0.0278,-0.0278 0,-0.0278 -0.0278,0 0,0 -0.0278,-0.0278 0,0 -0.0278,0 -0.0278,-0.0278 -0.0278,0 -0.0278,0 0,0 -0.0278,0 0,0 -0.0278,0 -0.0278,0 0,-0.0278 -0.0278,0 0,0 -0.0278,0 -0.0278,0 -0.0278,0 0,0 -0.0278,0 -0.0278,0 -0.0278,0 -0.0278,0 0,0 -0.0278,0 c -1.25103,1.22322 -3.00246,1.25102 -3.80868,1.25102 l 0,0.69501 c 0.47261,0 1.75144,0 2.80786,-0.55601 l 0,9.8692 c 0,0.63941 0,0.88962 -1.91824,0.88962 l -0.75061,0 0,0.69501 c 0.3614,-0.0278 2.72445,-0.0834 3.44726,-0.0834 0.61162,0 3.03026,0.0556 3.47507,0.0834 l 0,-0.69501 -0.75061,0 c -1.91824,0 -1.91824,-0.25021 -1.91824,-0.88962 z"
           inkscape:connector-curvature="0"
           style="font-style:normal;font-variant:normal;font-weight:normal;font-stretch:normal;letter-spacing:normal;word-spacing:normal;text-anchor:start;fill:#4d4d4d;fill-opacity:1;fill-rule:evenodd;stroke:#000000;stroke-width:0;stroke-linecap:butt;stroke-linejoin:miter;stroke-miterlimit:10.43299961;stroke-dasharray:none;stroke-dashoffset:0;stroke-opacity:1" />
      </g>
      <g
         style="fill:#4d4d4d;fill-opacity:1"
         id="g10834"
         transform="translate(-23.71334,221.75845)">
        <path
           id="path10836"
           d="m 344.30365,108.43745 0,0.0278 -0.0278,0.0556 0,0.0278 0,0.0556 -0.0278,0.0834 -0.0278,0.0834 0,0.0834 -0.0278,0.11121 -0.0278,0.0834 -0.0278,0.0834 0,0.0556 0,0.0278 -0.0278,0.0556 0,0.0278 0,0.0278 -0.0278,0.0556 0,0.0278 0,0.0278 0,0.0278 0,0.0278 -0.0278,0.0278 0,0.0278 0,0.0278 0,0.0278 0,0 0,0.0278 c 0,0.50041 0.38921,0.72281 0.80622,0.72281 0.3336,0 0.83401,-0.1946 1.02862,-0.75061 0.0278,-0.0556 0.3614,-1.36223 0.52821,-2.05724 l 0.61161,-2.47425 c 0.139,-0.61161 0.3058,-1.22323 0.44481,-1.86264 0.1112,-0.47261 0.3336,-1.25102 0.3614,-1.36222 0.41701,-0.86182 1.89044,-3.391672 4.50369,-3.391672 1.25103,0 1.50123,1.028621 1.50123,1.946042 0,0.69501 -0.1946,1.47343 -0.41701,2.27964 l -0.77841,3.22487 -0.55601,2.08504 c -0.1112,0.55601 -0.33361,1.50123 -0.33361,1.64023 0,0.50041 0.38921,0.72281 0.77842,0.72281 0.86181,0 1.02862,-0.66721 1.25102,-1.55683 0.38921,-1.55683 1.41783,-5.58791 1.66803,-6.64433 0.0834,-0.36141 1.55684,-3.697472 4.55929,-3.697472 1.19543,0 1.50123,0.945219 1.50123,1.946042 0,1.58463 -1.16762,4.72609 -1.72363,6.17172 -0.2502,0.66721 -0.36141,0.97302 -0.36141,1.52903 0,1.30662 0.97302,2.25184 2.27965,2.25184 2.58545,0 3.61407,-4.00328 3.61407,-4.22568 0,-0.27801 -0.2502,-0.27801 -0.33361,-0.27801 -0.278,0 -0.278,0.0834 -0.417,0.50041 -0.41701,1.44563 -1.27883,3.41947 -2.80786,3.41947 -0.47261,0 -0.66721,-0.278 -0.66721,-0.91742 0,-0.69501 0.2502,-1.36222 0.50041,-1.97384 0.52821,-1.41782 1.69583,-4.50368 1.69583,-6.06051 0,-1.807041 -1.11202,-2.974664 -3.19706,-2.974664 -2.08504,0 -3.47507,1.223224 -4.50369,2.696654 -0.0278,-0.36141 -0.1112,-1.306626 -0.88962,-1.97384 -0.69501,-0.556011 -1.58463,-0.722814 -2.27965,-0.722814 -2.47424,0 -3.83647,1.779235 -4.30908,2.418644 -0.139,-1.584627 -1.27883,-2.418644 -2.52985,-2.418644 -1.27883,0 -1.80704,1.084222 -2.05724,1.584632 -0.50041,0.973022 -0.86182,2.585452 -0.86182,2.696652 0,0.25021 0.27801,0.25021 0.33361,0.25021 0.278,0 0.3058,-0.0278 0.47261,-0.61162 0.47261,-1.973835 1.02862,-3.308262 2.02944,-3.308262 0.44481,0 0.86181,0.222405 0.86181,1.278826 0,0.583816 -0.0834,0.889616 -0.4448,2.307446 z"
           inkscape:connector-curvature="0"
           style="font-style:normal;font-variant:normal;font-weight:normal;font-stretch:normal;letter-spacing:normal;word-spacing:normal;text-anchor:start;fill:#4d4d4d;fill-opacity:1;fill-rule:evenodd;stroke:#000000;stroke-width:0;stroke-linecap:butt;stroke-linejoin:miter;stroke-miterlimit:10.43299961;stroke-dasharray:none;stroke-dashoffset:0;stroke-opacity:1" />
        <path
           id="path10838"
           d="m 375.96848,110.68929 -0.66721,0 c -0.0556,0.44481 -0.25021,1.58463 -0.50041,1.77924 -0.16681,0.1112 -1.64023,0.1112 -1.91824,0.1112 l -3.55847,0 c 2.02944,-1.80704 2.69665,-2.33525 3.86428,-3.25267 1.44562,-1.13982 2.78005,-2.33524 2.78005,-4.17008 0,-2.33525 -2.05724,-3.78087 -4.53149,-3.78087 -2.41865,0 -4.03108,1.69583 -4.03108,3.47506 0,0.97302 0.83402,1.08423 1.02862,1.08423 0.47261,0 1.02862,-0.33361 1.02862,-1.02862 0,-0.36141 -0.139,-1.02862 -1.13982,-1.02862 0.58381,-1.36223 1.91824,-1.80704 2.80785,-1.80704 1.94604,0 2.94686,1.52903 2.94686,3.08586 0,1.66803 -1.19542,3.00246 -1.80703,3.69747 l -4.67049,4.6149 c -0.19461,0.1668 -0.19461,0.1946 -0.19461,0.75061 l 7.97876,0 z"
           inkscape:connector-curvature="0"
           style="font-style:normal;font-variant:normal;font-weight:normal;font-stretch:normal;letter-spacing:normal;word-spacing:normal;text-anchor:start;fill:#4d4d4d;fill-opacity:1;fill-rule:evenodd;stroke:#000000;stroke-width:0;stroke-linecap:butt;stroke-linejoin:miter;stroke-miterlimit:10.43299961;stroke-dasharray:none;stroke-dashoffset:0;stroke-opacity:1" />
        <path
           id="path10840"
           d="m 387.0053,110.68929 -0.66721,0 c -0.0556,0.44481 -0.25021,1.58463 -0.50041,1.77924 -0.13901,0.1112 -1.64024,0.1112 -1.91824,0.1112 l -3.55847,0 c 2.02944,-1.80704 2.72445,-2.33525 3.86427,-3.25267 1.44563,-1.13982 2.78006,-2.33524 2.78006,-4.17008 0,-2.33525 -2.05724,-3.78087 -4.53149,-3.78087 -2.39085,0 -4.03108,1.69583 -4.03108,3.47506 0,0.97302 0.83402,1.08423 1.02862,1.08423 0.47261,0 1.02862,-0.33361 1.02862,-1.02862 0,-0.36141 -0.139,-1.02862 -1.13982,-1.02862 0.61161,-1.36223 1.91824,-1.80704 2.83565,-1.80704 1.91824,0 2.91906,1.52903 2.91906,3.08586 0,1.66803 -1.19542,3.00246 -1.80703,3.69747 l -4.6705,4.6149 c -0.1946,0.1668 -0.1946,0.1946 -0.1946,0.75061 l 7.97876,0 z"
           inkscape:connector-curvature="0"
           style="font-style:normal;font-variant:normal;font-weight:normal;font-stretch:normal;letter-spacing:normal;word-spacing:normal;text-anchor:start;fill:#4d4d4d;fill-opacity:1;fill-rule:evenodd;stroke:#000000;stroke-width:0;stroke-linecap:butt;stroke-linejoin:miter;stroke-miterlimit:10.43299961;stroke-dasharray:none;stroke-dashoffset:0;stroke-opacity:1" />
      </g>
      <g
         id="g10842"
         transform="matrix(2.7314162,0,0,-2.7314162,-223.19773,2263.0131)"
         xml:space="preserve"
         stroke-miterlimit="10.433"
         font-style="normal"
         font-variant="normal"
         font-weight="normal"
         font-stretch="normal"
         font-size-adjust="none"
         letter-spacing="normal"
         word-spacing="normal"
         ns0:text="$m_{23}$"
         style="font-style:normal;font-variant:normal;font-weight:normal;font-stretch:normal;letter-spacing:normal;word-spacing:normal;text-anchor:start;fill:#4d4d4d;fill-opacity:1;fill-rule:evenodd;stroke:#000000;stroke-linecap:butt;stroke-linejoin:miter;stroke-miterlimit:10.43299961;stroke-dasharray:none;stroke-dashoffset:0;stroke-opacity:1"><path
           style="fill:#4d4d4d;fill-opacity:1;stroke-width:0"
           inkscape:connector-curvature="0"
           d="m 224.31,707.71 0,-0.01 -0.01,-0.02 0,-0.01 0,-0.02 -0.01,-0.03 -0.01,-0.03 -0.01,-0.03 0,-0.04 -0.01,-0.03 -0.01,-0.03 0,-0.01 -0.01,-0.02 0,-0.01 0,-0.02 0,-0.01 -0.01,-0.01 0,-0.02 0,-0.01 0,-0.01 -0.01,-0.01 0,-0.01 0,-0.01 0,-0.01 0,0 0,-0.01 0,-0.01 c 0,-0.18 0.14,-0.26 0.29,-0.26 0.12,0 0.29,0.07 0.37,0.27 0,0.02 0.12,0.49 0.18,0.74 l 0.22,0.89 c 0.06,0.22 0.12,0.44 0.17,0.67 0.04,0.17 0.12,0.46 0.13,0.5 0.15,0.3 0.68,1.21 1.62,1.21 0.45,0 0.54,-0.37 0.54,-0.7 0,-0.25 -0.07,-0.52 -0.15,-0.82 l -0.28,-1.16 -0.2,-0.75 c -0.04,-0.2 -0.13,-0.54 -0.13,-0.59 0,-0.18 0.14,-0.26 0.29,-0.26 0.31,0 0.37,0.24 0.45,0.56 0.14,0.56 0.51,2.01 0.6,2.4 0.03,0.12 0.55,1.32 1.64,1.32 0.43,0 0.54,-0.34 0.54,-0.7 0,-0.56 -0.42,-1.7 -0.62,-2.22 -0.09,-0.24 -0.13,-0.35 -0.13,-0.55 0,-0.47 0.35,-0.81 0.82,-0.81 0.93,0 1.3,1.45 1.3,1.53 0,0.1 -0.09,0.1 -0.12,0.1 -0.1,0 -0.1,-0.04 -0.15,-0.18 -0.15,-0.53 -0.47,-1.24 -1.01,-1.24 -0.17,0 -0.24,0.1 -0.24,0.33 0,0.25 0.09,0.49 0.18,0.71 0.18,0.51 0.6,1.62 0.6,2.18 0,0.65 -0.39,1.07 -1.14,1.07 -0.75,0 -1.25,-0.44 -1.62,-0.97 -0.01,0.13 -0.04,0.47 -0.32,0.71 -0.25,0.21 -0.57,0.26 -0.82,0.26 -0.89,0 -1.38,-0.64 -1.55,-0.87 -0.05,0.57 -0.47,0.87 -0.92,0.87 -0.45,0 -0.64,-0.39 -0.73,-0.57 -0.18,-0.35 -0.31,-0.93 -0.31,-0.96 0,-0.1 0.1,-0.1 0.12,-0.1 0.1,0 0.11,0.01 0.17,0.22 0.17,0.71 0.37,1.19 0.73,1.19 0.16,0 0.3,-0.08 0.3,-0.46 0,-0.21 -0.03,-0.32 -0.16,-0.83 z"
           id="path10844" /><path
           style="fill:#4d4d4d;fill-opacity:1;stroke-width:0"
           inkscape:connector-curvature="0"
           d="m 235.7,706.9 -0.24,0 c -0.02,-0.16 -0.09,-0.57 -0.18,-0.64 -0.06,-0.04 -0.59,-0.04 -0.69,-0.04 l -1.28,0 c 0.73,0.65 0.97,0.84 1.39,1.17 0.51,0.41 1,0.84 1,1.5 0,0.84 -0.74,1.36 -1.63,1.36 -0.87,0 -1.45,-0.61 -1.45,-1.25 0,-0.35 0.3,-0.39 0.37,-0.39 0.16,0 0.37,0.12 0.37,0.37 0,0.13 -0.05,0.37 -0.41,0.37 0.21,0.49 0.68,0.65 1.01,0.65 0.7,0 1.06,-0.54 1.06,-1.11 0,-0.6 -0.43,-1.08 -0.65,-1.33 l -1.68,-1.66 c -0.07,-0.06 -0.07,-0.07 -0.07,-0.27 l 2.87,0 z"
           id="path10846" /><path
           style="fill:#4d4d4d;fill-opacity:1;stroke-width:0"
           inkscape:connector-curvature="0"
           d="m 238.05,707.95 0.05,0 0.05,0 0.05,-0.01 0.05,0 0.04,-0.01 0.05,-0.02 0.04,-0.01 0.05,-0.02 0.04,-0.02 0.04,-0.02 0.04,-0.02 0.04,-0.02 0.03,-0.03 0.04,-0.03 0.03,-0.03 0.03,-0.04 0.03,-0.03 0.03,-0.04 0.03,-0.04 0.02,-0.04 0.03,-0.05 0.02,-0.05 0.02,-0.05 0.02,-0.05 0.01,-0.05 0.02,-0.06 0.01,-0.05 0.01,-0.06 0,-0.07 0.01,-0.06 0,-0.07 0.01,-0.07 c 0,-0.86 -0.51,-1.12 -0.91,-1.12 -0.28,0 -0.89,0.08 -1.18,0.49 0.32,0.02 0.4,0.25 0.4,0.39 0,0.22 -0.17,0.38 -0.38,0.38 -0.2,0 -0.39,-0.12 -0.39,-0.4 0,-0.65 0.72,-1.08 1.56,-1.08 0.97,0 1.64,0.65 1.64,1.34 0,0.55 -0.44,1.09 -1.21,1.25 0.73,0.26 0.99,0.78 0.99,1.21 0,0.55 -0.63,0.96 -1.4,0.96 -0.77,0 -1.37,-0.38 -1.37,-0.93 0,-0.24 0.16,-0.37 0.36,-0.37 0.22,0 0.36,0.16 0.36,0.35 0,0.2 -0.14,0.35 -0.36,0.36 0.25,0.31 0.73,0.39 0.99,0.39 0.31,0 0.75,-0.16 0.75,-0.76 0,-0.29 -0.1,-0.61 -0.28,-0.83 -0.23,-0.26 -0.43,-0.28 -0.77,-0.3 -0.18,-0.01 -0.19,-0.01 -0.23,-0.02 -0.01,0 -0.07,-0.01 -0.07,-0.09 0,-0.1 0.07,-0.1 0.19,-0.1 z"
           id="path10848" /></g>      <g
         style="font-style:normal;font-variant:normal;font-weight:normal;font-stretch:normal;letter-spacing:normal;word-spacing:normal;text-anchor:start;fill:#4d4d4d;fill-opacity:1;fill-rule:evenodd;stroke:#000000;stroke-linecap:butt;stroke-linejoin:miter;stroke-miterlimit:10.43299961;stroke-dasharray:none;stroke-dashoffset:0;stroke-opacity:1"
         ns0:text="$m_{31}$"
         word-spacing="normal"
         letter-spacing="normal"
         font-size-adjust="none"
         font-stretch="normal"
         font-weight="normal"
         font-variant="normal"
         font-style="normal"
         stroke-miterlimit="10.433"
         xml:space="preserve"
         transform="matrix(2.7800364,0,0,-2.7800364,-371.31236,2329.022)"
         id="g10850"><path
           inkscape:connector-curvature="0"
           id="path10852"
           d="m 224.31,707.71 0,-0.01 -0.01,-0.02 0,-0.01 0,-0.02 -0.01,-0.03 -0.01,-0.03 -0.01,-0.03 0,-0.04 -0.01,-0.03 -0.01,-0.03 0,-0.01 -0.01,-0.02 0,-0.01 0,-0.02 0,-0.01 -0.01,-0.01 0,-0.02 0,-0.01 0,-0.01 -0.01,-0.01 0,-0.01 0,-0.01 0,-0.01 0,0 0,-0.01 0,-0.01 c 0,-0.18 0.14,-0.26 0.29,-0.26 0.12,0 0.29,0.07 0.37,0.27 0,0.02 0.12,0.49 0.18,0.74 l 0.22,0.89 c 0.06,0.22 0.12,0.44 0.17,0.67 0.04,0.17 0.12,0.46 0.13,0.5 0.15,0.3 0.68,1.21 1.62,1.21 0.45,0 0.54,-0.37 0.54,-0.7 0,-0.25 -0.07,-0.52 -0.15,-0.82 l -0.28,-1.16 -0.2,-0.75 c -0.04,-0.2 -0.13,-0.54 -0.13,-0.59 0,-0.18 0.14,-0.26 0.29,-0.26 0.31,0 0.37,0.24 0.45,0.56 0.14,0.56 0.51,2.01 0.6,2.4 0.03,0.12 0.55,1.32 1.64,1.32 0.43,0 0.54,-0.34 0.54,-0.7 0,-0.56 -0.42,-1.7 -0.62,-2.22 -0.09,-0.24 -0.13,-0.35 -0.13,-0.55 0,-0.47 0.35,-0.81 0.82,-0.81 0.93,0 1.3,1.45 1.3,1.53 0,0.1 -0.09,0.1 -0.12,0.1 -0.1,0 -0.1,-0.04 -0.15,-0.18 -0.15,-0.53 -0.47,-1.24 -1.01,-1.24 -0.17,0 -0.24,0.1 -0.24,0.33 0,0.25 0.09,0.49 0.18,0.71 0.18,0.51 0.6,1.62 0.6,2.18 0,0.65 -0.39,1.07 -1.14,1.07 -0.75,0 -1.25,-0.44 -1.62,-0.97 -0.01,0.13 -0.04,0.47 -0.32,0.71 -0.25,0.21 -0.57,0.26 -0.82,0.26 -0.89,0 -1.38,-0.64 -1.55,-0.87 -0.05,0.57 -0.47,0.87 -0.92,0.87 -0.45,0 -0.64,-0.39 -0.73,-0.57 -0.18,-0.35 -0.31,-0.93 -0.31,-0.96 0,-0.1 0.1,-0.1 0.12,-0.1 0.1,0 0.11,0.01 0.17,0.22 0.17,0.71 0.37,1.19 0.73,1.19 0.16,0 0.3,-0.08 0.3,-0.46 0,-0.21 -0.03,-0.32 -0.16,-0.83 z"
           style="fill:#4d4d4d;fill-opacity:1;stroke-width:0" /><path
           inkscape:connector-curvature="0"
           id="path10854"
           d="m 234.08,707.95 0.05,0 0.05,0 0.05,-0.01 0.05,0 0.04,-0.01 0.05,-0.02 0.04,-0.01 0.05,-0.02 0.04,-0.02 0.04,-0.02 0.04,-0.02 0.03,-0.02 0.04,-0.03 0.04,-0.03 0.03,-0.03 0.03,-0.04 0.03,-0.03 0.03,-0.04 0.03,-0.04 0.02,-0.04 0.03,-0.05 0.02,-0.05 0.02,-0.05 0.01,-0.05 0.02,-0.05 0.01,-0.06 0.02,-0.05 0.01,-0.06 0,-0.07 0.01,-0.06 0,-0.07 0,-0.07 c 0,-0.86 -0.5,-1.12 -0.9,-1.12 -0.28,0 -0.89,0.08 -1.19,0.49 0.33,0.02 0.41,0.25 0.41,0.39 0,0.22 -0.17,0.38 -0.38,0.38 -0.2,0 -0.4,-0.12 -0.4,-0.4 0,-0.65 0.73,-1.08 1.57,-1.08 0.97,0 1.64,0.65 1.64,1.34 0,0.55 -0.45,1.09 -1.21,1.25 0.73,0.26 0.99,0.78 0.99,1.21 0,0.55 -0.63,0.96 -1.4,0.96 -0.78,0 -1.37,-0.38 -1.37,-0.93 0,-0.24 0.15,-0.37 0.36,-0.37 0.22,0 0.36,0.16 0.36,0.35 0,0.2 -0.14,0.35 -0.36,0.36 0.25,0.31 0.73,0.39 0.99,0.39 0.31,0 0.75,-0.16 0.75,-0.76 0,-0.29 -0.1,-0.61 -0.28,-0.83 -0.23,-0.26 -0.43,-0.28 -0.77,-0.3 -0.18,-0.01 -0.19,-0.01 -0.23,-0.02 -0.01,0 -0.07,-0.01 -0.07,-0.09 0,-0.1 0.07,-0.1 0.18,-0.1 z"
           style="fill:#4d4d4d;fill-opacity:1;stroke-width:0" /><path
           inkscape:connector-curvature="0"
           id="path10856"
           d="m 238.48,710.05 0,0.01 0,0.01 0,0.01 0,0.01 0,0 0,0.01 0,0.01 0,0.01 0,0 0,0.01 0,0.01 0,0 0,0.01 0,0 0,0.01 0,0 0,0.01 0,0 -0.01,0.01 0,0.01 0,0.01 0,0 -0.01,0.01 0,0.01 -0.01,0 0,0.01 -0.01,0 -0.01,0 0,0.01 -0.01,0 -0.01,0 -0.01,0 0,0 -0.01,0 -0.01,0 0,0.01 -0.01,0 0,0 -0.01,0 -0.01,0 0,0 -0.01,0 -0.01,0 0,0 -0.01,0 -0.01,0 -0.01,0 -0.01,0 -0.01,0 -0.01,0 c -0.44,-0.44 -1.07,-0.45 -1.36,-0.45 l 0,-0.25 c 0.17,0 0.63,0 1.01,0.2 l 0,-3.55 c 0,-0.23 0,-0.32 -0.7,-0.32 l -0.26,0 0,-0.25 c 0.12,0.01 0.98,0.03 1.24,0.03 0.21,0 1.09,-0.02 1.25,-0.03 l 0,0.25 -0.27,0 c -0.7,0 -0.7,0.09 -0.7,0.32 z"
           style="fill:#4d4d4d;fill-opacity:1;stroke-width:0" /></g>      <g
         id="g10858"
         transform="matrix(2.7416909,0,0,-2.7416909,-294.11505,2301.854)"
         xml:space="preserve"
         stroke-miterlimit="10.433"
         font-style="normal"
         font-variant="normal"
         font-weight="normal"
         font-stretch="normal"
         font-size-adjust="none"
         letter-spacing="normal"
         word-spacing="normal"
         ns0:text="$m_{32}$"
         style="font-style:normal;font-variant:normal;font-weight:normal;font-stretch:normal;letter-spacing:normal;word-spacing:normal;text-anchor:start;fill:#4d4d4d;fill-opacity:1;fill-rule:evenodd;stroke:#000000;stroke-linecap:butt;stroke-linejoin:miter;stroke-miterlimit:10.43299961;stroke-dasharray:none;stroke-dashoffset:0;stroke-opacity:1"><path
           inkscape:connector-curvature="0"
           d="m 224.31,707.71 0,-0.01 -0.01,-0.02 0,-0.01 0,-0.02 -0.01,-0.03 -0.01,-0.03 -0.01,-0.03 0,-0.04 -0.01,-0.03 -0.01,-0.03 0,-0.01 -0.01,-0.02 0,-0.01 0,-0.02 0,-0.01 -0.01,-0.01 0,-0.02 0,-0.01 0,-0.01 -0.01,-0.01 0,-0.01 0,-0.01 0,-0.01 0,0 0,-0.01 0,-0.01 c 0,-0.18 0.14,-0.26 0.29,-0.26 0.12,0 0.29,0.07 0.37,0.27 0,0.02 0.12,0.49 0.18,0.74 l 0.22,0.89 c 0.06,0.22 0.12,0.44 0.17,0.67 0.04,0.17 0.12,0.46 0.13,0.5 0.15,0.3 0.68,1.21 1.62,1.21 0.45,0 0.54,-0.37 0.54,-0.7 0,-0.25 -0.07,-0.52 -0.15,-0.82 l -0.28,-1.16 -0.2,-0.75 c -0.04,-0.2 -0.13,-0.54 -0.13,-0.59 0,-0.18 0.14,-0.26 0.29,-0.26 0.31,0 0.37,0.24 0.45,0.56 0.14,0.56 0.51,2.01 0.6,2.4 0.03,0.12 0.55,1.32 1.64,1.32 0.43,0 0.54,-0.34 0.54,-0.7 0,-0.56 -0.42,-1.7 -0.62,-2.22 -0.09,-0.24 -0.13,-0.35 -0.13,-0.55 0,-0.47 0.35,-0.81 0.82,-0.81 0.93,0 1.3,1.45 1.3,1.53 0,0.1 -0.09,0.1 -0.12,0.1 -0.1,0 -0.1,-0.04 -0.15,-0.18 -0.15,-0.53 -0.47,-1.24 -1.01,-1.24 -0.17,0 -0.24,0.1 -0.24,0.33 0,0.25 0.09,0.49 0.18,0.71 0.18,0.51 0.6,1.62 0.6,2.18 0,0.65 -0.39,1.07 -1.14,1.07 -0.75,0 -1.25,-0.44 -1.62,-0.97 -0.01,0.13 -0.04,0.47 -0.32,0.71 -0.25,0.21 -0.57,0.26 -0.82,0.26 -0.89,0 -1.38,-0.64 -1.55,-0.87 -0.05,0.57 -0.47,0.87 -0.92,0.87 -0.45,0 -0.64,-0.39 -0.73,-0.57 -0.18,-0.35 -0.31,-0.93 -0.31,-0.96 0,-0.1 0.1,-0.1 0.12,-0.1 0.1,0 0.11,0.01 0.17,0.22 0.17,0.71 0.37,1.19 0.73,1.19 0.16,0 0.3,-0.08 0.3,-0.46 0,-0.21 -0.03,-0.32 -0.16,-0.83 z"
           id="path10860"
           style="fill:#4d4d4d;fill-opacity:1;stroke-width:0" /><path
           inkscape:connector-curvature="0"
           d="m 234.08,707.95 0.05,0 0.05,0 0.05,-0.01 0.05,0 0.04,-0.01 0.05,-0.02 0.04,-0.01 0.05,-0.02 0.04,-0.02 0.04,-0.02 0.04,-0.02 0.03,-0.02 0.04,-0.03 0.04,-0.03 0.03,-0.03 0.03,-0.04 0.03,-0.03 0.03,-0.04 0.03,-0.04 0.02,-0.04 0.03,-0.05 0.02,-0.05 0.02,-0.05 0.01,-0.05 0.02,-0.05 0.01,-0.06 0.02,-0.05 0.01,-0.06 0,-0.07 0.01,-0.06 0,-0.07 0,-0.07 c 0,-0.86 -0.5,-1.12 -0.9,-1.12 -0.28,0 -0.89,0.08 -1.19,0.49 0.33,0.02 0.41,0.25 0.41,0.39 0,0.22 -0.17,0.38 -0.38,0.38 -0.2,0 -0.4,-0.12 -0.4,-0.4 0,-0.65 0.73,-1.08 1.57,-1.08 0.97,0 1.64,0.65 1.64,1.34 0,0.55 -0.45,1.09 -1.21,1.25 0.73,0.26 0.99,0.78 0.99,1.21 0,0.55 -0.63,0.96 -1.4,0.96 -0.78,0 -1.37,-0.38 -1.37,-0.93 0,-0.24 0.15,-0.37 0.36,-0.37 0.22,0 0.36,0.16 0.36,0.35 0,0.2 -0.14,0.35 -0.36,0.36 0.25,0.31 0.73,0.39 0.99,0.39 0.31,0 0.75,-0.16 0.75,-0.76 0,-0.29 -0.1,-0.61 -0.28,-0.83 -0.23,-0.26 -0.43,-0.28 -0.77,-0.3 -0.18,-0.01 -0.19,-0.01 -0.23,-0.02 -0.01,0 -0.07,-0.01 -0.07,-0.09 0,-0.1 0.07,-0.1 0.18,-0.1 z"
           id="path10862"
           style="fill:#4d4d4d;fill-opacity:1;stroke-width:0" /><path
           inkscape:connector-curvature="0"
           d="m 239.67,706.9 -0.24,0 c -0.02,-0.16 -0.09,-0.57 -0.18,-0.64 -0.06,-0.04 -0.59,-0.04 -0.69,-0.04 l -1.28,0 c 0.73,0.65 0.97,0.84 1.39,1.17 0.52,0.41 1,0.84 1,1.5 0,0.84 -0.74,1.36 -1.63,1.36 -0.87,0 -1.45,-0.61 -1.45,-1.25 0,-0.35 0.3,-0.39 0.37,-0.39 0.17,0 0.37,0.12 0.37,0.37 0,0.13 -0.05,0.37 -0.41,0.37 0.21,0.49 0.69,0.65 1.01,0.65 0.7,0 1.06,-0.54 1.06,-1.11 0,-0.6 -0.43,-1.08 -0.65,-1.33 l -1.68,-1.66 c -0.07,-0.06 -0.07,-0.07 -0.07,-0.27 l 2.87,0 z"
           id="path10864"
           style="fill:#4d4d4d;fill-opacity:1;stroke-width:0" /></g>      <g
         style="font-style:normal;font-variant:normal;font-weight:normal;font-stretch:normal;letter-spacing:normal;word-spacing:normal;text-anchor:start;fill:#4d4d4d;fill-opacity:1;fill-rule:evenodd;stroke:#000000;stroke-linecap:butt;stroke-linejoin:miter;stroke-miterlimit:10.43299961;stroke-dasharray:none;stroke-dashoffset:0;stroke-opacity:1"
         ns0:text="$m_{33}$"
         word-spacing="normal"
         letter-spacing="normal"
         font-size-adjust="none"
         font-stretch="normal"
         font-weight="normal"
         font-variant="normal"
         font-style="normal"
         stroke-miterlimit="10.433"
         xml:space="preserve"
         transform="matrix(2.7314162,0,0,-2.7314162,-223.19773,2294.5743)"
         id="g10866"><path
           inkscape:connector-curvature="0"
           id="path10868"
           d="m 224.31,707.71 0,-0.01 -0.01,-0.02 0,-0.01 0,-0.02 -0.01,-0.03 -0.01,-0.03 -0.01,-0.03 0,-0.04 -0.01,-0.03 -0.01,-0.03 0,-0.01 -0.01,-0.02 0,-0.01 0,-0.02 0,-0.01 -0.01,-0.01 0,-0.02 0,-0.01 0,-0.01 -0.01,-0.01 0,-0.01 0,-0.01 0,-0.01 0,0 0,-0.01 0,-0.01 c 0,-0.18 0.14,-0.26 0.29,-0.26 0.12,0 0.29,0.07 0.37,0.27 0,0.02 0.12,0.49 0.18,0.74 l 0.22,0.89 c 0.06,0.22 0.12,0.44 0.17,0.67 0.04,0.17 0.12,0.46 0.13,0.5 0.15,0.3 0.68,1.21 1.62,1.21 0.45,0 0.54,-0.37 0.54,-0.7 0,-0.25 -0.07,-0.52 -0.15,-0.82 l -0.28,-1.16 -0.2,-0.75 c -0.04,-0.2 -0.13,-0.54 -0.13,-0.59 0,-0.18 0.14,-0.26 0.29,-0.26 0.31,0 0.37,0.24 0.45,0.56 0.14,0.56 0.51,2.01 0.6,2.4 0.03,0.12 0.55,1.32 1.64,1.32 0.43,0 0.54,-0.34 0.54,-0.7 0,-0.56 -0.42,-1.7 -0.62,-2.22 -0.09,-0.24 -0.13,-0.35 -0.13,-0.55 0,-0.47 0.35,-0.81 0.82,-0.81 0.93,0 1.3,1.45 1.3,1.53 0,0.1 -0.09,0.1 -0.12,0.1 -0.1,0 -0.1,-0.04 -0.15,-0.18 -0.15,-0.53 -0.47,-1.24 -1.01,-1.24 -0.17,0 -0.24,0.1 -0.24,0.33 0,0.25 0.09,0.49 0.18,0.71 0.18,0.51 0.6,1.62 0.6,2.18 0,0.65 -0.39,1.07 -1.14,1.07 -0.75,0 -1.25,-0.44 -1.62,-0.97 -0.01,0.13 -0.04,0.47 -0.32,0.71 -0.25,0.21 -0.57,0.26 -0.82,0.26 -0.89,0 -1.38,-0.64 -1.55,-0.87 -0.05,0.57 -0.47,0.87 -0.92,0.87 -0.45,0 -0.64,-0.39 -0.73,-0.57 -0.18,-0.35 -0.31,-0.93 -0.31,-0.96 0,-0.1 0.1,-0.1 0.12,-0.1 0.1,0 0.11,0.01 0.17,0.22 0.17,0.71 0.37,1.19 0.73,1.19 0.16,0 0.3,-0.08 0.3,-0.46 0,-0.21 -0.03,-0.32 -0.16,-0.83 z"
           style="fill:#4d4d4d;fill-opacity:1;stroke-width:0" /><path
           inkscape:connector-curvature="0"
           id="path10870"
           d="m 234.08,707.95 0.05,0 0.05,0 0.05,-0.01 0.05,0 0.04,-0.01 0.05,-0.02 0.04,-0.01 0.05,-0.02 0.04,-0.02 0.04,-0.02 0.04,-0.02 0.03,-0.02 0.04,-0.03 0.04,-0.03 0.03,-0.03 0.03,-0.04 0.03,-0.03 0.03,-0.04 0.03,-0.04 0.02,-0.04 0.03,-0.05 0.02,-0.05 0.02,-0.05 0.01,-0.05 0.02,-0.05 0.01,-0.06 0.02,-0.05 0.01,-0.06 0,-0.07 0.01,-0.06 0,-0.07 0,-0.07 c 0,-0.86 -0.5,-1.12 -0.9,-1.12 -0.28,0 -0.89,0.08 -1.19,0.49 0.33,0.02 0.41,0.25 0.41,0.39 0,0.22 -0.17,0.38 -0.38,0.38 -0.2,0 -0.4,-0.12 -0.4,-0.4 0,-0.65 0.73,-1.08 1.57,-1.08 0.97,0 1.64,0.65 1.64,1.34 0,0.55 -0.45,1.09 -1.21,1.25 0.73,0.26 0.99,0.78 0.99,1.21 0,0.55 -0.63,0.96 -1.4,0.96 -0.78,0 -1.37,-0.38 -1.37,-0.93 0,-0.24 0.15,-0.37 0.36,-0.37 0.22,0 0.36,0.16 0.36,0.35 0,0.2 -0.14,0.35 -0.36,0.36 0.25,0.31 0.73,0.39 0.99,0.39 0.31,0 0.75,-0.16 0.75,-0.76 0,-0.29 -0.1,-0.61 -0.28,-0.83 -0.23,-0.26 -0.43,-0.28 -0.77,-0.3 -0.18,-0.01 -0.19,-0.01 -0.23,-0.02 -0.01,0 -0.07,-0.01 -0.07,-0.09 0,-0.1 0.07,-0.1 0.18,-0.1 z"
           style="fill:#4d4d4d;fill-opacity:1;stroke-width:0" /><path
           inkscape:connector-curvature="0"
           id="path10872"
           d="m 238.05,707.95 0.05,0 0.05,0 0.05,-0.01 0.05,0 0.04,-0.01 0.05,-0.02 0.04,-0.01 0.05,-0.02 0.04,-0.02 0.04,-0.02 0.04,-0.02 0.04,-0.02 0.03,-0.03 0.04,-0.03 0.03,-0.03 0.03,-0.04 0.03,-0.03 0.03,-0.04 0.03,-0.04 0.02,-0.04 0.03,-0.05 0.02,-0.05 0.02,-0.05 0.02,-0.05 0.01,-0.05 0.02,-0.06 0.01,-0.05 0.01,-0.06 0,-0.07 0.01,-0.06 0,-0.07 0.01,-0.07 c 0,-0.86 -0.51,-1.12 -0.91,-1.12 -0.28,0 -0.89,0.08 -1.18,0.49 0.32,0.02 0.4,0.25 0.4,0.39 0,0.22 -0.17,0.38 -0.38,0.38 -0.2,0 -0.39,-0.12 -0.39,-0.4 0,-0.65 0.72,-1.08 1.56,-1.08 0.97,0 1.64,0.65 1.64,1.34 0,0.55 -0.44,1.09 -1.21,1.25 0.73,0.26 0.99,0.78 0.99,1.21 0,0.55 -0.63,0.96 -1.4,0.96 -0.77,0 -1.37,-0.38 -1.37,-0.93 0,-0.24 0.16,-0.37 0.36,-0.37 0.22,0 0.36,0.16 0.36,0.35 0,0.2 -0.14,0.35 -0.36,0.36 0.25,0.31 0.73,0.39 0.99,0.39 0.31,0 0.75,-0.16 0.75,-0.76 0,-0.29 -0.1,-0.61 -0.28,-0.83 -0.23,-0.26 -0.43,-0.28 -0.77,-0.3 -0.18,-0.01 -0.19,-0.01 -0.23,-0.02 -0.01,0 -0.07,-0.01 -0.07,-0.09 0,-0.1 0.07,-0.1 0.19,-0.1 z"
           style="fill:#4d4d4d;fill-opacity:1;stroke-width:0" /></g>      <path
         style="fill:none;fill-rule:evenodd;stroke:#4d4d4d;stroke-width:2.15054131;stroke-linecap:butt;stroke-linejoin:round;stroke-miterlimit:4;stroke-dasharray:none;stroke-opacity:1"
         d="m 491.37485,273.70554 19.56826,0 0,128.83425 -19.56826,0"
         id="path10874"
         inkscape:connector-curvature="0"
         sodipodi:nodetypes="cccc" />
      <g
         style="font-style:normal;font-variant:normal;font-weight:normal;font-stretch:normal;letter-spacing:normal;word-spacing:normal;text-anchor:start;fill:#4d4d4d;fill-opacity:1;fill-rule:evenodd;stroke:#000000;stroke-linecap:butt;stroke-linejoin:miter;stroke-miterlimit:10.43299961;stroke-dasharray:none;stroke-dashoffset:0;stroke-opacity:1"
         ns0:text="$m_{41}$"
         word-spacing="normal"
         letter-spacing="normal"
         font-size-adjust="none"
         font-stretch="normal"
         font-weight="normal"
         font-variant="normal"
         font-style="normal"
         stroke-miterlimit="10.433"
         xml:space="preserve"
         transform="matrix(2.7800364,0,0,-2.7800364,-371.31236,2357.4277)"
         id="g10880"><path
           inkscape:connector-curvature="0"
           style="fill:#4d4d4d;fill-opacity:1;stroke-width:0"
           id="path10882"
           d="m 224.31,707.71 0,-0.01 -0.01,-0.02 0,-0.01 0,-0.02 -0.01,-0.03 -0.01,-0.03 -0.01,-0.03 0,-0.04 -0.01,-0.03 -0.01,-0.03 0,-0.01 -0.01,-0.02 0,-0.01 0,-0.02 0,-0.01 -0.01,-0.01 0,-0.02 0,-0.01 0,-0.01 -0.01,-0.01 0,-0.01 0,-0.01 0,-0.01 0,0 0,-0.01 0,-0.01 c 0,-0.18 0.14,-0.26 0.29,-0.26 0.12,0 0.29,0.07 0.37,0.27 0,0.02 0.12,0.49 0.18,0.74 l 0.22,0.89 c 0.06,0.22 0.12,0.44 0.17,0.67 0.04,0.17 0.12,0.46 0.13,0.5 0.15,0.3 0.68,1.21 1.62,1.21 0.45,0 0.54,-0.37 0.54,-0.7 0,-0.25 -0.07,-0.52 -0.15,-0.82 l -0.28,-1.16 -0.2,-0.75 c -0.04,-0.2 -0.13,-0.54 -0.13,-0.59 0,-0.18 0.14,-0.26 0.29,-0.26 0.31,0 0.37,0.24 0.45,0.56 0.14,0.56 0.51,2.01 0.6,2.4 0.03,0.12 0.55,1.32 1.64,1.32 0.43,0 0.54,-0.34 0.54,-0.7 0,-0.56 -0.42,-1.7 -0.62,-2.22 -0.09,-0.24 -0.13,-0.35 -0.13,-0.55 0,-0.47 0.35,-0.81 0.82,-0.81 0.93,0 1.3,1.45 1.3,1.53 0,0.1 -0.09,0.1 -0.12,0.1 -0.1,0 -0.1,-0.04 -0.15,-0.18 -0.15,-0.53 -0.47,-1.24 -1.01,-1.24 -0.17,0 -0.24,0.1 -0.24,0.33 0,0.25 0.09,0.49 0.18,0.71 0.18,0.51 0.6,1.62 0.6,2.18 0,0.65 -0.39,1.07 -1.14,1.07 -0.75,0 -1.25,-0.44 -1.62,-0.97 -0.01,0.13 -0.04,0.47 -0.32,0.71 -0.25,0.21 -0.57,0.26 -0.82,0.26 -0.89,0 -1.38,-0.64 -1.55,-0.87 -0.05,0.57 -0.47,0.87 -0.92,0.87 -0.45,0 -0.64,-0.39 -0.73,-0.57 -0.18,-0.35 -0.31,-0.93 -0.31,-0.96 0,-0.1 0.1,-0.1 0.12,-0.1 0.1,0 0.11,0.01 0.17,0.22 0.17,0.71 0.37,1.19 0.73,1.19 0.16,0 0.3,-0.08 0.3,-0.46 0,-0.21 -0.03,-0.32 -0.16,-0.83 z" /><path
           inkscape:connector-curvature="0"
           style="fill:#4d4d4d;fill-opacity:1;stroke-width:0"
           id="path10884"
           d="m 235.86,706.77 0,0.25 -0.77,0 0,3.1 c 0,0.15 0,0.2 -0.15,0.2 -0.09,0 -0.12,0 -0.18,-0.1 l -2.31,-3.2 0,-0.25 2.05,0 0.05,0.25 -1.84,0 1.84,2.55 0,-2.55 -0.05,-0.25 0,-0.57 c 0,-0.23 0,-0.32 -0.57,-0.32 l -0.18,0 0,-0.25 c 0.34,0.02 0.79,0.03 1.04,0.03 0.26,0 0.7,-0.01 1.05,-0.03 l 0,0.25 -0.19,0 c -0.56,0 -0.56,0.09 -0.56,0.32 l 0,0.57 z" /><path
           inkscape:connector-curvature="0"
           style="fill:#4d4d4d;fill-opacity:1;stroke-width:0"
           id="path10886"
           d="m 238.48,710.05 0,0.01 0,0.01 0,0.01 0,0.01 0,0 0,0.01 0,0.01 0,0.01 0,0 0,0.01 0,0.01 0,0 0,0.01 0,0 0,0.01 0,0 0,0.01 0,0 -0.01,0.01 0,0.01 0,0.01 0,0 -0.01,0.01 0,0.01 -0.01,0 0,0.01 -0.01,0 -0.01,0 0,0.01 -0.01,0 -0.01,0 -0.01,0 0,0 -0.01,0 -0.01,0 0,0.01 -0.01,0 0,0 -0.01,0 -0.01,0 0,0 -0.01,0 -0.01,0 0,0 -0.01,0 -0.01,0 -0.01,0 -0.01,0 -0.01,0 -0.01,0 c -0.44,-0.44 -1.07,-0.45 -1.36,-0.45 l 0,-0.25 c 0.17,0 0.63,0 1.01,0.2 l 0,-3.55 c 0,-0.23 0,-0.32 -0.7,-0.32 l -0.26,0 0,-0.25 c 0.12,0.01 0.98,0.03 1.24,0.03 0.21,0 1.09,-0.02 1.25,-0.03 l 0,0.25 -0.27,0 c -0.7,0 -0.7,0.09 -0.7,0.32 z" /></g>      <g
         id="g10888"
         transform="matrix(2.7416909,0,0,-2.7416909,-294.11504,2330.257)"
         xml:space="preserve"
         stroke-miterlimit="10.433"
         font-style="normal"
         font-variant="normal"
         font-weight="normal"
         font-stretch="normal"
         font-size-adjust="none"
         letter-spacing="normal"
         word-spacing="normal"
         ns0:text="$m_{42}$"
         style="font-style:normal;font-variant:normal;font-weight:normal;font-stretch:normal;letter-spacing:normal;word-spacing:normal;text-anchor:start;fill:#4d4d4d;fill-opacity:1;fill-rule:evenodd;stroke:#000000;stroke-linecap:butt;stroke-linejoin:miter;stroke-miterlimit:10.43299961;stroke-dasharray:none;stroke-dashoffset:0;stroke-opacity:1"><path
           inkscape:connector-curvature="0"
           style="fill:#4d4d4d;fill-opacity:1;stroke-width:0"
           d="m 224.31,707.71 0,-0.01 -0.01,-0.02 0,-0.01 0,-0.02 -0.01,-0.03 -0.01,-0.03 -0.01,-0.03 0,-0.04 -0.01,-0.03 -0.01,-0.03 0,-0.01 -0.01,-0.02 0,-0.01 0,-0.02 0,-0.01 -0.01,-0.01 0,-0.02 0,-0.01 0,-0.01 -0.01,-0.01 0,-0.01 0,-0.01 0,-0.01 0,0 0,-0.01 0,-0.01 c 0,-0.18 0.14,-0.26 0.29,-0.26 0.12,0 0.29,0.07 0.37,0.27 0,0.02 0.12,0.49 0.18,0.74 l 0.22,0.89 c 0.06,0.22 0.12,0.44 0.17,0.67 0.04,0.17 0.12,0.46 0.13,0.5 0.15,0.3 0.68,1.21 1.62,1.21 0.45,0 0.54,-0.37 0.54,-0.7 0,-0.25 -0.07,-0.52 -0.15,-0.82 l -0.28,-1.16 -0.2,-0.75 c -0.04,-0.2 -0.13,-0.54 -0.13,-0.59 0,-0.18 0.14,-0.26 0.29,-0.26 0.31,0 0.37,0.24 0.45,0.56 0.14,0.56 0.51,2.01 0.6,2.4 0.03,0.12 0.55,1.32 1.64,1.32 0.43,0 0.54,-0.34 0.54,-0.7 0,-0.56 -0.42,-1.7 -0.62,-2.22 -0.09,-0.24 -0.13,-0.35 -0.13,-0.55 0,-0.47 0.35,-0.81 0.82,-0.81 0.93,0 1.3,1.45 1.3,1.53 0,0.1 -0.09,0.1 -0.12,0.1 -0.1,0 -0.1,-0.04 -0.15,-0.18 -0.15,-0.53 -0.47,-1.24 -1.01,-1.24 -0.17,0 -0.24,0.1 -0.24,0.33 0,0.25 0.09,0.49 0.18,0.71 0.18,0.51 0.6,1.62 0.6,2.18 0,0.65 -0.39,1.07 -1.14,1.07 -0.75,0 -1.25,-0.44 -1.62,-0.97 -0.01,0.13 -0.04,0.47 -0.32,0.71 -0.25,0.21 -0.57,0.26 -0.82,0.26 -0.89,0 -1.38,-0.64 -1.55,-0.87 -0.05,0.57 -0.47,0.87 -0.92,0.87 -0.45,0 -0.64,-0.39 -0.73,-0.57 -0.18,-0.35 -0.31,-0.93 -0.31,-0.96 0,-0.1 0.1,-0.1 0.12,-0.1 0.1,0 0.11,0.01 0.17,0.22 0.17,0.71 0.37,1.19 0.73,1.19 0.16,0 0.3,-0.08 0.3,-0.46 0,-0.21 -0.03,-0.32 -0.16,-0.83 z"
           id="path10890" /><path
           inkscape:connector-curvature="0"
           style="fill:#4d4d4d;fill-opacity:1;stroke-width:0"
           d="m 235.86,706.77 0,0.25 -0.77,0 0,3.1 c 0,0.15 0,0.2 -0.15,0.2 -0.09,0 -0.12,0 -0.18,-0.1 l -2.31,-3.2 0,-0.25 2.05,0 0.05,0.25 -1.84,0 1.84,2.55 0,-2.55 -0.05,-0.25 0,-0.57 c 0,-0.23 0,-0.32 -0.57,-0.32 l -0.18,0 0,-0.25 c 0.34,0.02 0.79,0.03 1.04,0.03 0.26,0 0.7,-0.01 1.05,-0.03 l 0,0.25 -0.19,0 c -0.56,0 -0.56,0.09 -0.56,0.32 l 0,0.57 z"
           id="path10892" /><path
           inkscape:connector-curvature="0"
           style="fill:#4d4d4d;fill-opacity:1;stroke-width:0"
           d="m 239.67,706.9 -0.24,0 c -0.02,-0.16 -0.09,-0.57 -0.18,-0.64 -0.06,-0.04 -0.59,-0.04 -0.69,-0.04 l -1.28,0 c 0.73,0.65 0.97,0.84 1.39,1.17 0.52,0.41 1,0.84 1,1.5 0,0.84 -0.74,1.36 -1.63,1.36 -0.87,0 -1.45,-0.61 -1.45,-1.25 0,-0.35 0.3,-0.39 0.37,-0.39 0.17,0 0.37,0.12 0.37,0.37 0,0.13 -0.05,0.37 -0.41,0.37 0.21,0.49 0.69,0.65 1.01,0.65 0.7,0 1.06,-0.54 1.06,-1.11 0,-0.6 -0.43,-1.08 -0.65,-1.33 l -1.68,-1.66 c -0.07,-0.06 -0.07,-0.07 -0.07,-0.27 l 2.87,0 z"
           id="path10894" /></g>      <g
         style="font-style:normal;font-variant:normal;font-weight:normal;font-stretch:normal;letter-spacing:normal;word-spacing:normal;text-anchor:start;fill:#4d4d4d;fill-opacity:1;fill-rule:evenodd;stroke:#000000;stroke-linecap:butt;stroke-linejoin:miter;stroke-miterlimit:10.43299961;stroke-dasharray:none;stroke-dashoffset:0;stroke-opacity:1"
         ns0:text="$m_{43}$"
         word-spacing="normal"
         letter-spacing="normal"
         font-size-adjust="none"
         font-stretch="normal"
         font-weight="normal"
         font-variant="normal"
         font-style="normal"
         stroke-miterlimit="10.433"
         xml:space="preserve"
         transform="matrix(2.7314162,0,0,-2.7314162,-223.19773,2322.7854)"
         id="g10896"><path
           inkscape:connector-curvature="0"
           style="fill:#4d4d4d;fill-opacity:1;stroke-width:0"
           id="path10898"
           d="m 224.31,707.71 0,-0.01 -0.01,-0.02 0,-0.01 0,-0.02 -0.01,-0.03 -0.01,-0.03 -0.01,-0.03 0,-0.04 -0.01,-0.03 -0.01,-0.03 0,-0.01 -0.01,-0.02 0,-0.01 0,-0.02 0,-0.01 -0.01,-0.01 0,-0.02 0,-0.01 0,-0.01 -0.01,-0.01 0,-0.01 0,-0.01 0,-0.01 0,0 0,-0.01 0,-0.01 c 0,-0.18 0.14,-0.26 0.29,-0.26 0.12,0 0.29,0.07 0.37,0.27 0,0.02 0.12,0.49 0.18,0.74 l 0.22,0.89 c 0.06,0.22 0.12,0.44 0.17,0.67 0.04,0.17 0.12,0.46 0.13,0.5 0.15,0.3 0.68,1.21 1.62,1.21 0.45,0 0.54,-0.37 0.54,-0.7 0,-0.25 -0.07,-0.52 -0.15,-0.82 l -0.28,-1.16 -0.2,-0.75 c -0.04,-0.2 -0.13,-0.54 -0.13,-0.59 0,-0.18 0.14,-0.26 0.29,-0.26 0.31,0 0.37,0.24 0.45,0.56 0.14,0.56 0.51,2.01 0.6,2.4 0.03,0.12 0.55,1.32 1.64,1.32 0.43,0 0.54,-0.34 0.54,-0.7 0,-0.56 -0.42,-1.7 -0.62,-2.22 -0.09,-0.24 -0.13,-0.35 -0.13,-0.55 0,-0.47 0.35,-0.81 0.82,-0.81 0.93,0 1.3,1.45 1.3,1.53 0,0.1 -0.09,0.1 -0.12,0.1 -0.1,0 -0.1,-0.04 -0.15,-0.18 -0.15,-0.53 -0.47,-1.24 -1.01,-1.24 -0.17,0 -0.24,0.1 -0.24,0.33 0,0.25 0.09,0.49 0.18,0.71 0.18,0.51 0.6,1.62 0.6,2.18 0,0.65 -0.39,1.07 -1.14,1.07 -0.75,0 -1.25,-0.44 -1.62,-0.97 -0.01,0.13 -0.04,0.47 -0.32,0.71 -0.25,0.21 -0.57,0.26 -0.82,0.26 -0.89,0 -1.38,-0.64 -1.55,-0.87 -0.05,0.57 -0.47,0.87 -0.92,0.87 -0.45,0 -0.64,-0.39 -0.73,-0.57 -0.18,-0.35 -0.31,-0.93 -0.31,-0.96 0,-0.1 0.1,-0.1 0.12,-0.1 0.1,0 0.11,0.01 0.17,0.22 0.17,0.71 0.37,1.19 0.73,1.19 0.16,0 0.3,-0.08 0.3,-0.46 0,-0.21 -0.03,-0.32 -0.16,-0.83 z" /><path
           inkscape:connector-curvature="0"
           style="fill:#4d4d4d;fill-opacity:1;stroke-width:0"
           id="path10900"
           d="m 235.86,706.77 0,0.25 -0.77,0 0,3.1 c 0,0.15 0,0.2 -0.15,0.2 -0.09,0 -0.12,0 -0.18,-0.1 l -2.31,-3.2 0,-0.25 2.05,0 0.05,0.25 -1.84,0 1.84,2.55 0,-2.55 -0.05,-0.25 0,-0.57 c 0,-0.23 0,-0.32 -0.57,-0.32 l -0.18,0 0,-0.25 c 0.34,0.02 0.79,0.03 1.04,0.03 0.26,0 0.7,-0.01 1.05,-0.03 l 0,0.25 -0.19,0 c -0.56,0 -0.56,0.09 -0.56,0.32 l 0,0.57 z" /><path
           inkscape:connector-curvature="0"
           style="fill:#4d4d4d;fill-opacity:1;stroke-width:0"
           id="path10902"
           d="m 238.05,707.95 0.05,0 0.05,0 0.05,-0.01 0.05,0 0.04,-0.01 0.05,-0.02 0.04,-0.01 0.05,-0.02 0.04,-0.02 0.04,-0.02 0.04,-0.02 0.04,-0.02 0.03,-0.03 0.04,-0.03 0.03,-0.03 0.03,-0.04 0.03,-0.03 0.03,-0.04 0.03,-0.04 0.02,-0.04 0.03,-0.05 0.02,-0.05 0.02,-0.05 0.02,-0.05 0.01,-0.05 0.02,-0.06 0.01,-0.05 0.01,-0.06 0,-0.07 0.01,-0.06 0,-0.07 0.01,-0.07 c 0,-0.86 -0.51,-1.12 -0.91,-1.12 -0.28,0 -0.89,0.08 -1.18,0.49 0.32,0.02 0.4,0.25 0.4,0.39 0,0.22 -0.17,0.38 -0.38,0.38 -0.2,0 -0.39,-0.12 -0.39,-0.4 0,-0.65 0.72,-1.08 1.56,-1.08 0.97,0 1.64,0.65 1.64,1.34 0,0.55 -0.44,1.09 -1.21,1.25 0.73,0.26 0.99,0.78 0.99,1.21 0,0.55 -0.63,0.96 -1.4,0.96 -0.77,0 -1.37,-0.38 -1.37,-0.93 0,-0.24 0.16,-0.37 0.36,-0.37 0.22,0 0.36,0.16 0.36,0.35 0,0.2 -0.14,0.35 -0.36,0.36 0.25,0.31 0.73,0.39 0.99,0.39 0.31,0 0.75,-0.16 0.75,-0.76 0,-0.29 -0.1,-0.61 -0.28,-0.83 -0.23,-0.26 -0.43,-0.28 -0.77,-0.3 -0.18,-0.01 -0.19,-0.01 -0.23,-0.02 -0.01,0 -0.07,-0.01 -0.07,-0.09 0,-0.1 0.07,-0.1 0.19,-0.1 z" /></g>      <g
         style="font-style:normal;font-variant:normal;font-weight:normal;font-stretch:normal;letter-spacing:normal;word-spacing:normal;text-anchor:start;fill:#4d4d4d;fill-opacity:1;fill-rule:evenodd;stroke:#000000;stroke-linecap:butt;stroke-linejoin:miter;stroke-miterlimit:10.43299961;stroke-dasharray:none;stroke-dashoffset:0;stroke-opacity:1"
         ns0:text="$m_{14}$"
         word-spacing="normal"
         letter-spacing="normal"
         font-size-adjust="none"
         font-stretch="normal"
         font-weight="normal"
         font-variant="normal"
         font-style="normal"
         stroke-miterlimit="10.433"
         xml:space="preserve"
         transform="matrix(2.7314162,0,0,-2.7314162,-154.72929,2227.9618)"
         id="g10904"><path
           inkscape:connector-curvature="0"
           style="fill:#4d4d4d;fill-opacity:1;stroke-width:0"
           id="path10906"
           d="m 224.31,707.71 0,-0.01 -0.01,-0.02 0,-0.01 0,-0.02 -0.01,-0.03 -0.01,-0.03 -0.01,-0.03 0,-0.04 -0.01,-0.03 -0.01,-0.03 0,-0.01 -0.01,-0.02 0,-0.01 0,-0.02 0,-0.01 -0.01,-0.01 0,-0.02 0,-0.01 0,-0.01 -0.01,-0.01 0,-0.01 0,-0.01 0,-0.01 0,0 0,-0.01 0,-0.01 c 0,-0.18 0.14,-0.26 0.29,-0.26 0.12,0 0.29,0.07 0.37,0.27 0,0.02 0.12,0.49 0.18,0.74 l 0.22,0.89 c 0.06,0.22 0.12,0.44 0.17,0.67 0.04,0.17 0.12,0.46 0.13,0.5 0.15,0.3 0.68,1.21 1.62,1.21 0.45,0 0.54,-0.37 0.54,-0.7 0,-0.25 -0.07,-0.52 -0.15,-0.82 l -0.28,-1.16 -0.2,-0.75 c -0.04,-0.2 -0.13,-0.54 -0.13,-0.59 0,-0.18 0.14,-0.26 0.29,-0.26 0.31,0 0.37,0.24 0.45,0.56 0.14,0.56 0.51,2.01 0.6,2.4 0.03,0.12 0.55,1.32 1.64,1.32 0.43,0 0.54,-0.34 0.54,-0.7 0,-0.56 -0.42,-1.7 -0.62,-2.22 -0.09,-0.24 -0.13,-0.35 -0.13,-0.55 0,-0.47 0.35,-0.81 0.82,-0.81 0.93,0 1.3,1.45 1.3,1.53 0,0.1 -0.09,0.1 -0.12,0.1 -0.1,0 -0.1,-0.04 -0.15,-0.18 -0.15,-0.53 -0.47,-1.24 -1.01,-1.24 -0.17,0 -0.24,0.1 -0.24,0.33 0,0.25 0.09,0.49 0.18,0.71 0.18,0.51 0.6,1.62 0.6,2.18 0,0.65 -0.39,1.07 -1.14,1.07 -0.75,0 -1.25,-0.44 -1.62,-0.97 -0.01,0.13 -0.04,0.47 -0.32,0.71 -0.25,0.21 -0.57,0.26 -0.82,0.26 -0.89,0 -1.38,-0.64 -1.55,-0.87 -0.05,0.57 -0.47,0.87 -0.92,0.87 -0.45,0 -0.64,-0.39 -0.73,-0.57 -0.18,-0.35 -0.31,-0.93 -0.31,-0.96 0,-0.1 0.1,-0.1 0.12,-0.1 0.1,0 0.11,0.01 0.17,0.22 0.17,0.71 0.37,1.19 0.73,1.19 0.16,0 0.3,-0.08 0.3,-0.46 0,-0.21 -0.03,-0.32 -0.16,-0.83 z" /><path
           inkscape:connector-curvature="0"
           style="fill:#4d4d4d;fill-opacity:1;stroke-width:0"
           id="path10908"
           d="m 234.51,710.05 0,0.01 0,0.01 0,0.01 0,0.01 0,0 0,0.01 0,0.01 0,0.01 0,0 0,0.01 0,0.01 0,0 0,0.01 0,0 0,0.01 0,0 0,0.01 -0.01,0 0,0.01 0,0.01 0,0.01 -0.01,0 0,0.01 0,0.01 -0.01,0 0,0.01 -0.01,0 -0.01,0 -0.01,0.01 0,0 -0.01,0 -0.01,0 -0.01,0 0,0 -0.01,0 0,0.01 -0.01,0 -0.01,0 0,0 -0.01,0 -0.01,0 0,0 -0.01,0 -0.01,0 0,0 -0.01,0 -0.01,0 -0.01,0 -0.01,0 -0.01,0 c -0.44,-0.44 -1.08,-0.45 -1.36,-0.45 l 0,-0.25 c 0.16,0 0.63,0 1.01,0.2 l 0,-3.55 c 0,-0.23 0,-0.32 -0.7,-0.32 l -0.26,0 0,-0.25 c 0.12,0.01 0.98,0.03 1.24,0.03 0.21,0 1.09,-0.02 1.24,-0.03 l 0,0.25 -0.26,0 c -0.7,0 -0.7,0.09 -0.7,0.32 z" /><path
           inkscape:connector-curvature="0"
           style="fill:#4d4d4d;fill-opacity:1;stroke-width:0"
           id="path10910"
           d="m 239.84,706.77 0,0.25 -0.78,0 0,3.1 c 0,0.15 0,0.2 -0.15,0.2 -0.09,0 -0.11,0 -0.18,-0.1 l -2.31,-3.2 0,-0.25 2.05,0 0.05,0.25 -1.84,0 1.84,2.55 0,-2.55 -0.05,-0.25 0,-0.57 c 0,-0.23 0,-0.32 -0.56,-0.32 l -0.19,0 0,-0.25 c 0.35,0.02 0.79,0.03 1.04,0.03 0.26,0 0.71,-0.01 1.05,-0.03 l 0,0.25 -0.18,0 c -0.57,0 -0.57,0.09 -0.57,0.32 l 0,0.57 z" /></g>      <g
         id="g10912"
         transform="matrix(2.7314162,0,0,-2.7314162,-154.72929,2263.2043)"
         xml:space="preserve"
         stroke-miterlimit="10.433"
         font-style="normal"
         font-variant="normal"
         font-weight="normal"
         font-stretch="normal"
         font-size-adjust="none"
         letter-spacing="normal"
         word-spacing="normal"
         ns0:text="$m_{24}$"
         style="font-style:normal;font-variant:normal;font-weight:normal;font-stretch:normal;letter-spacing:normal;word-spacing:normal;text-anchor:start;fill:#4d4d4d;fill-opacity:1;fill-rule:evenodd;stroke:#000000;stroke-linecap:butt;stroke-linejoin:miter;stroke-miterlimit:10.43299961;stroke-dasharray:none;stroke-dashoffset:0;stroke-opacity:1"><path
           inkscape:connector-curvature="0"
           style="fill:#4d4d4d;fill-opacity:1;stroke-width:0"
           d="m 224.31,707.71 0,-0.01 -0.01,-0.02 0,-0.01 0,-0.02 -0.01,-0.03 -0.01,-0.03 -0.01,-0.03 0,-0.04 -0.01,-0.03 -0.01,-0.03 0,-0.01 -0.01,-0.02 0,-0.01 0,-0.02 0,-0.01 -0.01,-0.01 0,-0.02 0,-0.01 0,-0.01 -0.01,-0.01 0,-0.01 0,-0.01 0,-0.01 0,0 0,-0.01 0,-0.01 c 0,-0.18 0.14,-0.26 0.29,-0.26 0.12,0 0.29,0.07 0.37,0.27 0,0.02 0.12,0.49 0.18,0.74 l 0.22,0.89 c 0.06,0.22 0.12,0.44 0.17,0.67 0.04,0.17 0.12,0.46 0.13,0.5 0.15,0.3 0.68,1.21 1.62,1.21 0.45,0 0.54,-0.37 0.54,-0.7 0,-0.25 -0.07,-0.52 -0.15,-0.82 l -0.28,-1.16 -0.2,-0.75 c -0.04,-0.2 -0.13,-0.54 -0.13,-0.59 0,-0.18 0.14,-0.26 0.29,-0.26 0.31,0 0.37,0.24 0.45,0.56 0.14,0.56 0.51,2.01 0.6,2.4 0.03,0.12 0.55,1.32 1.64,1.32 0.43,0 0.54,-0.34 0.54,-0.7 0,-0.56 -0.42,-1.7 -0.62,-2.22 -0.09,-0.24 -0.13,-0.35 -0.13,-0.55 0,-0.47 0.35,-0.81 0.82,-0.81 0.93,0 1.3,1.45 1.3,1.53 0,0.1 -0.09,0.1 -0.12,0.1 -0.1,0 -0.1,-0.04 -0.15,-0.18 -0.15,-0.53 -0.47,-1.24 -1.01,-1.24 -0.17,0 -0.24,0.1 -0.24,0.33 0,0.25 0.09,0.49 0.18,0.71 0.18,0.51 0.6,1.62 0.6,2.18 0,0.65 -0.39,1.07 -1.14,1.07 -0.75,0 -1.25,-0.44 -1.62,-0.97 -0.01,0.13 -0.04,0.47 -0.32,0.71 -0.25,0.21 -0.57,0.26 -0.82,0.26 -0.89,0 -1.38,-0.64 -1.55,-0.87 -0.05,0.57 -0.47,0.87 -0.92,0.87 -0.45,0 -0.64,-0.39 -0.73,-0.57 -0.18,-0.35 -0.31,-0.93 -0.31,-0.96 0,-0.1 0.1,-0.1 0.12,-0.1 0.1,0 0.11,0.01 0.17,0.22 0.17,0.71 0.37,1.19 0.73,1.19 0.16,0 0.3,-0.08 0.3,-0.46 0,-0.21 -0.03,-0.32 -0.16,-0.83 z"
           id="path10914" /><path
           inkscape:connector-curvature="0"
           style="fill:#4d4d4d;fill-opacity:1;stroke-width:0"
           d="m 235.7,706.9 -0.24,0 c -0.02,-0.16 -0.09,-0.57 -0.18,-0.64 -0.06,-0.04 -0.59,-0.04 -0.69,-0.04 l -1.28,0 c 0.73,0.65 0.97,0.84 1.39,1.17 0.51,0.41 1,0.84 1,1.5 0,0.84 -0.74,1.36 -1.63,1.36 -0.87,0 -1.45,-0.61 -1.45,-1.25 0,-0.35 0.3,-0.39 0.37,-0.39 0.16,0 0.37,0.12 0.37,0.37 0,0.13 -0.05,0.37 -0.41,0.37 0.21,0.49 0.68,0.65 1.01,0.65 0.7,0 1.06,-0.54 1.06,-1.11 0,-0.6 -0.43,-1.08 -0.65,-1.33 l -1.68,-1.66 c -0.07,-0.06 -0.07,-0.07 -0.07,-0.27 l 2.87,0 z"
           id="path10916" /><path
           inkscape:connector-curvature="0"
           style="fill:#4d4d4d;fill-opacity:1;stroke-width:0"
           d="m 239.84,706.77 0,0.25 -0.78,0 0,3.1 c 0,0.15 0,0.2 -0.15,0.2 -0.09,0 -0.11,0 -0.18,-0.1 l -2.31,-3.2 0,-0.25 2.05,0 0.05,0.25 -1.84,0 1.84,2.55 0,-2.55 -0.05,-0.25 0,-0.57 c 0,-0.23 0,-0.32 -0.56,-0.32 l -0.19,0 0,-0.25 c 0.35,0.02 0.79,0.03 1.04,0.03 0.26,0 0.71,-0.01 1.05,-0.03 l 0,0.25 -0.18,0 c -0.57,0 -0.57,0.09 -0.57,0.32 l 0,0.57 z"
           id="path10918" /></g>      <g
         style="font-style:normal;font-variant:normal;font-weight:normal;font-stretch:normal;letter-spacing:normal;word-spacing:normal;text-anchor:start;fill:#4d4d4d;fill-opacity:1;fill-rule:evenodd;stroke:#000000;stroke-linecap:butt;stroke-linejoin:miter;stroke-miterlimit:10.43299961;stroke-dasharray:none;stroke-dashoffset:0;stroke-opacity:1"
         ns0:text="$m_{34}$"
         word-spacing="normal"
         letter-spacing="normal"
         font-size-adjust="none"
         font-stretch="normal"
         font-weight="normal"
         font-variant="normal"
         font-style="normal"
         stroke-miterlimit="10.433"
         xml:space="preserve"
         transform="matrix(2.7314162,0,0,-2.7314162,-154.72929,2294.5743)"
         id="g10920"><path
           inkscape:connector-curvature="0"
           style="fill:#4d4d4d;fill-opacity:1;stroke-width:0"
           id="path10922"
           d="m 224.31,707.71 0,-0.01 -0.01,-0.02 0,-0.01 0,-0.02 -0.01,-0.03 -0.01,-0.03 -0.01,-0.03 0,-0.04 -0.01,-0.03 -0.01,-0.03 0,-0.01 -0.01,-0.02 0,-0.01 0,-0.02 0,-0.01 -0.01,-0.01 0,-0.02 0,-0.01 0,-0.01 -0.01,-0.01 0,-0.01 0,-0.01 0,-0.01 0,0 0,-0.01 0,-0.01 c 0,-0.18 0.14,-0.26 0.29,-0.26 0.12,0 0.29,0.07 0.37,0.27 0,0.02 0.12,0.49 0.18,0.74 l 0.22,0.89 c 0.06,0.22 0.12,0.44 0.17,0.67 0.04,0.17 0.12,0.46 0.13,0.5 0.15,0.3 0.68,1.21 1.62,1.21 0.45,0 0.54,-0.37 0.54,-0.7 0,-0.25 -0.07,-0.52 -0.15,-0.82 l -0.28,-1.16 -0.2,-0.75 c -0.04,-0.2 -0.13,-0.54 -0.13,-0.59 0,-0.18 0.14,-0.26 0.29,-0.26 0.31,0 0.37,0.24 0.45,0.56 0.14,0.56 0.51,2.01 0.6,2.4 0.03,0.12 0.55,1.32 1.64,1.32 0.43,0 0.54,-0.34 0.54,-0.7 0,-0.56 -0.42,-1.7 -0.62,-2.22 -0.09,-0.24 -0.13,-0.35 -0.13,-0.55 0,-0.47 0.35,-0.81 0.82,-0.81 0.93,0 1.3,1.45 1.3,1.53 0,0.1 -0.09,0.1 -0.12,0.1 -0.1,0 -0.1,-0.04 -0.15,-0.18 -0.15,-0.53 -0.47,-1.24 -1.01,-1.24 -0.17,0 -0.24,0.1 -0.24,0.33 0,0.25 0.09,0.49 0.18,0.71 0.18,0.51 0.6,1.62 0.6,2.18 0,0.65 -0.39,1.07 -1.14,1.07 -0.75,0 -1.25,-0.44 -1.62,-0.97 -0.01,0.13 -0.04,0.47 -0.32,0.71 -0.25,0.21 -0.57,0.26 -0.82,0.26 -0.89,0 -1.38,-0.64 -1.55,-0.87 -0.05,0.57 -0.47,0.87 -0.92,0.87 -0.45,0 -0.64,-0.39 -0.73,-0.57 -0.18,-0.35 -0.31,-0.93 -0.31,-0.96 0,-0.1 0.1,-0.1 0.12,-0.1 0.1,0 0.11,0.01 0.17,0.22 0.17,0.71 0.37,1.19 0.73,1.19 0.16,0 0.3,-0.08 0.3,-0.46 0,-0.21 -0.03,-0.32 -0.16,-0.83 z" /><path
           inkscape:connector-curvature="0"
           style="fill:#4d4d4d;fill-opacity:1;stroke-width:0"
           id="path10924"
           d="m 234.08,707.95 0.05,0 0.05,0 0.05,-0.01 0.05,0 0.04,-0.01 0.05,-0.02 0.04,-0.01 0.05,-0.02 0.04,-0.02 0.04,-0.02 0.04,-0.02 0.03,-0.02 0.04,-0.03 0.04,-0.03 0.03,-0.03 0.03,-0.04 0.03,-0.03 0.03,-0.04 0.03,-0.04 0.02,-0.04 0.03,-0.05 0.02,-0.05 0.02,-0.05 0.01,-0.05 0.02,-0.05 0.01,-0.06 0.02,-0.05 0.01,-0.06 0,-0.07 0.01,-0.06 0,-0.07 0,-0.07 c 0,-0.86 -0.5,-1.12 -0.9,-1.12 -0.28,0 -0.89,0.08 -1.19,0.49 0.33,0.02 0.41,0.25 0.41,0.39 0,0.22 -0.17,0.38 -0.38,0.38 -0.2,0 -0.4,-0.12 -0.4,-0.4 0,-0.65 0.73,-1.08 1.57,-1.08 0.97,0 1.64,0.65 1.64,1.34 0,0.55 -0.45,1.09 -1.21,1.25 0.73,0.26 0.99,0.78 0.99,1.21 0,0.55 -0.63,0.96 -1.4,0.96 -0.78,0 -1.37,-0.38 -1.37,-0.93 0,-0.24 0.15,-0.37 0.36,-0.37 0.22,0 0.36,0.16 0.36,0.35 0,0.2 -0.14,0.35 -0.36,0.36 0.25,0.31 0.73,0.39 0.99,0.39 0.31,0 0.75,-0.16 0.75,-0.76 0,-0.29 -0.1,-0.61 -0.28,-0.83 -0.23,-0.26 -0.43,-0.28 -0.77,-0.3 -0.18,-0.01 -0.19,-0.01 -0.23,-0.02 -0.01,0 -0.07,-0.01 -0.07,-0.09 0,-0.1 0.07,-0.1 0.18,-0.1 z" /><path
           inkscape:connector-curvature="0"
           style="fill:#4d4d4d;fill-opacity:1;stroke-width:0"
           id="path10926"
           d="m 239.84,706.77 0,0.25 -0.78,0 0,3.1 c 0,0.15 0,0.2 -0.15,0.2 -0.09,0 -0.11,0 -0.18,-0.1 l -2.31,-3.2 0,-0.25 2.05,0 0.05,0.25 -1.84,0 1.84,2.55 0,-2.55 -0.05,-0.25 0,-0.57 c 0,-0.23 0,-0.32 -0.56,-0.32 l -0.19,0 0,-0.25 c 0.35,0.02 0.79,0.03 1.04,0.03 0.26,0 0.71,-0.01 1.05,-0.03 l 0,0.25 -0.18,0 c -0.57,0 -0.57,0.09 -0.57,0.32 l 0,0.57 z" /></g>      <g
         id="g10928"
         transform="matrix(2.7314162,0,0,-2.7314162,-154.72929,2322.9766)"
         xml:space="preserve"
         stroke-miterlimit="10.433"
         font-style="normal"
         font-variant="normal"
         font-weight="normal"
         font-stretch="normal"
         font-size-adjust="none"
         letter-spacing="normal"
         word-spacing="normal"
         ns0:text="$m_{44}$"
         style="font-style:normal;font-variant:normal;font-weight:normal;font-stretch:normal;letter-spacing:normal;word-spacing:normal;text-anchor:start;fill:#4d4d4d;fill-opacity:1;fill-rule:evenodd;stroke:#000000;stroke-linecap:butt;stroke-linejoin:miter;stroke-miterlimit:10.43299961;stroke-dasharray:none;stroke-dashoffset:0;stroke-opacity:1"><path
           inkscape:connector-curvature="0"
           style="fill:#4d4d4d;fill-opacity:1;stroke-width:0"
           d="m 224.31,707.71 0,-0.01 -0.01,-0.02 0,-0.01 0,-0.02 -0.01,-0.03 -0.01,-0.03 -0.01,-0.03 0,-0.04 -0.01,-0.03 -0.01,-0.03 0,-0.01 -0.01,-0.02 0,-0.01 0,-0.02 0,-0.01 -0.01,-0.01 0,-0.02 0,-0.01 0,-0.01 -0.01,-0.01 0,-0.01 0,-0.01 0,-0.01 0,0 0,-0.01 0,-0.01 c 0,-0.18 0.14,-0.26 0.29,-0.26 0.12,0 0.29,0.07 0.37,0.27 0,0.02 0.12,0.49 0.18,0.74 l 0.22,0.89 c 0.06,0.22 0.12,0.44 0.17,0.67 0.04,0.17 0.12,0.46 0.13,0.5 0.15,0.3 0.68,1.21 1.62,1.21 0.45,0 0.54,-0.37 0.54,-0.7 0,-0.25 -0.07,-0.52 -0.15,-0.82 l -0.28,-1.16 -0.2,-0.75 c -0.04,-0.2 -0.13,-0.54 -0.13,-0.59 0,-0.18 0.14,-0.26 0.29,-0.26 0.31,0 0.37,0.24 0.45,0.56 0.14,0.56 0.51,2.01 0.6,2.4 0.03,0.12 0.55,1.32 1.64,1.32 0.43,0 0.54,-0.34 0.54,-0.7 0,-0.56 -0.42,-1.7 -0.62,-2.22 -0.09,-0.24 -0.13,-0.35 -0.13,-0.55 0,-0.47 0.35,-0.81 0.82,-0.81 0.93,0 1.3,1.45 1.3,1.53 0,0.1 -0.09,0.1 -0.12,0.1 -0.1,0 -0.1,-0.04 -0.15,-0.18 -0.15,-0.53 -0.47,-1.24 -1.01,-1.24 -0.17,0 -0.24,0.1 -0.24,0.33 0,0.25 0.09,0.49 0.18,0.71 0.18,0.51 0.6,1.62 0.6,2.18 0,0.65 -0.39,1.07 -1.14,1.07 -0.75,0 -1.25,-0.44 -1.62,-0.97 -0.01,0.13 -0.04,0.47 -0.32,0.71 -0.25,0.21 -0.57,0.26 -0.82,0.26 -0.89,0 -1.38,-0.64 -1.55,-0.87 -0.05,0.57 -0.47,0.87 -0.92,0.87 -0.45,0 -0.64,-0.39 -0.73,-0.57 -0.18,-0.35 -0.31,-0.93 -0.31,-0.96 0,-0.1 0.1,-0.1 0.12,-0.1 0.1,0 0.11,0.01 0.17,0.22 0.17,0.71 0.37,1.19 0.73,1.19 0.16,0 0.3,-0.08 0.3,-0.46 0,-0.21 -0.03,-0.32 -0.16,-0.83 z"
           id="path10930" /><path
           inkscape:connector-curvature="0"
           style="fill:#4d4d4d;fill-opacity:1;stroke-width:0"
           d="m 235.86,706.77 0,0.25 -0.77,0 0,3.1 c 0,0.15 0,0.2 -0.15,0.2 -0.09,0 -0.12,0 -0.18,-0.1 l -2.31,-3.2 0,-0.25 2.05,0 0.05,0.25 -1.84,0 1.84,2.55 0,-2.55 -0.05,-0.25 0,-0.57 c 0,-0.23 0,-0.32 -0.57,-0.32 l -0.18,0 0,-0.25 c 0.34,0.02 0.79,0.03 1.04,0.03 0.26,0 0.7,-0.01 1.05,-0.03 l 0,0.25 -0.19,0 c -0.56,0 -0.56,0.09 -0.56,0.32 l 0,0.57 z"
           id="path10932" /><path
           inkscape:connector-curvature="0"
           style="fill:#4d4d4d;fill-opacity:1;stroke-width:0"
           d="m 239.84,706.77 0,0.25 -0.78,0 0,3.1 c 0,0.15 0,0.2 -0.15,0.2 -0.09,0 -0.11,0 -0.18,-0.1 l -2.31,-3.2 0,-0.25 2.05,0 0.05,0.25 -1.84,0 1.84,2.55 0,-2.55 -0.05,-0.25 0,-0.57 c 0,-0.23 0,-0.32 -0.56,-0.32 l -0.19,0 0,-0.25 c 0.35,0.02 0.79,0.03 1.04,0.03 0.26,0 0.71,-0.01 1.05,-0.03 l 0,0.25 -0.18,0 c -0.57,0 -0.57,0.09 -0.57,0.32 l 0,0.57 z"
           id="path10934" /></g>    </g>
    <text
       xml:space="preserve"
       style="font-style:normal;font-weight:normal;font-size:40.34812164px;line-height:125%;font-family:Sans;letter-spacing:0px;word-spacing:0px;fill:#bd447f;fill-opacity:1;stroke:none;stroke-width:1px;stroke-linecap:butt;stroke-linejoin:miter;stroke-opacity:1"
       x="240.7157"
       y="453.35913"
       id="text10936"
       sodipodi:linespacing="125%"><tspan
         sodipodi:role="line"
         id="tspan10938"
         x="240.7157"
         y="453.35913"
         style="font-style:normal;font-variant:normal;font-weight:normal;font-stretch:normal;font-size:16.1392498px;font-family:sans-serif;-inkscape-font-specification:sans-serif;fill:#bd447f;fill-opacity:1">.slice_with_step((1, 0), (2, 2), (1, 2))</tspan></text>
    <g
       id="g4511"
       transform="translate(28.220445,8.6158407)">
      <g
         transform="translate(431.51355,216.20877)"
         id="g4403"
         style="fill:#4d4d4d;fill-opacity:1">
        <path
           style="font-style:normal;font-variant:normal;font-weight:normal;font-stretch:normal;letter-spacing:normal;word-spacing:normal;text-anchor:start;fill:#4d4d4d;fill-opacity:1;fill-rule:evenodd;stroke:#000000;stroke-width:0;stroke-linecap:butt;stroke-linejoin:miter;stroke-miterlimit:10.43299961;stroke-dasharray:none;stroke-dashoffset:0;stroke-opacity:1"
           inkscape:connector-curvature="0"
           d="m 268.82516,108.43745 0,0.0278 -0.0278,0.0556 0,0.0278 0,0.0556 -0.0278,0.0834 -0.0278,0.0834 -0.0278,0.0834 0,0.11121 -0.0278,0.0834 -0.0278,0.0834 0,0.0556 0,0.0278 -0.0278,0.0556 0,0.0278 0,0.0278 -0.0278,0.0556 0,0.0278 0,0.0278 0,0.0278 -0.0278,0.0278 0,0.0278 0,0.0278 0,0.0278 0,0.0278 0,0 0,0.0278 c 0,0.50041 0.3892,0.72281 0.80621,0.72281 0.33361,0 0.83402,-0.1946 1.02862,-0.75061 0.0278,-0.0556 0.36141,-1.36223 0.50041,-2.05724 l 0.61161,-2.47425 c 0.16681,-0.61161 0.33361,-1.22323 0.47261,-1.86264 0.11121,-0.47261 0.33361,-1.25102 0.36141,-1.36222 0.41701,-0.86182 1.89044,-3.391672 4.50369,-3.391672 1.25102,0 1.50123,1.028621 1.50123,1.946042 0,0.69501 -0.1946,1.47343 -0.41701,2.27964 l -0.77841,3.22487 -0.55602,2.08504 c -0.1112,0.55601 -0.3614,1.50123 -0.3614,1.64023 0,0.50041 0.38921,0.72281 0.80621,0.72281 0.86182,0 1.02862,-0.66721 1.25103,-1.55683 0.38921,-1.55683 1.41783,-5.58791 1.66803,-6.64433 0.0834,-0.36141 1.52903,-3.697472 4.55929,-3.697472 1.19543,0 1.50123,0.945219 1.50123,1.946042 0,1.58463 -1.16762,4.72609 -1.72363,6.17172 -0.25021,0.66721 -0.36141,0.97302 -0.36141,1.52903 0,1.30662 0.97302,2.25184 2.27965,2.25184 2.58545,0 3.61407,-4.00328 3.61407,-4.22568 0,-0.27801 -0.25021,-0.27801 -0.33361,-0.27801 -0.27801,0 -0.27801,0.0834 -0.41701,0.50041 -0.41701,1.44563 -1.30662,3.41947 -2.80785,3.41947 -0.47261,0 -0.66722,-0.278 -0.66722,-0.91742 0,-0.69501 0.25021,-1.36222 0.50041,-1.97384 0.52821,-1.41782 1.66804,-4.50368 1.66804,-6.06051 0,-1.807041 -1.08423,-2.974664 -3.16927,-2.974664 -2.08504,0 -3.47507,1.223224 -4.50369,2.696654 -0.0278,-0.36141 -0.1112,-1.306626 -0.88961,-1.97384 -0.69502,-0.556011 -1.58463,-0.722814 -2.27965,-0.722814 -2.47425,0 -3.83647,1.779235 -4.30908,2.418644 -0.13901,-1.584627 -1.30663,-2.418644 -2.52985,-2.418644 -1.27883,0 -1.80704,1.084222 -2.05724,1.584632 -0.50041,0.973022 -0.86182,2.585452 -0.86182,2.696652 0,0.25021 0.278,0.25021 0.33361,0.25021 0.278,0 0.3058,-0.0278 0.4726,-0.61162 0.47261,-1.973835 1.02862,-3.308262 2.02944,-3.308262 0.44481,0 0.83402,0.222405 0.83402,1.278826 0,0.583816 -0.0834,0.889616 -0.41701,2.307446 z"
           id="path4405" />
        <path
           style="font-style:normal;font-variant:normal;font-weight:normal;font-stretch:normal;letter-spacing:normal;word-spacing:normal;text-anchor:start;fill:#4d4d4d;fill-opacity:1;fill-rule:evenodd;stroke:#000000;stroke-width:0;stroke-linecap:butt;stroke-linejoin:miter;stroke-miterlimit:10.43299961;stroke-dasharray:none;stroke-dashoffset:0;stroke-opacity:1"
           inkscape:connector-curvature="0"
           d="m 300.48999,110.68929 -0.66722,0 c -0.0556,0.44481 -0.2502,1.58463 -0.50041,1.77924 -0.1668,0.1112 -1.64023,0.1112 -1.91823,0.1112 l -3.55847,0 c 2.02944,-1.80704 2.69665,-2.33525 3.86427,-3.25267 1.44563,-1.13982 2.78006,-2.33524 2.78006,-4.17008 0,-2.33525 -2.05724,-3.78087 -4.53149,-3.78087 -2.41865,0 -4.03108,1.69583 -4.03108,3.47506 0,0.97302 0.83401,1.08423 1.02862,1.08423 0.47261,0 1.02862,-0.33361 1.02862,-1.02862 0,-0.36141 -0.139,-1.02862 -1.13982,-1.02862 0.58381,-1.36223 1.91823,-1.80704 2.80785,-1.80704 1.94604,0 2.94686,1.52903 2.94686,3.08586 0,1.66803 -1.19542,3.00246 -1.80704,3.69747 l -4.67049,4.6149 c -0.1946,0.1668 -0.1946,0.1946 -0.1946,0.75061 l 7.97876,0 z"
           id="path4407" />
        <path
           style="font-style:normal;font-variant:normal;font-weight:normal;font-stretch:normal;letter-spacing:normal;word-spacing:normal;text-anchor:start;fill:#4d4d4d;fill-opacity:1;fill-rule:evenodd;stroke:#000000;stroke-width:0;stroke-linecap:butt;stroke-linejoin:miter;stroke-miterlimit:10.43299961;stroke-dasharray:none;stroke-dashoffset:0;stroke-opacity:1"
           inkscape:connector-curvature="0"
           d="m 308.24634,101.93212 0,-0.0278 0,-0.0278 0,-0.0278 0,-0.0278 0,0 0,-0.0278 0,-0.0278 0,-0.0278 -0.0278,0 0,-0.0278 0,0 0,-0.0278 0,-0.0278 0,0 0,-0.0278 0,0 0,-0.0278 0,0 0,-0.0278 -0.0278,-0.0278 0,-0.0278 0,0 -0.0278,-0.0278 0,-0.0278 -0.0278,0 0,0 -0.0278,-0.0278 0,0 -0.0278,0 -0.0278,-0.0278 -0.0278,0 -0.0278,0 0,0 -0.0278,0 0,0 -0.0278,0 -0.0278,0 0,-0.0278 -0.0278,0 0,0 -0.0278,0 -0.0278,0 -0.0278,0 0,0 -0.0278,0 -0.0278,0 -0.0278,0 -0.0278,0 0,0 -0.0278,0 c -1.25103,1.22322 -3.00246,1.25102 -3.80868,1.25102 l 0,0.69501 c 0.47261,0 1.75144,0 2.80786,-0.55601 l 0,9.8692 c 0,0.63941 0,0.88962 -1.91824,0.88962 l -0.75061,0 0,0.69501 c 0.3614,-0.0278 2.72445,-0.0834 3.44726,-0.0834 0.61162,0 3.03026,0.0556 3.47507,0.0834 l 0,-0.69501 -0.75061,0 c -1.91824,0 -1.91824,-0.25021 -1.91824,-0.88962 z"
           id="path4409" />
      </g>
      <path
         sodipodi:nodetypes="cccc"
         inkscape:connector-curvature="0"
         id="path4451"
         d="m 801.3793,303.90238 19.94699,0 0,72.34119 -19.94699,0"
         style="fill:none;fill-rule:evenodd;stroke:#4d4d4d;stroke-width:1.62699986;stroke-linecap:butt;stroke-linejoin:round;stroke-miterlimit:4;stroke-dasharray:none;stroke-opacity:1" />
      <g
         id="g4453"
         transform="matrix(2.7800364,0,0,-2.7800364,76.748891,2331.1637)"
         xml:space="preserve"
         stroke-miterlimit="10.433"
         font-style="normal"
         font-variant="normal"
         font-weight="normal"
         font-stretch="normal"
         font-size-adjust="none"
         letter-spacing="normal"
         word-spacing="normal"
         ns0:text="$m_{41}$"
         style="font-style:normal;font-variant:normal;font-weight:normal;font-stretch:normal;letter-spacing:normal;word-spacing:normal;text-anchor:start;fill:#4d4d4d;fill-opacity:1;fill-rule:evenodd;stroke:#000000;stroke-linecap:butt;stroke-linejoin:miter;stroke-miterlimit:10.43299961;stroke-dasharray:none;stroke-dashoffset:0;stroke-opacity:1"><path
           d="m 224.31,707.71 0,-0.01 -0.01,-0.02 0,-0.01 0,-0.02 -0.01,-0.03 -0.01,-0.03 -0.01,-0.03 0,-0.04 -0.01,-0.03 -0.01,-0.03 0,-0.01 -0.01,-0.02 0,-0.01 0,-0.02 0,-0.01 -0.01,-0.01 0,-0.02 0,-0.01 0,-0.01 -0.01,-0.01 0,-0.01 0,-0.01 0,-0.01 0,0 0,-0.01 0,-0.01 c 0,-0.18 0.14,-0.26 0.29,-0.26 0.12,0 0.29,0.07 0.37,0.27 0,0.02 0.12,0.49 0.18,0.74 l 0.22,0.89 c 0.06,0.22 0.12,0.44 0.17,0.67 0.04,0.17 0.12,0.46 0.13,0.5 0.15,0.3 0.68,1.21 1.62,1.21 0.45,0 0.54,-0.37 0.54,-0.7 0,-0.25 -0.07,-0.52 -0.15,-0.82 l -0.28,-1.16 -0.2,-0.75 c -0.04,-0.2 -0.13,-0.54 -0.13,-0.59 0,-0.18 0.14,-0.26 0.29,-0.26 0.31,0 0.37,0.24 0.45,0.56 0.14,0.56 0.51,2.01 0.6,2.4 0.03,0.12 0.55,1.32 1.64,1.32 0.43,0 0.54,-0.34 0.54,-0.7 0,-0.56 -0.42,-1.7 -0.62,-2.22 -0.09,-0.24 -0.13,-0.35 -0.13,-0.55 0,-0.47 0.35,-0.81 0.82,-0.81 0.93,0 1.3,1.45 1.3,1.53 0,0.1 -0.09,0.1 -0.12,0.1 -0.1,0 -0.1,-0.04 -0.15,-0.18 -0.15,-0.53 -0.47,-1.24 -1.01,-1.24 -0.17,0 -0.24,0.1 -0.24,0.33 0,0.25 0.09,0.49 0.18,0.71 0.18,0.51 0.6,1.62 0.6,2.18 0,0.65 -0.39,1.07 -1.14,1.07 -0.75,0 -1.25,-0.44 -1.62,-0.97 -0.01,0.13 -0.04,0.47 -0.32,0.71 -0.25,0.21 -0.57,0.26 -0.82,0.26 -0.89,0 -1.38,-0.64 -1.55,-0.87 -0.05,0.57 -0.47,0.87 -0.92,0.87 -0.45,0 -0.64,-0.39 -0.73,-0.57 -0.18,-0.35 -0.31,-0.93 -0.31,-0.96 0,-0.1 0.1,-0.1 0.12,-0.1 0.1,0 0.11,0.01 0.17,0.22 0.17,0.71 0.37,1.19 0.73,1.19 0.16,0 0.3,-0.08 0.3,-0.46 0,-0.21 -0.03,-0.32 -0.16,-0.83 z"
           id="path4455"
           style="fill:#4d4d4d;fill-opacity:1;stroke-width:0"
           inkscape:connector-curvature="0" /><path
           d="m 235.86,706.77 0,0.25 -0.77,0 0,3.1 c 0,0.15 0,0.2 -0.15,0.2 -0.09,0 -0.12,0 -0.18,-0.1 l -2.31,-3.2 0,-0.25 2.05,0 0.05,0.25 -1.84,0 1.84,2.55 0,-2.55 -0.05,-0.25 0,-0.57 c 0,-0.23 0,-0.32 -0.57,-0.32 l -0.18,0 0,-0.25 c 0.34,0.02 0.79,0.03 1.04,0.03 0.26,0 0.7,-0.01 1.05,-0.03 l 0,0.25 -0.19,0 c -0.56,0 -0.56,0.09 -0.56,0.32 l 0,0.57 z"
           id="path4457"
           style="fill:#4d4d4d;fill-opacity:1;stroke-width:0"
           inkscape:connector-curvature="0" /><path
           d="m 238.48,710.05 0,0.01 0,0.01 0,0.01 0,0.01 0,0 0,0.01 0,0.01 0,0.01 0,0 0,0.01 0,0.01 0,0 0,0.01 0,0 0,0.01 0,0 0,0.01 0,0 -0.01,0.01 0,0.01 0,0.01 0,0 -0.01,0.01 0,0.01 -0.01,0 0,0.01 -0.01,0 -0.01,0 0,0.01 -0.01,0 -0.01,0 -0.01,0 0,0 -0.01,0 -0.01,0 0,0.01 -0.01,0 0,0 -0.01,0 -0.01,0 0,0 -0.01,0 -0.01,0 0,0 -0.01,0 -0.01,0 -0.01,0 -0.01,0 -0.01,0 -0.01,0 c -0.44,-0.44 -1.07,-0.45 -1.36,-0.45 l 0,-0.25 c 0.17,0 0.63,0 1.01,0.2 l 0,-3.55 c 0,-0.23 0,-0.32 -0.7,-0.32 l -0.26,0 0,-0.25 c 0.12,0.01 0.98,0.03 1.24,0.03 0.21,0 1.09,-0.02 1.25,-0.03 l 0,0.25 -0.27,0 c -0.7,0 -0.7,0.09 -0.7,0.32 z"
           id="path4459"
           style="fill:#4d4d4d;fill-opacity:1;stroke-width:0"
           inkscape:connector-curvature="0" /></g>      <g
         style="font-style:normal;font-variant:normal;font-weight:normal;font-stretch:normal;letter-spacing:normal;word-spacing:normal;text-anchor:start;fill:#4d4d4d;fill-opacity:1;fill-rule:evenodd;stroke:#000000;stroke-linecap:butt;stroke-linejoin:miter;stroke-miterlimit:10.43299961;stroke-dasharray:none;stroke-dashoffset:0;stroke-opacity:1"
         ns0:text="$m_{24}$"
         word-spacing="normal"
         letter-spacing="normal"
         font-size-adjust="none"
         font-stretch="normal"
         font-weight="normal"
         font-variant="normal"
         font-style="normal"
         stroke-miterlimit="10.433"
         xml:space="preserve"
         transform="matrix(2.7314162,0,0,-2.7314162,155.47482,2257.6546)"
         id="g4485"><path
           id="path4487"
           d="m 224.31,707.71 0,-0.01 -0.01,-0.02 0,-0.01 0,-0.02 -0.01,-0.03 -0.01,-0.03 -0.01,-0.03 0,-0.04 -0.01,-0.03 -0.01,-0.03 0,-0.01 -0.01,-0.02 0,-0.01 0,-0.02 0,-0.01 -0.01,-0.01 0,-0.02 0,-0.01 0,-0.01 -0.01,-0.01 0,-0.01 0,-0.01 0,-0.01 0,0 0,-0.01 0,-0.01 c 0,-0.18 0.14,-0.26 0.29,-0.26 0.12,0 0.29,0.07 0.37,0.27 0,0.02 0.12,0.49 0.18,0.74 l 0.22,0.89 c 0.06,0.22 0.12,0.44 0.17,0.67 0.04,0.17 0.12,0.46 0.13,0.5 0.15,0.3 0.68,1.21 1.62,1.21 0.45,0 0.54,-0.37 0.54,-0.7 0,-0.25 -0.07,-0.52 -0.15,-0.82 l -0.28,-1.16 -0.2,-0.75 c -0.04,-0.2 -0.13,-0.54 -0.13,-0.59 0,-0.18 0.14,-0.26 0.29,-0.26 0.31,0 0.37,0.24 0.45,0.56 0.14,0.56 0.51,2.01 0.6,2.4 0.03,0.12 0.55,1.32 1.64,1.32 0.43,0 0.54,-0.34 0.54,-0.7 0,-0.56 -0.42,-1.7 -0.62,-2.22 -0.09,-0.24 -0.13,-0.35 -0.13,-0.55 0,-0.47 0.35,-0.81 0.82,-0.81 0.93,0 1.3,1.45 1.3,1.53 0,0.1 -0.09,0.1 -0.12,0.1 -0.1,0 -0.1,-0.04 -0.15,-0.18 -0.15,-0.53 -0.47,-1.24 -1.01,-1.24 -0.17,0 -0.24,0.1 -0.24,0.33 0,0.25 0.09,0.49 0.18,0.71 0.18,0.51 0.6,1.62 0.6,2.18 0,0.65 -0.39,1.07 -1.14,1.07 -0.75,0 -1.25,-0.44 -1.62,-0.97 -0.01,0.13 -0.04,0.47 -0.32,0.71 -0.25,0.21 -0.57,0.26 -0.82,0.26 -0.89,0 -1.38,-0.64 -1.55,-0.87 -0.05,0.57 -0.47,0.87 -0.92,0.87 -0.45,0 -0.64,-0.39 -0.73,-0.57 -0.18,-0.35 -0.31,-0.93 -0.31,-0.96 0,-0.1 0.1,-0.1 0.12,-0.1 0.1,0 0.11,0.01 0.17,0.22 0.17,0.71 0.37,1.19 0.73,1.19 0.16,0 0.3,-0.08 0.3,-0.46 0,-0.21 -0.03,-0.32 -0.16,-0.83 z"
           style="fill:#4d4d4d;fill-opacity:1;stroke-width:0"
           inkscape:connector-curvature="0" /><path
           id="path4489"
           d="m 235.7,706.9 -0.24,0 c -0.02,-0.16 -0.09,-0.57 -0.18,-0.64 -0.06,-0.04 -0.59,-0.04 -0.69,-0.04 l -1.28,0 c 0.73,0.65 0.97,0.84 1.39,1.17 0.51,0.41 1,0.84 1,1.5 0,0.84 -0.74,1.36 -1.63,1.36 -0.87,0 -1.45,-0.61 -1.45,-1.25 0,-0.35 0.3,-0.39 0.37,-0.39 0.16,0 0.37,0.12 0.37,0.37 0,0.13 -0.05,0.37 -0.41,0.37 0.21,0.49 0.68,0.65 1.01,0.65 0.7,0 1.06,-0.54 1.06,-1.11 0,-0.6 -0.43,-1.08 -0.65,-1.33 l -1.68,-1.66 c -0.07,-0.06 -0.07,-0.07 -0.07,-0.27 l 2.87,0 z"
           style="fill:#4d4d4d;fill-opacity:1;stroke-width:0"
           inkscape:connector-curvature="0" /><path
           id="path4491"
           d="m 239.84,706.77 0,0.25 -0.78,0 0,3.1 c 0,0.15 0,0.2 -0.15,0.2 -0.09,0 -0.11,0 -0.18,-0.1 l -2.31,-3.2 0,-0.25 2.05,0 0.05,0.25 -1.84,0 1.84,2.55 0,-2.55 -0.05,-0.25 0,-0.57 c 0,-0.23 0,-0.32 -0.56,-0.32 l -0.19,0 0,-0.25 c 0.35,0.02 0.79,0.03 1.04,0.03 0.26,0 0.71,-0.01 1.05,-0.03 l 0,0.25 -0.18,0 c -0.57,0 -0.57,0.09 -0.57,0.32 l 0,0.57 z"
           style="fill:#4d4d4d;fill-opacity:1;stroke-width:0"
           inkscape:connector-curvature="0" /></g>      <g
         style="font-style:normal;font-variant:normal;font-weight:normal;font-stretch:normal;letter-spacing:normal;word-spacing:normal;text-anchor:start;fill:#4d4d4d;fill-opacity:1;fill-rule:evenodd;stroke:#000000;stroke-linecap:butt;stroke-linejoin:miter;stroke-miterlimit:10.43299961;stroke-dasharray:none;stroke-dashoffset:0;stroke-opacity:1"
         ns0:text="$m_{44}$"
         word-spacing="normal"
         letter-spacing="normal"
         font-size-adjust="none"
         font-stretch="normal"
         font-weight="normal"
         font-variant="normal"
         font-style="normal"
         stroke-miterlimit="10.433"
         xml:space="preserve"
         transform="matrix(2.7314162,0,0,-2.7314162,155.47482,2296.7126)"
         id="g4501"><path
           id="path4503"
           d="m 224.31,707.71 0,-0.01 -0.01,-0.02 0,-0.01 0,-0.02 -0.01,-0.03 -0.01,-0.03 -0.01,-0.03 0,-0.04 -0.01,-0.03 -0.01,-0.03 0,-0.01 -0.01,-0.02 0,-0.01 0,-0.02 0,-0.01 -0.01,-0.01 0,-0.02 0,-0.01 0,-0.01 -0.01,-0.01 0,-0.01 0,-0.01 0,-0.01 0,0 0,-0.01 0,-0.01 c 0,-0.18 0.14,-0.26 0.29,-0.26 0.12,0 0.29,0.07 0.37,0.27 0,0.02 0.12,0.49 0.18,0.74 l 0.22,0.89 c 0.06,0.22 0.12,0.44 0.17,0.67 0.04,0.17 0.12,0.46 0.13,0.5 0.15,0.3 0.68,1.21 1.62,1.21 0.45,0 0.54,-0.37 0.54,-0.7 0,-0.25 -0.07,-0.52 -0.15,-0.82 l -0.28,-1.16 -0.2,-0.75 c -0.04,-0.2 -0.13,-0.54 -0.13,-0.59 0,-0.18 0.14,-0.26 0.29,-0.26 0.31,0 0.37,0.24 0.45,0.56 0.14,0.56 0.51,2.01 0.6,2.4 0.03,0.12 0.55,1.32 1.64,1.32 0.43,0 0.54,-0.34 0.54,-0.7 0,-0.56 -0.42,-1.7 -0.62,-2.22 -0.09,-0.24 -0.13,-0.35 -0.13,-0.55 0,-0.47 0.35,-0.81 0.82,-0.81 0.93,0 1.3,1.45 1.3,1.53 0,0.1 -0.09,0.1 -0.12,0.1 -0.1,0 -0.1,-0.04 -0.15,-0.18 -0.15,-0.53 -0.47,-1.24 -1.01,-1.24 -0.17,0 -0.24,0.1 -0.24,0.33 0,0.25 0.09,0.49 0.18,0.71 0.18,0.51 0.6,1.62 0.6,2.18 0,0.65 -0.39,1.07 -1.14,1.07 -0.75,0 -1.25,-0.44 -1.62,-0.97 -0.01,0.13 -0.04,0.47 -0.32,0.71 -0.25,0.21 -0.57,0.26 -0.82,0.26 -0.89,0 -1.38,-0.64 -1.55,-0.87 -0.05,0.57 -0.47,0.87 -0.92,0.87 -0.45,0 -0.64,-0.39 -0.73,-0.57 -0.18,-0.35 -0.31,-0.93 -0.31,-0.96 0,-0.1 0.1,-0.1 0.12,-0.1 0.1,0 0.11,0.01 0.17,0.22 0.17,0.71 0.37,1.19 0.73,1.19 0.16,0 0.3,-0.08 0.3,-0.46 0,-0.21 -0.03,-0.32 -0.16,-0.83 z"
           style="fill:#4d4d4d;fill-opacity:1;stroke-width:0"
           inkscape:connector-curvature="0" /><path
           id="path4505"
           d="m 235.86,706.77 0,0.25 -0.77,0 0,3.1 c 0,0.15 0,0.2 -0.15,0.2 -0.09,0 -0.12,0 -0.18,-0.1 l -2.31,-3.2 0,-0.25 2.05,0 0.05,0.25 -1.84,0 1.84,2.55 0,-2.55 -0.05,-0.25 0,-0.57 c 0,-0.23 0,-0.32 -0.57,-0.32 l -0.18,0 0,-0.25 c 0.34,0.02 0.79,0.03 1.04,0.03 0.26,0 0.7,-0.01 1.05,-0.03 l 0,0.25 -0.19,0 c -0.56,0 -0.56,0.09 -0.56,0.32 l 0,0.57 z"
           style="fill:#4d4d4d;fill-opacity:1;stroke-width:0"
           inkscape:connector-curvature="0" /><path
           id="path4507"
           d="m 239.84,706.77 0,0.25 -0.78,0 0,3.1 c 0,0.15 0,0.2 -0.15,0.2 -0.09,0 -0.11,0 -0.18,-0.1 l -2.31,-3.2 0,-0.25 2.05,0 0.05,0.25 -1.84,0 1.84,2.55 0,-2.55 -0.05,-0.25 0,-0.57 c 0,-0.23 0,-0.32 -0.56,-0.32 l -0.19,0 0,-0.25 c 0.35,0.02 0.79,0.03 1.04,0.03 0.26,0 0.71,-0.01 1.05,-0.03 l 0,0.25 -0.18,0 c -0.57,0 -0.57,0.09 -0.57,0.32 l 0,0.57 z"
           style="fill:#4d4d4d;fill-opacity:1;stroke-width:0"
           inkscape:connector-curvature="0" /></g>      <path
         style="fill:none;fill-rule:evenodd;stroke:#4d4d4d;stroke-width:1.62699986;stroke-linecap:butt;stroke-linejoin:round;stroke-miterlimit:4;stroke-dasharray:none;stroke-opacity:1"
         d="m 709.10407,303.90238 -19.94699,0 0,72.34119 19.94699,0"
         id="path4509"
         inkscape:connector-curvature="0"
         sodipodi:nodetypes="cccc" />
    </g>
    <path
       style="fill:#4d4d4d;fill-opacity:1;fill-rule:evenodd;stroke:#4d4d4d;stroke-width:2.9000001;stroke-linecap:round;stroke-linejoin:round;stroke-miterlimit:4;stroke-dasharray:none;stroke-opacity:1;marker-end:url(#Arrow2Mend)"
       d="m 549.64285,353.0765 140,0"
       id="path4607"
       inkscape:connector-curvature="0" />
    <text
       xml:space="preserve"
       style="font-style:normal;font-weight:normal;font-size:18.46636772px;line-height:125%;font-family:Sans;letter-spacing:0px;word-spacing:0px;fill:#4d4d4d;fill-opacity:1;stroke:none;stroke-width:1px;stroke-linecap:butt;stroke-linejoin:miter;stroke-opacity:1"
       x="547.70203"
       y="338.58185"
       id="text4985"
       sodipodi:linespacing="125%"><tspan
         sodipodi:role="line"
         id="tspan4987"
         x="547.70203"
         y="338.58185">.clone_owned()</tspan></text>
    <text
       xml:space="preserve"
       style="font-style:normal;font-weight:normal;font-size:40.34812164px;line-height:125%;font-family:Sans;letter-spacing:0px;word-spacing:0px;fill:#bd447f;fill-opacity:1;stroke:none;stroke-width:1px;stroke-linecap:butt;stroke-linejoin:miter;stroke-opacity:1"
       x="743.34265"
       y="433.02615"
       id="text4989"
       sodipodi:linespacing="125%"><tspan
         sodipodi:role="line"
         id="tspan4991"
         x="743.34265"
         y="433.02615"
         style="font-style:normal;font-variant:normal;font-weight:normal;font-stretch:normal;font-size:16.1392498px;font-family:sans-serif;-inkscape-font-specification:sans-serif;fill:#bd447f;fill-opacity:1"> Matrix2&lt;N&gt;</tspan></text>
    <text
       sodipodi:linespacing="125%"
       id="text4999"
       y="455.14798"
       x="743.34265"
       style="font-style:normal;font-weight:normal;font-size:40.34812164px;line-height:125%;font-family:Sans;letter-spacing:0px;word-spacing:0px;fill:#bd447f;fill-opacity:1;stroke:none;stroke-width:1px;stroke-linecap:butt;stroke-linejoin:miter;stroke-opacity:1"
       xml:space="preserve"><tspan
         style="font-style:normal;font-variant:normal;font-weight:normal;font-stretch:normal;font-size:16.1392498px;font-family:sans-serif;-inkscape-font-specification:sans-serif;fill:#bd447f;fill-opacity:1"
         y="455.14798"
         x="743.34265"
         id="tspan5001"
         sodipodi:role="line"> DMatrix&lt;N&gt;</tspan></text>
    <path
       style="fill:#bd447f;fill-opacity:1;fill-rule:evenodd;stroke:#bd447f;stroke-width:1.20000005;stroke-linecap:round;stroke-linejoin:round;stroke-miterlimit:4;stroke-dasharray:none;stroke-opacity:1;marker-end:url(#marker5015)"
       d="m 720.41226,427.36222 17.21464,0"
       id="path5007"
       inkscape:connector-curvature="0"
       sodipodi:nodetypes="cc" />
    <path
       sodipodi:nodetypes="cc"
       inkscape:connector-curvature="0"
       id="path5337"
       d="m 720.41226,450.21936 17.21464,0"
       style="fill:#bd447f;fill-opacity:1;fill-rule:evenodd;stroke:#bd447f;stroke-width:1.20000005;stroke-linecap:round;stroke-linejoin:round;stroke-miterlimit:4;stroke-dasharray:none;stroke-opacity:1;marker-end:url(#marker5339)" />
  </g>
</svg>
