<?xml version="1.0" encoding="UTF-8" standalone="no"?>
<!-- Created with Inkscape (http://www.inkscape.org/) -->

<svg
   xmlns:ns0="http://www.iki.fi/pav/software/textext/"
   xmlns:dc="http://purl.org/dc/elements/1.1/"
   xmlns:cc="http://creativecommons.org/ns#"
   xmlns:rdf="http://www.w3.org/1999/02/22-rdf-syntax-ns#"
   xmlns:svg="http://www.w3.org/2000/svg"
   xmlns="http://www.w3.org/2000/svg"
   xmlns:sodipodi="http://sodipodi.sourceforge.net/DTD/sodipodi-0.dtd"
   xmlns:inkscape="http://www.inkscape.org/namespaces/inkscape"
   sodipodi:docname="to_homogeneous_coordinates.svg"
   width="148.45631mm"
   height="53.469604mm"
   viewBox="0 0 526.02632 189.45923"
   id="svg2"
   version="1.1"
   inkscape:version="0.91 r">
  <sodipodi:namedview
     showguides="false"
     fit-margin-bottom="0"
     fit-margin-right="0"
     fit-margin-left="0"
     fit-margin-top="0"
     inkscape:snap-bbox-edge-midpoints="true"
     id="base"
     pagecolor="#ffffff"
     bordercolor="#666666"
     borderopacity="1.0"
     inkscape:pageopacity="0.0"
     inkscape:pageshadow="2"
     inkscape:zoom="3.959798"
     inkscape:cx="62.62693"
     inkscape:cy="63.573277"
     inkscape:document-units="px"
     inkscape:current-layer="g4230"
     showgrid="true"
     inkscape:window-width="1678"
     inkscape:window-height="1031"
     inkscape:window-x="0"
     inkscape:window-y="18"
     inkscape:window-maximized="0"
     inkscape:snap-bbox="true"
     inkscape:snap-bbox-midpoints="true"
     inkscape:snap-global="false">
    <inkscape:grid
       originy="-828.18956"
       originx="64.094746"
       type="xygrid"
       id="grid4136" />
  </sodipodi:namedview>
  <defs
     id="defs4">
    <marker
       inkscape:stockid="Arrow2Mend"
       orient="auto"
       refY="0"
       refX="0"
       id="Arrow2Mend"
       style="overflow:visible"
       inkscape:isstock="true">
      <path
         id="path5841"
         style="fill:#000000;fill-opacity:1;fill-rule:evenodd;stroke:#000000;stroke-width:0.625;stroke-linejoin:round;stroke-opacity:1"
         d="M 8.7185878,4.0337352 -2.2072895,0.01601326 8.7185884,-4.0017078 c -1.7454984,2.3720609 -1.7354408,5.6174519 -6e-7,8.035443 z"
         transform="scale(-0.6,-0.6)"
         inkscape:connector-curvature="0" />
    </marker>
  </defs>
  <metadata
     id="metadata7">
    <rdf:RDF>
      <cc:Work
         rdf:about="">
        <dc:format>image/svg+xml</dc:format>
        <dc:type
           rdf:resource="http://purl.org/dc/dcmitype/StillImage" />
        <dc:title></dc:title>
      </cc:Work>
    </rdf:RDF>
  </metadata>
  <g
     transform="translate(64.094743,-34.713416)"
     inkscape:label="Layer 1"
     inkscape:groupmode="layer"
     id="layer1">
    <g
       transform="translate(6.8564957,-4.6404517)"
       id="g4319">
      <path
         inkscape:connector-curvature="0"
         id="path5808"
         d="m 131.60015,144.67745 121.04436,0"
         style="fill:none;fill-rule:evenodd;stroke:#000000;stroke-width:1.61392486px;stroke-linecap:round;stroke-linejoin:round;stroke-opacity:1;marker-end:url(#Arrow2Mend)" />
      <text
         sodipodi:linespacing="125%"
         id="text6096"
         y="134.93697"
         x="131.85448"
         style="font-style:normal;font-weight:normal;font-size:40.34812164px;line-height:125%;font-family:Sans;letter-spacing:0px;word-spacing:0px;fill:#000000;fill-opacity:1;stroke:none;stroke-width:1px;stroke-linecap:butt;stroke-linejoin:miter;stroke-opacity:1"
         xml:space="preserve"><tspan
           style="font-size:12.10443687px"
           y="134.93697"
           x="131.85448"
           id="tspan6098"
           sodipodi:role="line">.to_homogeneous()</tspan></text>
    </g>
    <g
       transform="translate(-2.3502083e-5,2.6271843)"
       id="g4274">
      <rect
         y="85.290192"
         x="409.44666"
         height="81.039948"
         width="50.396"
         id="rect7089"
         style="opacity:1;fill:#ebf6f9;fill-opacity:1;fill-rule:evenodd;stroke:#000000;stroke-width:2.3006475;stroke-linecap:butt;stroke-linejoin:round;stroke-miterlimit:4;stroke-dasharray:none;stroke-dashoffset:0;stroke-opacity:0" />
      <rect
         style="opacity:1;fill:#ffe5d7;fill-opacity:1;fill-rule:evenodd;stroke:#000000;stroke-width:3.89119792;stroke-linecap:butt;stroke-linejoin:round;stroke-miterlimit:4;stroke-dasharray:none;stroke-dashoffset:0;stroke-opacity:0"
         id="rect7851"
         width="145.92915"
         height="80.060776"
         x="273.76862"
         y="85.474091" />
      <path
         style="fill:none;fill-rule:evenodd;stroke:#4d4d4d;stroke-width:2;stroke-linecap:butt;stroke-linejoin:round;stroke-miterlimit:4;stroke-dasharray:none;stroke-opacity:1"
         d="m 441.25465,86.585258 19.67698,0 0,110.812832 -19.67698,0"
         id="path4473"
         inkscape:connector-curvature="0"
         sodipodi:nodetypes="cccc" />
      <g
         style="font-style:normal;font-variant:normal;font-weight:normal;font-stretch:normal;letter-spacing:normal;word-spacing:normal;text-anchor:start;fill:#4d4d4d;fill-opacity:1;fill-rule:evenodd;stroke:#000000;stroke-linecap:butt;stroke-linejoin:miter;stroke-miterlimit:10.43299961;stroke-dasharray:none;stroke-dashoffset:0;stroke-opacity:1"
         ns0:text="$0$"
         word-spacing="normal"
         letter-spacing="normal"
         font-size-adjust="none"
         font-stretch="normal"
         font-weight="normal"
         font-variant="normal"
         font-style="normal"
         stroke-miterlimit="10.433"
         xml:space="preserve"
         transform="matrix(2.1266914,0,0,-2.1266914,-87.118035,1688.4454)"
         id="g4483"><path
           style="fill:#4d4d4d;fill-opacity:1;stroke-width:0"
           inkscape:connector-curvature="0"
           id="path4485"
           d="m 228.01,710.3 0,0.15 0,0.15 -0.01,0.15 0,0.15 -0.01,0.15 -0.02,0.14 -0.01,0.15 -0.02,0.15 -0.02,0.14 -0.03,0.15 -0.03,0.14 -0.04,0.15 -0.04,0.14 -0.05,0.14 -0.06,0.14 -0.03,0.07 -0.03,0.07 c -0.46,0.95 -1.27,1.11 -1.69,1.11 -0.6,0 -1.32,-0.26 -1.73,-1.18 -0.32,-0.69 -0.37,-1.46 -0.37,-2.26 0,-0.74 0.04,-1.64 0.45,-2.39 0.43,-0.81 1.15,-1 1.64,-1 l 0,0.21 c -0.39,0 -0.98,0.25 -1.15,1.21 -0.11,0.59 -0.11,1.51 -0.11,2.09 0,0.64 0,1.29 0.08,1.83 0.18,1.18 0.93,1.27 1.18,1.27 0.33,0 0.98,-0.18 1.17,-1.16 0.1,-0.56 0.1,-1.31 0.1,-1.94 0,-0.74 0,-1.42 -0.11,-2.05 -0.15,-0.95 -0.71,-1.25 -1.16,-1.25 l 0,0 0,-0.21 c 0.54,0 1.29,0.2 1.73,1.15 0.32,0.68 0.37,1.46 0.37,2.24 z" /></g>      <g
         style="font-style:normal;font-variant:normal;font-weight:normal;font-stretch:normal;letter-spacing:normal;word-spacing:normal;text-anchor:start;fill:#4d4d4d;fill-opacity:1;fill-rule:evenodd;stroke:#000000;stroke-linecap:butt;stroke-linejoin:miter;stroke-miterlimit:10.43299961;stroke-dasharray:none;stroke-dashoffset:0;stroke-opacity:1"
         ns0:text="$1$"
         word-spacing="normal"
         letter-spacing="normal"
         font-size-adjust="none"
         font-stretch="normal"
         font-weight="normal"
         font-variant="normal"
         font-style="normal"
         stroke-miterlimit="10.433"
         xml:space="preserve"
         transform="matrix(2.1941542,0,0,-2.1941542,-53.87913,1736.6644)"
         id="g4491"><path
           id="path4493"
           d="m 226.36,713.48 0,0.01 0,0.01 0,0.02 0,0.01 0,0 0,0.01 0,0.01 0,0.01 0,0.01 0,0.01 0,0.01 0,0.01 0,0 -0.01,0.01 0,0.01 0,0 0,0.01 0,0.01 0,0.01 0,0.01 -0.01,0.01 0,0.01 0,0.01 -0.01,0 0,0.01 -0.01,0.01 0,0 -0.01,0.01 -0.01,0 -0.01,0.01 0,0 -0.01,0 0,0 -0.01,0 0,0 -0.01,0 -0.01,0.01 0,0 -0.01,0 -0.01,0 0,0 -0.01,0 -0.01,0 -0.01,0 0,0 -0.01,0 -0.01,0 -0.01,0 -0.01,0 -0.01,0 -0.01,0 -0.01,0 c -0.62,-0.64 -1.49,-0.64 -1.81,-0.64 l 0,-0.3 c 0.2,0 0.78,0 1.3,0.25 l 0,-5.14 c 0,-0.36 -0.03,-0.48 -0.92,-0.48 l -0.32,0 0,-0.31 c 0.35,0.04 1.21,0.04 1.61,0.04 0.4,0 1.26,0 1.61,-0.04 l 0,0.31 -0.32,0 c -0.89,0 -0.92,0.11 -0.92,0.48 z"
           inkscape:connector-curvature="0"
           style="fill:#4d4d4d;fill-opacity:1;stroke-width:0" /></g>      <g
         style="font-style:normal;font-variant:normal;font-weight:normal;font-stretch:normal;letter-spacing:normal;word-spacing:normal;text-anchor:start;fill:#42aac8;fill-opacity:1;fill-rule:evenodd;stroke:#000000;stroke-linecap:butt;stroke-linejoin:miter;stroke-miterlimit:10.43299961;stroke-dasharray:none;stroke-dashoffset:0;stroke-opacity:1"
         id="g4495"
         transform="matrix(2.4267753,0,0,-2.4267753,-112.24007,1832.6336)"
         xml:space="preserve"
         stroke-miterlimit="10.433"
         font-style="normal"
         font-variant="normal"
         font-weight="normal"
         font-stretch="normal"
         font-size-adjust="none"
         letter-spacing="normal"
         word-spacing="normal"
         ns0:text="$t_x$"><path
           style="fill:#42aac8;fill-opacity:1;stroke-width:0"
           inkscape:connector-curvature="0"
           d="m 225.48,711.1 0.94,0 c 0.2,0 0.29,0 0.29,0.2 0,0.11 -0.09,0.11 -0.27,0.11 l -0.88,0 c 0.36,1.41 0.41,1.61 0.41,1.67 0,0.16 -0.12,0.26 -0.29,0.26 -0.03,0 -0.31,-0.01 -0.4,-0.35 l -0.38,-1.58 -0.94,0 c -0.2,0 -0.3,0 -0.3,-0.19 0,-0.12 0.08,-0.12 0.28,-0.12 l 0.88,0 c -0.72,-2.82 -0.76,-2.99 -0.76,-3.17 0,-0.54 0.38,-0.91 0.91,-0.91 1.02,0 1.59,1.45 1.59,1.53 0,0.1 -0.08,0.1 -0.12,0.1 -0.09,0 -0.1,-0.04 -0.15,-0.14 -0.43,-1.04 -0.96,-1.28 -1.3,-1.28 -0.2,0 -0.3,0.13 -0.3,0.46 0,0.24 0.02,0.31 0.05,0.48 z"
           id="path4497" /><path
           style="fill:#42aac8;fill-opacity:1;stroke-width:0"
           inkscape:connector-curvature="0"
           d="m 228.76,706.37 0,-0.02 -0.01,-0.03 -0.01,-0.02 -0.01,-0.03 -0.01,-0.02 -0.01,-0.03 -0.01,-0.02 -0.02,-0.03 -0.01,-0.02 -0.02,-0.03 -0.01,-0.02 -0.02,-0.03 -0.02,-0.02 -0.02,-0.03 -0.02,-0.02 -0.02,-0.03 -0.02,-0.02 -0.02,-0.02 -0.02,-0.02 -0.03,-0.02 -0.02,-0.02 -0.02,-0.02 -0.03,-0.02 -0.03,-0.01 -0.03,-0.02 -0.02,-0.01 -0.03,-0.01 -0.03,-0.01 -0.03,0 -0.03,-0.01 -0.04,0 -0.03,0 c -0.02,0 -0.23,0 -0.38,0.09 0.29,0.09 0.31,0.34 0.31,0.39 0,0.15 -0.12,0.25 -0.28,0.25 -0.19,0 -0.4,-0.16 -0.4,-0.42 0,-0.35 0.39,-0.51 0.74,-0.51 0.32,0 0.6,0.2 0.78,0.49 0.16,-0.36 0.55,-0.49 0.82,-0.49 0.81,0 1.23,0.87 1.23,1.06 0,0.1 -0.09,0.1 -0.11,0.1 -0.1,0 -0.11,-0.04 -0.13,-0.12 -0.15,-0.48 -0.57,-0.84 -0.96,-0.84 -0.28,0 -0.42,0.18 -0.42,0.45 0,0.18 0.17,0.81 0.36,1.58 0.14,0.54 0.45,0.71 0.68,0.71 0.02,0 0.23,0 0.38,-0.09 -0.22,-0.07 -0.31,-0.26 -0.31,-0.39 0,-0.15 0.12,-0.25 0.28,-0.25 0.16,0 0.39,0.13 0.39,0.42 0,0.39 -0.44,0.51 -0.72,0.51 -0.35,0 -0.63,-0.23 -0.78,-0.5 -0.13,0.29 -0.45,0.5 -0.84,0.5 -0.78,0 -1.23,-0.86 -1.23,-1.07 0,-0.09 0.1,-0.09 0.12,-0.09 0.09,0 0.1,0.03 0.13,0.12 0.18,0.54 0.62,0.84 0.96,0.84 0.23,0 0.42,-0.12 0.42,-0.46 0,-0.13 -0.09,-0.48 -0.15,-0.72 z"
           id="path4499" /></g>      <g
         style="font-style:normal;font-variant:normal;font-weight:normal;font-stretch:normal;letter-spacing:normal;word-spacing:normal;text-anchor:start;fill:#42aac8;fill-opacity:1;fill-rule:evenodd;stroke:#000000;stroke-linecap:butt;stroke-linejoin:miter;stroke-miterlimit:10.43299961;stroke-dasharray:none;stroke-dashoffset:0;stroke-opacity:1"
         ns0:text="$t_y$"
         word-spacing="normal"
         letter-spacing="normal"
         font-size-adjust="none"
         font-stretch="normal"
         font-weight="normal"
         font-variant="normal"
         font-style="normal"
         stroke-miterlimit="10.433"
         xml:space="preserve"
         transform="matrix(2.4207099,0,0,-2.4207099,-112.31525,1860.6054)"
         id="g4501"><path
           id="path4503"
           d="m 225.48,711.1 0.94,0 c 0.2,0 0.29,0 0.29,0.2 0,0.11 -0.09,0.11 -0.27,0.11 l -0.88,0 c 0.36,1.41 0.41,1.61 0.41,1.67 0,0.16 -0.12,0.26 -0.29,0.26 -0.03,0 -0.31,-0.01 -0.4,-0.35 l -0.38,-1.58 -0.94,0 c -0.2,0 -0.3,0 -0.3,-0.19 0,-0.12 0.08,-0.12 0.28,-0.12 l 0.88,0 c -0.72,-2.82 -0.76,-2.99 -0.76,-3.17 0,-0.54 0.38,-0.91 0.91,-0.91 1.02,0 1.59,1.45 1.59,1.53 0,0.1 -0.08,0.1 -0.12,0.1 -0.09,0 -0.1,-0.04 -0.15,-0.14 -0.43,-1.04 -0.96,-1.28 -1.3,-1.28 -0.2,0 -0.3,0.13 -0.3,0.46 0,0.24 0.02,0.31 0.05,0.48 z"
           inkscape:connector-curvature="0"
           style="fill:#42aac8;fill-opacity:1;stroke-width:0" /><path
           id="path4505"
           d="m 230.9,708.25 0,0.01 0,0 0.01,0.01 0,0 0,0 0,0.01 0,0.01 0,0 0,0.01 0.01,0.01 0,0 0,0.01 0,0 0,0.01 0,0 0,0.01 0.01,0 0,0.01 0,0 0,0 0,0.01 0,0 0,0 0,0.01 0,0.01 0,0 0,0.01 0,0 0,0.01 0,0 0,0.01 c 0,0.13 -0.11,0.22 -0.23,0.22 -0.08,0 -0.21,-0.04 -0.29,-0.17 -0.02,-0.04 -0.07,-0.26 -0.11,-0.4 l -0.14,-0.58 c -0.04,-0.17 -0.26,-1.04 -0.28,-1.12 -0.01,0 -0.31,-0.6 -0.86,-0.6 -0.47,0 -0.47,0.45 -0.47,0.57 0,0.38 0.16,0.82 0.37,1.35 0.08,0.23 0.12,0.31 0.12,0.43 0,0.33 -0.29,0.59 -0.67,0.59 -0.7,0 -1.01,-0.95 -1.01,-1.07 0,-0.09 0.1,-0.09 0.12,-0.09 0.09,0 0.1,0.04 0.12,0.11 0.17,0.58 0.47,0.85 0.75,0.85 0.12,0 0.18,-0.07 0.18,-0.24 0,-0.16 -0.07,-0.31 -0.1,-0.4 -0.33,-0.85 -0.4,-1.11 -0.4,-1.41 0,-0.12 0,-0.45 0.27,-0.67 0.21,-0.18 0.51,-0.22 0.69,-0.22 0.28,0 0.53,0.11 0.76,0.31 -0.09,-0.38 -0.16,-0.67 -0.46,-1.02 -0.19,-0.21 -0.46,-0.44 -0.83,-0.44 -0.05,0 -0.38,0 -0.53,0.23 0.38,0.04 0.38,0.37 0.38,0.38 0,0.22 -0.2,0.26 -0.27,0.26 -0.17,0 -0.4,-0.14 -0.4,-0.46 0,-0.35 0.33,-0.61 0.82,-0.61 0.71,0 1.56,0.55 1.78,1.41 z"
           inkscape:connector-curvature="0"
           style="fill:#42aac8;fill-opacity:1;stroke-width:0" /></g>      <g
         transform="matrix(1.6139248,0,0,1.6139248,78.513544,-141.86003)"
         id="g7809">
        <g
           style="font-style:normal;font-variant:normal;font-weight:normal;font-stretch:normal;letter-spacing:normal;word-spacing:normal;text-anchor:start;fill:#d2504b;fill-opacity:1;fill-rule:evenodd;stroke:#000000;stroke-linecap:butt;stroke-linejoin:miter;stroke-miterlimit:10.43299961;stroke-dasharray:none;stroke-dashoffset:0;stroke-opacity:1"
           id="g7203"
           transform="matrix(1.397319,0,0,-1.397319,-185.1044,1148.4949)"
           xml:space="preserve"
           stroke-miterlimit="10.433"
           font-style="normal"
           font-variant="normal"
           font-weight="normal"
           font-stretch="normal"
           font-size-adjust="none"
           letter-spacing="normal"
           word-spacing="normal"
           ns0:text="$\\lambda $"><path
             style="fill:#d2504b;fill-opacity:1;stroke-width:0"
             inkscape:connector-curvature="0"
             d="m 226.98,710.03 0.04,-0.1 0.04,-0.1 0.08,-0.21 0.08,-0.22 0.08,-0.22 0.07,-0.22 0.08,-0.22 0.08,-0.21 0.03,-0.1 0.04,-0.11 0.03,-0.1 0.04,-0.09 0.03,-0.1 0.04,-0.09 0.03,-0.08 0.03,-0.09 0.03,-0.08 0.03,-0.07 0.02,-0.07 0.03,-0.06 0.02,-0.06 0.02,-0.05 0.03,-0.05 0.02,-0.04 0.01,-0.03 0.02,-0.03 c 0.16,-0.21 0.26,-0.21 0.53,-0.21 l 0.21,0 c 0.1,0.01 0.11,0.07 0.11,0.09 0,0.04 -0.02,0.05 -0.05,0.09 -0.09,0.11 -0.15,0.26 -0.22,0.46 l -2.03,5.65 c -0.21,0.58 -0.75,0.71 -1.22,0.71 -0.05,0 -0.18,0 -0.18,-0.11 0,-0.08 0.08,-0.1 0.09,-0.1 0.33,-0.06 0.4,-0.12 0.65,-0.79 l 0.96,-2.71 -2.74,-2.72 c -0.12,-0.12 -0.18,-0.18 -0.18,-0.31 0,-0.17 0.14,-0.28 0.3,-0.28 0.16,0 0.25,0.1 0.33,0.2 z"
             id="path7205" /></g>        <g
           ns0:text="$\\lambda $"
           word-spacing="normal"
           letter-spacing="normal"
           font-size-adjust="none"
           font-stretch="normal"
           font-weight="normal"
           font-variant="normal"
           font-style="normal"
           stroke-miterlimit="10.433"
           xml:space="preserve"
           transform="matrix(1.397319,0,0,-1.397319,-134.92583,1169.0306)"
           id="g7319"
           style="font-style:normal;font-variant:normal;font-weight:normal;font-stretch:normal;letter-spacing:normal;word-spacing:normal;text-anchor:start;fill:#d2504b;fill-opacity:1;fill-rule:evenodd;stroke:#000000;stroke-linecap:butt;stroke-linejoin:miter;stroke-miterlimit:10.43299961;stroke-dasharray:none;stroke-dashoffset:0;stroke-opacity:1"><path
             id="path7321"
             d="m 226.98,710.03 0.04,-0.1 0.04,-0.1 0.08,-0.21 0.08,-0.22 0.08,-0.22 0.07,-0.22 0.08,-0.22 0.08,-0.21 0.03,-0.1 0.04,-0.11 0.03,-0.1 0.04,-0.09 0.03,-0.1 0.04,-0.09 0.03,-0.08 0.03,-0.09 0.03,-0.08 0.03,-0.07 0.02,-0.07 0.03,-0.06 0.02,-0.06 0.02,-0.05 0.03,-0.05 0.02,-0.04 0.01,-0.03 0.02,-0.03 c 0.16,-0.21 0.26,-0.21 0.53,-0.21 l 0.21,0 c 0.1,0.01 0.11,0.07 0.11,0.09 0,0.04 -0.02,0.05 -0.05,0.09 -0.09,0.11 -0.15,0.26 -0.22,0.46 l -2.03,5.65 c -0.21,0.58 -0.75,0.71 -1.22,0.71 -0.05,0 -0.18,0 -0.18,-0.11 0,-0.08 0.08,-0.1 0.09,-0.1 0.33,-0.06 0.4,-0.12 0.65,-0.79 l 0.96,-2.71 -2.74,-2.72 c -0.12,-0.12 -0.18,-0.18 -0.18,-0.31 0,-0.17 0.14,-0.28 0.3,-0.28 0.16,0 0.25,0.1 0.33,0.2 z"
             inkscape:connector-curvature="0"
             style="fill:#d2504b;fill-opacity:1;stroke-width:0" /></g>        <g
           style="font-style:normal;font-variant:normal;font-weight:normal;font-stretch:normal;letter-spacing:normal;word-spacing:normal;text-anchor:start;fill:#6b3c41;fill-opacity:1;fill-rule:evenodd;stroke:#000000;stroke-linecap:butt;stroke-linejoin:miter;stroke-miterlimit:10.43299961;stroke-dasharray:none;stroke-dashoffset:0;stroke-opacity:1"
           ns0:text="$\\begin{array}{cc}\n~~r_{11} &amp; r_{12}\\\\\nr_{21} &amp; ~~r_{22}\n\\end{array}$"
           word-spacing="normal"
           letter-spacing="normal"
           font-size-adjust="none"
           font-stretch="normal"
           font-weight="normal"
           font-variant="normal"
           font-style="normal"
           stroke-miterlimit="10.433"
           xml:space="preserve"
           transform="matrix(1.7225431,0,0,-1.7225431,-268.74561,1379.9947)"
           id="g7426"><path
             style="fill:#6b3c41;fill-opacity:1;stroke-width:0"
             inkscape:connector-curvature="0"
             id="path7428"
             d="m 235.93,709.3 0,-0.01 -0.01,-0.01 0,-0.02 0,-0.01 -0.01,-0.04 -0.01,-0.03 0,-0.03 -0.01,-0.03 -0.01,-0.03 -0.01,-0.04 0,-0.01 0,-0.02 -0.01,-0.01 0,-0.01 0,-0.02 0,-0.01 -0.01,-0.01 0,-0.02 0,-0.01 0,-0.01 0,-0.01 -0.01,-0.01 0,0 0,-0.01 0,-0.01 0,0 c 0,-0.18 0.14,-0.27 0.29,-0.27 0.12,0 0.3,0.08 0.37,0.28 0.02,0.04 0.36,1.39 0.4,1.57 0.08,0.32 0.25,1.02 0.31,1.29 0.04,0.13 0.32,0.59 0.56,0.81 0.08,0.07 0.37,0.33 0.8,0.33 0.26,0 0.41,-0.12 0.42,-0.12 -0.3,-0.05 -0.52,-0.29 -0.52,-0.54 0,-0.16 0.11,-0.35 0.38,-0.35 0.26,0 0.54,0.23 0.54,0.58 0,0.35 -0.32,0.65 -0.82,0.65 -0.65,0 -1.09,-0.49 -1.28,-0.77 -0.08,0.45 -0.43,0.77 -0.9,0.77 -0.46,0 -0.65,-0.39 -0.74,-0.57 -0.18,-0.33 -0.31,-0.93 -0.31,-0.96 0,-0.1 0.1,-0.1 0.12,-0.1 0.1,0 0.11,0.01 0.17,0.23 0.17,0.7 0.37,1.18 0.73,1.18 0.17,0 0.31,-0.08 0.31,-0.46 0,-0.2 -0.03,-0.31 -0.16,-0.83 z" /><path
             style="fill:#6b3c41;fill-opacity:1;stroke-width:0"
             inkscape:connector-curvature="0"
             id="path7430"
             d="m 241.88,711.65 0,0.01 0,0.01 0,0 0,0.01 0,0.01 0,0.01 0,0 0,0.01 0,0.01 0,0 0,0.01 0,0.01 0,0 0,0.01 0,0 0,0.01 0,0 0,0.01 -0.01,0.01 0,0 0,0.01 -0.01,0.01 0,0 0,0.01 -0.01,0.01 0,0 -0.01,0 -0.01,0.01 0,0 -0.01,0 -0.01,0 -0.01,0.01 -0.01,0 0,0 -0.01,0 0,0 -0.01,0 0,0 -0.01,0 -0.01,0 0,0 -0.01,0 -0.01,0 -0.01,0 0,0 -0.01,0 -0.01,0 -0.01,0 -0.01,0 -0.01,0 c -0.44,-0.44 -1.07,-0.44 -1.36,-0.44 l 0,-0.25 c 0.17,0 0.63,0 1.01,0.19 l 0,-3.55 c 0,-0.22 0,-0.32 -0.7,-0.32 l -0.26,0 0,-0.25 c 0.12,0.01 0.98,0.03 1.24,0.03 0.21,0 1.09,-0.02 1.24,-0.03 l 0,0.25 -0.26,0 c -0.7,0 -0.7,0.1 -0.7,0.32 z" /><path
             style="fill:#6b3c41;fill-opacity:1;stroke-width:0"
             inkscape:connector-curvature="0"
             id="path7432"
             d="m 245.85,711.65 0,0.01 0,0.01 0,0 0,0.01 0,0.01 0,0.01 0,0 0,0.01 0,0.01 0,0 0,0.01 0,0.01 0,0 0,0.01 0,0 0,0.01 0,0 0,0.01 0,0.01 -0.01,0 0,0.01 0,0.01 -0.01,0 0,0.01 -0.01,0.01 0,0 -0.01,0 0,0.01 -0.01,0 -0.01,0 -0.01,0 -0.01,0.01 0,0 -0.01,0 0,0 -0.01,0 -0.01,0 0,0 -0.01,0 -0.01,0 0,0 -0.01,0 -0.01,0 0,0 -0.01,0 -0.01,0 -0.01,0 -0.01,0 0,0 -0.01,0 c -0.45,-0.44 -1.08,-0.44 -1.37,-0.44 l 0,-0.25 c 0.17,0 0.63,0 1.01,0.19 l 0,-3.55 c 0,-0.22 0,-0.32 -0.7,-0.32 l -0.26,0 0,-0.25 c 0.13,0.01 0.98,0.03 1.24,0.03 0.22,0 1.09,-0.02 1.25,-0.03 l 0,0.25 -0.27,0 c -0.7,0 -0.7,0.1 -0.7,0.32 z" /><path
             style="fill:#6b3c41;fill-opacity:1;stroke-width:0"
             inkscape:connector-curvature="0"
             id="path7434"
             d="m 262.15,709.3 0,-0.01 -0.01,-0.01 0,-0.02 0,-0.01 -0.01,-0.04 -0.01,-0.03 0,-0.03 -0.01,-0.03 -0.01,-0.03 -0.01,-0.04 0,-0.01 0,-0.02 -0.01,-0.01 0,-0.01 0,-0.02 -0.01,-0.01 0,-0.01 0,-0.02 0,-0.01 0,-0.01 -0.01,-0.01 0,-0.01 0,0 0,-0.01 0,-0.01 0,0 c 0,-0.18 0.14,-0.27 0.29,-0.27 0.12,0 0.3,0.08 0.37,0.28 0.02,0.04 0.36,1.39 0.39,1.57 0.08,0.32 0.26,1.02 0.32,1.29 0.04,0.13 0.32,0.59 0.56,0.81 0.08,0.07 0.37,0.33 0.8,0.33 0.26,0 0.4,-0.12 0.41,-0.12 -0.3,-0.05 -0.51,-0.29 -0.51,-0.54 0,-0.16 0.11,-0.35 0.38,-0.35 0.26,0 0.54,0.23 0.54,0.58 0,0.35 -0.32,0.65 -0.82,0.65 -0.65,0 -1.09,-0.49 -1.28,-0.77 -0.08,0.45 -0.43,0.77 -0.9,0.77 -0.46,0 -0.65,-0.39 -0.74,-0.57 -0.18,-0.33 -0.31,-0.93 -0.31,-0.96 0,-0.1 0.1,-0.1 0.12,-0.1 0.1,0 0.11,0.01 0.17,0.23 0.17,0.7 0.37,1.18 0.73,1.18 0.17,0 0.31,-0.08 0.31,-0.46 0,-0.2 -0.03,-0.31 -0.16,-0.83 z" /><path
             style="fill:#6b3c41;fill-opacity:1;stroke-width:0"
             inkscape:connector-curvature="0"
             id="path7436"
             d="m 268.1,711.65 0,0.01 0,0.01 0,0 0,0.01 0,0.01 0,0.01 0,0 0,0.01 0,0.01 0,0 0,0.01 0,0.01 0,0 0,0.01 0,0 0,0.01 0,0 -0.01,0.01 0,0.01 0,0 0,0.01 -0.01,0.01 0,0 0,0.01 -0.01,0.01 0,0 -0.01,0 -0.01,0.01 -0.01,0 0,0 -0.01,0 -0.01,0.01 -0.01,0 0,0 -0.01,0 0,0 -0.01,0 -0.01,0 0,0 -0.01,0 -0.01,0 0,0 -0.01,0 -0.01,0 0,0 -0.01,0 -0.01,0 -0.01,0 -0.01,0 -0.01,0 c -0.44,-0.44 -1.08,-0.44 -1.36,-0.44 l 0,-0.25 c 0.17,0 0.62,0 1.01,0.19 l 0,-3.55 c 0,-0.22 0,-0.32 -0.7,-0.32 l -0.26,0 0,-0.25 c 0.12,0.01 0.98,0.03 1.24,0.03 0.21,0 1.09,-0.02 1.24,-0.03 l 0,0.25 -0.26,0 c -0.7,0 -0.7,0.1 -0.7,0.32 z" /><path
             style="fill:#6b3c41;fill-opacity:1;stroke-width:0"
             inkscape:connector-curvature="0"
             id="path7438"
             d="m 273.26,708.49 -0.24,0 c -0.02,-0.15 -0.09,-0.56 -0.18,-0.63 -0.06,-0.04 -0.59,-0.04 -0.69,-0.04 l -1.28,0 c 0.73,0.64 0.97,0.84 1.39,1.16 0.52,0.42 1,0.85 1,1.51 0,0.84 -0.74,1.35 -1.63,1.35 -0.87,0 -1.45,-0.6 -1.45,-1.24 0,-0.36 0.3,-0.39 0.37,-0.39 0.17,0 0.37,0.12 0.37,0.37 0,0.12 -0.05,0.37 -0.41,0.37 0.21,0.49 0.69,0.64 1.01,0.64 0.7,0 1.06,-0.54 1.06,-1.1 0,-0.61 -0.43,-1.09 -0.65,-1.34 l -1.68,-1.65 c -0.07,-0.07 -0.07,-0.08 -0.07,-0.28 l 2.87,0 z" /><path
             style="fill:#6b3c41;fill-opacity:1;stroke-width:0"
             inkscape:connector-curvature="0"
             id="path7440"
             d="m 232.61,697.35 0,-0.01 -0.01,-0.02 0,-0.01 0,-0.02 -0.01,-0.03 -0.01,-0.03 0,-0.03 -0.01,-0.04 -0.01,-0.03 -0.01,-0.03 0,-0.02 0,-0.01 -0.01,-0.02 0,-0.01 0,-0.01 -0.01,-0.02 0,-0.01 0,-0.01 0,-0.01 0,-0.01 -0.01,-0.01 0,-0.01 0,-0.01 0,-0.01 0,0 0,-0.01 c 0,-0.18 0.14,-0.26 0.29,-0.26 0.12,0 0.3,0.07 0.37,0.27 0.02,0.04 0.36,1.39 0.39,1.57 0.08,0.33 0.26,1.03 0.32,1.29 0.04,0.13 0.32,0.6 0.56,0.82 0.08,0.07 0.37,0.33 0.8,0.33 0.26,0 0.4,-0.12 0.41,-0.12 -0.29,-0.05 -0.51,-0.29 -0.51,-0.55 0,-0.16 0.11,-0.35 0.37,-0.35 0.27,0 0.55,0.23 0.55,0.59 0,0.35 -0.32,0.65 -0.82,0.65 -0.65,0 -1.09,-0.49 -1.28,-0.77 -0.08,0.45 -0.43,0.77 -0.9,0.77 -0.46,0 -0.65,-0.39 -0.74,-0.57 -0.18,-0.34 -0.31,-0.93 -0.31,-0.97 0,-0.09 0.1,-0.09 0.12,-0.09 0.1,0 0.11,0.01 0.17,0.22 0.17,0.71 0.37,1.19 0.73,1.19 0.17,0 0.31,-0.08 0.31,-0.46 0,-0.21 -0.03,-0.32 -0.16,-0.83 z" /><path
             style="fill:#6b3c41;fill-opacity:1;stroke-width:0"
             inkscape:connector-curvature="0"
             id="path7442"
             d="m 239.75,696.54 -0.24,0 c -0.02,-0.16 -0.09,-0.57 -0.18,-0.64 -0.06,-0.04 -0.59,-0.04 -0.69,-0.04 l -1.28,0 c 0.73,0.65 0.97,0.84 1.39,1.17 0.51,0.41 1,0.84 1,1.5 0,0.84 -0.74,1.36 -1.63,1.36 -0.87,0 -1.45,-0.61 -1.45,-1.25 0,-0.35 0.3,-0.39 0.37,-0.39 0.16,0 0.37,0.12 0.37,0.37 0,0.13 -0.05,0.37 -0.42,0.37 0.22,0.49 0.69,0.65 1.02,0.65 0.7,0 1.06,-0.55 1.06,-1.11 0,-0.6 -0.43,-1.08 -0.65,-1.33 l -1.68,-1.66 c -0.07,-0.06 -0.07,-0.07 -0.07,-0.27 l 2.87,0 z" /><path
             style="fill:#6b3c41;fill-opacity:1;stroke-width:0"
             inkscape:connector-curvature="0"
             id="path7444"
             d="m 242.53,699.69 0,0.01 0,0.01 0,0.01 0,0.01 0,0 0,0.01 0,0.01 0,0.01 0,0 0,0.01 0,0 0,0.01 0,0.01 0,0 0,0.01 0,0 0,0.01 0,0 -0.01,0.01 0,0.01 0,0.01 0,0 -0.01,0.01 0,0.01 -0.01,0 0,0 -0.01,0.01 -0.01,0 0,0 -0.01,0.01 -0.01,0 -0.01,0 0,0 -0.01,0 -0.01,0 0,0 -0.01,0 0,0.01 -0.01,0 -0.01,0 0,0 -0.01,0 -0.01,0 0,0 -0.01,0 -0.01,0 -0.01,0 -0.01,0 -0.01,0 -0.01,0 c -0.44,-0.44 -1.08,-0.45 -1.36,-0.45 l 0,-0.25 c 0.17,0 0.63,0 1.01,0.2 l 0,-3.55 c 0,-0.23 0,-0.32 -0.7,-0.32 l -0.26,0 0,-0.25 c 0.12,0.01 0.98,0.03 1.24,0.03 0.21,0 1.09,-0.02 1.24,-0.03 l 0,0.25 -0.26,0 c -0.7,0 -0.7,0.09 -0.7,0.32 z" /><path
             style="fill:#6b3c41;fill-opacity:1;stroke-width:0"
             inkscape:connector-curvature="0"
             id="path7446"
             d="m 265.47,697.35 0,-0.01 -0.01,-0.02 0,-0.01 0,-0.02 -0.01,-0.03 -0.01,-0.03 0,-0.03 -0.01,-0.04 -0.01,-0.03 -0.01,-0.03 0,-0.02 0,-0.01 -0.01,-0.02 0,-0.01 0,-0.01 0,-0.02 -0.01,-0.01 0,-0.01 0,-0.01 0,-0.01 0,-0.01 -0.01,-0.01 0,-0.01 0,-0.01 0,0 0,-0.01 c 0,-0.18 0.14,-0.26 0.29,-0.26 0.12,0 0.3,0.07 0.37,0.27 0.02,0.04 0.36,1.39 0.4,1.57 0.08,0.33 0.25,1.03 0.31,1.29 0.04,0.13 0.32,0.6 0.56,0.82 0.08,0.07 0.37,0.33 0.8,0.33 0.26,0 0.41,-0.12 0.41,-0.12 -0.29,-0.05 -0.51,-0.29 -0.51,-0.55 0,-0.16 0.11,-0.35 0.38,-0.35 0.26,0 0.54,0.23 0.54,0.59 0,0.35 -0.32,0.65 -0.82,0.65 -0.65,0 -1.09,-0.49 -1.28,-0.77 -0.08,0.45 -0.43,0.77 -0.9,0.77 -0.46,0 -0.65,-0.39 -0.74,-0.57 -0.18,-0.34 -0.31,-0.93 -0.31,-0.97 0,-0.09 0.1,-0.09 0.12,-0.09 0.1,0 0.11,0.01 0.17,0.22 0.17,0.71 0.37,1.19 0.73,1.19 0.17,0 0.31,-0.08 0.31,-0.46 0,-0.21 -0.03,-0.32 -0.16,-0.83 z" /><path
             style="fill:#6b3c41;fill-opacity:1;stroke-width:0"
             inkscape:connector-curvature="0"
             id="path7448"
             d="m 272.61,696.54 -0.24,0 c -0.02,-0.16 -0.09,-0.57 -0.18,-0.64 -0.06,-0.04 -0.59,-0.04 -0.69,-0.04 l -1.28,0 c 0.73,0.65 0.97,0.84 1.39,1.17 0.52,0.41 1,0.84 1,1.5 0,0.84 -0.74,1.36 -1.63,1.36 -0.87,0 -1.45,-0.61 -1.45,-1.25 0,-0.35 0.3,-0.39 0.37,-0.39 0.17,0 0.37,0.12 0.37,0.37 0,0.13 -0.05,0.37 -0.41,0.37 0.21,0.49 0.69,0.65 1.01,0.65 0.7,0 1.06,-0.55 1.06,-1.11 0,-0.6 -0.43,-1.08 -0.65,-1.33 l -1.68,-1.66 c -0.07,-0.06 -0.07,-0.07 -0.07,-0.27 l 2.87,0 z" /><path
             style="fill:#6b3c41;fill-opacity:1;stroke-width:0"
             inkscape:connector-curvature="0"
             id="path7450"
             d="m 276.58,696.54 -0.24,0 c -0.02,-0.16 -0.09,-0.57 -0.18,-0.64 -0.05,-0.04 -0.59,-0.04 -0.69,-0.04 l -1.28,0 c 0.73,0.65 0.98,0.84 1.39,1.17 0.52,0.41 1,0.84 1,1.5 0,0.84 -0.74,1.36 -1.63,1.36 -0.87,0 -1.45,-0.61 -1.45,-1.25 0,-0.35 0.3,-0.39 0.37,-0.39 0.17,0 0.37,0.12 0.37,0.37 0,0.13 -0.05,0.37 -0.41,0.37 0.21,0.49 0.69,0.65 1.01,0.65 0.7,0 1.06,-0.55 1.06,-1.11 0,-0.6 -0.43,-1.08 -0.65,-1.33 l -1.68,-1.66 c -0.07,-0.06 -0.07,-0.07 -0.07,-0.27 l 2.87,0 z" /></g>      </g>
      <g
         id="g7828"
         transform="matrix(2.1266914,0,0,-2.1266914,-174.73108,1688.5176)"
         xml:space="preserve"
         stroke-miterlimit="10.433"
         font-style="normal"
         font-variant="normal"
         font-weight="normal"
         font-stretch="normal"
         font-size-adjust="none"
         letter-spacing="normal"
         word-spacing="normal"
         ns0:text="$0$"
         style="font-style:normal;font-variant:normal;font-weight:normal;font-stretch:normal;letter-spacing:normal;word-spacing:normal;text-anchor:start;fill:#4d4d4d;fill-opacity:1;fill-rule:evenodd;stroke:#000000;stroke-linecap:butt;stroke-linejoin:miter;stroke-miterlimit:10.43299961;stroke-dasharray:none;stroke-dashoffset:0;stroke-opacity:1"><path
           d="m 228.01,710.3 0,0.15 0,0.15 -0.01,0.15 0,0.15 -0.01,0.15 -0.02,0.14 -0.01,0.15 -0.02,0.15 -0.02,0.14 -0.03,0.15 -0.03,0.14 -0.04,0.15 -0.04,0.14 -0.05,0.14 -0.06,0.14 -0.03,0.07 -0.03,0.07 c -0.46,0.95 -1.27,1.11 -1.69,1.11 -0.6,0 -1.32,-0.26 -1.73,-1.18 -0.32,-0.69 -0.37,-1.46 -0.37,-2.26 0,-0.74 0.04,-1.64 0.45,-2.39 0.43,-0.81 1.15,-1 1.64,-1 l 0,0.21 c -0.39,0 -0.98,0.25 -1.15,1.21 -0.11,0.59 -0.11,1.51 -0.11,2.09 0,0.64 0,1.29 0.08,1.83 0.18,1.18 0.93,1.27 1.18,1.27 0.33,0 0.98,-0.18 1.17,-1.16 0.1,-0.56 0.1,-1.31 0.1,-1.94 0,-0.74 0,-1.42 -0.11,-2.05 -0.15,-0.95 -0.71,-1.25 -1.16,-1.25 l 0,0 0,-0.21 c 0.54,0 1.29,0.2 1.73,1.15 0.32,0.68 0.37,1.46 0.37,2.24 z"
           id="path7830"
           inkscape:connector-curvature="0"
           style="fill:#4d4d4d;fill-opacity:1;stroke-width:0" /></g>      <path
         sodipodi:nodetypes="cccc"
         inkscape:connector-curvature="0"
         id="path7853"
         d="m 292.55422,86.585258 -19.67696,0 0,110.812832 19.67696,0"
         style="fill:none;fill-rule:evenodd;stroke:#4d4d4d;stroke-width:2;stroke-linecap:butt;stroke-linejoin:round;stroke-miterlimit:4;stroke-dasharray:none;stroke-opacity:1" />
      <text
         sodipodi:linespacing="125%"
         id="text8713"
         y="75.398819"
         x="271.65247"
         style="font-style:normal;font-weight:normal;font-size:40.34812164px;line-height:125%;font-family:Sans;letter-spacing:0px;word-spacing:0px;fill:#000000;fill-opacity:1;stroke:none;stroke-width:1px;stroke-linecap:butt;stroke-linejoin:miter;stroke-opacity:1"
         xml:space="preserve"><tspan
           style="font-style:normal;font-variant:normal;font-weight:normal;font-stretch:normal;font-size:16.1392498px;font-family:sans-serif;-inkscape-font-specification:sans-serif;fill:#000000;fill-opacity:1"
           y="75.398819"
           x="271.65247"
           id="tspan8715"
           sodipodi:role="line">Matrix3</tspan></text>
      <g
         id="g10076"
         transform="matrix(1.6139248,0,0,-1.6139248,-26.220394,1216.1147)"
         xml:space="preserve"
         stroke-miterlimit="10.433"
         font-style="normal"
         font-variant="normal"
         font-weight="normal"
         font-stretch="normal"
         font-size-adjust="none"
         letter-spacing="normal"
         word-spacing="normal"
         ns0:text="$(\\mathbb{R}^{3 \\times 3})$"
         style="font-style:normal;font-variant:normal;font-weight:normal;font-stretch:normal;letter-spacing:normal;word-spacing:normal;text-anchor:start;fill:#808080;fill-opacity:0.60784314;fill-rule:evenodd;stroke:#000000;stroke-linecap:butt;stroke-linejoin:miter;stroke-miterlimit:10.43299961;stroke-dasharray:none;stroke-dashoffset:0;stroke-opacity:1"><path
           inkscape:connector-curvature="0"
           style="fill:#808080;fill-opacity:0.60784314;stroke-width:0"
           d="m 226.73,704.74 -0.01,0.01 0,0 0,0 0,0.01 0,0 0,0 0,0.01 0,0 0,0 0,0.01 -0.01,0 0,0.01 0,0 -0.01,0.01 0,0 -0.01,0.01 0,0.01 -0.01,0 0,0.01 0,0 -0.01,0.01 0,0 0,0 -0.01,0.01 0,0 -0.01,0.01 0,0 -0.01,0.01 0,0 -0.01,0.01 0,0 -0.01,0.01 0,0.01 -0.01,0 0,0.01 -0.01,0.01 -0.01,0 0,0.01 -0.01,0.01 -0.01,0 -0.01,0.01 0,0.01 c -1.25,1.25 -1.57,3.13 -1.57,4.65 0,1.73 0.38,3.46 1.61,4.7 0.13,0.12 0.13,0.14 0.13,0.17 0,0.07 -0.05,0.1 -0.1,0.1 -0.1,0 -1,-0.68 -1.59,-1.94 -0.5,-1.09 -0.62,-2.2 -0.62,-3.03 0,-0.78 0.11,-1.98 0.65,-3.1 0.6,-1.22 1.46,-1.87 1.56,-1.87 0.05,0 0.1,0.03 0.1,0.1 z"
           id="path10078" /><path
           inkscape:connector-curvature="0"
           style="fill:#808080;fill-opacity:0.60784314;stroke-width:0"
           d="m 229.97,710.24 0,0.35 0,2.46 c 0,0.2 0,0.53 0.62,0.53 0.84,0 1.26,-0.35 1.26,-1.52 0,-1.28 -0.31,-1.47 -1.88,-1.47 l 0,-0.35 0.36,0 1.49,-2.3 c 0.1,-0.16 0.34,-0.55 0.45,-0.7 l 0.26,0.23 -1.79,2.77 c 0.07,0.01 0.11,0.02 0.19,0.02 0.15,0 0.37,0.02 0.52,0.04 0.14,-0.23 1.22,-2 2.04,-2.83 l -0.96,0 -0.26,-0.23 c 0.07,-0.12 0.1,-0.12 0.33,-0.12 l 1.37,0 c 0.18,0 0.33,0 0.33,0.18 0,0.08 -0.06,0.15 -0.15,0.17 -0.37,0.08 -0.86,0.74 -1.09,1.06 -0.07,0.09 -0.57,0.75 -1.24,1.82 0.89,0.16 1.74,0.54 1.74,1.72 l -0.34,0 c 0,-0.64 -0.3,-1.15 -1.33,-1.34 l 0,0 c 0.28,0.37 0.31,0.89 0.31,1.33 0,0.48 -0.06,1.01 -0.38,1.41 0.41,-0.09 1.4,-0.39 1.4,-1.4 l 0.34,0 c 0,1.38 -1.46,1.86 -2.63,1.86 l -3.13,0 c -0.18,0 -0.34,0 -0.34,-0.18 0,-0.17 0.19,-0.17 0.27,-0.17 0.57,0 0.62,-0.07 0.62,-0.56 l 0.35,0.02 c 0,0.1 0,0.36 -0.08,0.54 l 1.13,0 c -0.13,-0.16 -0.13,-0.36 -0.13,-0.5 l 0,-5.06 c 0,-0.1 0,-0.37 0.08,-0.55 l -1.08,0 c 0.08,0.18 0.08,0.46 0.08,0.55 l 0,5.02 -0.35,-0.02 0,-4.98 c 0,-0.5 -0.05,-0.57 -0.62,-0.57 -0.08,0 -0.27,0 -0.27,-0.17 0,-0.18 0.16,-0.18 0.34,-0.18 l 2.73,0 c 0.18,0 0.33,0 0.33,0.18 0,0.17 -0.17,0.17 -0.28,0.17 -0.57,0 -0.61,0.08 -0.61,0.57 z"
           id="path10080" /><path
           inkscape:connector-curvature="0"
           style="fill:#808080;fill-opacity:0.60784314;stroke-width:0"
           d="m 236.4,713.06 0.05,0 0.05,0 0.05,-0.01 0.05,0 0.05,-0.01 0.04,-0.02 0.05,-0.01 0.04,-0.02 0.04,-0.02 0.04,-0.02 0.04,-0.02 0.04,-0.03 0.03,-0.02 0.04,-0.03 0.03,-0.03 0.03,-0.04 0.03,-0.03 0.03,-0.04 0.03,-0.04 0.02,-0.05 0.03,-0.04 0.02,-0.05 0.02,-0.05 0.02,-0.05 0.01,-0.05 0.02,-0.06 0.01,-0.06 0.01,-0.06 0.01,-0.06 0,-0.06 0.01,-0.07 0,-0.07 c 0,-0.86 -0.5,-1.12 -0.91,-1.12 -0.28,0 -0.89,0.08 -1.18,0.49 0.32,0.01 0.4,0.24 0.4,0.39 0,0.22 -0.17,0.38 -0.38,0.38 -0.2,0 -0.39,-0.12 -0.39,-0.4 0,-0.65 0.72,-1.08 1.57,-1.08 0.96,0 1.63,0.65 1.63,1.34 0,0.54 -0.44,1.09 -1.21,1.25 0.73,0.26 1,0.78 1,1.21 0,0.55 -0.64,0.96 -1.41,0.96 -0.77,0 -1.37,-0.38 -1.37,-0.94 0,-0.23 0.16,-0.36 0.37,-0.36 0.21,0 0.35,0.16 0.35,0.35 0,0.2 -0.14,0.35 -0.35,0.36 0.24,0.31 0.72,0.39 0.98,0.39 0.31,0 0.75,-0.16 0.75,-0.76 0,-0.29 -0.1,-0.61 -0.28,-0.83 -0.23,-0.26 -0.42,-0.28 -0.77,-0.3 -0.18,-0.01 -0.19,-0.01 -0.22,-0.02 -0.02,0 -0.07,-0.01 -0.07,-0.09 0,-0.1 0.06,-0.1 0.18,-0.1 z"
           id="path10082" /><path
           inkscape:connector-curvature="0"
           style="fill:#808080;fill-opacity:0.60784314;stroke-width:0"
           d="m 243.35,714 0.01,0.01 0,0.01 0.01,0 0,0.01 0.01,0 0.01,0.01 0,0.01 0.01,0 0,0.01 0,0 0.01,0.01 0,0 0.01,0.01 0,0.01 0,0 0.01,0.01 0,0 0,0 0,0.01 0.01,0 0,0.01 0,0 0,0.01 0,0 0,0.01 0,0 0,0.01 0,0 0.01,0 0,0.01 0,0.01 c 0,0.11 -0.1,0.17 -0.17,0.17 -0.07,0 -0.09,-0.02 -0.18,-0.1 l -1.52,-1.52 -1.53,1.52 c -0.07,0.07 -0.1,0.1 -0.16,0.1 -0.1,0 -0.18,-0.07 -0.18,-0.17 0,-0.06 0.02,-0.08 0.11,-0.17 l 1.52,-1.52 -1.52,-1.51 c -0.1,-0.1 -0.11,-0.13 -0.11,-0.17 0,-0.1 0.08,-0.18 0.18,-0.18 0.06,0 0.08,0.02 0.16,0.1 l 1.53,1.52 1.59,-1.58 c 0.03,-0.02 0.07,-0.04 0.11,-0.04 0.07,0 0.17,0.06 0.17,0.18 0,0.05 -0.02,0.06 -0.04,0.09 -0.01,0.02 -1.36,1.37 -1.59,1.59 z"
           id="path10084" /><path
           inkscape:connector-curvature="0"
           style="fill:#808080;fill-opacity:0.60784314;stroke-width:0"
           d="m 246.6,713.06 0.05,0 0.05,0 0.05,-0.01 0.05,0 0.04,-0.01 0.05,-0.02 0.04,-0.01 0.05,-0.02 0.04,-0.02 0.04,-0.02 0.04,-0.02 0.04,-0.03 0.03,-0.02 0.04,-0.03 0.03,-0.03 0.03,-0.04 0.03,-0.03 0.03,-0.04 0.03,-0.04 0.02,-0.05 0.03,-0.04 0.02,-0.05 0.02,-0.05 0.02,-0.05 0.01,-0.05 0.02,-0.06 0.01,-0.06 0.01,-0.06 0,-0.06 0.01,-0.06 0,-0.07 0.01,-0.07 c 0,-0.86 -0.51,-1.12 -0.91,-1.12 -0.28,0 -0.89,0.08 -1.18,0.49 0.32,0.01 0.4,0.24 0.4,0.39 0,0.22 -0.17,0.38 -0.38,0.38 -0.2,0 -0.39,-0.12 -0.39,-0.4 0,-0.65 0.72,-1.08 1.56,-1.08 0.97,0 1.64,0.65 1.64,1.34 0,0.54 -0.45,1.09 -1.21,1.25 0.73,0.26 0.99,0.78 0.99,1.21 0,0.55 -0.63,0.96 -1.4,0.96 -0.78,0 -1.37,-0.38 -1.37,-0.94 0,-0.23 0.16,-0.36 0.36,-0.36 0.22,0 0.36,0.16 0.36,0.35 0,0.2 -0.14,0.35 -0.36,0.36 0.25,0.31 0.73,0.39 0.99,0.39 0.31,0 0.75,-0.16 0.75,-0.76 0,-0.29 -0.1,-0.61 -0.28,-0.83 -0.23,-0.26 -0.43,-0.28 -0.77,-0.3 -0.18,-0.01 -0.19,-0.01 -0.23,-0.02 -0.01,0 -0.07,-0.01 -0.07,-0.09 0,-0.1 0.07,-0.1 0.19,-0.1 z"
           id="path10086" /><path
           inkscape:connector-curvature="0"
           style="fill:#808080;fill-opacity:0.60784314;stroke-width:0"
           d="m 252.04,709.61 0,0.07 0,0.08 0,0.08 0,0.08 -0.01,0.17 -0.01,0.17 -0.02,0.18 -0.02,0.19 -0.03,0.2 -0.03,0.2 -0.04,0.2 -0.04,0.21 -0.06,0.21 -0.06,0.21 -0.07,0.21 -0.08,0.21 -0.04,0.11 -0.04,0.11 -0.05,0.1 -0.05,0.11 c -0.6,1.22 -1.46,1.87 -1.55,1.87 -0.06,0 -0.1,-0.04 -0.1,-0.1 0,-0.03 0,-0.05 0.19,-0.23 0.97,-0.99 1.54,-2.57 1.54,-4.64 0,-1.7 -0.37,-3.45 -1.6,-4.7 -0.13,-0.12 -0.13,-0.14 -0.13,-0.17 0,-0.06 0.04,-0.1 0.1,-0.1 0.09,0 0.99,0.68 1.58,1.94 0.51,1.09 0.62,2.19 0.62,3.03 z"
           id="path10088" /></g>    </g>
    <g
       id="g4230">
      <rect
         style="opacity:1;fill:#ffeff3;fill-opacity:1;fill-rule:evenodd;stroke:#d2504b;stroke-width:2.5;stroke-linecap:butt;stroke-linejoin:round;stroke-miterlimit:4;stroke-dasharray:none;stroke-dashoffset:0;stroke-opacity:1"
         id="rect6813"
         width="51.116062"
         height="35.039696"
         x="-54.915142"
         y="139.61395" />
      <rect
         y="105.4221"
         x="62.35334"
         height="106.6888"
         width="38.041763"
         id="rect5057"
         style="opacity:1;fill:#ebf6f9;fill-opacity:1;fill-rule:evenodd;stroke:#42aac8;stroke-width:3.09166765;stroke-linecap:butt;stroke-linejoin:round;stroke-miterlimit:4;stroke-dasharray:none;stroke-dashoffset:0;stroke-opacity:1" />
      <text
         sodipodi:linespacing="125%"
         id="text5091"
         y="86.661545"
         x="-158.09276"
         style="font-style:normal;font-weight:normal;font-size:48.41703415px;line-height:125%;font-family:Sans;text-align:center;letter-spacing:0px;word-spacing:0px;text-anchor:middle;fill:#42aac8;fill-opacity:1;stroke:none;stroke-width:1px;stroke-linecap:butt;stroke-linejoin:miter;stroke-opacity:1"
         xml:space="preserve"
         transform="matrix(0,-1,1,0,0,0)"><tspan
           id="tspan5093"
           style="font-size:14.52510834px;text-align:center;text-anchor:middle;fill:#42aac8;fill-opacity:1"
           y="86.661545"
           x="-158.09276"
           sodipodi:role="line">Vector2</tspan><tspan
           id="tspan5095"
           style="font-size:14.52510834px;text-align:center;text-anchor:middle;fill:#42aac8;fill-opacity:1"
           y="104.81793"
           x="-158.09276"
           sodipodi:role="line" /></text>
      <rect
         style="opacity:1;fill:#000000;fill-opacity:0;fill-rule:evenodd;stroke:#000000;stroke-width:1.61392486;stroke-linecap:butt;stroke-linejoin:miter;stroke-miterlimit:4;stroke-dasharray:none;stroke-dashoffset:0;stroke-opacity:1"
         id="rect5097"
         width="109.88682"
         height="119.83219"
         x="1.6715302"
         y="98.581261" />
      <text
         xml:space="preserve"
         style="font-style:normal;font-weight:normal;font-size:40.34812164px;line-height:125%;font-family:Sans;letter-spacing:0px;word-spacing:0px;fill:#000000;fill-opacity:1;stroke:none;stroke-width:1px;stroke-linecap:butt;stroke-linejoin:miter;stroke-opacity:1"
         x="1.3374238"
         y="71.958199"
         id="text5099"
         sodipodi:linespacing="125%"><tspan
           sodipodi:role="line"
           id="tspan5101"
           x="1.3374238"
           y="71.958199"
           style="font-style:normal;font-variant:normal;font-weight:normal;font-stretch:normal;font-size:16.1392498px;font-family:sans-serif;-inkscape-font-specification:sans-serif;fill:#000000;fill-opacity:1">Isometry2</tspan></text>
      <rect
         y="53.721428"
         x="-63.287781"
         height="169.64426"
         width="188.76787"
         id="rect5512"
         style="opacity:1;fill:#000000;fill-opacity:0;fill-rule:evenodd;stroke:#000000;stroke-width:1.61392486;stroke-linecap:butt;stroke-linejoin:round;stroke-miterlimit:4;stroke-dasharray:none;stroke-dashoffset:0;stroke-opacity:1" />
      <text
         sodipodi:linespacing="125%"
         id="text5514"
         y="47.452641"
         x="-64.313385"
         style="font-style:normal;font-weight:normal;font-size:40.34812164px;line-height:125%;font-family:Sans;letter-spacing:0px;word-spacing:0px;fill:#000000;fill-opacity:1;stroke:none;stroke-width:1px;stroke-linecap:butt;stroke-linejoin:miter;stroke-opacity:1"
         xml:space="preserve"><tspan
           style="font-style:normal;font-variant:normal;font-weight:normal;font-stretch:normal;font-size:16.1392498px;font-family:sans-serif;-inkscape-font-specification:sans-serif;fill:#000000;fill-opacity:1"
           y="47.452641"
           x="-64.313385"
           id="tspan5516"
           sodipodi:role="line">Similarity2</tspan></text>
      <text
         sodipodi:linespacing="125%"
         id="text6596"
         y="153.87396"
         x="-51.13385"
         style="font-style:normal;font-weight:normal;font-size:40.34812164px;line-height:125%;font-family:Sans;letter-spacing:0px;word-spacing:0px;fill:#d2504b;fill-opacity:1;stroke:none;stroke-width:1px;stroke-linecap:butt;stroke-linejoin:miter;stroke-opacity:1"
         xml:space="preserve"><tspan
           style="font-size:12.10443687px;fill:#d2504b;fill-opacity:1"
           y="153.87396"
           x="-51.13385"
           id="tspan6598"
           sodipodi:role="line">Scaling</tspan></text>
      <g
         style="font-style:normal;font-variant:normal;font-weight:normal;font-stretch:normal;letter-spacing:normal;word-spacing:normal;text-anchor:start;fill:#808080;fill-opacity:0.60784314;fill-rule:evenodd;stroke:#000000;stroke-linecap:butt;stroke-linejoin:miter;stroke-miterlimit:10.43299961;stroke-dasharray:none;stroke-dashoffset:0;stroke-opacity:1"
         ns0:text="$(\\mathbf{SO}(2) \\times \\mathbb{R}^2)$"
         word-spacing="normal"
         letter-spacing="normal"
         font-size-adjust="none"
         font-stretch="normal"
         font-weight="normal"
         font-variant="normal"
         font-style="normal"
         stroke-miterlimit="10.433"
         xml:space="preserve"
         transform="matrix(1.6139248,0,0,-1.6139248,-360.88875,1231.6027)"
         id="g9769"><path
           inkscape:connector-curvature="0"
           id="path9771"
           d="m 226.73,704.74 -0.01,0.01 0,0 0,0 0,0.01 0,0 0,0 0,0.01 0,0 0,0 0,0.01 -0.01,0 0,0.01 0,0 -0.01,0.01 0,0 -0.01,0.01 0,0.01 -0.01,0 0,0.01 0,0 -0.01,0.01 0,0 0,0 -0.01,0.01 0,0 -0.01,0.01 0,0 -0.01,0.01 0,0 -0.01,0.01 0,0 -0.01,0.01 0,0.01 -0.01,0 0,0.01 -0.01,0.01 -0.01,0 0,0.01 -0.01,0.01 -0.01,0 -0.01,0.01 0,0.01 c -1.25,1.25 -1.57,3.13 -1.57,4.65 0,1.73 0.38,3.46 1.61,4.7 0.13,0.12 0.13,0.14 0.13,0.17 0,0.07 -0.05,0.1 -0.1,0.1 -0.1,0 -1,-0.68 -1.59,-1.94 -0.5,-1.09 -0.62,-2.2 -0.62,-3.03 0,-0.78 0.11,-1.98 0.65,-3.1 0.6,-1.22 1.46,-1.87 1.56,-1.87 0.05,0 0.1,0.03 0.1,0.1 z"
           style="fill:#808080;fill-opacity:0.60784314;stroke-width:0" /><path
           inkscape:connector-curvature="0"
           id="path9773"
           d="m 231.31,711.24 -1.45,0.31 c -0.4,0.09 -0.95,0.42 -0.95,1.03 0,0.43 0.28,1.04 1.27,1.04 0.8,0 1.8,-0.34 2.03,-1.69 0.04,-0.23 0.04,-0.26 0.25,-0.26 0.24,0 0.24,0.05 0.24,0.28 l 0,1.82 c 0,0.19 0,0.28 -0.18,0.28 -0.08,0 -0.09,-0.01 -0.2,-0.11 l -0.45,-0.44 c -0.57,0.46 -1.22,0.55 -1.7,0.55 -1.51,0 -2.23,-0.96 -2.23,-2 0,-0.64 0.33,-1.1 0.54,-1.32 0.49,-0.49 0.83,-0.56 1.91,-0.79 0.88,-0.19 1.04,-0.22 1.26,-0.43 0.15,-0.15 0.4,-0.41 0.4,-0.86 0,-0.48 -0.26,-1.17 -1.29,-1.17 -0.76,0 -2.27,0.2 -2.35,1.68 -0.01,0.18 -0.01,0.23 -0.23,0.23 -0.24,0 -0.24,-0.06 -0.24,-0.29 l 0,-1.81 c 0,-0.19 0,-0.27 0.18,-0.27 0.09,0 0.11,0.02 0.19,0.08 l 0.46,0.46 c 0.66,-0.48 1.58,-0.54 1.99,-0.54 1.64,0 2.26,1.12 2.26,2.12 0,1.1 -0.81,1.91 -1.71,2.1 z"
           style="fill:#808080;fill-opacity:0.60784314;stroke-width:0" /><path
           inkscape:connector-curvature="0"
           id="path9775"
           d="m 241.62,710.49 0,0.2 -0.02,0.2 -0.02,0.19 -0.03,0.18 -0.03,0.18 -0.05,0.18 -0.05,0.17 -0.06,0.16 -0.07,0.16 -0.07,0.16 -0.08,0.15 -0.09,0.14 -0.1,0.14 -0.1,0.13 -0.11,0.13 -0.12,0.12 -0.12,0.11 -0.13,0.11 -0.13,0.1 -0.14,0.09 -0.15,0.09 -0.16,0.08 -0.15,0.07 -0.17,0.07 -0.17,0.05 -0.17,0.05 -0.18,0.05 -0.19,0.03 -0.19,0.03 -0.2,0.02 -0.2,0.01 -0.2,0.01 -0.01,-0.4 c 0.64,0 1.32,-0.28 1.72,-0.93 0.38,-0.64 0.42,-1.4 0.42,-2.08 0,-0.69 -0.04,-1.58 -0.46,-2.26 -0.45,-0.73 -1.14,-0.95 -1.68,-0.95 l 0,0 c -0.59,0 -1.31,0.28 -1.72,1.04 -0.33,0.61 -0.41,1.32 -0.41,2.17 0,0.64 0.03,1.48 0.47,2.16 0.41,0.6 1.07,0.85 1.66,0.85 l 0.01,0.4 c -2.28,0 -3.66,-1.47 -3.66,-3.56 0,-2.05 1.39,-3.47 3.65,-3.47 2.29,0 3.66,1.44 3.66,3.47 z"
           style="fill:#808080;fill-opacity:0.60784314;stroke-width:0" /><path
           inkscape:connector-curvature="0"
           id="path9777"
           d="m 245.57,704.74 0,0.01 0,0 0,0 0,0.01 0,0 0,0 0,0.01 0,0 -0.01,0 0,0.01 0,0 0,0.01 -0.01,0 0,0.01 0,0 -0.01,0.01 0,0.01 -0.01,0 0,0.01 -0.01,0 0,0.01 0,0 -0.01,0 0,0.01 -0.01,0 0,0.01 0,0 -0.01,0.01 0,0 -0.01,0.01 0,0 -0.01,0.01 -0.01,0.01 0,0 -0.01,0.01 0,0.01 -0.01,0 -0.01,0.01 -0.01,0.01 0,0 -0.01,0.01 -0.01,0.01 c -1.24,1.25 -1.56,3.13 -1.56,4.65 0,1.73 0.38,3.46 1.6,4.7 0.13,0.12 0.13,0.14 0.13,0.17 0,0.07 -0.04,0.1 -0.1,0.1 -0.1,0 -0.99,-0.68 -1.58,-1.94 -0.51,-1.09 -0.63,-2.2 -0.63,-3.03 0,-0.78 0.11,-1.98 0.66,-3.1 0.6,-1.22 1.45,-1.87 1.55,-1.87 0.06,0 0.1,0.03 0.1,0.1 z"
           style="fill:#808080;fill-opacity:0.60784314;stroke-width:0" /><path
           inkscape:connector-curvature="0"
           id="path9779"
           d="m 247.42,707.89 1.05,1.02 c 1.55,1.37 2.15,1.91 2.15,2.9 0,1.14 -0.9,1.93 -2.11,1.93 -1.12,0 -1.86,-0.91 -1.86,-1.8 0,-0.55 0.5,-0.55 0.53,-0.55 0.17,0 0.52,0.12 0.52,0.52 0,0.26 -0.19,0.52 -0.53,0.52 -0.08,0 -0.1,0 -0.13,-0.01 0.23,0.65 0.76,1.01 1.34,1.01 0.91,0 1.33,-0.8 1.33,-1.62 0,-0.79 -0.49,-1.58 -1.04,-2.19 l -1.91,-2.13 c -0.11,-0.11 -0.11,-0.13 -0.11,-0.37 l 3.69,0 0.28,1.73 -0.25,0 c -0.05,-0.3 -0.12,-0.73 -0.22,-0.88 -0.07,-0.08 -0.72,-0.08 -0.94,-0.08 z"
           style="fill:#808080;fill-opacity:0.60784314;stroke-width:0" /><path
           inkscape:connector-curvature="0"
           id="path9781"
           d="m 254.01,709.61 0,0.07 0,0.08 0,0.08 -0.01,0.08 0,0.17 -0.02,0.17 -0.01,0.18 -0.02,0.19 -0.03,0.2 -0.03,0.2 -0.04,0.2 -0.05,0.21 -0.05,0.21 -0.06,0.21 -0.07,0.21 -0.08,0.21 -0.05,0.11 -0.04,0.11 -0.05,0.1 -0.05,0.11 c -0.59,1.22 -1.45,1.87 -1.55,1.87 -0.06,0 -0.1,-0.04 -0.1,-0.1 0,-0.03 0,-0.05 0.19,-0.23 0.98,-0.99 1.54,-2.57 1.54,-4.64 0,-1.7 -0.37,-3.45 -1.6,-4.7 -0.13,-0.12 -0.13,-0.14 -0.13,-0.17 0,-0.06 0.04,-0.1 0.1,-0.1 0.1,0 0.99,0.68 1.58,1.94 0.51,1.09 0.63,2.19 0.63,3.03 z"
           style="fill:#808080;fill-opacity:0.60784314;stroke-width:0" /><path
           inkscape:connector-curvature="0"
           id="path9783"
           d="m 261.09,709.89 -1.99,1.97 c -0.12,0.12 -0.14,0.14 -0.22,0.14 -0.1,0 -0.2,-0.09 -0.2,-0.2 0,-0.07 0.02,-0.09 0.13,-0.2 l 1.99,-1.99 -1.99,-2 c -0.11,-0.11 -0.13,-0.13 -0.13,-0.2 0,-0.11 0.1,-0.2 0.2,-0.2 0.08,0 0.1,0.02 0.22,0.14 l 1.98,1.98 2.06,-2.06 c 0.02,-0.01 0.09,-0.06 0.15,-0.06 0.12,0 0.2,0.09 0.2,0.2 0,0.02 0,0.06 -0.03,0.11 -0.01,0.02 -1.59,1.58 -2.09,2.09 l 1.82,1.82 c 0.05,0.06 0.2,0.18 0.25,0.24 0.01,0.03 0.05,0.06 0.05,0.13 0,0.11 -0.08,0.2 -0.2,0.2 -0.08,0 -0.12,-0.04 -0.23,-0.15 z"
           style="fill:#808080;fill-opacity:0.60784314;stroke-width:0" /><path
           inkscape:connector-curvature="0"
           id="path9785"
           d="m 269.85,710.24 0,0.35 0,2.46 c 0,0.2 0,0.53 0.62,0.53 0.84,0 1.26,-0.35 1.26,-1.52 l 0.35,0 c 0,0.48 -0.06,1.01 -0.38,1.41 0.41,-0.09 1.4,-0.39 1.4,-1.4 0,-0.64 -0.3,-1.15 -1.33,-1.34 l 0,0 c 0.28,0.37 0.31,0.89 0.31,1.33 l -0.35,0 c 0,-1.28 -0.31,-1.47 -1.88,-1.47 l 0,-0.35 0.36,0 1.49,-2.3 c 0.1,-0.16 0.34,-0.55 0.45,-0.7 l 0.26,0.23 -1.79,2.77 c 0.07,0.01 0.11,0.02 0.19,0.02 0.15,0 0.36,0.02 0.51,0.04 0.15,-0.23 1.23,-2 2.05,-2.83 l -0.96,0 -0.26,-0.23 c 0.07,-0.12 0.1,-0.12 0.33,-0.12 l 1.37,0 c 0.18,0 0.33,0 0.33,0.18 0,0.08 -0.06,0.15 -0.15,0.17 -0.37,0.08 -0.86,0.74 -1.09,1.06 -0.07,0.09 -0.57,0.75 -1.24,1.82 0.89,0.16 1.74,0.54 1.74,1.72 0,1.38 -1.46,1.86 -2.63,1.86 l -3.13,0 c -0.18,0 -0.34,0 -0.34,-0.18 0,-0.17 0.19,-0.17 0.27,-0.17 0.57,0 0.62,-0.07 0.62,-0.56 l 0.35,0.02 c 0,0.1 0,0.36 -0.08,0.54 l 1.13,0 c -0.13,-0.16 -0.13,-0.36 -0.13,-0.5 l 0,-5.06 c 0,-0.1 0,-0.37 0.08,-0.55 l -1.08,0 c 0.08,0.18 0.08,0.46 0.08,0.55 l 0,5.02 -0.35,-0.02 0,-4.98 c 0,-0.5 -0.05,-0.57 -0.62,-0.57 -0.08,0 -0.27,0 -0.27,-0.17 0,-0.18 0.16,-0.18 0.34,-0.18 l 2.73,0 c 0.18,0 0.33,0 0.33,0.18 0,0.17 -0.17,0.17 -0.28,0.17 -0.57,0 -0.61,0.08 -0.61,0.57 z"
           style="fill:#808080;fill-opacity:0.60784314;stroke-width:0" /><path
           inkscape:connector-curvature="0"
           id="path9787"
           d="m 277.9,712.01 -0.24,0 c -0.02,-0.16 -0.09,-0.57 -0.18,-0.64 -0.06,-0.04 -0.59,-0.04 -0.69,-0.04 l -1.28,0 c 0.73,0.65 0.97,0.84 1.39,1.17 0.52,0.41 1,0.84 1,1.5 0,0.84 -0.74,1.36 -1.63,1.36 -0.87,0 -1.45,-0.61 -1.45,-1.25 0,-0.35 0.3,-0.39 0.37,-0.39 0.17,0 0.37,0.12 0.37,0.37 0,0.13 -0.05,0.37 -0.41,0.37 0.21,0.49 0.69,0.65 1.01,0.65 0.7,0 1.06,-0.54 1.06,-1.11 0,-0.6 -0.43,-1.08 -0.65,-1.33 l -1.68,-1.66 c -0.07,-0.06 -0.07,-0.08 -0.07,-0.27 l 2.87,0 z"
           style="fill:#808080;fill-opacity:0.60784314;stroke-width:0" /><path
           inkscape:connector-curvature="0"
           id="path9789"
           d="m 281.72,709.61 0,0.07 0,0.08 0,0.08 0,0.08 -0.01,0.17 -0.01,0.17 -0.02,0.18 -0.02,0.19 -0.03,0.2 -0.03,0.2 -0.04,0.2 -0.04,0.21 -0.06,0.21 -0.06,0.21 -0.07,0.21 -0.08,0.21 -0.04,0.11 -0.04,0.11 -0.05,0.1 -0.05,0.11 c -0.6,1.22 -1.46,1.87 -1.55,1.87 -0.06,0 -0.1,-0.04 -0.1,-0.1 0,-0.03 0,-0.05 0.19,-0.23 0.97,-0.99 1.54,-2.57 1.54,-4.64 0,-1.7 -0.37,-3.45 -1.6,-4.7 -0.13,-0.12 -0.13,-0.14 -0.13,-0.17 0,-0.06 0.04,-0.1 0.1,-0.1 0.09,0 0.99,0.68 1.58,1.94 0.51,1.09 0.62,2.19 0.62,3.03 z"
           style="fill:#808080;fill-opacity:0.60784314;stroke-width:0" /></g>      <g
         style="font-style:normal;font-variant:normal;font-weight:normal;font-stretch:normal;letter-spacing:normal;word-spacing:normal;text-anchor:start;fill:#808080;fill-opacity:0.60784314;fill-rule:evenodd;stroke:#000000;stroke-linecap:butt;stroke-linejoin:miter;stroke-miterlimit:10.43299961;stroke-dasharray:none;stroke-dashoffset:0;stroke-opacity:1"
         ns0:text="$(\\mathbb{R} \\times \\mathbf{SE}(2))$"
         word-spacing="normal"
         letter-spacing="normal"
         font-size-adjust="none"
         font-stretch="normal"
         font-weight="normal"
         font-variant="normal"
         font-style="normal"
         stroke-miterlimit="10.433"
         xml:space="preserve"
         transform="matrix(1.6139248,0,0,-1.6139248,-335.70098,1187.9918)"
         id="g10321"><path
           inkscape:connector-curvature="0"
           id="path10323"
           d="m 226.73,704.74 -0.01,0.01 0,0 0,0 0,0.01 0,0 0,0 0,0.01 0,0 0,0 0,0.01 -0.01,0 0,0.01 0,0 -0.01,0.01 0,0 -0.01,0.01 0,0.01 -0.01,0 0,0.01 0,0 -0.01,0.01 0,0 0,0 -0.01,0.01 0,0 -0.01,0.01 0,0 -0.01,0.01 0,0 -0.01,0.01 0,0 -0.01,0.01 0,0.01 -0.01,0 0,0.01 -0.01,0.01 -0.01,0 0,0.01 -0.01,0.01 -0.01,0 -0.01,0.01 0,0.01 c -1.25,1.25 -1.57,3.13 -1.57,4.65 0,1.73 0.38,3.46 1.61,4.7 0.13,0.12 0.13,0.14 0.13,0.17 0,0.07 -0.05,0.1 -0.1,0.1 -0.1,0 -1,-0.68 -1.59,-1.94 -0.5,-1.09 -0.62,-2.2 -0.62,-3.03 0,-0.78 0.11,-1.98 0.65,-3.1 0.6,-1.22 1.46,-1.87 1.56,-1.87 0.05,0 0.1,0.03 0.1,0.1 z"
           style="fill:#808080;fill-opacity:0.60784314;stroke-width:0" /><path
           inkscape:connector-curvature="0"
           id="path10325"
           d="m 229.97,710.24 0,0.35 0,2.46 c 0,0.2 0,0.53 0.62,0.53 0.84,0 1.26,-0.35 1.26,-1.52 0,-1.28 -0.31,-1.47 -1.88,-1.47 l 0,-0.35 0.36,0 1.49,-2.3 c 0.1,-0.16 0.34,-0.55 0.45,-0.7 l 0.26,0.23 -1.79,2.77 c 0.07,0.01 0.11,0.02 0.19,0.02 0.15,0 0.37,0.02 0.52,0.04 0.14,-0.23 1.22,-2 2.04,-2.83 l -0.96,0 -0.26,-0.23 c 0.07,-0.12 0.1,-0.12 0.33,-0.12 l 1.37,0 c 0.18,0 0.33,0 0.33,0.18 0,0.08 -0.06,0.15 -0.15,0.17 -0.37,0.08 -0.86,0.74 -1.09,1.06 -0.07,0.09 -0.57,0.75 -1.24,1.82 0.89,0.16 1.74,0.54 1.74,1.72 l -0.34,0 c 0,-0.64 -0.3,-1.15 -1.33,-1.34 l 0,0 c 0.28,0.37 0.31,0.89 0.31,1.33 0,0.48 -0.06,1.01 -0.38,1.41 0.41,-0.09 1.4,-0.39 1.4,-1.4 l 0.34,0 c 0,1.38 -1.46,1.86 -2.63,1.86 l -3.13,0 c -0.18,0 -0.34,0 -0.34,-0.18 0,-0.17 0.19,-0.17 0.27,-0.17 0.57,0 0.62,-0.07 0.62,-0.56 l 0.35,0.02 c 0,0.1 0,0.36 -0.08,0.54 l 1.13,0 c -0.13,-0.16 -0.13,-0.36 -0.13,-0.5 l 0,-5.06 c 0,-0.1 0,-0.37 0.08,-0.55 l -1.08,0 c 0.08,0.18 0.08,0.46 0.08,0.55 l 0,5.02 -0.35,-0.02 0,-4.98 c 0,-0.5 -0.05,-0.57 -0.62,-0.57 -0.08,0 -0.27,0 -0.27,-0.17 0,-0.18 0.16,-0.18 0.34,-0.18 l 2.73,0 c 0.18,0 0.33,0 0.33,0.18 0,0.17 -0.17,0.17 -0.28,0.17 -0.57,0 -0.61,0.08 -0.61,0.57 z"
           style="fill:#808080;fill-opacity:0.60784314;stroke-width:0" /><path
           inkscape:connector-curvature="0"
           id="path10327"
           d="m 240.59,709.89 -1.99,1.97 c -0.12,0.12 -0.14,0.14 -0.22,0.14 -0.1,0 -0.2,-0.09 -0.2,-0.2 0,-0.07 0.02,-0.09 0.13,-0.2 l 1.99,-1.99 -1.99,-2 c -0.11,-0.11 -0.13,-0.13 -0.13,-0.2 0,-0.11 0.1,-0.2 0.2,-0.2 0.08,0 0.1,0.02 0.22,0.14 l 1.98,1.98 2.06,-2.06 c 0.02,-0.01 0.09,-0.06 0.15,-0.06 0.11,0 0.19,0.09 0.19,0.2 0,0.02 0,0.06 -0.03,0.11 -0.01,0.02 -1.59,1.58 -2.08,2.09 l 1.82,1.82 c 0.05,0.06 0.19,0.18 0.24,0.24 0.01,0.03 0.05,0.06 0.05,0.13 0,0.11 -0.08,0.2 -0.19,0.2 -0.08,0 -0.12,-0.04 -0.23,-0.15 z"
           style="fill:#808080;fill-opacity:0.60784314;stroke-width:0" /><path
           inkscape:connector-curvature="0"
           id="path10329"
           d="m 250.68,711.24 -1.44,0.31 c -0.4,0.09 -0.96,0.42 -0.96,1.03 0,0.43 0.28,1.04 1.27,1.04 0.8,0 1.8,-0.34 2.03,-1.69 0.04,-0.23 0.04,-0.26 0.25,-0.26 0.24,0 0.24,0.05 0.24,0.28 l 0,1.82 c 0,0.19 0,0.28 -0.18,0.28 -0.08,0 -0.09,-0.01 -0.2,-0.11 l -0.45,-0.44 c -0.57,0.46 -1.22,0.55 -1.7,0.55 -1.51,0 -2.22,-0.96 -2.22,-2 0,-0.64 0.32,-1.1 0.53,-1.32 0.49,-0.49 0.83,-0.56 1.91,-0.79 0.88,-0.19 1.05,-0.22 1.27,-0.43 0.15,-0.15 0.39,-0.41 0.39,-0.86 0,-0.48 -0.26,-1.17 -1.29,-1.17 -0.76,0 -2.27,0.2 -2.35,1.68 -0.01,0.18 -0.01,0.23 -0.23,0.23 -0.23,0 -0.23,-0.06 -0.23,-0.29 l 0,-1.81 c 0,-0.19 0,-0.27 0.17,-0.27 0.09,0 0.11,0.02 0.19,0.08 l 0.46,0.46 c 0.66,-0.48 1.58,-0.54 1.99,-0.54 1.64,0 2.26,1.12 2.26,2.12 0,1.1 -0.81,1.91 -1.71,2.1 z"
           style="fill:#808080;fill-opacity:0.60784314;stroke-width:0" /><path
           inkscape:connector-curvature="0"
           id="path10331"
           d="m 260.24,709.85 -0.47,0 c -0.22,-1.37 -0.5,-2.26 -2.34,-2.26 l -1.51,0 0,2.8 0.55,0 c 0.95,0 1.05,-0.42 1.05,-1.16 l 0.47,0 0,2.79 -0.47,0 c 0,-0.73 -0.09,-1.16 -1.05,-1.16 l -0.55,0 0,2.55 1.51,0 c 1.6,0 1.86,-0.72 2.02,-1.92 l 0.47,0 -0.31,2.39 -6.18,0 0,-0.47 1.08,0 0,-5.82 -1.08,0 0,-0.47 6.35,0 z"
           style="fill:#808080;fill-opacity:0.60784314;stroke-width:0" /><path
           inkscape:connector-curvature="0"
           id="path10333"
           d="m 263.86,704.74 0,0.01 0,0 0,0 0,0.01 0,0 0,0 0,0.01 0,0 0,0 -0.01,0.01 0,0 0,0.01 0,0 -0.01,0.01 0,0 -0.01,0.01 0,0.01 -0.01,0 0,0.01 0,0 -0.01,0.01 0,0 -0.01,0 0,0.01 0,0 -0.01,0.01 0,0 -0.01,0.01 0,0 -0.01,0.01 0,0 -0.01,0.01 0,0.01 -0.01,0 -0.01,0.01 0,0.01 -0.01,0 -0.01,0.01 0,0.01 -0.01,0 -0.01,0.01 -0.01,0.01 c -1.24,1.25 -1.56,3.13 -1.56,4.65 0,1.73 0.38,3.46 1.6,4.7 0.13,0.12 0.13,0.14 0.13,0.17 0,0.07 -0.04,0.1 -0.1,0.1 -0.1,0 -0.99,-0.68 -1.58,-1.94 -0.51,-1.09 -0.63,-2.2 -0.63,-3.03 0,-0.78 0.11,-1.98 0.66,-3.1 0.6,-1.22 1.45,-1.87 1.55,-1.87 0.06,0 0.1,0.03 0.1,0.1 z"
           style="fill:#808080;fill-opacity:0.60784314;stroke-width:0" /><path
           inkscape:connector-curvature="0"
           id="path10335"
           d="m 265.71,707.89 1.05,1.02 c 1.56,1.37 2.15,1.91 2.15,2.9 0,1.14 -0.89,1.93 -2.11,1.93 -1.12,0 -1.86,-0.91 -1.86,-1.8 0,-0.55 0.5,-0.55 0.53,-0.55 0.17,0 0.52,0.12 0.52,0.52 0,0.26 -0.18,0.52 -0.53,0.52 -0.08,0 -0.1,0 -0.13,-0.01 0.23,0.65 0.77,1.01 1.34,1.01 0.91,0 1.34,-0.8 1.34,-1.62 0,-0.79 -0.5,-1.58 -1.05,-2.19 l -1.91,-2.13 c -0.11,-0.11 -0.11,-0.13 -0.11,-0.37 l 3.69,0 0.28,1.73 -0.25,0 c -0.05,-0.3 -0.12,-0.73 -0.22,-0.88 -0.07,-0.08 -0.72,-0.08 -0.94,-0.08 z"
           style="fill:#808080;fill-opacity:0.60784314;stroke-width:0" /><path
           inkscape:connector-curvature="0"
           id="path10337"
           d="m 272.3,709.61 0,0.07 0,0.08 0,0.08 0,0.08 -0.01,0.17 -0.01,0.17 -0.02,0.18 -0.02,0.19 -0.03,0.2 -0.03,0.2 -0.04,0.2 -0.05,0.21 -0.05,0.21 -0.06,0.21 -0.07,0.21 -0.08,0.21 -0.04,0.11 -0.05,0.11 -0.05,0.1 -0.05,0.11 c -0.59,1.22 -1.45,1.87 -1.55,1.87 -0.06,0 -0.1,-0.04 -0.1,-0.1 0,-0.03 0,-0.05 0.19,-0.23 0.98,-0.99 1.54,-2.57 1.54,-4.64 0,-1.7 -0.36,-3.45 -1.6,-4.7 -0.13,-0.12 -0.13,-0.14 -0.13,-0.17 0,-0.06 0.04,-0.1 0.1,-0.1 0.1,0 1,0.68 1.58,1.94 0.51,1.09 0.63,2.19 0.63,3.03 z"
           style="fill:#808080;fill-opacity:0.60784314;stroke-width:0" /><path
           inkscape:connector-curvature="0"
           id="path10339"
           d="m 276.18,709.61 0,0.07 -0.01,0.08 0,0.08 0,0.08 -0.01,0.17 -0.01,0.17 -0.02,0.18 -0.02,0.19 -0.02,0.2 -0.04,0.2 -0.04,0.2 -0.04,0.21 -0.06,0.21 -0.06,0.21 -0.07,0.21 -0.08,0.21 -0.04,0.11 -0.04,0.11 -0.05,0.1 -0.05,0.11 c -0.6,1.22 -1.45,1.87 -1.55,1.87 -0.06,0 -0.1,-0.04 -0.1,-0.1 0,-0.03 0,-0.05 0.19,-0.23 0.97,-0.99 1.54,-2.57 1.54,-4.64 0,-1.7 -0.37,-3.45 -1.6,-4.7 -0.13,-0.12 -0.13,-0.14 -0.13,-0.17 0,-0.06 0.04,-0.1 0.1,-0.1 0.1,0 0.99,0.68 1.58,1.94 0.51,1.09 0.63,2.19 0.63,3.03 z"
           style="fill:#808080;fill-opacity:0.60784314;stroke-width:0" /></g>      <rect
         style="opacity:1;fill:#ffe5d6;fill-opacity:1;fill-rule:evenodd;stroke:#6b3c41;stroke-width:3.09166765;stroke-linecap:butt;stroke-linejoin:round;stroke-miterlimit:4;stroke-dasharray:none;stroke-dashoffset:0;stroke-opacity:1"
         id="rect4239"
         width="38.041763"
         height="106.6888"
         x="14.496187"
         y="105.4221" />
      <text
         transform="matrix(0,-1,1,0,0,0)"
         xml:space="preserve"
         style="font-style:normal;font-weight:normal;font-size:48.41703415px;line-height:125%;font-family:Sans;text-align:center;letter-spacing:0px;word-spacing:0px;text-anchor:middle;fill:#6b3c41;fill-opacity:1;stroke:none;stroke-width:1px;stroke-linecap:butt;stroke-linejoin:miter;stroke-opacity:1"
         x="-158.80704"
         y="38.804401"
         id="text4241"
         sodipodi:linespacing="125%"><tspan
           sodipodi:role="line"
           x="-158.80704"
           y="38.804401"
           style="font-size:14.52510834px;text-align:center;text-anchor:middle;fill:#6b3c41;fill-opacity:1"
           id="tspan4243">UnitComplex</tspan><tspan
           sodipodi:role="line"
           x="-158.80704"
           y="56.960785"
           style="font-size:14.52510834px;text-align:center;text-anchor:middle;fill:#6b3c41;fill-opacity:1"
           id="tspan4245" /></text>
      <g
         style="font-style:normal;font-variant:normal;font-weight:normal;font-stretch:normal;letter-spacing:normal;word-spacing:normal;text-anchor:start;fill:#d2504b;fill-opacity:1;fill-rule:evenodd;stroke:#999999;stroke-linecap:butt;stroke-linejoin:miter;stroke-miterlimit:10.43299961;stroke-dasharray:none;stroke-dashoffset:0;stroke-opacity:1"
         ns0:text="$\\lambda \\in \\mathbb{R^\\star}$"
         word-spacing="normal"
         letter-spacing="normal"
         font-size-adjust="none"
         font-stretch="normal"
         font-weight="normal"
         font-variant="normal"
         font-style="normal"
         stroke-miterlimit="10.433"
         xml:space="preserve"
         transform="matrix(1.3201837,0,0,-1.3201837,-343.24814,1102.4687)"
         id="content"><path
           id="path4349"
           d="m 226.98,710.03 0.04,-0.1 0.04,-0.1 0.08,-0.21 0.08,-0.22 0.08,-0.22 0.07,-0.22 0.08,-0.22 0.08,-0.21 0.03,-0.1 0.04,-0.11 0.03,-0.1 0.04,-0.09 0.03,-0.1 0.04,-0.09 0.03,-0.08 0.03,-0.09 0.03,-0.08 0.03,-0.07 0.02,-0.07 0.03,-0.06 0.02,-0.06 0.02,-0.05 0.03,-0.05 0.02,-0.04 0.01,-0.03 0.02,-0.03 c 0.16,-0.21 0.26,-0.21 0.53,-0.21 l 0.21,0 c 0.1,0.01 0.11,0.07 0.11,0.09 0,0.04 -0.02,0.05 -0.05,0.09 -0.09,0.11 -0.15,0.26 -0.22,0.46 l -2.03,5.65 c -0.21,0.58 -0.75,0.71 -1.22,0.71 -0.05,0 -0.18,0 -0.18,-0.11 0,-0.08 0.08,-0.1 0.09,-0.1 0.33,-0.06 0.4,-0.12 0.65,-0.79 l 0.96,-2.71 -2.74,-2.72 c -0.12,-0.12 -0.18,-0.18 -0.18,-0.31 0,-0.17 0.14,-0.28 0.3,-0.28 0.16,0 0.25,0.1 0.33,0.2 z"
           style="fill:#d2504b;fill-opacity:1;stroke-width:0"
           inkscape:connector-curvature="0" /><path
           id="path4351"
           d="m 237.46,709.41 0.03,0 0.04,0 0.03,0 0.01,0 0.02,0 0.01,0 0.02,0.01 0.01,0 0.02,0 0.01,0 0.01,0.01 0.02,0 0.01,0 0.01,0.01 0.01,0.01 0.02,0 0.01,0.01 0.01,0.01 0,0 0.01,0.01 0.01,0.01 0,0.01 0.01,0 0,0.01 0,0.01 0.01,0 0,0.01 0,0.01 0,0 0,0.01 0.01,0.01 0,0.01 0,0 0,0.01 0,0.01 0,0.01 0,0.01 c 0,0.2 -0.18,0.2 -0.35,0.2 l -4.22,0 c 0.12,1.33 1.27,2.28 2.67,2.28 l 1.55,0 c 0.17,0 0.35,0 0.35,0.2 0,0.2 -0.18,0.2 -0.35,0.2 l -1.57,0 c -1.7,0 -3.05,-1.29 -3.05,-2.88 0,-1.59 1.35,-2.88 3.05,-2.88 l 1.57,0 c 0.17,0 0.35,0 0.35,0.2 0,0.19 -0.18,0.19 -0.35,0.19 l -1.55,0 c -1.4,0 -2.55,0.96 -2.67,2.29 z"
           style="fill:#d2504b;fill-opacity:1;stroke-width:0"
           inkscape:connector-curvature="0" /><path
           id="path4353"
           d="m 244.09,710.24 0,0.35 0,2.46 c 0,0.2 0,0.53 0.61,0.53 0.85,0 1.27,-0.35 1.27,-1.52 0,-1.28 -0.31,-1.47 -1.88,-1.47 l 0,-0.35 0.36,0 1.49,-2.3 c 0.1,-0.16 0.33,-0.55 0.44,-0.7 l 0.26,0.23 -1.79,2.77 c 0.07,0.01 0.11,0.02 0.19,0.02 0.15,0 0.37,0.02 0.52,0.04 0.15,-0.23 1.22,-2 2.05,-2.83 l -0.97,0 -0.26,-0.23 c 0.07,-0.12 0.1,-0.12 0.33,-0.12 l 1.38,0 c 0.17,0 0.32,0 0.32,0.18 0,0.08 -0.06,0.15 -0.15,0.17 -0.36,0.08 -0.85,0.74 -1.09,1.06 -0.07,0.09 -0.57,0.75 -1.23,1.82 0.88,0.16 1.74,0.54 1.74,1.72 l -0.35,0 c 0,-0.64 -0.3,-1.15 -1.32,-1.34 l 0,0 c 0.28,0.37 0.31,0.89 0.31,1.33 0,0.48 -0.06,1.01 -0.38,1.41 0.41,-0.09 1.39,-0.39 1.39,-1.4 l 0.35,0 c 0,1.38 -1.46,1.86 -2.64,1.86 l -3.12,0 c -0.18,0 -0.34,0 -0.34,-0.18 0,-0.17 0.19,-0.17 0.27,-0.17 0.56,0 0.61,-0.07 0.61,-0.56 l 0,-4.98 c 0,-0.5 -0.05,-0.57 -0.61,-0.57 -0.08,0 -0.27,0 -0.27,-0.17 0,-0.18 0.16,-0.18 0.34,-0.18 l 2.72,0 c 0.18,0 0.33,0 0.33,0.18 0,0.17 -0.17,0.17 -0.28,0.17 -0.56,0 -0.6,0.08 -0.6,0.57 l -0.35,-0.02 c 0,-0.1 0,-0.37 0.08,-0.55 l -1.09,0 c 0.08,0.18 0.08,0.46 0.08,0.55 l 0,5.02 c 0,0.1 0,0.36 -0.08,0.54 l 1.14,0 c -0.13,-0.16 -0.13,-0.36 -0.13,-0.5 l 0,-5.06 0.35,0.02 z"
           style="fill:#d2504b;fill-opacity:1;stroke-width:0"
           inkscape:connector-curvature="0" /><path
           id="path4355"
           d="m 252.27,712.74 0.01,0 0,0 0.01,0 0,0.01 0.01,0 0,0 0.01,0 0,0.01 0.01,0 0,0 0.01,0 0,0.01 0,0 0.01,0 0,0 0,0 0.01,0.01 0,0 0,0 0.01,0 0,0.01 0.01,0 0,0.01 0,0 0.01,0 0,0.01 0,0 0.01,0.01 0,0 0,0 0,0.01 0,0 0,0 0.01,0.01 0,0 0,0 0,0.01 0,0 0,0.01 0,0 c 0,0.06 -0.07,0.09 -0.1,0.09 -0.04,0 -1.19,-0.22 -1.38,-0.26 l -0.16,1.28 c -0.01,0.1 -0.03,0.18 -0.11,0.18 -0.07,0 -0.1,-0.06 -0.11,-0.17 l -0.16,-1.29 -1.28,0.25 c -0.08,0.01 -0.09,0.01 -0.1,0.01 -0.04,0 -0.1,-0.03 -0.1,-0.09 0,-0.03 0.01,-0.05 0.03,-0.08 0.03,-0.02 1.13,-0.52 1.29,-0.59 l -0.64,-1.16 c -0.05,-0.08 -0.05,-0.1 -0.05,-0.11 0,-0.05 0.05,-0.1 0.09,-0.1 0.07,0 0.21,0.17 0.48,0.48 0.18,0.19 0.37,0.38 0.55,0.57 0.34,-0.35 0.83,-0.9 0.92,-0.98 0.05,-0.05 0.06,-0.07 0.1,-0.07 0.05,0 0.09,0.05 0.09,0.1 0,0.03 -0.08,0.18 -0.13,0.27 l -0.55,0.99 z"
           style="fill:#d2504b;fill-opacity:1;stroke-width:0"
           inkscape:connector-curvature="0" /></g>    </g>
  </g>
</svg>
