<?xml version="1.0" encoding="UTF-8" standalone="no"?>
<!-- Created with Inkscape (http://www.inkscape.org/) -->

<svg
   xmlns:ns0="http://www.iki.fi/pav/software/textext/"
   xmlns:dc="http://purl.org/dc/elements/1.1/"
   xmlns:cc="http://creativecommons.org/ns#"
   xmlns:rdf="http://www.w3.org/1999/02/22-rdf-syntax-ns#"
   xmlns:svg="http://www.w3.org/2000/svg"
   xmlns="http://www.w3.org/2000/svg"
   xmlns:sodipodi="http://sodipodi.sourceforge.net/DTD/sodipodi-0.dtd"
   xmlns:inkscape="http://www.inkscape.org/namespaces/inkscape"
   sodipodi:docname="to_homogeneous_coordinates_raw_matrix.svg"
   inkscape:version="0.91 r13725"
   version="1.1"
   id="svg10435"
   viewBox="0 0 539.98895 131.8203"
   height="37.202621mm"
   width="152.39688mm">
  <sodipodi:namedview
     inkscape:window-maximized="0"
     inkscape:window-y="18"
     inkscape:window-x="0"
     inkscape:window-height="1061"
     inkscape:window-width="1918"
     fit-margin-bottom="0"
     fit-margin-right="0"
     fit-margin-left="0"
     fit-margin-top="0"
     showgrid="false"
     inkscape:document-units="px"
     inkscape:cy="485.35299"
     inkscape:cx="233.58412"
     inkscape:zoom="0.70000001"
     inkscape:pageshadow="2"
     inkscape:pageopacity="0.0"
     borderopacity="1.0"
     bordercolor="#666666"
     pagecolor="#ffffff"
     id="base"
     inkscape:current-layer="g11736" />
  <defs
     id="defs10437">
    <marker
       inkscape:isstock="true"
       style="overflow:visible"
       id="Arrow2Mend"
       refX="0"
       refY="0"
       orient="auto"
       inkscape:stockid="Arrow2Mend">
      <path
         inkscape:connector-curvature="0"
         transform="scale(-0.6,-0.6)"
         d="M 8.7185878,4.0337352 -2.2072895,0.01601326 8.7185884,-4.0017078 c -1.7454984,2.3720609 -1.7354408,5.6174519 -6e-7,8.035443 z"
         style="fill:#000000;fill-opacity:1;fill-rule:evenodd;stroke:#000000;stroke-width:0.625;stroke-linejoin:round;stroke-opacity:1"
         id="path5841" />
    </marker>
  </defs>
  <metadata
     id="metadata10440">
    <rdf:RDF>
      <cc:Work
         rdf:about="">
        <dc:format>image/svg+xml</dc:format>
        <dc:type
           rdf:resource="http://purl.org/dc/dcmitype/StillImage" />
        <dc:title></dc:title>
      </cc:Work>
    </rdf:RDF>
  </metadata>
  <g
     inkscape:label="Layer 1"
     inkscape:groupmode="layer"
     id="layer1"
     transform="translate(96.695421,-29.853855)">
    <g
       id="g4275"
       transform="translate(13.718628,-9.1367414)">
      <g
         transform="translate(0,-8.6973034)"
         id="g11765">
        <path
           inkscape:connector-curvature="0"
           id="path5808"
           d="m 78.289277,121.52519 121.044363,0"
           style="fill:none;fill-rule:evenodd;stroke:#000000;stroke-width:1.61399996;stroke-linecap:round;stroke-linejoin:round;stroke-miterlimit:4;stroke-dasharray:none;stroke-opacity:1;marker-end:url(#Arrow2Mend)" />
        <text
           sodipodi:linespacing="125%"
           id="text6096"
           y="110.77456"
           x="78.543625"
           style="font-style:normal;font-weight:normal;font-size:40.34812164px;line-height:125%;font-family:Sans;letter-spacing:0px;word-spacing:0px;fill:#000000;fill-opacity:1;stroke:none;stroke-width:1px;stroke-linecap:butt;stroke-linejoin:miter;stroke-opacity:1"
           xml:space="preserve"><tspan
             style="font-size:12.10443687px"
             y="110.77456"
             x="78.543625"
             id="tspan6098"
             sodipodi:role="line">::to_homogeneous()</tspan></text>
      </g>
    </g>
    <g
       ns0:text="$\\lambda $"
       word-spacing="normal"
       letter-spacing="normal"
       font-size-adjust="none"
       font-stretch="normal"
       font-weight="normal"
       font-variant="normal"
       font-style="normal"
       stroke-miterlimit="10.433"
       xml:space="preserve"
       transform="matrix(2.2551678,0,0,-2.2551678,-588.69164,1688.5722)"
       id="g11294"
       style="font-style:normal;font-variant:normal;font-weight:normal;font-stretch:normal;letter-spacing:normal;word-spacing:normal;text-anchor:start;fill:#d2504b;fill-opacity:1;fill-rule:evenodd;stroke:#000000;stroke-linecap:butt;stroke-linejoin:miter;stroke-miterlimit:10.43299961;stroke-dasharray:none;stroke-dashoffset:0;stroke-opacity:1" />    <g
       style="font-style:normal;font-variant:normal;font-weight:normal;font-stretch:normal;letter-spacing:normal;word-spacing:normal;text-anchor:start;fill:#d2504b;fill-opacity:1;fill-rule:evenodd;stroke:#000000;stroke-linecap:butt;stroke-linejoin:miter;stroke-miterlimit:10.43299961;stroke-dasharray:none;stroke-dashoffset:0;stroke-opacity:1"
       id="g11298"
       transform="matrix(2.2551678,0,0,-2.2551678,-507.7072,1721.7152)"
       xml:space="preserve"
       stroke-miterlimit="10.433"
       font-style="normal"
       font-variant="normal"
       font-weight="normal"
       font-stretch="normal"
       font-size-adjust="none"
       letter-spacing="normal"
       word-spacing="normal"
       ns0:text="$\\lambda $" />    <g
       id="g4237"
       transform="translate(-2.9224739e-5,0)">
      <text
         xml:space="preserve"
         style="font-style:normal;font-weight:normal;font-size:40.34812164px;line-height:125%;font-family:Sans;letter-spacing:0px;word-spacing:0px;fill:#000000;fill-opacity:1;stroke:none;stroke-width:1px;stroke-linecap:butt;stroke-linejoin:miter;stroke-opacity:1"
         x="253.19186"
         y="43.675129"
         id="text8713"
         sodipodi:linespacing="125%"><tspan
           sodipodi:role="line"
           id="tspan8715"
           x="253.19186"
           y="43.675129"
           style="font-style:normal;font-variant:normal;font-weight:normal;font-stretch:normal;font-size:16.1392498px;font-family:sans-serif;-inkscape-font-specification:sans-serif;fill:#000000;fill-opacity:1">Matrix3</tspan></text>
      <g
         style="font-style:normal;font-variant:normal;font-weight:normal;font-stretch:normal;letter-spacing:normal;word-spacing:normal;text-anchor:start;fill:#808080;fill-opacity:0.60784314;fill-rule:evenodd;stroke:#000000;stroke-linecap:butt;stroke-linejoin:miter;stroke-miterlimit:10.43299961;stroke-dasharray:none;stroke-dashoffset:0;stroke-opacity:1"
         ns0:text="$(\\mathbb{R}^{3 \\times 3})$"
         word-spacing="normal"
         letter-spacing="normal"
         font-size-adjust="none"
         font-stretch="normal"
         font-weight="normal"
         font-variant="normal"
         font-style="normal"
         stroke-miterlimit="10.433"
         xml:space="preserve"
         transform="matrix(1.6139248,0,0,-1.6139248,-42.627427,1184.3911)"
         id="g10076"><path
           id="path10078"
           d="m 226.73,704.74 -0.01,0.01 0,0 0,0 0,0.01 0,0 0,0 0,0.01 0,0 0,0 0,0.01 -0.01,0 0,0.01 0,0 -0.01,0.01 0,0 -0.01,0.01 0,0.01 -0.01,0 0,0.01 0,0 -0.01,0.01 0,0 0,0 -0.01,0.01 0,0 -0.01,0.01 0,0 -0.01,0.01 0,0 -0.01,0.01 0,0 -0.01,0.01 0,0.01 -0.01,0 0,0.01 -0.01,0.01 -0.01,0 0,0.01 -0.01,0.01 -0.01,0 -0.01,0.01 0,0.01 c -1.25,1.25 -1.57,3.13 -1.57,4.65 0,1.73 0.38,3.46 1.61,4.7 0.13,0.12 0.13,0.14 0.13,0.17 0,0.07 -0.05,0.1 -0.1,0.1 -0.1,0 -1,-0.68 -1.59,-1.94 -0.5,-1.09 -0.62,-2.2 -0.62,-3.03 0,-0.78 0.11,-1.98 0.65,-3.1 0.6,-1.22 1.46,-1.87 1.56,-1.87 0.05,0 0.1,0.03 0.1,0.1 z"
           style="fill:#808080;fill-opacity:0.60784314;stroke-width:0"
           inkscape:connector-curvature="0" /><path
           id="path10080"
           d="m 229.97,710.24 0,0.35 0,2.46 c 0,0.2 0,0.53 0.62,0.53 0.84,0 1.26,-0.35 1.26,-1.52 0,-1.28 -0.31,-1.47 -1.88,-1.47 l 0,-0.35 0.36,0 1.49,-2.3 c 0.1,-0.16 0.34,-0.55 0.45,-0.7 l 0.26,0.23 -1.79,2.77 c 0.07,0.01 0.11,0.02 0.19,0.02 0.15,0 0.37,0.02 0.52,0.04 0.14,-0.23 1.22,-2 2.04,-2.83 l -0.96,0 -0.26,-0.23 c 0.07,-0.12 0.1,-0.12 0.33,-0.12 l 1.37,0 c 0.18,0 0.33,0 0.33,0.18 0,0.08 -0.06,0.15 -0.15,0.17 -0.37,0.08 -0.86,0.74 -1.09,1.06 -0.07,0.09 -0.57,0.75 -1.24,1.82 0.89,0.16 1.74,0.54 1.74,1.72 l -0.34,0 c 0,-0.64 -0.3,-1.15 -1.33,-1.34 l 0,0 c 0.28,0.37 0.31,0.89 0.31,1.33 0,0.48 -0.06,1.01 -0.38,1.41 0.41,-0.09 1.4,-0.39 1.4,-1.4 l 0.34,0 c 0,1.38 -1.46,1.86 -2.63,1.86 l -3.13,0 c -0.18,0 -0.34,0 -0.34,-0.18 0,-0.17 0.19,-0.17 0.27,-0.17 0.57,0 0.62,-0.07 0.62,-0.56 l 0.35,0.02 c 0,0.1 0,0.36 -0.08,0.54 l 1.13,0 c -0.13,-0.16 -0.13,-0.36 -0.13,-0.5 l 0,-5.06 c 0,-0.1 0,-0.37 0.08,-0.55 l -1.08,0 c 0.08,0.18 0.08,0.46 0.08,0.55 l 0,5.02 -0.35,-0.02 0,-4.98 c 0,-0.5 -0.05,-0.57 -0.62,-0.57 -0.08,0 -0.27,0 -0.27,-0.17 0,-0.18 0.16,-0.18 0.34,-0.18 l 2.73,0 c 0.18,0 0.33,0 0.33,0.18 0,0.17 -0.17,0.17 -0.28,0.17 -0.57,0 -0.61,0.08 -0.61,0.57 z"
           style="fill:#808080;fill-opacity:0.60784314;stroke-width:0"
           inkscape:connector-curvature="0" /><path
           id="path10082"
           d="m 236.4,713.06 0.05,0 0.05,0 0.05,-0.01 0.05,0 0.05,-0.01 0.04,-0.02 0.05,-0.01 0.04,-0.02 0.04,-0.02 0.04,-0.02 0.04,-0.02 0.04,-0.03 0.03,-0.02 0.04,-0.03 0.03,-0.03 0.03,-0.04 0.03,-0.03 0.03,-0.04 0.03,-0.04 0.02,-0.05 0.03,-0.04 0.02,-0.05 0.02,-0.05 0.02,-0.05 0.01,-0.05 0.02,-0.06 0.01,-0.06 0.01,-0.06 0.01,-0.06 0,-0.06 0.01,-0.07 0,-0.07 c 0,-0.86 -0.5,-1.12 -0.91,-1.12 -0.28,0 -0.89,0.08 -1.18,0.49 0.32,0.01 0.4,0.24 0.4,0.39 0,0.22 -0.17,0.38 -0.38,0.38 -0.2,0 -0.39,-0.12 -0.39,-0.4 0,-0.65 0.72,-1.08 1.57,-1.08 0.96,0 1.63,0.65 1.63,1.34 0,0.54 -0.44,1.09 -1.21,1.25 0.73,0.26 1,0.78 1,1.21 0,0.55 -0.64,0.96 -1.41,0.96 -0.77,0 -1.37,-0.38 -1.37,-0.94 0,-0.23 0.16,-0.36 0.37,-0.36 0.21,0 0.35,0.16 0.35,0.35 0,0.2 -0.14,0.35 -0.35,0.36 0.24,0.31 0.72,0.39 0.98,0.39 0.31,0 0.75,-0.16 0.75,-0.76 0,-0.29 -0.1,-0.61 -0.28,-0.83 -0.23,-0.26 -0.42,-0.28 -0.77,-0.3 -0.18,-0.01 -0.19,-0.01 -0.22,-0.02 -0.02,0 -0.07,-0.01 -0.07,-0.09 0,-0.1 0.06,-0.1 0.18,-0.1 z"
           style="fill:#808080;fill-opacity:0.60784314;stroke-width:0"
           inkscape:connector-curvature="0" /><path
           id="path10084"
           d="m 243.35,714 0.01,0.01 0,0.01 0.01,0 0,0.01 0.01,0 0.01,0.01 0,0.01 0.01,0 0,0.01 0,0 0.01,0.01 0,0 0.01,0.01 0,0.01 0,0 0.01,0.01 0,0 0,0 0,0.01 0.01,0 0,0.01 0,0 0,0.01 0,0 0,0.01 0,0 0,0.01 0,0 0.01,0 0,0.01 0,0.01 c 0,0.11 -0.1,0.17 -0.17,0.17 -0.07,0 -0.09,-0.02 -0.18,-0.1 l -1.52,-1.52 -1.53,1.52 c -0.07,0.07 -0.1,0.1 -0.16,0.1 -0.1,0 -0.18,-0.07 -0.18,-0.17 0,-0.06 0.02,-0.08 0.11,-0.17 l 1.52,-1.52 -1.52,-1.51 c -0.1,-0.1 -0.11,-0.13 -0.11,-0.17 0,-0.1 0.08,-0.18 0.18,-0.18 0.06,0 0.08,0.02 0.16,0.1 l 1.53,1.52 1.59,-1.58 c 0.03,-0.02 0.07,-0.04 0.11,-0.04 0.07,0 0.17,0.06 0.17,0.18 0,0.05 -0.02,0.06 -0.04,0.09 -0.01,0.02 -1.36,1.37 -1.59,1.59 z"
           style="fill:#808080;fill-opacity:0.60784314;stroke-width:0"
           inkscape:connector-curvature="0" /><path
           id="path10086"
           d="m 246.6,713.06 0.05,0 0.05,0 0.05,-0.01 0.05,0 0.04,-0.01 0.05,-0.02 0.04,-0.01 0.05,-0.02 0.04,-0.02 0.04,-0.02 0.04,-0.02 0.04,-0.03 0.03,-0.02 0.04,-0.03 0.03,-0.03 0.03,-0.04 0.03,-0.03 0.03,-0.04 0.03,-0.04 0.02,-0.05 0.03,-0.04 0.02,-0.05 0.02,-0.05 0.02,-0.05 0.01,-0.05 0.02,-0.06 0.01,-0.06 0.01,-0.06 0,-0.06 0.01,-0.06 0,-0.07 0.01,-0.07 c 0,-0.86 -0.51,-1.12 -0.91,-1.12 -0.28,0 -0.89,0.08 -1.18,0.49 0.32,0.01 0.4,0.24 0.4,0.39 0,0.22 -0.17,0.38 -0.38,0.38 -0.2,0 -0.39,-0.12 -0.39,-0.4 0,-0.65 0.72,-1.08 1.56,-1.08 0.97,0 1.64,0.65 1.64,1.34 0,0.54 -0.45,1.09 -1.21,1.25 0.73,0.26 0.99,0.78 0.99,1.21 0,0.55 -0.63,0.96 -1.4,0.96 -0.78,0 -1.37,-0.38 -1.37,-0.94 0,-0.23 0.16,-0.36 0.36,-0.36 0.22,0 0.36,0.16 0.36,0.35 0,0.2 -0.14,0.35 -0.36,0.36 0.25,0.31 0.73,0.39 0.99,0.39 0.31,0 0.75,-0.16 0.75,-0.76 0,-0.29 -0.1,-0.61 -0.28,-0.83 -0.23,-0.26 -0.43,-0.28 -0.77,-0.3 -0.18,-0.01 -0.19,-0.01 -0.23,-0.02 -0.01,0 -0.07,-0.01 -0.07,-0.09 0,-0.1 0.07,-0.1 0.19,-0.1 z"
           style="fill:#808080;fill-opacity:0.60784314;stroke-width:0"
           inkscape:connector-curvature="0" /><path
           id="path10088"
           d="m 252.04,709.61 0,0.07 0,0.08 0,0.08 0,0.08 -0.01,0.17 -0.01,0.17 -0.02,0.18 -0.02,0.19 -0.03,0.2 -0.03,0.2 -0.04,0.2 -0.04,0.21 -0.06,0.21 -0.06,0.21 -0.07,0.21 -0.08,0.21 -0.04,0.11 -0.04,0.11 -0.05,0.1 -0.05,0.11 c -0.6,1.22 -1.46,1.87 -1.55,1.87 -0.06,0 -0.1,-0.04 -0.1,-0.1 0,-0.03 0,-0.05 0.19,-0.23 0.97,-0.99 1.54,-2.57 1.54,-4.64 0,-1.7 -0.37,-3.45 -1.6,-4.7 -0.13,-0.12 -0.13,-0.14 -0.13,-0.17 0,-0.06 0.04,-0.1 0.1,-0.1 0.09,0 0.99,0.68 1.58,1.94 0.51,1.09 0.62,2.19 0.62,3.03 z"
           style="fill:#808080;fill-opacity:0.60784314;stroke-width:0"
           inkscape:connector-curvature="0" /></g>      <g
         id="g11736">
        <rect
           style="opacity:1;fill:#ffe5d7;fill-opacity:1;fill-rule:evenodd;stroke:#000000;stroke-width:3.82557678;stroke-linecap:butt;stroke-linejoin:round;stroke-miterlimit:4;stroke-dasharray:none;stroke-dashoffset:0;stroke-opacity:0"
           id="rect7851"
           width="145.99478"
           height="77.34848"
           x="255.27521"
           y="48.71759" />
        <g
           style="font-style:normal;font-variant:normal;font-weight:normal;font-stretch:normal;letter-spacing:normal;word-spacing:normal;text-anchor:start;fill:#4d4d4d;fill-opacity:1;fill-rule:evenodd;stroke:#000000;stroke-linecap:butt;stroke-linejoin:miter;stroke-miterlimit:10.43299961;stroke-dasharray:none;stroke-dashoffset:0;stroke-opacity:1"
           ns0:text="$0$"
           word-spacing="normal"
           letter-spacing="normal"
           font-size-adjust="none"
           font-stretch="normal"
           font-weight="normal"
           font-variant="normal"
           font-style="normal"
           stroke-miterlimit="10.433"
           xml:space="preserve"
           transform="matrix(2.1266914,0,0,-2.1266914,-105.57864,1651.7218)"
           id="g4483"><path
             style="fill:#4d4d4d;fill-opacity:1;stroke-width:0"
             inkscape:connector-curvature="0"
             id="path4485"
             d="m 228.01,710.3 0,0.15 0,0.15 -0.01,0.15 0,0.15 -0.01,0.15 -0.02,0.14 -0.01,0.15 -0.02,0.15 -0.02,0.14 -0.03,0.15 -0.03,0.14 -0.04,0.15 -0.04,0.14 -0.05,0.14 -0.06,0.14 -0.03,0.07 -0.03,0.07 c -0.46,0.95 -1.27,1.11 -1.69,1.11 -0.6,0 -1.32,-0.26 -1.73,-1.18 -0.32,-0.69 -0.37,-1.46 -0.37,-2.26 0,-0.74 0.04,-1.64 0.45,-2.39 0.43,-0.81 1.15,-1 1.64,-1 l 0,0.21 c -0.39,0 -0.98,0.25 -1.15,1.21 -0.11,0.59 -0.11,1.51 -0.11,2.09 0,0.64 0,1.29 0.08,1.83 0.18,1.18 0.93,1.27 1.18,1.27 0.33,0 0.98,-0.18 1.17,-1.16 0.1,-0.56 0.1,-1.31 0.1,-1.94 0,-0.74 0,-1.42 -0.11,-2.05 -0.15,-0.95 -0.71,-1.25 -1.16,-1.25 l 0,0 0,-0.21 c 0.54,0 1.29,0.2 1.73,1.15 0.32,0.68 0.37,1.46 0.37,2.24 z" /></g>        <g
           style="font-style:normal;font-variant:normal;font-weight:normal;font-stretch:normal;letter-spacing:normal;word-spacing:normal;text-anchor:start;fill:#4d4d4d;fill-opacity:1;fill-rule:evenodd;stroke:#000000;stroke-linecap:butt;stroke-linejoin:miter;stroke-miterlimit:10.43299961;stroke-dasharray:none;stroke-dashoffset:0;stroke-opacity:1"
           ns0:text="$1$"
           word-spacing="normal"
           letter-spacing="normal"
           font-size-adjust="none"
           font-stretch="normal"
           font-weight="normal"
           font-variant="normal"
           font-style="normal"
           stroke-miterlimit="10.433"
           xml:space="preserve"
           transform="matrix(2.1941542,0,0,-2.1941542,-72.339737,1699.9408)"
           id="g4491"><path
             id="path4493"
             d="m 226.36,713.48 0,0.01 0,0.01 0,0.02 0,0.01 0,0 0,0.01 0,0.01 0,0.01 0,0.01 0,0.01 0,0.01 0,0.01 0,0 -0.01,0.01 0,0.01 0,0 0,0.01 0,0.01 0,0.01 0,0.01 -0.01,0.01 0,0.01 0,0.01 -0.01,0 0,0.01 -0.01,0.01 0,0 -0.01,0.01 -0.01,0 -0.01,0.01 0,0 -0.01,0 0,0 -0.01,0 0,0 -0.01,0 -0.01,0.01 0,0 -0.01,0 -0.01,0 0,0 -0.01,0 -0.01,0 -0.01,0 0,0 -0.01,0 -0.01,0 -0.01,0 -0.01,0 -0.01,0 -0.01,0 -0.01,0 c -0.62,-0.64 -1.49,-0.64 -1.81,-0.64 l 0,-0.3 c 0.2,0 0.78,0 1.3,0.25 l 0,-5.14 c 0,-0.36 -0.03,-0.48 -0.92,-0.48 l -0.32,0 0,-0.31 c 0.35,0.04 1.21,0.04 1.61,0.04 0.4,0 1.26,0 1.61,-0.04 l 0,0.31 -0.32,0 c -0.89,0 -0.92,0.11 -0.92,0.48 z"
             inkscape:connector-curvature="0"
             style="fill:#4d4d4d;fill-opacity:1;stroke-width:0" /></g>        <g
           id="g7828"
           transform="matrix(2.1266914,0,0,-2.1266914,-193.19168,1651.794)"
           xml:space="preserve"
           stroke-miterlimit="10.433"
           font-style="normal"
           font-variant="normal"
           font-weight="normal"
           font-stretch="normal"
           font-size-adjust="none"
           letter-spacing="normal"
           word-spacing="normal"
           ns0:text="$0$"
           style="font-style:normal;font-variant:normal;font-weight:normal;font-stretch:normal;letter-spacing:normal;word-spacing:normal;text-anchor:start;fill:#4d4d4d;fill-opacity:1;fill-rule:evenodd;stroke:#000000;stroke-linecap:butt;stroke-linejoin:miter;stroke-miterlimit:10.43299961;stroke-dasharray:none;stroke-dashoffset:0;stroke-opacity:1"><path
             d="m 228.01,710.3 0,0.15 0,0.15 -0.01,0.15 0,0.15 -0.01,0.15 -0.02,0.14 -0.01,0.15 -0.02,0.15 -0.02,0.14 -0.03,0.15 -0.03,0.14 -0.04,0.15 -0.04,0.14 -0.05,0.14 -0.06,0.14 -0.03,0.07 -0.03,0.07 c -0.46,0.95 -1.27,1.11 -1.69,1.11 -0.6,0 -1.32,-0.26 -1.73,-1.18 -0.32,-0.69 -0.37,-1.46 -0.37,-2.26 0,-0.74 0.04,-1.64 0.45,-2.39 0.43,-0.81 1.15,-1 1.64,-1 l 0,0.21 c -0.39,0 -0.98,0.25 -1.15,1.21 -0.11,0.59 -0.11,1.51 -0.11,2.09 0,0.64 0,1.29 0.08,1.83 0.18,1.18 0.93,1.27 1.18,1.27 0.33,0 0.98,-0.18 1.17,-1.16 0.1,-0.56 0.1,-1.31 0.1,-1.94 0,-0.74 0,-1.42 -0.11,-2.05 -0.15,-0.95 -0.71,-1.25 -1.16,-1.25 l 0,0 0,-0.21 c 0.54,0 1.29,0.2 1.73,1.15 0.32,0.68 0.37,1.46 0.37,2.24 z"
             id="path7830"
             inkscape:connector-curvature="0"
             style="fill:#4d4d4d;fill-opacity:1;stroke-width:0" /></g>        <path
           sodipodi:nodetypes="cccc"
           inkscape:connector-curvature="0"
           id="path7853"
           d="m 274.09303,49.684007 -19.67585,0 0,110.989383 19.67585,0"
           style="fill:none;fill-rule:evenodd;stroke:#4d4d4d;stroke-width:2.00153613;stroke-linecap:butt;stroke-linejoin:round;stroke-miterlimit:4;stroke-dasharray:none;stroke-opacity:1" />
        <g
           style="font-style:normal;font-variant:normal;font-weight:normal;font-stretch:normal;letter-spacing:normal;word-spacing:normal;text-anchor:start;fill:#6b3c41;fill-opacity:1;fill-rule:evenodd;stroke:#000000;stroke-linecap:butt;stroke-linejoin:miter;stroke-miterlimit:10.43299961;stroke-dasharray:none;stroke-dashoffset:0;stroke-opacity:1"
           ns0:text="$\\begin{array}{cc}\nm_{11} &amp; m_{12}\\\\\nm_{21} &amp; m_{22}\n\\end{array}$"
           word-spacing="normal"
           letter-spacing="normal"
           font-size-adjust="none"
           font-stretch="normal"
           font-weight="normal"
           font-variant="normal"
           font-style="normal"
           stroke-miterlimit="10.433"
           xml:space="preserve"
           transform="matrix(2.780055,0,0,-2.780055,-368.61365,2047.1088)"
           id="g11520"><path
             id="path11522"
             d="m 229.29,709.3 0,-0.01 -0.01,-0.01 0,-0.02 0,-0.01 -0.01,-0.04 -0.01,-0.03 -0.01,-0.03 0,-0.03 -0.01,-0.03 -0.01,-0.04 0,-0.01 0,-0.02 -0.01,-0.01 0,-0.01 0,-0.02 -0.01,-0.01 0,-0.01 0,-0.02 0,-0.01 -0.01,-0.01 0,-0.01 0,-0.01 0,0 0,-0.01 0,-0.01 0,0 c 0,-0.18 0.14,-0.27 0.29,-0.27 0.12,0 0.3,0.08 0.37,0.28 0.01,0.02 0.13,0.49 0.18,0.73 l 0.22,0.9 c 0.06,0.22 0.12,0.43 0.17,0.66 0.04,0.17 0.12,0.46 0.13,0.5 0.15,0.31 0.68,1.21 1.62,1.21 0.45,0 0.54,-0.37 0.54,-0.69 0,-0.25 -0.07,-0.53 -0.15,-0.83 l -0.28,-1.15 -0.2,-0.76 c -0.04,-0.19 -0.13,-0.53 -0.13,-0.58 0,-0.18 0.14,-0.27 0.29,-0.27 0.31,0 0.37,0.25 0.45,0.57 0.14,0.55 0.51,2 0.6,2.39 0.03,0.13 0.55,1.32 1.64,1.32 0.43,0 0.54,-0.34 0.54,-0.69 0,-0.57 -0.42,-1.7 -0.62,-2.23 -0.09,-0.24 -0.13,-0.35 -0.13,-0.55 0,-0.46 0.35,-0.81 0.82,-0.81 0.93,0 1.3,1.45 1.3,1.53 0,0.1 -0.09,0.1 -0.12,0.1 -0.1,0 -0.1,-0.03 -0.15,-0.18 -0.15,-0.53 -0.47,-1.23 -1.01,-1.23 -0.17,0 -0.24,0.1 -0.24,0.33 0,0.24 0.09,0.48 0.18,0.7 0.19,0.52 0.6,1.62 0.6,2.19 0,0.64 -0.39,1.06 -1.14,1.06 -0.75,0 -1.25,-0.44 -1.62,-0.96 -0.01,0.13 -0.04,0.46 -0.32,0.7 -0.25,0.21 -0.57,0.26 -0.82,0.26 -0.89,0 -1.38,-0.64 -1.55,-0.87 -0.05,0.57 -0.47,0.87 -0.91,0.87 -0.46,0 -0.65,-0.39 -0.74,-0.57 -0.18,-0.34 -0.31,-0.93 -0.31,-0.96 0,-0.1 0.1,-0.1 0.12,-0.1 0.1,0 0.11,0.01 0.17,0.23 0.17,0.7 0.37,1.18 0.73,1.18 0.16,0 0.3,-0.08 0.3,-0.46 0,-0.2 -0.03,-0.31 -0.15,-0.83 z"
             inkscape:connector-curvature="0"
             style="fill:#6b3c41;fill-opacity:1;stroke-width:0" /><path
             id="path11524"
             d="m 239.49,711.65 0,0.01 0,0.01 0,0 0,0.01 0,0.01 0,0.01 0,0 0,0.01 0,0.01 0,0 0,0.01 0,0.01 0,0 0,0.01 0,0 0,0.01 0,0 0,0.01 -0.01,0.01 0,0 0,0.01 0,0.01 -0.01,0 0,0.01 -0.01,0.01 0,0 -0.01,0 -0.01,0.01 0,0 -0.01,0 -0.01,0 -0.01,0.01 0,0 -0.01,0 -0.01,0 0,0 -0.01,0 0,0 -0.01,0 -0.01,0 0,0 -0.01,0 -0.01,0 0,0 -0.01,0 -0.01,0 -0.01,0 -0.01,0 -0.01,0 0,0 c -0.45,-0.44 -1.08,-0.44 -1.37,-0.44 l 0,-0.25 c 0.17,0 0.63,0 1.01,0.19 l 0,-3.55 c 0,-0.22 0,-0.32 -0.7,-0.32 l -0.26,0 0,-0.25 c 0.12,0.01 0.98,0.03 1.24,0.03 0.21,0 1.09,-0.02 1.25,-0.03 l 0,0.25 -0.27,0 c -0.7,0 -0.7,0.1 -0.7,0.32 z"
             inkscape:connector-curvature="0"
             style="fill:#6b3c41;fill-opacity:1;stroke-width:0" /><path
             id="path11526"
             d="m 243.47,711.65 0,0.01 0,0.01 0,0 0,0.01 0,0.01 0,0.01 0,0 0,0.01 -0.01,0.01 0,0 0,0.01 0,0.01 0,0 0,0.01 0,0 0,0.01 0,0 0,0.01 0,0.01 -0.01,0 0,0.01 0,0.01 -0.01,0 0,0.01 -0.01,0.01 0,0 -0.01,0 0,0.01 -0.01,0 -0.01,0 -0.01,0 -0.01,0.01 0,0 -0.01,0 0,0 -0.01,0 -0.01,0 0,0 -0.01,0 0,0 -0.01,0 -0.01,0 -0.01,0 0,0 -0.01,0 -0.01,0 -0.01,0 -0.01,0 0,0 -0.01,0 c -0.45,-0.44 -1.08,-0.44 -1.37,-0.44 l 0,-0.25 c 0.17,0 0.63,0 1.01,0.19 l 0,-3.55 c 0,-0.22 0,-0.32 -0.69,-0.32 l -0.27,0 0,-0.25 c 0.13,0.01 0.98,0.03 1.24,0.03 0.22,0 1.09,-0.02 1.25,-0.03 l 0,0.25 -0.27,0 c -0.69,0 -0.69,0.1 -0.69,0.32 z"
             inkscape:connector-curvature="0"
             style="fill:#6b3c41;fill-opacity:1;stroke-width:0" /><path
             id="path11528"
             d="m 256.44,709.3 0,-0.01 -0.01,-0.01 0,-0.02 0,-0.01 -0.01,-0.04 -0.01,-0.03 0,-0.03 -0.01,-0.03 -0.01,-0.03 -0.01,-0.04 0,-0.01 0,-0.02 -0.01,-0.01 0,-0.01 0,-0.02 -0.01,-0.01 0,-0.01 0,-0.02 0,-0.01 0,-0.01 -0.01,-0.01 0,-0.01 0,0 0,-0.01 0,-0.01 0,0 c 0,-0.18 0.14,-0.27 0.29,-0.27 0.12,0 0.3,0.08 0.37,0.28 0.01,0.02 0.13,0.49 0.19,0.73 l 0.22,0.9 c 0.05,0.22 0.11,0.43 0.16,0.66 0.04,0.17 0.12,0.46 0.13,0.5 0.15,0.31 0.68,1.21 1.62,1.21 0.45,0 0.54,-0.37 0.54,-0.69 0,-0.25 -0.07,-0.53 -0.15,-0.83 l -0.28,-1.15 -0.2,-0.76 c -0.04,-0.19 -0.12,-0.53 -0.12,-0.58 0,-0.18 0.14,-0.27 0.28,-0.27 0.31,0 0.37,0.25 0.45,0.57 0.14,0.55 0.51,2 0.6,2.39 0.03,0.13 0.56,1.32 1.64,1.32 0.43,0 0.54,-0.34 0.54,-0.69 0,-0.57 -0.42,-1.7 -0.62,-2.23 -0.09,-0.24 -0.13,-0.35 -0.13,-0.55 0,-0.46 0.35,-0.81 0.82,-0.81 0.93,0 1.3,1.45 1.3,1.53 0,0.1 -0.09,0.1 -0.12,0.1 -0.1,0 -0.1,-0.03 -0.15,-0.18 -0.15,-0.53 -0.46,-1.23 -1.01,-1.23 -0.17,0 -0.24,0.1 -0.24,0.33 0,0.24 0.09,0.48 0.18,0.7 0.19,0.52 0.61,1.62 0.61,2.19 0,0.64 -0.4,1.06 -1.15,1.06 -0.75,0 -1.25,-0.44 -1.62,-0.96 -0.01,0.13 -0.04,0.46 -0.32,0.7 -0.25,0.21 -0.57,0.26 -0.82,0.26 -0.89,0 -1.38,-0.64 -1.55,-0.87 -0.05,0.57 -0.46,0.87 -0.91,0.87 -0.46,0 -0.65,-0.39 -0.74,-0.57 -0.18,-0.34 -0.31,-0.93 -0.31,-0.96 0,-0.1 0.1,-0.1 0.12,-0.1 0.1,0 0.11,0.01 0.17,0.23 0.17,0.7 0.37,1.18 0.73,1.18 0.16,0 0.31,-0.08 0.31,-0.46 0,-0.2 -0.03,-0.31 -0.16,-0.83 z"
             inkscape:connector-curvature="0"
             style="fill:#6b3c41;fill-opacity:1;stroke-width:0" /><path
             id="path11530"
             d="m 266.64,711.65 0,0.01 0,0.01 0,0 0,0.01 0,0.01 0,0.01 0,0 0,0.01 0,0.01 0,0 0,0.01 0,0.01 0,0 0,0.01 0,0 0,0.01 0,0 0,0.01 -0.01,0.01 0,0 0,0.01 0,0.01 -0.01,0 0,0.01 -0.01,0.01 0,0 -0.01,0 -0.01,0.01 0,0 -0.01,0 -0.01,0 -0.01,0.01 0,0 -0.01,0 -0.01,0 0,0 -0.01,0 0,0 -0.01,0 -0.01,0 0,0 -0.01,0 -0.01,0 0,0 -0.01,0 -0.01,0 -0.01,0 -0.01,0 -0.01,0 -0.01,0 c -0.44,-0.44 -1.07,-0.44 -1.36,-0.44 l 0,-0.25 c 0.17,0 0.63,0 1.01,0.19 l 0,-3.55 c 0,-0.22 0,-0.32 -0.7,-0.32 l -0.26,0 0,-0.25 c 0.12,0.01 0.98,0.03 1.24,0.03 0.21,0 1.09,-0.02 1.25,-0.03 l 0,0.25 -0.27,0 c -0.7,0 -0.7,0.1 -0.7,0.32 z"
             inkscape:connector-curvature="0"
             style="fill:#6b3c41;fill-opacity:1;stroke-width:0" /><path
             id="path11532"
             d="m 271.8,708.49 -0.24,0 c -0.02,-0.15 -0.09,-0.56 -0.18,-0.63 -0.05,-0.04 -0.59,-0.04 -0.69,-0.04 l -1.28,0 c 0.73,0.64 0.98,0.84 1.39,1.16 0.52,0.42 1,0.85 1,1.51 0,0.84 -0.74,1.35 -1.63,1.35 -0.86,0 -1.45,-0.6 -1.45,-1.24 0,-0.36 0.3,-0.39 0.37,-0.39 0.17,0 0.37,0.12 0.37,0.37 0,0.12 -0.05,0.37 -0.41,0.37 0.22,0.49 0.69,0.64 1.02,0.64 0.69,0 1.05,-0.54 1.05,-1.1 0,-0.61 -0.43,-1.09 -0.65,-1.34 l -1.68,-1.65 c -0.07,-0.07 -0.07,-0.08 -0.07,-0.28 l 2.87,0 z"
             inkscape:connector-curvature="0"
             style="fill:#6b3c41;fill-opacity:1;stroke-width:0" /><path
             id="path11534"
             d="m 229.29,697.35 0,-0.01 -0.01,-0.02 0,-0.01 0,-0.02 -0.01,-0.03 -0.01,-0.03 -0.01,-0.03 0,-0.04 -0.01,-0.03 -0.01,-0.03 0,-0.02 0,-0.01 -0.01,-0.02 0,-0.01 0,-0.01 -0.01,-0.02 0,-0.01 0,-0.01 0,-0.01 -0.01,-0.01 0,-0.01 0,-0.01 0,-0.01 0,-0.01 0,0 0,-0.01 c 0,-0.18 0.14,-0.26 0.29,-0.26 0.12,0 0.3,0.07 0.37,0.27 0.01,0.02 0.13,0.49 0.18,0.74 l 0.22,0.89 c 0.06,0.22 0.12,0.44 0.17,0.67 0.04,0.17 0.12,0.45 0.13,0.49 0.15,0.31 0.68,1.22 1.62,1.22 0.45,0 0.54,-0.37 0.54,-0.7 0,-0.25 -0.07,-0.53 -0.15,-0.82 l -0.28,-1.16 -0.2,-0.75 c -0.04,-0.2 -0.13,-0.54 -0.13,-0.59 0,-0.18 0.14,-0.26 0.29,-0.26 0.31,0 0.37,0.24 0.45,0.56 0.14,0.56 0.51,2.01 0.6,2.39 0.03,0.13 0.55,1.33 1.64,1.33 0.43,0 0.54,-0.34 0.54,-0.7 0,-0.57 -0.42,-1.7 -0.62,-2.22 -0.09,-0.24 -0.13,-0.35 -0.13,-0.55 0,-0.47 0.35,-0.81 0.82,-0.81 0.93,0 1.3,1.44 1.3,1.52 0,0.1 -0.09,0.1 -0.12,0.1 -0.1,0 -0.1,-0.03 -0.15,-0.18 -0.15,-0.52 -0.47,-1.23 -1.01,-1.23 -0.17,0 -0.24,0.1 -0.24,0.33 0,0.25 0.09,0.49 0.18,0.71 0.19,0.51 0.6,1.62 0.6,2.18 0,0.65 -0.39,1.07 -1.14,1.07 -0.75,0 -1.25,-0.44 -1.62,-0.97 -0.01,0.13 -0.04,0.47 -0.32,0.71 -0.25,0.2 -0.57,0.26 -0.82,0.26 -0.89,0 -1.38,-0.64 -1.55,-0.87 -0.05,0.57 -0.47,0.87 -0.91,0.87 -0.46,0 -0.65,-0.39 -0.74,-0.57 -0.18,-0.35 -0.31,-0.93 -0.31,-0.97 0,-0.09 0.1,-0.09 0.12,-0.09 0.1,0 0.11,0.01 0.17,0.22 0.17,0.71 0.37,1.19 0.73,1.19 0.16,0 0.3,-0.08 0.3,-0.46 0,-0.21 -0.03,-0.32 -0.15,-0.83 z"
             inkscape:connector-curvature="0"
             style="fill:#6b3c41;fill-opacity:1;stroke-width:0" /><path
             id="path11536"
             d="m 240.68,696.54 -0.24,0 c -0.02,-0.16 -0.09,-0.57 -0.18,-0.64 -0.06,-0.04 -0.59,-0.04 -0.69,-0.04 l -1.28,0 c 0.73,0.65 0.97,0.84 1.39,1.17 0.52,0.41 1,0.84 1,1.5 0,0.84 -0.74,1.36 -1.63,1.36 -0.87,0 -1.45,-0.61 -1.45,-1.25 0,-0.35 0.3,-0.39 0.37,-0.39 0.17,0 0.37,0.12 0.37,0.37 0,0.13 -0.05,0.37 -0.41,0.37 0.21,0.49 0.69,0.65 1.01,0.65 0.7,0 1.06,-0.55 1.06,-1.11 0,-0.6 -0.43,-1.08 -0.65,-1.33 l -1.68,-1.66 c -0.07,-0.06 -0.07,-0.07 -0.07,-0.27 l 2.87,0 z"
             inkscape:connector-curvature="0"
             style="fill:#6b3c41;fill-opacity:1;stroke-width:0" /><path
             id="path11538"
             d="m 243.47,699.69 0,0.01 0,0.01 0,0.01 0,0.01 0,0 0,0.01 0,0.01 0,0.01 -0.01,0 0,0.01 0,0 0,0.01 0,0.01 0,0 0,0.01 0,0 0,0.01 0,0 0,0.01 -0.01,0.01 0,0.01 0,0 -0.01,0.01 0,0.01 -0.01,0 0,0 -0.01,0.01 0,0 -0.01,0 -0.01,0.01 -0.01,0 -0.01,0 0,0 -0.01,0 0,0 -0.01,0 -0.01,0 0,0.01 -0.01,0 0,0 -0.01,0 -0.01,0 -0.01,0 0,0 -0.01,0 -0.01,0 -0.01,0 -0.01,0 0,0 -0.01,0 c -0.45,-0.44 -1.08,-0.45 -1.37,-0.45 l 0,-0.25 c 0.17,0 0.63,0 1.01,0.2 l 0,-3.55 c 0,-0.23 0,-0.32 -0.69,-0.32 l -0.27,0 0,-0.25 c 0.13,0.01 0.98,0.03 1.24,0.03 0.22,0 1.09,-0.02 1.25,-0.03 l 0,0.25 -0.27,0 c -0.69,0 -0.69,0.09 -0.69,0.32 z"
             inkscape:connector-curvature="0"
             style="fill:#6b3c41;fill-opacity:1;stroke-width:0" /><path
             id="path11540"
             d="m 256.44,697.35 0,-0.01 -0.01,-0.02 0,-0.01 0,-0.02 -0.01,-0.03 -0.01,-0.03 0,-0.03 -0.01,-0.04 -0.01,-0.03 -0.01,-0.03 0,-0.02 0,-0.01 -0.01,-0.02 0,-0.01 0,-0.01 -0.01,-0.02 0,-0.01 0,-0.01 0,-0.01 0,-0.01 -0.01,-0.01 0,-0.01 0,-0.01 0,-0.01 0,0 0,-0.01 c 0,-0.18 0.14,-0.26 0.29,-0.26 0.12,0 0.3,0.07 0.37,0.27 0.01,0.02 0.13,0.49 0.19,0.74 l 0.22,0.89 c 0.05,0.22 0.11,0.44 0.16,0.67 0.04,0.17 0.12,0.45 0.13,0.49 0.15,0.31 0.68,1.22 1.62,1.22 0.45,0 0.54,-0.37 0.54,-0.7 0,-0.25 -0.07,-0.53 -0.15,-0.82 l -0.28,-1.16 -0.2,-0.75 c -0.04,-0.2 -0.12,-0.54 -0.12,-0.59 0,-0.18 0.14,-0.26 0.28,-0.26 0.31,0 0.37,0.24 0.45,0.56 0.14,0.56 0.51,2.01 0.6,2.39 0.03,0.13 0.56,1.33 1.64,1.33 0.43,0 0.54,-0.34 0.54,-0.7 0,-0.57 -0.42,-1.7 -0.62,-2.22 -0.09,-0.24 -0.13,-0.35 -0.13,-0.55 0,-0.47 0.35,-0.81 0.82,-0.81 0.93,0 1.3,1.44 1.3,1.52 0,0.1 -0.09,0.1 -0.12,0.1 -0.1,0 -0.1,-0.03 -0.15,-0.18 -0.15,-0.52 -0.46,-1.23 -1.01,-1.23 -0.17,0 -0.24,0.1 -0.24,0.33 0,0.25 0.09,0.49 0.18,0.71 0.19,0.51 0.61,1.62 0.61,2.18 0,0.65 -0.4,1.07 -1.15,1.07 -0.75,0 -1.25,-0.44 -1.62,-0.97 -0.01,0.13 -0.04,0.47 -0.32,0.71 -0.25,0.2 -0.57,0.26 -0.82,0.26 -0.89,0 -1.38,-0.64 -1.55,-0.87 -0.05,0.57 -0.46,0.87 -0.91,0.87 -0.46,0 -0.65,-0.39 -0.74,-0.57 -0.18,-0.35 -0.31,-0.93 -0.31,-0.97 0,-0.09 0.1,-0.09 0.12,-0.09 0.1,0 0.11,0.01 0.17,0.22 0.17,0.71 0.37,1.19 0.73,1.19 0.16,0 0.31,-0.08 0.31,-0.46 0,-0.21 -0.03,-0.32 -0.16,-0.83 z"
             inkscape:connector-curvature="0"
             style="fill:#6b3c41;fill-opacity:1;stroke-width:0" /><path
             id="path11542"
             d="m 267.83,696.54 -0.24,0 c -0.02,-0.16 -0.09,-0.57 -0.18,-0.64 -0.06,-0.04 -0.59,-0.04 -0.69,-0.04 l -1.28,0 c 0.73,0.65 0.97,0.84 1.39,1.17 0.52,0.41 1,0.84 1,1.5 0,0.84 -0.74,1.36 -1.63,1.36 -0.87,0 -1.45,-0.61 -1.45,-1.25 0,-0.35 0.3,-0.39 0.37,-0.39 0.17,0 0.37,0.12 0.37,0.37 0,0.13 -0.05,0.37 -0.41,0.37 0.21,0.49 0.69,0.65 1.01,0.65 0.7,0 1.06,-0.55 1.06,-1.11 0,-0.6 -0.43,-1.08 -0.65,-1.33 l -1.68,-1.66 c -0.07,-0.06 -0.07,-0.07 -0.07,-0.27 l 2.87,0 z"
             inkscape:connector-curvature="0"
             style="fill:#6b3c41;fill-opacity:1;stroke-width:0" /><path
             id="path11544"
             d="m 271.8,696.54 -0.24,0 c -0.02,-0.16 -0.09,-0.57 -0.18,-0.64 -0.05,-0.04 -0.59,-0.04 -0.69,-0.04 l -1.28,0 c 0.73,0.65 0.98,0.84 1.39,1.17 0.52,0.41 1,0.84 1,1.5 0,0.84 -0.74,1.36 -1.63,1.36 -0.86,0 -1.45,-0.61 -1.45,-1.25 0,-0.35 0.3,-0.39 0.37,-0.39 0.17,0 0.37,0.12 0.37,0.37 0,0.13 -0.05,0.37 -0.41,0.37 0.22,0.49 0.69,0.65 1.02,0.65 0.69,0 1.05,-0.55 1.05,-1.11 0,-0.6 -0.43,-1.08 -0.65,-1.33 l -1.68,-1.66 c -0.07,-0.06 -0.07,-0.07 -0.07,-0.27 l 2.87,0 z"
             inkscape:connector-curvature="0"
             style="fill:#6b3c41;fill-opacity:1;stroke-width:0" /></g>        <g
           id="g11546"
           transform="matrix(2.1266914,0,0,-2.1266914,-57.980379,1584.0416)"
           xml:space="preserve"
           stroke-miterlimit="10.433"
           font-style="normal"
           font-variant="normal"
           font-weight="normal"
           font-stretch="normal"
           font-size-adjust="none"
           letter-spacing="normal"
           word-spacing="normal"
           ns0:text="$0$"
           style="font-style:normal;font-variant:normal;font-weight:normal;font-stretch:normal;letter-spacing:normal;word-spacing:normal;text-anchor:start;fill:#4d4d4d;fill-opacity:1;fill-rule:evenodd;stroke:#000000;stroke-linecap:butt;stroke-linejoin:miter;stroke-miterlimit:10.43299961;stroke-dasharray:none;stroke-dashoffset:0;stroke-opacity:1"><path
             d="m 228.01,710.3 0,0.15 0,0.15 -0.01,0.15 0,0.15 -0.01,0.15 -0.02,0.14 -0.01,0.15 -0.02,0.15 -0.02,0.14 -0.03,0.15 -0.03,0.14 -0.04,0.15 -0.04,0.14 -0.05,0.14 -0.06,0.14 -0.03,0.07 -0.03,0.07 c -0.46,0.95 -1.27,1.11 -1.69,1.11 -0.6,0 -1.32,-0.26 -1.73,-1.18 -0.32,-0.69 -0.37,-1.46 -0.37,-2.26 0,-0.74 0.04,-1.64 0.45,-2.39 0.43,-0.81 1.15,-1 1.64,-1 l 0,0.21 c -0.39,0 -0.98,0.25 -1.15,1.21 -0.11,0.59 -0.11,1.51 -0.11,2.09 0,0.64 0,1.29 0.08,1.83 0.18,1.18 0.93,1.27 1.18,1.27 0.33,0 0.98,-0.18 1.17,-1.16 0.1,-0.56 0.1,-1.31 0.1,-1.94 0,-0.74 0,-1.42 -0.11,-2.05 -0.15,-0.95 -0.71,-1.25 -1.16,-1.25 l 0,0 0,-0.21 c 0.54,0 1.29,0.2 1.73,1.15 0.32,0.68 0.37,1.46 0.37,2.24 z"
             id="path11548"
             inkscape:connector-curvature="0"
             style="fill:#4d4d4d;fill-opacity:1;stroke-width:0" /></g>        <g
           id="g11550"
           transform="matrix(2.1266914,0,0,-2.1266914,-57.980379,1617.7337)"
           xml:space="preserve"
           stroke-miterlimit="10.433"
           font-style="normal"
           font-variant="normal"
           font-weight="normal"
           font-stretch="normal"
           font-size-adjust="none"
           letter-spacing="normal"
           word-spacing="normal"
           ns0:text="$0$"
           style="font-style:normal;font-variant:normal;font-weight:normal;font-stretch:normal;letter-spacing:normal;word-spacing:normal;text-anchor:start;fill:#4d4d4d;fill-opacity:1;fill-rule:evenodd;stroke:#000000;stroke-linecap:butt;stroke-linejoin:miter;stroke-miterlimit:10.43299961;stroke-dasharray:none;stroke-dashoffset:0;stroke-opacity:1"><path
             d="m 228.01,710.3 0,0.15 0,0.15 -0.01,0.15 0,0.15 -0.01,0.15 -0.02,0.14 -0.01,0.15 -0.02,0.15 -0.02,0.14 -0.03,0.15 -0.03,0.14 -0.04,0.15 -0.04,0.14 -0.05,0.14 -0.06,0.14 -0.03,0.07 -0.03,0.07 c -0.46,0.95 -1.27,1.11 -1.69,1.11 -0.6,0 -1.32,-0.26 -1.73,-1.18 -0.32,-0.69 -0.37,-1.46 -0.37,-2.26 0,-0.74 0.04,-1.64 0.45,-2.39 0.43,-0.81 1.15,-1 1.64,-1 l 0,0.21 c -0.39,0 -0.98,0.25 -1.15,1.21 -0.11,0.59 -0.11,1.51 -0.11,2.09 0,0.64 0,1.29 0.08,1.83 0.18,1.18 0.93,1.27 1.18,1.27 0.33,0 0.98,-0.18 1.17,-1.16 0.1,-0.56 0.1,-1.31 0.1,-1.94 0,-0.74 0,-1.42 -0.11,-2.05 -0.15,-0.95 -0.71,-1.25 -1.16,-1.25 l 0,0 0,-0.21 c 0.54,0 1.29,0.2 1.73,1.15 0.32,0.68 0.37,1.46 0.37,2.24 z"
             id="path11552"
             inkscape:connector-curvature="0"
             style="fill:#4d4d4d;fill-opacity:1;stroke-width:0" /></g>        <path
           style="fill:none;fill-rule:evenodd;stroke:#4d4d4d;stroke-width:2.00153613;stroke-linecap:butt;stroke-linejoin:round;stroke-miterlimit:4;stroke-dasharray:none;stroke-opacity:1"
           d="m 422.61696,49.684007 19.67585,0 0,110.989383 -19.67585,0"
           id="path11775"
           inkscape:connector-curvature="0"
           sodipodi:nodetypes="cccc" />
      </g>
    </g>
    <g
       id="g4209"
       transform="translate(0,-0.43719501)">
      <text
         sodipodi:linespacing="125%"
         id="text11334"
         y="59.389416"
         x="-96.808136"
         style="font-style:normal;font-weight:normal;font-size:40.34812164px;line-height:125%;font-family:Sans;letter-spacing:0px;word-spacing:0px;fill:#000000;fill-opacity:1;stroke:none;stroke-width:1px;stroke-linecap:butt;stroke-linejoin:miter;stroke-opacity:1"
         xml:space="preserve"><tspan
           style="font-style:normal;font-variant:normal;font-weight:normal;font-stretch:normal;font-size:16.1392498px;font-family:sans-serif;-inkscape-font-specification:sans-serif;fill:#000000;fill-opacity:1"
           y="59.389416"
           x="-96.808136"
           id="tspan11336"
           sodipodi:role="line">Matrix2</tspan></text>
      <g
         transform="translate(0,2.5910079)"
         id="g11770">
        <rect
           y="62.321831"
           x="-94.691986"
           height="80.060776"
           width="145.92915"
           id="rect11270"
           style="opacity:1;fill:#ffe5d7;fill-opacity:1;fill-rule:evenodd;stroke:#000000;stroke-width:3.89119792;stroke-linecap:butt;stroke-linejoin:round;stroke-miterlimit:4;stroke-dasharray:none;stroke-dashoffset:0;stroke-opacity:0" />
        <path
           sodipodi:nodetypes="cccc"
           inkscape:connector-curvature="0"
           id="path11272"
           d="m 32.514253,63.223898 19.916236,0 0,78.653612 -19.916236,0"
           style="fill:none;fill-rule:evenodd;stroke:#4d4d4d;stroke-width:2;stroke-linecap:butt;stroke-linejoin:round;stroke-miterlimit:4;stroke-dasharray:none;stroke-opacity:1" />
        <path
           style="fill:none;fill-rule:evenodd;stroke:#4d4d4d;stroke-width:2;stroke-linecap:butt;stroke-linejoin:round;stroke-miterlimit:4;stroke-dasharray:none;stroke-opacity:1"
           d="m -75.781242,63.225608 -19.914179,0 0,78.902732 19.914179,0"
           id="path11332"
           inkscape:connector-curvature="0"
           sodipodi:nodetypes="cccc" />
        <g
           id="content"
           transform="matrix(2.780055,0,0,-2.780055,-717.62135,2062.1954)"
           xml:space="preserve"
           stroke-miterlimit="10.433"
           font-style="normal"
           font-variant="normal"
           font-weight="normal"
           font-stretch="normal"
           font-size-adjust="none"
           letter-spacing="normal"
           word-spacing="normal"
           ns0:text="$\\begin{array}{cc}\nm_{11} &amp; m_{12}\\\\\nm_{21} &amp; m_{22}\n\\end{array}$"
           style="font-style:normal;font-variant:normal;font-weight:normal;font-stretch:normal;letter-spacing:normal;word-spacing:normal;text-anchor:start;fill:#6b3c41;fill-opacity:1;fill-rule:evenodd;stroke:#000000;stroke-linecap:butt;stroke-linejoin:miter;stroke-miterlimit:10.43299961;stroke-dasharray:none;stroke-dashoffset:0;stroke-opacity:1"><path
             style="fill:#6b3c41;fill-opacity:1;stroke-width:0"
             inkscape:connector-curvature="0"
             d="m 229.29,709.3 0,-0.01 -0.01,-0.01 0,-0.02 0,-0.01 -0.01,-0.04 -0.01,-0.03 -0.01,-0.03 0,-0.03 -0.01,-0.03 -0.01,-0.04 0,-0.01 0,-0.02 -0.01,-0.01 0,-0.01 0,-0.02 -0.01,-0.01 0,-0.01 0,-0.02 0,-0.01 -0.01,-0.01 0,-0.01 0,-0.01 0,0 0,-0.01 0,-0.01 0,0 c 0,-0.18 0.14,-0.27 0.29,-0.27 0.12,0 0.3,0.08 0.37,0.28 0.01,0.02 0.13,0.49 0.18,0.73 l 0.22,0.9 c 0.06,0.22 0.12,0.43 0.17,0.66 0.04,0.17 0.12,0.46 0.13,0.5 0.15,0.31 0.68,1.21 1.62,1.21 0.45,0 0.54,-0.37 0.54,-0.69 0,-0.25 -0.07,-0.53 -0.15,-0.83 l -0.28,-1.15 -0.2,-0.76 c -0.04,-0.19 -0.13,-0.53 -0.13,-0.58 0,-0.18 0.14,-0.27 0.29,-0.27 0.31,0 0.37,0.25 0.45,0.57 0.14,0.55 0.51,2 0.6,2.39 0.03,0.13 0.55,1.32 1.64,1.32 0.43,0 0.54,-0.34 0.54,-0.69 0,-0.57 -0.42,-1.7 -0.62,-2.23 -0.09,-0.24 -0.13,-0.35 -0.13,-0.55 0,-0.46 0.35,-0.81 0.82,-0.81 0.93,0 1.3,1.45 1.3,1.53 0,0.1 -0.09,0.1 -0.12,0.1 -0.1,0 -0.1,-0.03 -0.15,-0.18 -0.15,-0.53 -0.47,-1.23 -1.01,-1.23 -0.17,0 -0.24,0.1 -0.24,0.33 0,0.24 0.09,0.48 0.18,0.7 0.19,0.52 0.6,1.62 0.6,2.19 0,0.64 -0.39,1.06 -1.14,1.06 -0.75,0 -1.25,-0.44 -1.62,-0.96 -0.01,0.13 -0.04,0.46 -0.32,0.7 -0.25,0.21 -0.57,0.26 -0.82,0.26 -0.89,0 -1.38,-0.64 -1.55,-0.87 -0.05,0.57 -0.47,0.87 -0.91,0.87 -0.46,0 -0.65,-0.39 -0.74,-0.57 -0.18,-0.34 -0.31,-0.93 -0.31,-0.96 0,-0.1 0.1,-0.1 0.12,-0.1 0.1,0 0.11,0.01 0.17,0.23 0.17,0.7 0.37,1.18 0.73,1.18 0.16,0 0.3,-0.08 0.3,-0.46 0,-0.2 -0.03,-0.31 -0.15,-0.83 z"
             id="path11419" /><path
             style="fill:#6b3c41;fill-opacity:1;stroke-width:0"
             inkscape:connector-curvature="0"
             d="m 239.49,711.65 0,0.01 0,0.01 0,0 0,0.01 0,0.01 0,0.01 0,0 0,0.01 0,0.01 0,0 0,0.01 0,0.01 0,0 0,0.01 0,0 0,0.01 0,0 0,0.01 -0.01,0.01 0,0 0,0.01 0,0.01 -0.01,0 0,0.01 -0.01,0.01 0,0 -0.01,0 -0.01,0.01 0,0 -0.01,0 -0.01,0 -0.01,0.01 0,0 -0.01,0 -0.01,0 0,0 -0.01,0 0,0 -0.01,0 -0.01,0 0,0 -0.01,0 -0.01,0 0,0 -0.01,0 -0.01,0 -0.01,0 -0.01,0 -0.01,0 0,0 c -0.45,-0.44 -1.08,-0.44 -1.37,-0.44 l 0,-0.25 c 0.17,0 0.63,0 1.01,0.19 l 0,-3.55 c 0,-0.22 0,-0.32 -0.7,-0.32 l -0.26,0 0,-0.25 c 0.12,0.01 0.98,0.03 1.24,0.03 0.21,0 1.09,-0.02 1.25,-0.03 l 0,0.25 -0.27,0 c -0.7,0 -0.7,0.1 -0.7,0.32 z"
             id="path11421" /><path
             style="fill:#6b3c41;fill-opacity:1;stroke-width:0"
             inkscape:connector-curvature="0"
             d="m 243.47,711.65 0,0.01 0,0.01 0,0 0,0.01 0,0.01 0,0.01 0,0 0,0.01 -0.01,0.01 0,0 0,0.01 0,0.01 0,0 0,0.01 0,0 0,0.01 0,0 0,0.01 0,0.01 -0.01,0 0,0.01 0,0.01 -0.01,0 0,0.01 -0.01,0.01 0,0 -0.01,0 0,0.01 -0.01,0 -0.01,0 -0.01,0 -0.01,0.01 0,0 -0.01,0 0,0 -0.01,0 -0.01,0 0,0 -0.01,0 0,0 -0.01,0 -0.01,0 -0.01,0 0,0 -0.01,0 -0.01,0 -0.01,0 -0.01,0 0,0 -0.01,0 c -0.45,-0.44 -1.08,-0.44 -1.37,-0.44 l 0,-0.25 c 0.17,0 0.63,0 1.01,0.19 l 0,-3.55 c 0,-0.22 0,-0.32 -0.69,-0.32 l -0.27,0 0,-0.25 c 0.13,0.01 0.98,0.03 1.24,0.03 0.22,0 1.09,-0.02 1.25,-0.03 l 0,0.25 -0.27,0 c -0.69,0 -0.69,0.1 -0.69,0.32 z"
             id="path11423" /><path
             style="fill:#6b3c41;fill-opacity:1;stroke-width:0"
             inkscape:connector-curvature="0"
             d="m 256.44,709.3 0,-0.01 -0.01,-0.01 0,-0.02 0,-0.01 -0.01,-0.04 -0.01,-0.03 0,-0.03 -0.01,-0.03 -0.01,-0.03 -0.01,-0.04 0,-0.01 0,-0.02 -0.01,-0.01 0,-0.01 0,-0.02 -0.01,-0.01 0,-0.01 0,-0.02 0,-0.01 0,-0.01 -0.01,-0.01 0,-0.01 0,0 0,-0.01 0,-0.01 0,0 c 0,-0.18 0.14,-0.27 0.29,-0.27 0.12,0 0.3,0.08 0.37,0.28 0.01,0.02 0.13,0.49 0.19,0.73 l 0.22,0.9 c 0.05,0.22 0.11,0.43 0.16,0.66 0.04,0.17 0.12,0.46 0.13,0.5 0.15,0.31 0.68,1.21 1.62,1.21 0.45,0 0.54,-0.37 0.54,-0.69 0,-0.25 -0.07,-0.53 -0.15,-0.83 l -0.28,-1.15 -0.2,-0.76 c -0.04,-0.19 -0.12,-0.53 -0.12,-0.58 0,-0.18 0.14,-0.27 0.28,-0.27 0.31,0 0.37,0.25 0.45,0.57 0.14,0.55 0.51,2 0.6,2.39 0.03,0.13 0.56,1.32 1.64,1.32 0.43,0 0.54,-0.34 0.54,-0.69 0,-0.57 -0.42,-1.7 -0.62,-2.23 -0.09,-0.24 -0.13,-0.35 -0.13,-0.55 0,-0.46 0.35,-0.81 0.82,-0.81 0.93,0 1.3,1.45 1.3,1.53 0,0.1 -0.09,0.1 -0.12,0.1 -0.1,0 -0.1,-0.03 -0.15,-0.18 -0.15,-0.53 -0.46,-1.23 -1.01,-1.23 -0.17,0 -0.24,0.1 -0.24,0.33 0,0.24 0.09,0.48 0.18,0.7 0.19,0.52 0.61,1.62 0.61,2.19 0,0.64 -0.4,1.06 -1.15,1.06 -0.75,0 -1.25,-0.44 -1.62,-0.96 -0.01,0.13 -0.04,0.46 -0.32,0.7 -0.25,0.21 -0.57,0.26 -0.82,0.26 -0.89,0 -1.38,-0.64 -1.55,-0.87 -0.05,0.57 -0.46,0.87 -0.91,0.87 -0.46,0 -0.65,-0.39 -0.74,-0.57 -0.18,-0.34 -0.31,-0.93 -0.31,-0.96 0,-0.1 0.1,-0.1 0.12,-0.1 0.1,0 0.11,0.01 0.17,0.23 0.17,0.7 0.37,1.18 0.73,1.18 0.16,0 0.31,-0.08 0.31,-0.46 0,-0.2 -0.03,-0.31 -0.16,-0.83 z"
             id="path11425" /><path
             style="fill:#6b3c41;fill-opacity:1;stroke-width:0"
             inkscape:connector-curvature="0"
             d="m 266.64,711.65 0,0.01 0,0.01 0,0 0,0.01 0,0.01 0,0.01 0,0 0,0.01 0,0.01 0,0 0,0.01 0,0.01 0,0 0,0.01 0,0 0,0.01 0,0 0,0.01 -0.01,0.01 0,0 0,0.01 0,0.01 -0.01,0 0,0.01 -0.01,0.01 0,0 -0.01,0 -0.01,0.01 0,0 -0.01,0 -0.01,0 -0.01,0.01 0,0 -0.01,0 -0.01,0 0,0 -0.01,0 0,0 -0.01,0 -0.01,0 0,0 -0.01,0 -0.01,0 0,0 -0.01,0 -0.01,0 -0.01,0 -0.01,0 -0.01,0 -0.01,0 c -0.44,-0.44 -1.07,-0.44 -1.36,-0.44 l 0,-0.25 c 0.17,0 0.63,0 1.01,0.19 l 0,-3.55 c 0,-0.22 0,-0.32 -0.7,-0.32 l -0.26,0 0,-0.25 c 0.12,0.01 0.98,0.03 1.24,0.03 0.21,0 1.09,-0.02 1.25,-0.03 l 0,0.25 -0.27,0 c -0.7,0 -0.7,0.1 -0.7,0.32 z"
             id="path11427" /><path
             style="fill:#6b3c41;fill-opacity:1;stroke-width:0"
             inkscape:connector-curvature="0"
             d="m 271.8,708.49 -0.24,0 c -0.02,-0.15 -0.09,-0.56 -0.18,-0.63 -0.05,-0.04 -0.59,-0.04 -0.69,-0.04 l -1.28,0 c 0.73,0.64 0.98,0.84 1.39,1.16 0.52,0.42 1,0.85 1,1.51 0,0.84 -0.74,1.35 -1.63,1.35 -0.86,0 -1.45,-0.6 -1.45,-1.24 0,-0.36 0.3,-0.39 0.37,-0.39 0.17,0 0.37,0.12 0.37,0.37 0,0.12 -0.05,0.37 -0.41,0.37 0.22,0.49 0.69,0.64 1.02,0.64 0.69,0 1.05,-0.54 1.05,-1.1 0,-0.61 -0.43,-1.09 -0.65,-1.34 l -1.68,-1.65 c -0.07,-0.07 -0.07,-0.08 -0.07,-0.28 l 2.87,0 z"
             id="path11429" /><path
             style="fill:#6b3c41;fill-opacity:1;stroke-width:0"
             inkscape:connector-curvature="0"
             d="m 229.29,697.35 0,-0.01 -0.01,-0.02 0,-0.01 0,-0.02 -0.01,-0.03 -0.01,-0.03 -0.01,-0.03 0,-0.04 -0.01,-0.03 -0.01,-0.03 0,-0.02 0,-0.01 -0.01,-0.02 0,-0.01 0,-0.01 -0.01,-0.02 0,-0.01 0,-0.01 0,-0.01 -0.01,-0.01 0,-0.01 0,-0.01 0,-0.01 0,-0.01 0,0 0,-0.01 c 0,-0.18 0.14,-0.26 0.29,-0.26 0.12,0 0.3,0.07 0.37,0.27 0.01,0.02 0.13,0.49 0.18,0.74 l 0.22,0.89 c 0.06,0.22 0.12,0.44 0.17,0.67 0.04,0.17 0.12,0.45 0.13,0.49 0.15,0.31 0.68,1.22 1.62,1.22 0.45,0 0.54,-0.37 0.54,-0.7 0,-0.25 -0.07,-0.53 -0.15,-0.82 l -0.28,-1.16 -0.2,-0.75 c -0.04,-0.2 -0.13,-0.54 -0.13,-0.59 0,-0.18 0.14,-0.26 0.29,-0.26 0.31,0 0.37,0.24 0.45,0.56 0.14,0.56 0.51,2.01 0.6,2.39 0.03,0.13 0.55,1.33 1.64,1.33 0.43,0 0.54,-0.34 0.54,-0.7 0,-0.57 -0.42,-1.7 -0.62,-2.22 -0.09,-0.24 -0.13,-0.35 -0.13,-0.55 0,-0.47 0.35,-0.81 0.82,-0.81 0.93,0 1.3,1.44 1.3,1.52 0,0.1 -0.09,0.1 -0.12,0.1 -0.1,0 -0.1,-0.03 -0.15,-0.18 -0.15,-0.52 -0.47,-1.23 -1.01,-1.23 -0.17,0 -0.24,0.1 -0.24,0.33 0,0.25 0.09,0.49 0.18,0.71 0.19,0.51 0.6,1.62 0.6,2.18 0,0.65 -0.39,1.07 -1.14,1.07 -0.75,0 -1.25,-0.44 -1.62,-0.97 -0.01,0.13 -0.04,0.47 -0.32,0.71 -0.25,0.2 -0.57,0.26 -0.82,0.26 -0.89,0 -1.38,-0.64 -1.55,-0.87 -0.05,0.57 -0.47,0.87 -0.91,0.87 -0.46,0 -0.65,-0.39 -0.74,-0.57 -0.18,-0.35 -0.31,-0.93 -0.31,-0.97 0,-0.09 0.1,-0.09 0.12,-0.09 0.1,0 0.11,0.01 0.17,0.22 0.17,0.71 0.37,1.19 0.73,1.19 0.16,0 0.3,-0.08 0.3,-0.46 0,-0.21 -0.03,-0.32 -0.15,-0.83 z"
             id="path11431" /><path
             style="fill:#6b3c41;fill-opacity:1;stroke-width:0"
             inkscape:connector-curvature="0"
             d="m 240.68,696.54 -0.24,0 c -0.02,-0.16 -0.09,-0.57 -0.18,-0.64 -0.06,-0.04 -0.59,-0.04 -0.69,-0.04 l -1.28,0 c 0.73,0.65 0.97,0.84 1.39,1.17 0.52,0.41 1,0.84 1,1.5 0,0.84 -0.74,1.36 -1.63,1.36 -0.87,0 -1.45,-0.61 -1.45,-1.25 0,-0.35 0.3,-0.39 0.37,-0.39 0.17,0 0.37,0.12 0.37,0.37 0,0.13 -0.05,0.37 -0.41,0.37 0.21,0.49 0.69,0.65 1.01,0.65 0.7,0 1.06,-0.55 1.06,-1.11 0,-0.6 -0.43,-1.08 -0.65,-1.33 l -1.68,-1.66 c -0.07,-0.06 -0.07,-0.07 -0.07,-0.27 l 2.87,0 z"
             id="path11433" /><path
             style="fill:#6b3c41;fill-opacity:1;stroke-width:0"
             inkscape:connector-curvature="0"
             d="m 243.47,699.69 0,0.01 0,0.01 0,0.01 0,0.01 0,0 0,0.01 0,0.01 0,0.01 -0.01,0 0,0.01 0,0 0,0.01 0,0.01 0,0 0,0.01 0,0 0,0.01 0,0 0,0.01 -0.01,0.01 0,0.01 0,0 -0.01,0.01 0,0.01 -0.01,0 0,0 -0.01,0.01 0,0 -0.01,0 -0.01,0.01 -0.01,0 -0.01,0 0,0 -0.01,0 0,0 -0.01,0 -0.01,0 0,0.01 -0.01,0 0,0 -0.01,0 -0.01,0 -0.01,0 0,0 -0.01,0 -0.01,0 -0.01,0 -0.01,0 0,0 -0.01,0 c -0.45,-0.44 -1.08,-0.45 -1.37,-0.45 l 0,-0.25 c 0.17,0 0.63,0 1.01,0.2 l 0,-3.55 c 0,-0.23 0,-0.32 -0.69,-0.32 l -0.27,0 0,-0.25 c 0.13,0.01 0.98,0.03 1.24,0.03 0.22,0 1.09,-0.02 1.25,-0.03 l 0,0.25 -0.27,0 c -0.69,0 -0.69,0.09 -0.69,0.32 z"
             id="path11435" /><path
             style="fill:#6b3c41;fill-opacity:1;stroke-width:0"
             inkscape:connector-curvature="0"
             d="m 256.44,697.35 0,-0.01 -0.01,-0.02 0,-0.01 0,-0.02 -0.01,-0.03 -0.01,-0.03 0,-0.03 -0.01,-0.04 -0.01,-0.03 -0.01,-0.03 0,-0.02 0,-0.01 -0.01,-0.02 0,-0.01 0,-0.01 -0.01,-0.02 0,-0.01 0,-0.01 0,-0.01 0,-0.01 -0.01,-0.01 0,-0.01 0,-0.01 0,-0.01 0,0 0,-0.01 c 0,-0.18 0.14,-0.26 0.29,-0.26 0.12,0 0.3,0.07 0.37,0.27 0.01,0.02 0.13,0.49 0.19,0.74 l 0.22,0.89 c 0.05,0.22 0.11,0.44 0.16,0.67 0.04,0.17 0.12,0.45 0.13,0.49 0.15,0.31 0.68,1.22 1.62,1.22 0.45,0 0.54,-0.37 0.54,-0.7 0,-0.25 -0.07,-0.53 -0.15,-0.82 l -0.28,-1.16 -0.2,-0.75 c -0.04,-0.2 -0.12,-0.54 -0.12,-0.59 0,-0.18 0.14,-0.26 0.28,-0.26 0.31,0 0.37,0.24 0.45,0.56 0.14,0.56 0.51,2.01 0.6,2.39 0.03,0.13 0.56,1.33 1.64,1.33 0.43,0 0.54,-0.34 0.54,-0.7 0,-0.57 -0.42,-1.7 -0.62,-2.22 -0.09,-0.24 -0.13,-0.35 -0.13,-0.55 0,-0.47 0.35,-0.81 0.82,-0.81 0.93,0 1.3,1.44 1.3,1.52 0,0.1 -0.09,0.1 -0.12,0.1 -0.1,0 -0.1,-0.03 -0.15,-0.18 -0.15,-0.52 -0.46,-1.23 -1.01,-1.23 -0.17,0 -0.24,0.1 -0.24,0.33 0,0.25 0.09,0.49 0.18,0.71 0.19,0.51 0.61,1.62 0.61,2.18 0,0.65 -0.4,1.07 -1.15,1.07 -0.75,0 -1.25,-0.44 -1.62,-0.97 -0.01,0.13 -0.04,0.47 -0.32,0.71 -0.25,0.2 -0.57,0.26 -0.82,0.26 -0.89,0 -1.38,-0.64 -1.55,-0.87 -0.05,0.57 -0.46,0.87 -0.91,0.87 -0.46,0 -0.65,-0.39 -0.74,-0.57 -0.18,-0.35 -0.31,-0.93 -0.31,-0.97 0,-0.09 0.1,-0.09 0.12,-0.09 0.1,0 0.11,0.01 0.17,0.22 0.17,0.71 0.37,1.19 0.73,1.19 0.16,0 0.31,-0.08 0.31,-0.46 0,-0.21 -0.03,-0.32 -0.16,-0.83 z"
             id="path11437" /><path
             style="fill:#6b3c41;fill-opacity:1;stroke-width:0"
             inkscape:connector-curvature="0"
             d="m 267.83,696.54 -0.24,0 c -0.02,-0.16 -0.09,-0.57 -0.18,-0.64 -0.06,-0.04 -0.59,-0.04 -0.69,-0.04 l -1.28,0 c 0.73,0.65 0.97,0.84 1.39,1.17 0.52,0.41 1,0.84 1,1.5 0,0.84 -0.74,1.36 -1.63,1.36 -0.87,0 -1.45,-0.61 -1.45,-1.25 0,-0.35 0.3,-0.39 0.37,-0.39 0.17,0 0.37,0.12 0.37,0.37 0,0.13 -0.05,0.37 -0.41,0.37 0.21,0.49 0.69,0.65 1.01,0.65 0.7,0 1.06,-0.55 1.06,-1.11 0,-0.6 -0.43,-1.08 -0.65,-1.33 l -1.68,-1.66 c -0.07,-0.06 -0.07,-0.07 -0.07,-0.27 l 2.87,0 z"
             id="path11439" /><path
             style="fill:#6b3c41;fill-opacity:1;stroke-width:0"
             inkscape:connector-curvature="0"
             d="m 271.8,696.54 -0.24,0 c -0.02,-0.16 -0.09,-0.57 -0.18,-0.64 -0.05,-0.04 -0.59,-0.04 -0.69,-0.04 l -1.28,0 c 0.73,0.65 0.98,0.84 1.39,1.17 0.52,0.41 1,0.84 1,1.5 0,0.84 -0.74,1.36 -1.63,1.36 -0.86,0 -1.45,-0.61 -1.45,-1.25 0,-0.35 0.3,-0.39 0.37,-0.39 0.17,0 0.37,0.12 0.37,0.37 0,0.13 -0.05,0.37 -0.41,0.37 0.22,0.49 0.69,0.65 1.02,0.65 0.69,0 1.05,-0.55 1.05,-1.11 0,-0.6 -0.43,-1.08 -0.65,-1.33 l -1.68,-1.66 c -0.07,-0.06 -0.07,-0.07 -0.07,-0.27 l 2.87,0 z"
             id="path11441" /></g>      </g>
      <g
         id="g11632"
         transform="matrix(1.6139248,0,0,-1.6139248,-392.62743,1200.1054)"
         xml:space="preserve"
         stroke-miterlimit="10.433"
         font-style="normal"
         font-variant="normal"
         font-weight="normal"
         font-stretch="normal"
         font-size-adjust="none"
         letter-spacing="normal"
         word-spacing="normal"
         ns0:text="$(\\mathbb{R}^{2 \\times 2})$"
         style="font-style:normal;font-variant:normal;font-weight:normal;font-stretch:normal;letter-spacing:normal;word-spacing:normal;text-anchor:start;fill:#808080;fill-opacity:0.60784314;fill-rule:evenodd;stroke:#000000;stroke-linecap:butt;stroke-linejoin:miter;stroke-miterlimit:10.43299961;stroke-dasharray:none;stroke-dashoffset:0;stroke-opacity:1"><path
           inkscape:connector-curvature="0"
           style="fill:#808080;fill-opacity:0.60784314;stroke-width:0"
           d="m 226.73,704.74 -0.01,0.01 0,0 0,0 0,0.01 0,0 0,0 0,0.01 0,0 0,0 0,0.01 -0.01,0 0,0.01 0,0 -0.01,0.01 0,0 -0.01,0.01 0,0.01 -0.01,0 0,0.01 0,0 -0.01,0.01 0,0 0,0 -0.01,0.01 0,0 -0.01,0.01 0,0 -0.01,0.01 0,0 -0.01,0.01 0,0 -0.01,0.01 0,0.01 -0.01,0 0,0.01 -0.01,0.01 -0.01,0 0,0.01 -0.01,0.01 -0.01,0 -0.01,0.01 0,0.01 c -1.25,1.25 -1.57,3.13 -1.57,4.65 0,1.73 0.38,3.46 1.61,4.7 0.13,0.12 0.13,0.14 0.13,0.17 0,0.07 -0.05,0.1 -0.1,0.1 -0.1,0 -1,-0.68 -1.59,-1.94 -0.5,-1.09 -0.62,-2.2 -0.62,-3.03 0,-0.78 0.11,-1.98 0.65,-3.1 0.6,-1.22 1.46,-1.87 1.56,-1.87 0.05,0 0.1,0.03 0.1,0.1 z"
           id="path11634" /><path
           inkscape:connector-curvature="0"
           style="fill:#808080;fill-opacity:0.60784314;stroke-width:0"
           d="m 229.97,710.24 0,0.35 0,2.46 c 0,0.2 0,0.53 0.62,0.53 0.84,0 1.26,-0.35 1.26,-1.52 0,-1.28 -0.31,-1.47 -1.88,-1.47 l 0,-0.35 0.36,0 1.49,-2.3 c 0.1,-0.16 0.34,-0.55 0.45,-0.7 l 0.26,0.23 -1.79,2.77 c 0.07,0.01 0.11,0.02 0.19,0.02 0.15,0 0.37,0.02 0.52,0.04 0.14,-0.23 1.22,-2 2.04,-2.83 l -0.96,0 -0.26,-0.23 c 0.07,-0.12 0.1,-0.12 0.33,-0.12 l 1.37,0 c 0.18,0 0.33,0 0.33,0.18 0,0.08 -0.06,0.15 -0.15,0.17 -0.37,0.08 -0.86,0.74 -1.09,1.06 -0.07,0.09 -0.57,0.75 -1.24,1.82 0.89,0.16 1.74,0.54 1.74,1.72 l -0.34,0 c 0,-0.64 -0.3,-1.15 -1.33,-1.34 l 0,0 c 0.28,0.37 0.31,0.89 0.31,1.33 0,0.48 -0.06,1.01 -0.38,1.41 0.41,-0.09 1.4,-0.39 1.4,-1.4 l 0.34,0 c 0,1.38 -1.46,1.86 -2.63,1.86 l -3.13,0 c -0.18,0 -0.34,0 -0.34,-0.18 0,-0.17 0.19,-0.17 0.27,-0.17 0.57,0 0.62,-0.07 0.62,-0.56 l 0.35,0.02 c 0,0.1 0,0.36 -0.08,0.54 l 1.13,0 c -0.13,-0.16 -0.13,-0.36 -0.13,-0.5 l 0,-5.06 c 0,-0.1 0,-0.37 0.08,-0.55 l -1.08,0 c 0.08,0.18 0.08,0.46 0.08,0.55 l 0,5.02 -0.35,-0.02 0,-4.98 c 0,-0.5 -0.05,-0.57 -0.62,-0.57 -0.08,0 -0.27,0 -0.27,-0.17 0,-0.18 0.16,-0.18 0.34,-0.18 l 2.73,0 c 0.18,0 0.33,0 0.33,0.18 0,0.17 -0.17,0.17 -0.28,0.17 -0.57,0 -0.61,0.08 -0.61,0.57 z"
           id="path11636" /><path
           inkscape:connector-curvature="0"
           style="fill:#808080;fill-opacity:0.60784314;stroke-width:0"
           d="m 238.02,712.01 -0.24,0 c -0.02,-0.16 -0.09,-0.57 -0.18,-0.64 -0.06,-0.04 -0.59,-0.04 -0.69,-0.04 l -1.28,0 c 0.73,0.65 0.97,0.84 1.39,1.17 0.52,0.41 1,0.84 1,1.5 0,0.84 -0.74,1.36 -1.63,1.36 -0.86,0 -1.45,-0.61 -1.45,-1.25 0,-0.35 0.3,-0.39 0.37,-0.39 0.17,0 0.37,0.12 0.37,0.37 0,0.13 -0.05,0.37 -0.41,0.37 0.21,0.49 0.69,0.65 1.02,0.65 0.69,0 1.05,-0.54 1.05,-1.11 0,-0.6 -0.43,-1.08 -0.65,-1.33 l -1.68,-1.66 c -0.07,-0.06 -0.07,-0.08 -0.07,-0.27 l 2.87,0 z"
           id="path11638" /><path
           inkscape:connector-curvature="0"
           style="fill:#808080;fill-opacity:0.60784314;stroke-width:0"
           d="m 243.35,714 0.01,0.01 0,0.01 0.01,0 0,0.01 0.01,0 0.01,0.01 0,0.01 0.01,0 0,0.01 0,0 0.01,0.01 0,0 0.01,0.01 0,0.01 0,0 0.01,0.01 0,0 0,0 0,0.01 0.01,0 0,0.01 0,0 0,0.01 0,0 0,0.01 0,0 0,0.01 0,0 0.01,0 0,0.01 0,0.01 c 0,0.11 -0.1,0.17 -0.17,0.17 -0.07,0 -0.09,-0.02 -0.18,-0.1 l -1.52,-1.52 -1.53,1.52 c -0.07,0.07 -0.1,0.1 -0.16,0.1 -0.1,0 -0.18,-0.07 -0.18,-0.17 0,-0.06 0.02,-0.08 0.11,-0.17 l 1.52,-1.52 -1.52,-1.51 c -0.1,-0.1 -0.11,-0.13 -0.11,-0.17 0,-0.1 0.08,-0.18 0.18,-0.18 0.06,0 0.08,0.02 0.16,0.1 l 1.53,1.52 1.59,-1.58 c 0.03,-0.02 0.07,-0.04 0.11,-0.04 0.07,0 0.17,0.06 0.17,0.18 0,0.05 -0.02,0.06 -0.04,0.09 -0.01,0.02 -1.36,1.37 -1.59,1.59 z"
           id="path11640" /><path
           inkscape:connector-curvature="0"
           style="fill:#808080;fill-opacity:0.60784314;stroke-width:0"
           d="m 248.22,712.01 -0.24,0 c -0.02,-0.16 -0.09,-0.57 -0.18,-0.64 -0.06,-0.04 -0.59,-0.04 -0.69,-0.04 l -1.28,0 c 0.73,0.65 0.97,0.84 1.39,1.17 0.52,0.41 1,0.84 1,1.5 0,0.84 -0.74,1.36 -1.63,1.36 -0.87,0 -1.45,-0.61 -1.45,-1.25 0,-0.35 0.3,-0.39 0.37,-0.39 0.17,0 0.37,0.12 0.37,0.37 0,0.13 -0.05,0.37 -0.41,0.37 0.21,0.49 0.69,0.65 1.01,0.65 0.7,0 1.06,-0.54 1.06,-1.11 0,-0.6 -0.43,-1.08 -0.65,-1.33 l -1.68,-1.66 c -0.07,-0.06 -0.07,-0.08 -0.07,-0.27 l 2.87,0 z"
           id="path11642" /><path
           inkscape:connector-curvature="0"
           style="fill:#808080;fill-opacity:0.60784314;stroke-width:0"
           d="m 252.04,709.61 0,0.07 0,0.08 0,0.08 0,0.08 -0.01,0.17 -0.01,0.17 -0.02,0.18 -0.02,0.19 -0.03,0.2 -0.03,0.2 -0.04,0.2 -0.04,0.21 -0.06,0.21 -0.06,0.21 -0.07,0.21 -0.08,0.21 -0.04,0.11 -0.04,0.11 -0.05,0.1 -0.05,0.11 c -0.6,1.22 -1.46,1.87 -1.55,1.87 -0.06,0 -0.1,-0.04 -0.1,-0.1 0,-0.03 0,-0.05 0.19,-0.23 0.97,-0.99 1.54,-2.57 1.54,-4.64 0,-1.7 -0.37,-3.45 -1.6,-4.7 -0.13,-0.12 -0.13,-0.14 -0.13,-0.17 0,-0.06 0.04,-0.1 0.1,-0.1 0.09,0 0.99,0.68 1.58,1.94 0.51,1.09 0.62,2.19 0.62,3.03 z"
           id="path11644" /></g>    </g>
  </g>
</svg>
